<svg xmlns="http://www.w3.org/2000/svg" width="491.688" height="379.624" viewBox="0 0 491.688 379.624"><g transform="translate(-54 -30)"><path d="M275.348,412.85c2.5-1.706,7.623-7.813,10.3-9.225,5.964-3.138,32.533-9.308,33.4-9.672,1.316-.555,9.863-2.495,14.843-3.72,11.694-2.878,53.6-21.467,64.646-26.233,1.41,3.71,13.051,20.09,11.054,21.769-6.575,5.527-18.359,12.408-25.976,16.369a129.536,129.536,0,0,1-19.271,8.018c-7.478,2.457-12.611,5.092-20.063,7.606-7.333,2.473,1.43,10.209,5.2,11.807,4.224,1.793,10.766,2.7,15.081,4.257-7.6,11.809-13.979,26.142-15.256,40.288-.307,3.4-2.9,6.526-7.124,5.507-2.178-.526-22.277-3.2-25.554-3.95-21.878-4.99-61.154-31.118-51.04-57.909C267.9,418.832,273.194,414.318,275.348,412.85Z" transform="translate(-97.378 -154.912)" fill="#12c97a" fill-rule="evenodd"/><g transform="translate(54 30)"><path d="M151.051,85.791c1.634-.138,5.86-3.4,3.643-5.054-2.237-1.666-3.845,3.917-3.643,5.054M65.911,98.312c.427-.075.241-2.413-.432-2.712-2.123-.942-2.3,2.6-2.354,3.548-.065,1.2-.214,4.566,2.367,3.642,1.466-.524.556-3.581.419-4.478m125.338,10.922c-.058,2.087,4.158,6.1,5.73,3.693,1.322-2.022-5.622-7.847-5.73-3.693M42.187,62.168c1.222,3.116,7.263-1.131,7.487-3.416.461-4.681-7.55.3-7.487,3.416M92.589,75.6c2.813-.231,6.515-3.808,9.228-5.144,1.836-.9,6.831-1.982,7.375-4.035.473-1.784-8,2.034-8.727,2.373-3.325,1.558-6.323,3.334-7.876,6.806m211.2-24.665a12.414,12.414,0,0,1,7.843-2.779c1.436.037,4.43.935,4.542-1.548.183-4.037-12.494.886-14.475,1.678l2.09,2.649M163.9,208.25c-1.645-2.732-4.6-4.311-6.829-6.642.815,3.827-1.023,7.23-2.286,10.724l9.115-4.082m285.686,58.238c.907-3.034,1.815-6.051,2.875-9.039,1.186-3.346,1.775-3.635-1.064-5.974l-7.069,13.361a20.687,20.687,0,0,0,5.257,1.653M205.726,46.844c-3.12-3.516-17.741-3.737-15.931,4.024.631,2.71,4.226-.169,6.478-.8,2.235-.627,8.563-.711,9.454-3.223m-.536,49.786c-.378-.9-1.133-4.136-2.254-4.392-1.092-.249-5.4,3.149-6.209,3.667-4.039,2.588-7.976,5.372-11.912,8.116,1.507,0,2.875-.537,4.374-.548,1.78-.015,3.057.716,4.793.3,3.729-.9,8.057-5.027,11.209-7.142m4.041-80.238c.35-1.608,18.63,3.22,20.827,4.1,1.2.481,7.372,3.691,6.045-1.147-.755-2.756-7.892-4.856-10.178-5.611-5.814-1.919-11.943-3.284-18.134-2.967-1.2.061-10.306.586-6.5,4.246,1.31,1.26,6.005.863,7.945,1.376m4,220.988a107.136,107.136,0,0,0,10.443,4.268c1.582.582,4.045,2.106,5.789,1.723,1.429-.314,1.887-2.49,2.637-3.947A61.8,61.8,0,0,1,242.187,225.4c-1.887-1.376-11.465,4.694-13.834,5.59s-4.611,1.8-6.933,2.872c-2.186,1.009-6.5,1.911-8.187,3.514m60.3-45.422c4.963-2.246,9.668-6.229,13.739-9.795a65.266,65.266,0,0,0,12.286-13.685c-2.059.105-6.605,6.728-6.656-.482-.026-3.679,5.015-7.3,6.579-10.713-3.892-2.2-7.459,10.932-11.925,7.75-4.3-3.067,2.486-13.61,3.794-16.936-2.523-1.679-16.9,17.113-18.981,19.517-1.3,1.505-4.379,3.509-5.114,5.264a14.84,14.84,0,0,0-.288,5.323c.44,2.01,2.67,4.418,3.663,6.29a28.526,28.526,0,0,1,2.9,7.467m205.2,67.749c-4.292-6.059.141-8.7,3.632-13.729a65.13,65.13,0,0,0,7.129-12.948c4.425-11.235,8.418-21.68,10.6-33.565-3.008,1.373-4.888,6.6-6.393,9.352-2.023,3.7-3.8,7.587-6.052,11.173-4.208,6.711-8.34,13.87-13.692,19.688-2.425,2.636-4.479,5.6-7.277,7.977-1.278,1.085-3.724,1.976-4.666,3.333-.889,1.281.105,2.1-.232,3.63-.346,1.57-1.935,3.244-2.616,4.755-.9,1.986-1.729,3.976-2.727,5.918a13.937,13.937,0,0,0-1.681,5.294c-.321,2.263.664,2.5-1.312,4.582l10.741,4.736,3.625,1.6.764-1.432c.984-.956,1.889-3.313,2.452-4.575,2.352-5.268,5.009-10.556,7.7-15.788M132.975,234.273c-10.167,26.766,25.559,49.3,47.551,54.287,3.046.69,6.019,1.594,9.051,2.335,3.306.808,6.242.648,9.542.986,2.626.268,3.877,2.3,6.351,2.856,4.134.934,3.881-2.173,4.177-5.5,1.255-14.115,8.459-27.734,16.083-39.512-3.483-1.246-6.934-2.606-10.372-3.97-2.942-1.168-7.447-4.45-10.61-4.624-2.339-.128-5.9,1.87-8.175,2.746a99.458,99.458,0,0,1-11.521,3.7c-6.9,1.741-14.569,4.114-21.7,4.294-2.057.052-7.7,1.01-9.18-.261-2.823-2.424,1.1-4.445,3.458-5.31,14.083-5.157,29.036-7.349,43.159-12.637,7.267-2.722,14.46-5.76,21.773-8.441,6.3-2.311,12.907-4.356,19-7.2a118.078,118.078,0,0,0,23.092-13.934c1.395-1.1,4.316-2.739,5.272-4.336.842-1.406.736,0,.562-1.708-.125-1.224-1.624-2.884-2.24-4.04a118.085,118.085,0,0,1-6.115-13.306c-11.113,4.767-21.686,11.255-32.636,16.349-11.021,5.127-23.452,8.745-35.242,11.629-5.018,1.228-10.787,1.616-15.389,4.043a32.349,32.349,0,0,1-5.983,2.819q-.928,1.78-1.827.7a1.608,1.608,0,0,0-1.458-.535,20.466,20.466,0,0,0-3.786,1.287,175.572,175.572,0,0,0-17.627,8.3c-2.729,1.423-5.527,2.824-8.139,4.449a18.748,18.748,0,0,0-3.8,2.946c-1.373,1.434-1.046,2.613-3.268,1.593M361.747,75.351c2.569.042,4.911-1.35,7.59-1.273,4.213.122,7.548,3.388,9.993,6.538,4.839,6.233,3.605,13.752,1.174,20.727a40.3,40.3,0,0,1-4.755,9.451c-1.766,2.583-4.923,5.027-6.156,7.9-2.033,4.744,2.069,2.727,4.58,1.713a34.88,34.88,0,0,0,8.8-4.994C394.915,105.9,404,92.682,407.046,77.5c1.485-7.409,1.37-16.071-3.791-22.118-4.718-5.53-12.864-7.336-19.827-6.311a50.08,50.08,0,0,0-20.477,8.4c-1.78,1.192-3.41,2.494-5.082,3.827-2.193,1.75-3.507,1.8-2.958,4.538a44.457,44.457,0,0,0,2.233,6.107c1.339,3.664.851,4.612,4.6,3.411m8.191,63.164-.52.888c3.584.171,6.922-2.99,9.975-4.534a65.4,65.4,0,0,0,10.965-7.505c6.13-4.874,12.34-10.365,16.9-16.763,10.229-14.342,19.52-32.525,16.729-50.708-3.008-19.6-20.149-27.141-38.414-24.547C377.345,36.515,370,40.19,362.63,43.921A87.231,87.231,0,0,0,352.382,50.6c-1.765,1.226-3.376,1.385-3.491,3.529-.087,1.616,2.706,5.269,3.461,6.733,9.249-9.435,19.216-17.24,33.183-17.723,16.617-.574,26.443,15.182,26.37,30.269-.071,14.8-6.453,29.029-16.626,39.662a73.053,73.053,0,0,1-14.708,12.237c-2.83,1.758-4.917,3.337-8.082,4.5-2.238.826-2,.391-2.576,2.463-.485,1.758.01,4.411.025,6.237m-90.29,201.024a54.569,54.569,0,0,1-1.361,7.892c-.217.934-1.436,3.882-1.223,4.932.353,1.735-.117.62,1.4,1.525,1.586.945,3.433.888,5.17,1.175,1.072.177,5,2.026,5.66,1.734,1.155-.51,1.118-2.31,2.385-3.023,1.726-.972,4.271-.139,5.9.621,4.354,2.031,7.346,6.235,11.559,8.537,7.482,4.086,16.36,6.348,24.707,7.282,4.522.506,9.149,1.393,13.615.334,3.518-.835,8.092-.758,10-4.534-17-4.675-42.942-10.395-49.663-29.9-3.653,3.312-9.759,1.529-14.174,1.071-4.857-.5-9.2-.386-13.64-2.6a20.266,20.266,0,0,0-.343,4.955m-150.5-120.814a24.2,24.2,0,0,0,20.512-9.692,21.112,21.112,0,0,0,3.183-5.044q.237-.708.473-1.418,1.146-1.957-1-1.847c-.807-1.107-2.853-1.479-2.271-3.484.438-1.513,2.056-1.538,3.462-2.014a13,13,0,0,0-2.121-2.813c-2.6,2.343-7.331,6.941-9.161,1.559-.879-2.584.668-5.054.285-7.546a10.86,10.86,0,0,0-2.222-4.281c-4.034-3.284-9.844-1.925-14.123.008-2.95,1.332-3.584,1.958-4.065,5.012-.489,3.106-.942,6.21-1.484,9.307,1.77-.922,2.093-2.915,3.247-4.35q.649,1.181,1.3,2.362a1.479,1.479,0,0,1,1.706.055c.854,1.313.317,3.26.054,4.637,2.848-.266,4.052,2.912,1.18,4.2-2.974,1.333-4.316-2.3-4.417-4.656-1.11,1.326-2.25.616-3.023,1.3s-1.077,2.1-1.353,3.654c-.452,2.554-1.608,6.239-.538,8.8,1.589,3.805,6.654,5.785,10.382,6.252M361.013,96.5c-2.647,3.682-7.162,8.5-8.106,12.95,2.916-1.711,9.082-9.946,10.67-3.386.912,3.765-3.765,8.251-4.914,11.9,4.6-1.513,7.875-6.252,10.744-9.909,3.659-4.663,7.394-10.81,8.329-16.74a8.394,8.394,0,0,0-7.519-9.741,23.578,23.578,0,0,0-7.605.746,14.913,14.913,0,0,0-3.766,1.194c-1.247.749-1.418,2.5-2.593,1.044l-4.683,8.826c1.553-.564,4.723-2.956,6.421-2.709,2.479.362,2.989,3.963,3.022,5.828m-247.9-72.027a73.789,73.789,0,0,0-20.767,3.88c-1.632.546-8.516,2.488-7.066,5.3.958,1.861,6.125-.769,7.686-1.207A189.882,189.882,0,0,1,113.41,28.2c1.66-.274,7.292-.247,7.583-2.423.356-2.655-5.918-1.306-7.878-1.3M302.022,327.327a45.137,45.137,0,0,1-11.141-.173c-3.169-.388-6.4-1.685-9.55-1.685,0,3.376-.229,3.4,3.332,4.119,2.486.5,5.007.788,7.519,1.139,4.423.619,9.333,2.354,13.811,1.462-.109-.586-.452-4.542-.915-4.933-.261-.219-2.676.075-3.056.071M241.217,77.575c1.052.67,3.47,3.343,4.723,3.39-.448-3.094-3.9-8.482-7.865-6.57-.971.469-3.012,2.8-2.089,3.834.493.551,3.941-.651,5.23-.654M204.536,105.1q.057-.809.117-1.617c-1.455.855-3.256,1.26-4.29,2.638l3.723,1.651.45-2.672m114.572,82.155c6.873,2.407,13.175,5.622,18.234,11.079,4.373,4.719,6.429,13.033,7.5,19.218,2.642,15.306-2.455,29.493-5.817,44.136-1.7,7.428-4.25,14.576-6.634,21.811-2.081,6.318-3.865,12.936-6.738,18.944-2.435,5.095-5.547,10.117-7.69,15.4-1.153,2.844-3.021,12.6-7.4,9.538-1.194,3.122-1.484,2.857-.208,5.025.924,1.57,4.058,3.75,5.537,5.028a70.179,70.179,0,0,0,13.557,8.6c8.469,4.371,17.547,7.641,26.268,11.625,3.856,1.763,8.037,3.845,7.171,8.889a12.375,12.375,0,0,1-6.987,9.316,45.975,45.975,0,0,1-12.648,3.685c-2.339.329-2.875-.644-4.781-.98-2.122-.374-4.6.349-6.787.331-9.826-.086-18.43-2.558-26.37-8.256-2.838-2.036-7.015-7.56-10.728-7.56-1.9,0-1.5,1.153-3.167,1.83-2.061.835-5.611-.741-7.637-1.111-4.316-.788-8.7-1.588-11.579-5.305-3.107-4.017-2-8.993-.667-13.454,1.505-5.029,4.037-10.131,5.114-15.236a14.789,14.789,0,0,0,.238-4.82c-.414-1.96-2.393-3.13-2.452-5.252-.019-.646.906-1.5,1.067-2.163a31.873,31.873,0,0,0,.448-4.472c.262-2.657.868-5.2,1.286-7.829.95-5.976,2.824-11.307,4.638-17.064a48.236,48.236,0,0,1,6.838-14.585c1.761-2.506,7.654-11.434,4.776-14a78.1,78.1,0,0,1-14.571,19.928c-4.61,4.711-9.117,11.044-14.887,14.4-6.344,3.689-14.1,5.859-21.1,7.81-3.332.927-6.1,2.984-9.689,3.364a35.861,35.861,0,0,1-11.667-.942c-1.073-.244-4.168-1.893-5.14-1.788-1.431.156-3.488,2.706-5.058,3.174-3.821,1.14-6.431-1.038-9.33-3.05-3.146-2.184-4.1-2.727-7.728-2.99-4.446-.322-8.77-1.889-13.144-2.848-7.689-1.687-14.224-5.106-21.213-8.685a73.187,73.187,0,0,1-20.9-16.44c-8.877-9.824-21.239-37.045-6.739-46.576-8.536-1.159-16.355-4.887-17.4-14.549-.544-5.056.48-10.656,1.751-15.529.58-2.225,1.272-4.436,1.935-6.639a4.557,4.557,0,0,0,.791-2.442q.459-1.719-1.325-1.712c-2.248-2.629-3.939-4.949-4.393-8.682-.143-1.183-.271-3,.57-4a2.875,2.875,0,0,1,1.408-.81q1.976.113,1.117-1.947c.64-1.945-.309-3.461,2.1-4.273q1.16.247,2.309.539,1.467.669,1.91-.966c2.272-.889,1.224-2.2,4.31-1.059a13.371,13.371,0,0,1,5,3.336c1.706-1.1-2.174-7.865-2.3-10.025-.307-5.091,1.8-9.3,4.536-13.482,5.323-8.126,12.753-15.114,20.079-21.4,14.034-12.041,28.776-23.5,44.622-33.1a25.677,25.677,0,0,0-21.952-3.661c-7.171,1.945-12.983,5.478-19.583,8.568-6.114,2.862-12.605,4.037-14.555-3.772-2.184-8.748,4.785-12,11.037-15.918-1.561-1.164-6.7-.332-8.644-.194a96.621,96.621,0,0,0-12.677,2.148c-2.018.414-3.871.321-5.87.727-2.972.6-6.074,1.279-9.081,2.138a72.079,72.079,0,0,0-20.433,9.334c-5.342,3.614-9.048,8.717-13.352,13.417-4.909,5.359-9.612,10.631-16.889,12.593-3.407.919-7.4,1.753-9.82-1.291-2.248-2.83-2.373-6.24-2.3-9.7.162-7.643,3.855-15.9,8.15-22.148C68.04,73.7,74.284,69.817,80.184,64.36c-8.528.61-16.769,5.105-24.611,8.212-1.65.654-3.316,1.389-4.976,1.994-1.77.645-2.942.25-4.637.546-3.869.675-7.192,2.306-10.955-.294-7.12-4.917.013-14.921,4.915-17.991A135.967,135.967,0,0,1,61.216,45.9c-4.072-4.417-.594-10.721,3.159-13.854,4.749-3.965,10.8-6.237,16.52-8.36a99.3,99.3,0,0,1,13.672-4.3c4.942-1.062,10.722-2.684,15.737-2.528,4.7.146,8.874-.683,13.637-.815,3.964-.11,7.936-.015,11.9-.118,10.663-.275,21.365.444,31.786,1.211C159.369-7.006,213.754.45,225.357,3.6,235.9,6.47,247.982,9.795,256.839,16.6a106.308,106.308,0,0,1,10.645,9.516c4.912,4.958,7.631,11.452,10.229,17.861,6.59-3.228,12.89-6.746,20.1-8.347C304.674,34.1,311.7,32.04,318.6,30.89c5.247-.875,12.862-1.468,17.278,2.236,4.8,4.024,7.294,10.286,10.157,15.649,13.748-13.045,29.083-22.562,48.684-21.929,19.181.619,31.794,17.183,34.119,35.132,2.561,19.777-6.249,40.444-18.191,55.76-5.355,6.869-10.9,13.5-18.1,18.626a91.884,91.884,0,0,1-11.264,7.306,60.191,60.191,0,0,1-6.143,2.643,25.6,25.6,0,0,1-2.842.921c-2.75.667-2.216-.223-3.238,2.184-.83,1.954-.728,5.316-1.083,7.461-.406,2.452-.647,4.937-1.24,7.355-1.027,4.191-2.1,8.28-3.383,12.373a117.866,117.866,0,0,1-9.727,22.62c3.4,1.479,8.172,1.627,11.81,2.076a82.158,82.158,0,0,1,11.971,2.647c8.2,2.292,15.519,4.226,23.312,7.656,8.09,3.562,15.3,8.88,23.091,13.112a223.23,223.23,0,0,1,21.058,13.44,20.532,20.532,0,0,1,3.823,3.486,20.728,20.728,0,0,0,3.24,2.966c.695.561,2.715,3.395,3.508,3.5,1.42.188,1.2-.872,2.317-2.352,2.328-3.09,5.575-5.483,7.887-8.651a93.554,93.554,0,0,1,6-7.588,90.865,90.865,0,0,0,12.666-18.181c1.846-3.431,3.789-6.7,5.793-9.934s5.542-7.478,9.516-7.288c-.32-1.642-1.335-1.915.417-2.918,1.128-.647,3.325.4,4.195,1.052,2.3,1.739,2.4,5.113,2.258,7.647a80.974,80.974,0,0,1-3.646,19.154,188.253,188.253,0,0,1-8.291,21.059c-2.493,5.645-5.589,13.109-11.794,15.685,4.167,5.949,2.166,10.8-.619,17.114-2.035,4.617-4.724,9.389-8.819,12.444-4.616,3.445-9.622.523-14.45-1.754-2.916-1.376-11.832-4.621-10.019-8.854-2.228-.3-3.628-1.915-5.656-2.413-2.146-.527-1.778.345-4.049.672-1.741.25-4.346-1.309-5.985-1.867-2.738-.931-5.469-1.887-8.2-2.828-7.7-2.651-15.265-5.261-23.038-7.385-14.462-3.952-29.1-6.193-43.516-9.722-2.889-.707-5.761-1.39-8.77-1.956-.621-.117-3.844-.3-4.235-.961-.686-1.165,1.423-7.685,1.6-9.014a84.838,84.838,0,0,0-.874-26.895c-.695-3.585-3.8-8.227-3.772-11.726.019-2.347,2.1-4.911,3.32-7.037A142.987,142.987,0,0,0,354.1,177.2c3.426-8.37,5.525-17.817,7.038-26.782a123.442,123.442,0,0,0,1.92-14.467c.164-3.6-.132-7.383.391-11.074-1.994.189-4.816,1.222-6.613.116-2.269-1.4-2.878-5.381-2.588-7.761-7.767,1.356-7.509-6.01-7.028-11.77-14.038,0,3.94-20.86,6.186-25.34,1.032-2.059,1,.254.546-2.931a19.451,19.451,0,0,0-1.7-4.239q-1.77-4.216-3.818-8.3a158.157,158.157,0,0,0-9.7-16.688,56.823,56.823,0,0,0-8.766,7.709c1.716-4.488,6.959-10.048,4.717-15.144-2.079-4.724-9.021-4.4-13.12-3.533a225.8,225.8,0,0,0-32.437,9.731c3.287,1.885,8.32.429,11.587-1.013a68.514,68.514,0,0,1,12.753-4.6c3.8-.825,8.795-.543,7.7,4.577-.891,4.149-4.949,8.145-7.626,11.247-5.9,6.835-13.3,12.126-20.564,17.413C285.167,80.03,277.64,86.2,269.73,91.723c-14.3,9.976-29.673,18.647-44.446,27.959-7.677,4.838-16.376,8.732-24.7,12.318-9.158,3.945-17.939,8.169-27.441,11.284-5.277,1.731-10.506,3.155-15.691,5.124-3.25,1.234-8.91,3.706-11.057.042-4.361-7.441,11.421-17.228,15.746-21.777,2.983,2.9-11.729,13.695-10.578,17.914.9,3.315,4.4-.966,6.094-1.869,2.731-1.461,5.966-2.195,8.71-3.861,5.63-3.418,12.3-7.359,13.59-14.425a1.6,1.6,0,0,1,.034-2.614,6.022,6.022,0,0,0,.97-1.6,24.059,24.059,0,0,0,.776-3.678c.634-3.48-.957-6.738.529-10.143-8.676,6.574-17.015,14-25.251,21.116-7.387,6.383-15.1,14.742-17.81,24.267a12.816,12.816,0,0,0-.862,3.893c.124,2.528.376,1.983,2.413,2.8s5,.743,7.2.829c1.249.048,6.826-1.274,5.718,1.467-.639,1.58-4.506,1.52-5.89,1.666-3.474.367-5.359-.01-3.713,3.757.738,1.688,2.233,2.831,3.406,4.138,3.264,3.635,5.036,9.209,7.6,13.48a161.858,161.858,0,0,0,9.557,14.022c1.41,1.869,3.294,5.383,5.248,6.717,1.825,1.246-.322,1.143,2.709.637,1.321-.22,2.519-1.079,3.783-1.387,7.556-1.841,15.323-3.916,23.138-6.188,10-2.906,20.485-5.385,30.022-9.57,8.543-3.751,17.023-8.215,25.655-12.014,2.521-1.109,5.039-1.843,7-3.884,2.365-2.462,4.323-5.686,6.5-8.332,3.71-4.5,7.129-9.081,11.122-13.348,2.972-3.175,8.24-9.076,12.434-10.343,7.968-2.407,3.7,9.73,2.673,12.8,1.873.425,2.858-1.977,5.056-1.286,2.632.828,2.9,4.329,3.234,6.522.087.584-.7,1.677-.463,2.2.082.178,1.8,1.193,2.131,1.664,1.2,1.71.966,3.789.51,5.634-2.358,9.552-10.739,16.527-16.9,23.573,2.758-.522,4.8-2.094,7.405-2.872a35.344,35.344,0,0,1,7.363-.9c2.578-.22,5.055-1.184,7.693-1.234,2.768-.051,5.419.737,8.164,1.05" transform="translate(-14.842 0)" fill-rule="evenodd"/><path d="M16.9,173.694c-1.52.994-1.949,1.968-2,4.261-.021.94.044,4.447,1.358,4.315,1.233-.124.643-7.37.643-8.575m-7.852,5.712c.708-7.347,3.4-14.816,9.719-19.394,1.564-1.132,3.332-1.092,5.046-1.806,1.03-.429,2.657-2.424,3.826-2.187,4.3.871-.668,6.59-1.4,8.094-2.257,4.661-2.1,8.757-2.037,13.785.051,3.822.845,10.264-1.081,13.723-2.054,3.683-6.508,1.291-8.994-.889-3.138-2.752-5.508-7.134-5.082-11.326" transform="translate(-4.174 -72.354)" fill-rule="evenodd"/><path d="M147.686,219.2c0,4.1,3.327,1.324,3.209-1.592-.174-4.293-3.364-1.65-3.209,1.592m17.689-22.663c-3.642,3.275-6.451,5.113-7.153,10.149-.531,3.815,0,7.593.019,11.435.038,6.441-5.163,13.212-10.76,5.829-4.082-5.385-2.618-13.853.711-19.265a22.907,22.907,0,0,1,7.122-7.418c2.167-1.332,8.262-3.952,10.06-.73" transform="translate(-67.252 -90.442)" fill-rule="evenodd"/><path d="M78.8,363.056c-.422,1-1.413,5.077.609,4.155,1.785-.815.629-3.518-.609-4.155M68.12,350.465c-.312-1.534-.185-11.147,2.463-10.427,2.08.565,2.424,5.486,3.271,7.2,3.155,6.378,10.4,10.35,12.9,16.932,2.788,7.351-5.641,7.579-10.113,4.6-5.3-3.525-8.359-12.156-8.517-18.307" transform="translate(-31.539 -157.695)" fill-rule="evenodd"/><path d="M51.888,267.911c1.149-1.552,1.265-2.381.61-3.753-.837.911-.689,2.213-.61,3.753m.832,6.941c-5.991.671-6.291-10.37-5.265-14.161a28.159,28.159,0,0,1,4.382-8.723c.365-.5,3.829-4.957,4.508-4.968,2.606-.041,1.89,2.9,1.609,4a30.333,30.333,0,0,0-1,10.167c.256,4.1,2.2,13.822-4.236,13.686" transform="translate(-21.799 -114.56)" fill-rule="evenodd"/><path d="M521.866,120.331c-8.567,7.184-16.7,14.962-26.015,21.247-4.558,3.075-9.323,5.8-13.872,8.922a47.615,47.615,0,0,1-7.25,4.187c-2.27,1.034-3.755,1.168-1.871-1.286,1.259-1.639,4.081-2.781,5.8-3.947,2.639-1.794,5.132-3.785,7.908-5.377,4.894-2.808,9.759-5.075,14.271-8.519,4-3.055,8.136-6.039,11.958-9.287,1.639-1.393,7.073-7.786,9.074-5.942" transform="translate(-218.917 -55.657)" fill-rule="evenodd"/><path d="M545.23,169c3.852,3.3-5.787,12.324-7.985,14.37a94.7,94.7,0,0,1-7.392,5.995c-.887.673-5.729,5.179-6.958,4.815-2.425-.718.758-3.641,1.586-4.4,2.678-2.468,5.412-4.864,8.03-7.4,2.361-2.284,4.918-4.4,7.2-6.758,1.85-1.91,3.4-5.148,5.519-6.62" transform="translate(-242.108 -78.383)" fill-rule="evenodd"/><path d="M27.9,409.448c-1.006-2.331-2.807.257-1.894,1.421.864,1.1,1.765-.973,1.894-1.421m-5.9-4.6c.539-3.427,1.785-5.332,5-2.406,2.209,2.01,6.653,7.726,6.231,10.843-.553,4.088-5.055,2.928-7.389.791-2.392-2.191-3.448-6.188-3.843-9.227" transform="translate(-10.203 -185.987)" fill-rule="evenodd"/><path d="M26.263,522.391c-3.939-.3-7.3-3.324-8.972-6.868-1.407-2.98-2.739-7.784,2.2-6.217,3.222,1.021,15.645,13.565,6.767,13.085" transform="translate(-7.421 -236.078)" fill-rule="evenodd"/><path d="M114.812,486.729c-3.044.693-6.055-1.312-7.926-3.572-1.164-1.408-3.875-6.343-2.509-8.375,1.9-2.833,4.778,2.862,5.769,3.99,1.555,1.765,6.64,5.142,4.667,7.958" transform="translate(-48.236 -219.845)" fill-rule="evenodd"/><path d="M124.046,343.8c-2.386-1.107-4.6-2.44-5.56-5.085-.61-1.684-1.123-6.735,1.587-6.711,3.134.028,10.312,11.29,3.973,11.8" transform="translate(-54.729 -153.984)" fill-rule="evenodd"/><path d="M96.187,256c3.195-.058,3.951,1.7,4.4,4.236.3,1.718,1.765,7.55.245,8.745-2.171,1.707-5.626-2.2-6.324-3.74-1.439-3.161.551-6.271,1.684-9.24" transform="translate(-43.598 -118.735)" fill-rule="evenodd"/><path d="M193.752,580.683c1.556.708,5.094,2.277,3.742,4.713-1.414,2.547-5.473.072-6.99-1.041-.635-.466-4.668-3.516-4.5-4.539.356-2.173,5.916.663,7.747.867" transform="translate(-86.268 -268.545)" fill-rule="evenodd"/><path d="M5,284.808c1.063,2.662,2.259,11.806-3.338,6.868a4.911,4.911,0,0,1-1.377-5.458c.851-3,2.089-2.4,4.715-1.41" transform="translate(0 -131.721)" fill-rule="evenodd"/><path d="M562.288,211.332c-1.24-2.532,1.821-4.166,3.456-5.8,1.068-1.066,5.557-6.848,7.029-6.521,3.028.672-9,11.19-10.485,12.319" transform="translate(-260.66 -92.298)" fill-rule="evenodd"/><path d="M98,564.046c2.921-.469,3.6,2.776,5.484,4.19.807.607,3.577,1.14,3.02,2.427-1.464,3.382-8.647-4.343-8.5-6.617" transform="translate(-45.453 -261.587)" fill-rule="evenodd"/><path d="M144,421.1c2.007-.841,7.8,3.673,6.138,5.624-2.487,2.917-6-4.028-6.138-5.624" transform="translate(-66.788 -195.263)" fill-rule="evenodd"/><path d="M217.854,538.818c-1.463.145-7.639-1.8-5.351-4.395,1.606-1.825,5.876,2.742,5.351,4.395" transform="translate(-98.327 -247.673)" fill-rule="evenodd"/><path d="M80.362,516.608c-1.453.581-6.692-.614-5.045-2.89,1.569-2.166,5.047,1.091,5.045,2.89" transform="translate(-34.786 -237.933)" fill-rule="evenodd"/><path d="M165,538.02a2.837,2.837,0,0,1,3.217,2.582c-2.124.3-2.78-.2-3.217-2.582" transform="translate(-76.528 -249.529)" fill-rule="evenodd"/><path d="M577,68.491l2.145.01L577,68.491" transform="translate(-267.617 -31.766)" fill-rule="evenodd"/><path d="M553.217,347,550,347l3.217,0" transform="translate(-255.094 -160.939)" fill-rule="evenodd"/><path d="M283.01,21q-.074,1.61-.149,3.217.072-1.612.149-3.217" transform="translate(-131.193 -9.74)" fill-rule="evenodd"/><path d="M901.5,361q.514,1.79-1.5.593l1.5-.593" transform="translate(-417.427 -167.435)" fill-rule="evenodd"/><path d="M846,535.49l1.609.01L846,535.49" transform="translate(-392.381 -248.365)" fill-rule="evenodd"/><path d="M653.681,374.493a1.876,1.876,0,0,1-2.681-.036l2.681.036" transform="translate(-301.939 -173.676)" fill-rule="evenodd"/><path d="M618.5,204q-.034,1.343-.069,2.681.034-1.344.069-2.681" transform="translate(-286.835 -94.617)" fill-rule="evenodd"/><path d="M702.681,49.514l-2.681,0a4.369,4.369,0,0,1,2.681,0" transform="translate(-324.665 -22.866)" fill-rule="evenodd"/><path d="M213.681,29.353,211,29.511l2.681-.158" transform="translate(-97.863 -13.614)" fill-rule="evenodd"/><path d="M255.145,29.512,253,29.33l2.145.182" transform="translate(-117.343 -13.603)" fill-rule="evenodd"/><path d="M277.145,31.255a2.361,2.361,0,0,1-2.145,0l2.145,0" transform="translate(-127.547 -14.496)" fill-rule="evenodd"/><path d="M157.681,33.993q-1.341.273-2.681.544,1.341-.27,2.681-.544" transform="translate(-71.89 -15.766)" fill-rule="evenodd"/><path d="M619.5,441q-.037.806-.073,1.609.038-.807.073-1.609" transform="translate(-287.297 -204.539)" fill-rule="evenodd"/><path d="M68.471,360c.011.358.021.717.031,1.072-.011-.359-.02-.716-.031-1.072" transform="translate(-31.758 -166.971)" fill-rule="evenodd"/><path d="M906.681,356.018l-2.681.014a2.174,2.174,0,0,1,2.681-.014" transform="translate(-419.282 -164.912)" fill-rule="evenodd"/><path d="M565.145,349.024,563,348.67l2.145.354" transform="translate(-261.124 -161.716)" fill-rule="evenodd"/><path d="M198.681,581.535,196,581.013Z" transform="translate(-90.906 -269.478)" fill-rule="evenodd"/><path d="M537.5,293.609q-.025-.805-.049-1.609.024.805.049,1.609" transform="translate(-249.275 -135.432)" fill-rule="evenodd"/><path d="M219.609,29.513l-1.609-.2,1.609.2" transform="translate(-101.11 -13.597)" fill-rule="evenodd"/><path d="M383.609,4.533,382,4.046l1.609.487" transform="translate(-177.175 -1.876)" fill-rule="evenodd"/><path d="M504,679.439l1.072.065L504,679.439" transform="translate(-233.759 -315.129)" fill-rule="evenodd"/><path d="M45,142.46l1.609.043L45,142.46" transform="translate(-20.871 -66.074)" fill-rule="evenodd"/><path d="M713.681,50.513,711,50.324l2.681.189" transform="translate(-329.767 -23.341)" fill-rule="evenodd"/><path d="M185.753,45.994,182,46l3.753-.006" transform="translate(-84.413 -21.332)" fill-rule="evenodd"/><path d="M661.452,252q.024,1.342.051,2.681-.024-1.343-.051-2.681" transform="translate(-306.787 -116.88)" fill-rule="evenodd"/><path d="M537.145,610,535,609.968c.719.01,1.431.022,2.145.034" transform="translate(-248.137 -282.908)" fill-rule="evenodd"/><path d="M681,79.885l3.217-.357c-1.029.91-2.141.3-3.217.357" transform="translate(-315.853 -36.886)" fill-rule="evenodd"/><path d="M526.609,610.5l-1.609-.06,1.609.06" transform="translate(-243.499 -283.129)" fill-rule="evenodd"/><path d="M493.424,628q.04,1.343.082,2.681c-.026-.9-.054-1.789-.082-2.681" transform="translate(-228.854 -291.271)" fill-rule="evenodd"/><path d="M646,141.425l2.145-.2c-.653.5-1.419.209-2.145.2" transform="translate(-299.62 -65.502)" fill-rule="evenodd"/><path d="M209,407.633l2.145.394L209,407.633" transform="translate(-96.936 -189.063)" fill-rule="evenodd"/><path d="M417,144.037a1.944,1.944,0,0,1,2.681-.009l-2.681.009" transform="translate(-193.408 -66.554)" fill-rule="evenodd"/><path d="M354.427,194.072c.026-.358.051-.715.078-1.072-.025.358-.052.715-.078,1.072" transform="translate(-164.386 -89.515)" fill-rule="evenodd"/><path d="M645.479,176q.011,1.074.023,2.145c-.007-.718-.014-1.431-.023-2.145" transform="translate(-299.378 -81.63)" fill-rule="evenodd"/><path d="M203.689,385.017c1.177.4,3.543,1.6,4.914,1.444,1.1-.128,2-1.462,3.06-1.461,2.85,0,2.322,3.3.945,5.067-3.724,4.784-12.045-.4-8.919-5.05" transform="translate(-94.153 -178.566)" fill-rule="evenodd"/><path d="M221.35,353c3.886,1,1.951,9.552-1.316,10.139-3.847.693-4.517-6.258-3.757-8.771,1.98,1.176.754,5.372,3.249,4.213,1.586-.739,1.345-4.152,1.825-5.581" transform="translate(-100.182 -163.724)" fill-rule="evenodd"/></g></g></svg>