<svg xmlns="http://www.w3.org/2000/svg" width="408.515" height="465.521" viewBox="0 0 408.515 465.521"><g transform="translate(-226.245 -42.874)"><g transform="translate(226.245 42.874)"><path d="M902.24,439.643c2.641-.283,3.018,3.3,3.378,4.936,1.018-.643,1.924-.028,2.154-1.53,3.22,3.376,5.8,7.251,8.657,10.919,2.742,3.519,7.028,6.318,9.4,10.017,2.013,3.14-1.308,7.909-1.719,11.258a14.266,14.266,0,0,0,3.1,10.971,8.067,8.067,0,0,0,4.459,2.642c1.771.359,3.455-.68,5.015-.459,1.294.184,1.35,1.04,1.8,2.311a10.141,10.141,0,0,0,2.868,4.617c1.633,1.369,3.386,1.764,4.631,3.6,1.087,1.6,1.7,3.159,3.389,4.273,2.249,1.487,5.857,1.936,5.613,5.408l1.16-.922a60.32,60.32,0,0,0,3.447,8.386,6.2,6.2,0,0,1,.9,3.359c-.021.931-.531,1.635.02,2.537.882,1.443,3.242,1.247,4.319,2.413,1.1,1.2-.042,2.819,1.234,3.861-.538.165-2.027,1.37-1.467,2.1.806,1.052.866-.389,1.431-.216,1.3.4,1.023,2.017,2.035,2.458.208.091.192-.88.181-1.13v-.01l.387.761c6.789,13.269,14.859,25.855,21.237,39.322l.366.778a544.728,544.728,0,0,0,40.866,72.138c3.617,5.4,7.587,10.762,10.932,16.316,3.361,5.581,7.549,10.528,11.267,15.864,3.824,5.49,7.324,11.2,11.178,16.669,3.074,4.359,6.832,9,6.782,14.618-.023,2.5-.386,5.256-2.792,6.6-.058-1.03-1.615.109-1.986.362-1.607,1.094-.733.973-2.465.591-2.811-.621-5.212.22-7.812-1.38-5.516-3.392-10.952-6.878-16.567-10.115-12.136-6.994-24.151-14.156-35.408-22.515-19.68-14.613-41.062-27.708-59.148-44.33s-37.039-33.089-58.484-45.237c-1.438-.814-5.558-2.036-5.178-3.979.333-1.7,4.039-4.088,5.338-5.267,4.511-4.09,9.208-7.961,13.559-12.227a186.546,186.546,0,0,0,22.447-25.8c3.134-4.495,4.733-9.494,6.563-14.6,1.615-4.511,3.108-10.065.487-14.528a5.135,5.135,0,0,0-5.232-2.749c-1.939.13-1.852.527-2.621-1.532-.828-2.216-1.5-4.788-3.721-6.071-2.3-1.329-3.866.088-5.729,1.419-2.143-3.1-4.771-8.454-9.091-8.75-4.51-.309-7.072,5.267-8.63,8.621a168.227,168.227,0,0,1-17.042,28.013c-6.985,9.573-14.127,19.311-21.823,28.325-1.63,1.908-3.48,4.693-5.776,5.851s-4.213.126-6.153-1.194l-.147-.1c-4.692-3.221-9.254-6.528-14.138-9.476-5.41-3.266-10.972-6.258-16.49-9.335-2.434-1.357-4.744-2.992-7.252-4.211-2.337-1.136-4.882-1.7-7.275-2.693,8.785-2.621,18.039.813,26.354,3.536,4.316,1.414,8.829,2.885,13.437,2.505,3.985-.328,7.6-2.464,10.754-4.8,5.7-4.216,6.146-10.549,4.288-16.949-2.138-7.367-5.408-14.452-7.879-21.718-1.124-3.3-1.9-6.815.66-9.671,2.289-2.555,5.251-2.87,8.376-1.864,7.576,2.44,14.3,4.73,22.416,4.5,6.349-.181,14.425-1.984,18.7-7.148,2.345-2.83,2.434-6.722,2.443-10.233a87.554,87.554,0,0,0-.832-12.464c-1.038-7.35-3.732-14.709-.354-21.845C897.854,443.775,900.059,439.877,902.24,439.643Zm66.006,91.8v.009l0-.005h0C968.242,531.382,968.244,531.389,968.246,531.439ZM705.471,496.926c1.985-2.748,7.417-9.148,11.564-7.747a4.632,4.632,0,0,1,1.725,1.505q.507.66,1.007,1.326.31.875,1.114.517c1.454,2.016,3.507,3.538,4.343,6.014.828,2.453,3.051,4.832,4.361,7.082,1.014,1.74,3.3,6.386,3.125,8.562v5.554c-.206,2.159-4.239,6.021-5.657,7.481-3.521,3.627-7.346,4.092-12.564,3.629-4.421-.392-10.146-1.867-13.139-5.383-2.872-3.374-2.831-8.6-2.406-12.758A32.885,32.885,0,0,1,705.471,496.926Zm13.6.921a3.965,3.965,0,0,0-4.136-1.7,14.973,14.973,0,0,0-4.766,1c-1.317.642-1.983,1.765-3.625,1.388.65,1.121-.515,1.769-.683,2.78a4.089,4.089,0,0,0,1.059,3.447c1.774,2.04,4.423,2,6.888,2.2,2.084.168,4.648.513,5.872,2.468.79,1.26.073,2.168.444,3.434.272.933,1.411,1.468,1.909,2.269,1.668-2.457,1.61-7.721.592-10.349a23.7,23.7,0,0,0-2.11-3.947c-.235-.357-.792-.783-.94-1.077C719.322,499.254,719.353,498.366,719.073,497.847Z" transform="translate(-670.744 -371.6)" fill="#12c97a" fill-rule="evenodd"/><g transform="translate(0 0)"><path d="M242.782,452.586c3.018-1.181,6.738-.629,9.9-.573,3.972.072,7.955.373,11.916.684,7.606.6,15.173.344,22.786,1.056,3.779.353,7.561.68,11.343,1,3.311.282,7.157,1.161,10.462.528,1.365-.261,5.049-1.546,4.366-3.547-.527-1.543-4.674-2.495-6.025-2.934-3.178-1.034-6.46-1.775-9.672-2.7a13.572,13.572,0,0,0-5.031-.818c-1.474.139-3.028,1.241-4.522,1.114-2.21-.187-3.348-2.964-4.969-4.189-2.58-1.95-4.493-.908-6.472,1.241-1.463,1.589-2.856,3.993-5.256,4.136-3.053.181-3.647-2.439-2.3-4.661,1.241-2.046,4.62-4.145,4.8-6.7.115-1.612-2.462-5.926-3.945-6.54-2.494-1.031-6.019,1.7-8.274,2.538-3.938,1.463-7.957,2.759-11.945,4.081-2.727.9-6.774.984-7.289,4.182-.644,4,.141,8.07.123,12.091M86.713,391.033c.793-1.758,1.626-2.758.04-4.389-.886-.912-2.136-1.361-3.009-2.307-1.31-1.423-3.365-5.311-.555-6.29,2.685-.936,4.948,2.8,7.109,3.627,2.743,1.043,4.442-.706,4.835-3.329.5-3.37-.05-6.892.352-10.3.393-3.345,1.561-6.123,2.457-9.326.607-2.172,1.35-4.358-1.4-4.84-2.527-.442-5.458.609-8.021.75-4,.219-8.041.421-12,1.021-4.425.669-4.345,5.2-5.456,8.9-2.693,8.975-6.305,17.781-7.987,27.034-.725,3.989,1.2,6.722,3.435,9.859,2.8,3.928,5.716,7.845,8.888,11.484,2.119,2.43,4.506,4.693,7.591,5.81,3.495,1.265,4.83-.14,4.024-3.587-1.065-4.551-2.671-8.946-2.482-13.686.069-1.726.571-3.58-.673-5.025-.862-1-2.34-1.339-3.465-1.949-1.855-1.006-4.73-4.242-1.115-4.938,2.455-.473,5.064,1.179,7.44,1.485M170.19,212.778c2.206,2.465,4.6,4.823,6.695,7.384,1.2,1.469,2.049,3.234,3.335,4.625,2.818,3.048,5.626-.329,8.122-2.3,9.816-7.766,19.052-16.182,28.4-24.493,4.456-3.96,9.2-7.613,13.58-11.648,4.442-4.088,8.14-8.873,12.3-13.229,2-2.091,4.391-4.166,5.625-6.837,1.052-2.278,1.285-4.757,2.484-7.01,2.076-3.9,5.885-8.431,5.011-13.149-2.571,2.7-6.854,12.365-11.341,7.831-3.2-3.236.068-8.019-.074-11.792-3.04,1.291-2.25,6.527-5.492,7.453-1.753.5-3.253-1.087-4.07-2.48-1.413-2.408-.9-4.928-.253-7.482.437-1.74,3.23-7.481.468-8.189-2.393-.614-4.4,3.791-5.192,5.352-1.454,2.862-2.579,5.823-4.175,8.622-2.752,4.828-5.923,9.441-8.945,14.1a292.562,292.562,0,0,1-20.626,27.412,173.184,173.184,0,0,1-25.857,25.831m69.151,30.537c-.315,8.457-7.576,14.871-13.859,19.573-8.029,6.01-15.436,12.84-25.012,16.26-3.686,1.317-8.29.937-9.767,5.09-.577,1.623-.053,2.22.572,3.854a43.067,43.067,0,0,1,2.032,8.02c1.579,9.156.044,18.479-5.453,26.1a57.274,57.274,0,0,1-10.517,10.637c-3.851,3.133-7.494,6.788-11.739,9.38a77.814,77.814,0,0,1-29.557,10.229c-5.431.795-10.883,1.5-16.368,1.783-2.844.145-5.693.172-8.539.047-1.272-.056-6-1.131-6.918-.4-.708.561-1.022,3.96-1.164,4.9-.3,1.982-.537,3.937-.946,5.9-.821,3.945-1.929,8.408-.717,12.387.351,1.151.634,2.088,1.7,2.475.675.245,1.871-.186,2.554-.256a21.451,21.451,0,0,1,4.554-.056c5.1.54,10.1,1.843,15.25,1.488,10.98-.757,21.971-1.53,32.85-3.25,5.292-.836,10.37-2.419,15.574-3.641,4.96-1.165,9.917-2.341,14.547-4.53a105.961,105.961,0,0,0,24.941-16.6c7.994-7.094,13.286-15.5,18.287-24.887,4.393-8.243,8.1-16.587,7.9-26.09-.122-6.014-.983-13.465,2.491-18.769,1.587-2.423,4.789-4.668,7.771-3.387,5.414,2.325.3,6.93-1.765,9.452-2.974,3.634-2.575,9.168-2.883,13.612-.365,5.244-1.542,9.844-2.691,14.916-1.124,4.964,1.143,10.853,1.367,15.917.243,5.491.083,10.988.022,16.481-.122,10.926.385,21.823.347,32.746-.02,5.666.125,11.359-.233,17.017a129.509,129.509,0,0,1-2.306,15.16c-.907,4.972-2.229,10.926-1.924,15.98,12.4-4.725,24.478-10.307,37.074-14.528-3.929-3.428-4.1-8.272-4.42-13.107-.417-6.376-1.466-12.7-1.924-19.072a249.589,249.589,0,0,1,.421-38.413c1.149-13.5,3.187-26.96,3.606-40.52a100.984,100.984,0,0,0-1.366-19.526c-.9-5.431-1.673-12.264-4.5-17.075-2.7-4.6-7.674-7.518-11.822-10.65-6.065-4.579-11.683-9.729-17.471-14.645m.751-176.61a50.629,50.629,0,0,0,5.165,5.877c1.916,1.895,2.732,1.476,5.024.491,4.559-1.96,4.471-4.228,1.926-8.159-5.9-9.117-8.141-19.974-14.386-28.9-6.153-8.8-15.1-15.908-24.5-20.982-10.084-5.445-21.011-7.177-32.377-7.015-5.808.083-11.654.484-17.426,1.136-5.615.633-10.609,2.477-16.045,3.869-2.736.7-5.558,1.282-8.218,2.245-2.334.844-4.432,2.149-6.791,2.938a74.056,74.056,0,0,0-15.014,6.478,108.969,108.969,0,0,0-12.792,9.094c-4.283,3.51-8,7.589-12.634,10.671-4.217,2.806-7.57,6.586-11.393,9.875A63.969,63.969,0,0,0,69.956,66.3c-2.93,4.245-4.045,9.738-5.815,14.525-2.06,5.572-4.1,11.529-4.88,17.436-1.447,11.009,1.8,23.876,5.928,34.063,4.083,10.076,10.7,18.483,18.595,25.861a56.733,56.733,0,0,0,12.754,9.269c4.025,2.058,9.274,5.759,13.655,3.173,1.774-1.047,3.214-2.264,5.265-2.736,2.241-.515,4.438-.3,6.247-1.949,1.538-1.4,2.273-3.085,4.293-3.929a20.416,20.416,0,0,1,7.79-1.175c5.758.019,11.518,1.461,17.013,3.061,5.035,1.465,9.249,3.675,14.6,2.336,3.975-1,10.351-3.641,11.208-8.2.766-4.076-2.189-9.345-3.678-12.993a107.973,107.973,0,0,1-5.213-15.3c-1.024-4.2-2.633-10.917.258-14.755,2.841-3.771,9.408-3.726,13.489-2.777,2.674.621,5.133,1.874,7.808,2.5A71.192,71.192,0,0,0,197.6,116c9.635,1.091,23.344-1.375,22.831-13.7-.457-10.982-6.5-21.992-2.963-32.987,1.443-4.482,4.392-9.665,9.3-10.848a18.592,18.592,0,0,1,12.592,2.084c2.757,1.636,5.488,5.062.735,6.156m-193.5,49.054c-9.713,1.9-16.136,12.142-17.917,21.228-.807,4.117-1.092,9.02.469,13,1.8,4.593,6.881,6.509,11.366,7.472,5.127,1.1,9.67.671,13.735-2.886a25.381,25.381,0,0,0,4.584-5.377c1.313-2.036,3.139-3.52,1.819-5.8a98.7,98.7,0,0,1-8.22-17.38,75.307,75.307,0,0,1-2.455-8.323c-.507-2.264-.752-3.645-3.38-1.944m85.067,61.5a20.072,20.072,0,0,1-6.465,4.228c-2.661,1.068-3.468.555-3.337,3.635.146,3.4.171,6.124-1.379,9.29-.725,1.482-3.4,3.481-2.9,5.148.726,2.393,8.166,4.811,10.336,5.648,5.193,2,11.252,2.043,16.153-.785,5.693-3.286,6.2-9.242,4.052-15.006-.229-.615-1.061-1.655-.856-2.326.376-1.231,1.923-1.053,2.81-.583,1.927,1.021,2.733,4.124,3.147,6.061a15.554,15.554,0,0,1-4.8,14.342,22.321,22.321,0,0,1-11.355,4.932c-1.215.122-2.749-.261-3.909.085-2.045.61-2.136,3.134-2.647,4.978a44.921,44.921,0,0,0-1.414,10.278c-.194,5.517.463,12.547,3.634,17.225,7.4,10.914,21.71,14.7,32.883,20.318a108.886,108.886,0,0,1,16.735,10.746,14.871,14.871,0,0,0,1.931,1.481c2.12,1.044.269.664,1.626-.026,1.045-.531,1.939-1.684,3.019-2.285,2.486-1.385,5.279-2.132,7.808-3.441a107.8,107.8,0,0,0,16.3-10.85c5.347-4.13,10.763-7.9,15.641-12.6,2.057-1.982,4.373-3.616,6.46-5.513,2.1-1.911-.588-2.7-2.368-4.111-6.058-4.788-12.04-9.728-18.509-13.959-2.158-1.412-4.061-3.316-6.313-4.564-2.351-1.3-3.746-.136-5.6,1.522a62.351,62.351,0,0,1-6.206,5.136c-2.975,2.047-6.433,3.032-9.424,4.981,1.92,2.012,6.6,2.685,7.281,5.732.689,3.088-3.906,5.5-6.054,6.69a44.208,44.208,0,0,1-12.2,4.3c-3.516.76-8.729-.384-11.547,2.272-.8-1.7-1.557-2.589-.234-4.216s3.675-1.9,5.539-2.528c5.034-1.688,9.992-3.937,14.862-6.045-.646-1.514-2.262-2.55-3.494-3.536a31.114,31.114,0,0,1-4.667-4.718c-2.731-3.34-5.18-6.9-7.781-10.339-1.128-1.491-2.157-2.98-4.217-2.154-1.818.729-3.593,2.619-5.341,3.6-3.952,2.214-7.41,4.34-11.76,5.749-1.753.568-8.931,2.184-7.021-2.207.566-1.3,2.457-1.838,3.622-2.407,2.153-1.052,4.3-2.125,6.372-3.326,4.261-2.468,8.018-5.656,12-8.527,4.4-3.166,8.869-6.24,13-9.759-4.108-2.723-8.665-4.717-12.913-7.208-4.293-2.518-8.619-4.793-13.06-7.029a78.644,78.644,0,0,1-10.354-5.98c-1.282-.915-5.691-4.718-7.1-2.338M260.822,88.7q-.811.2-1.605.463c3.6,5.51-.375,12.331.752,18.293,3.325-1.968,3.76-9.621,8.808-8.206,5.437,1.524,2.731,8.221,4.377,12.051,2.57-2.248,5.57-.147,6.63,2.519,1.148,2.889-.444,5.556.091,8.416.553,2.959,2.205,1.017,3.121-.728,1.167-2.224,2.187-5.231,1.757-7.775-.523-3.094-2.6-5.971-3.885-8.782a43.4,43.4,0,0,0-4.337-8.12c-3.5-4.692-9.586-8.907-15.708-8.133m34.825,66.075c-2.351-5.873-5.83-11.25-8.053-17.169-.65-1.731-1.013-4.49-2.732-5.556-1.13-.7-2.633-.28-3.879-.657a8.654,8.654,0,0,1-3.442-2.194c-1.63-1.689-2.158-4.008-4.08-5.479-2.48-1.9-4.4-2.627-5.577-5.8-.926-2.492-.928-2.857-3.713-2.3a7.422,7.422,0,0,1-7.606-2.513c-3.551-4.023-3.944-9.692-2.2-14.549.815-2.271,2.233-4.913,1.055-7.292-1.094-2.209-3.752-3.8-5.436-5.556-4.256-4.45-7.588-9.659-11.579-14.328a23.8,23.8,0,0,1-2.668-3.513c-.467-.813-.744-2.212-1.827-2.443-1.866-.4-4.47,2.832-5.409,4.008-6.87,8.606-1.955,20.327-1.118,30.029.426,4.941,1.384,10.864-.806,15.516-2.063,4.384-7.285,6.572-11.686,7.793a42.927,42.927,0,0,1-18.35.574,48.119,48.119,0,0,1-9.194-2.55c-3.064-1.159-6.251-3.152-9.373-1.049-4.03,2.715-2.785,8.161-1.9,12.131,1.446,6.485,3.971,12.534,6.2,18.763,1.876,5.232,3.395,11.8-.549,16.479a21.4,21.4,0,0,1-16.552,7.359c-12.606-.5-24.113-9.909-36.995-6.062,2.42,1,4.979,1.59,7.344,2.736,2.855,1.383,5.5,3.222,8.269,4.761,5.32,2.953,10.659,5.865,15.858,9.029,4.7,2.859,9.14,5.991,13.623,9.159,5.587,3.948,8.53-.425,12.114-4.689,7.825-9.308,15.274-19.165,22.383-29.03a168.987,168.987,0,0,0,16.388-27.11c1.6-3.428,4.292-9.243,8.972-8.567,4.155.6,6.578,5.617,8.726,8.688,1.5-1.075,2.784-2.512,4.807-1.92,1.678.49,2.839,2.213,3.582,3.683.511,1.01.859,4.415,1.713,4.928.607.364,2.929-.419,3.964-.18,3.542.819,4.674,5.375,4.638,8.538-.05,4.359-1.87,8.72-3.361,12.757-3.343,9.048-9.07,16.119-15.383,23.269a237.773,237.773,0,0,1-20.342,20.271q-2.675,2.384-5.288,4.834c-1.426,1.343-3.684,2.74-4.8,4.318-2.065,2.919,3.46,4.244,5.515,5.313,8.846,4.6,17,10.651,24.787,16.824,8.033,6.367,16.112,12.758,23.831,19.5,7.552,6.6,14.684,13.633,22.636,19.77,8.17,6.3,16.73,12.126,25.126,18.125s16.581,12.323,24.974,18.336c8.2,5.876,17.008,10.913,25.636,16.13,4.513,2.73,9.05,5.419,13.585,8.114,3.667,2.179,7.646,5.565,11.993,5.84,3.917.248,7.631,1.69,9.973-2.571,1.777-3.235,1.041-7.686-.515-10.828-1.9-3.836-4.87-7.363-7.256-10.913-2.744-4.082-5.292-8.282-8-12.385-2.6-3.934-5.484-7.565-8.382-11.272-2.938-3.759-5.167-8-7.785-11.975-5.6-8.508-11.35-16.862-16.656-25.56-12.167-19.949-23.065-40.544-33.478-61.447-.917-1.842-22.324-39.792-21.725-40.119M278.515,277.421c6.54,22.621,2.768,45.624,1.427,68.636-.678,11.635-.781,23.343-1.081,34.995-.146,5.664-.136,11.332.1,16.993.118,2.848.327,5.686.529,8.529.179,2.513-.495,5.292-.178,7.718.406,3.107,6.569,3.716,4.675,7.7-1.27,2.675-5.718,3.083-8.1,4.211,1.059,1.228,2.717,3.065,4.484,3.181,1.592.1,2.821-1.278,4.248-1.8,1.267-.464,3.009-.914,3.809.566.837,1.549-.917,3.271-1.61,4.472,2.359.457,3.99-.953,6.117-.823,2.239.136,2.34,2.341,3.811,3.616,1.682,1.459,4.62,1.772,6.694,2.386a33.874,33.874,0,0,1,7.035,2.838,20.314,20.314,0,0,1,8.754,10.683c1.5,4.439-.845,8.281-4.344,11.005-1.3,1.015-3.173,2.194-4.9,1.647-1.976-.625-2.285-2.235-4.694-2.116-2.163.107-4.216.972-6.391,1.082-3.2.163-6.389-.419-9.589-.3a287.729,287.729,0,0,1-38.713-.636c-3.335-.321-6.6-.584-9.892-.689-2.556-.082-2.77-1.99-3.2-4.385-1.046-5.785,1.268-11.481.122-17.1.076.371-1.734-.594-1.952-.778A7.57,7.57,0,0,1,233.5,434.7a43.483,43.483,0,0,1-.717-13.37c.741-10.185,2.634-20.276,2.479-30.515-.078-5.161.078-10.309.079-15.468,0-4.739.43-9.416.47-14.121.087-10.317,1.172-20.519,1.475-30.826-2.146,2.089-3.284,5-4.647,7.609a91.669,91.669,0,0,1-5.594,9.361c-4.228,6.16-9.9,11.173-15.777,15.717-11.215,8.673-23.4,15.389-37.138,19.067a280.884,280.884,0,0,1-45.25,8.18,54.937,54.937,0,0,1-10.691.193c-2.328-.226-6.113-2.109-8.325-1.154-2.514,1.086-3.02,3.7-6.317,2.964a13.88,13.88,0,0,1-3.27-1.687c-1.62-.834-1.685-.259-3.232-.152-1.725.118-2.759-.743-4.262.646-1.276,1.18-1.153,2.007.013,3.111,1.639,1.552,4.262,1.813,5.9,3.434,1.6,1.577,1.31,3.515-1.155,3.539-2.481.023-4.685-1.743-7.109-1.974.517,7.176,2.674,15.193.282,22.234-1.11,3.266-3.492,5.37-7.043,5.348-5.943-.038-11.156-5.509-14.735-9.771-1.979-2.356-3.583-5-5.493-7.417-1.953-2.468-4.048-4.949-5.166-7.934-1.189-3.176-.842-6.362-.177-9.622.823-4.035,1.588-8.11,2.583-12.106,1.929-7.749,5.81-14.823,7.769-22.549.741-2.923.732-6.353,2.6-8.86,1.98-2.654,5.061-2.824,8.117-2.655,3.782.21,7.561.629,11.323,1.057,2.375.27,7.581,1.985,9.514.524.665-.5.667-1.821,1.445-2.276.75-.439,1.962-.124,2.782-.063,4.062.3,8.159.668,12.229.787,15.128.443,31.091-1.917,44.6-8.95,6.268-3.264,11.042-8.4,16.08-13.255,4.953-4.772,9.271-9.908,10.6-16.835a41.911,41.911,0,0,0-1.265-20.01c-1.969-5.964-8.956-9.576-14.041-12.516A156.791,156.791,0,0,0,150.308,264a7.931,7.931,0,0,0-4-.819c-1.626.291-2.719,1.7-4.2,2.324-1.759.74-3.916.744-5.772,1.176-1.8.419-3.553.995-5.386,1.272-5.772.871-13.883.176-18.653-3.514-7.8-6.03-3.086-14.565-.581-21.905-2.648-.09-4.854.53-7.381-.6A11.271,11.271,0,0,1,98.7,236.29c-2.089-4.56-.882-9.8-.266-14.556a25.11,25.11,0,0,1,1.416-6.3c.635-1.564,1.677-3.054,2.062-4.709.424-1.822-.126-1.928-1.644-2.8a14.3,14.3,0,0,1-5.458-5.245,14.719,14.719,0,0,1-.577-14.514c.931-1.966,3.152-4.669,2.9-6.965-.217-1.975-2.451-3.513-3.767-4.807a143.7,143.7,0,0,0-12.886-11.166,73.712,73.712,0,0,1-6.338-4.957c-1.4-1.355-2.826-4.3-4.744-5.016s-3.2,1.432-4.534,2.581a76.717,76.717,0,0,1-6.352,5.408c-4.073,2.786-9.124,2.265-13.724,1.375a36.384,36.384,0,0,1-13.359-5.269c-1.628-1.074-3.529-3.254-5.533-3.428-2.141-.186-4.466,1.943-6,3.222-3.994,3.338-5.193,8.523-7.52,13.007a26.38,26.38,0,0,0-2.994,15.836c.636,5.065,2.585,8.892,5.485,12.983.6.846,2,2.445.977,3.381-1.255,1.145-3.828-1.151-4.671-1.893C2.807,195.084-1.952,183.979.766,172.861a55.235,55.235,0,0,1,7.628-16.628c1.409-2.185,2.784-4.369,5.236-5.483,2.79-1.268,5.952-1.117,8.932-1.421-2.062-10.1-2.707-21.088,3.628-29.889,4.861-6.754,14.816-12.664,22.705-7.187-.323-7.446-1.384-14.516.6-21.846a53.6,53.6,0,0,1,3.6-9.539c1.464-3,3.485-5.537,4.667-8.656C62.419,59.909,71.37,48.92,80.93,40.091c9.664-8.925,19.146-19.813,31.319-25.4,12.7-5.826,25.633-11.062,39.4-13.709A118.266,118.266,0,0,1,195.03.274c12.621,2.281,24.3,9.949,33.851,18.217,10.9,9.434,17.932,20.807,23.5,33.981,1.223,2.894,2.4,5.812,3.9,8.578,1.664,3.069,3.8,5.922,5.024,9.215,1.091,2.937,1.274,6.122-.669,8.746-1.366,1.845-4.169,2.261-5.363,3.949-.6.851-.543,1.66.783,1.914,1.369.261,2.021-1.266,3.006-1.879,2.449-1.526,5.906-.226,8.383.641A27.772,27.772,0,0,1,281.427,94.5c3.363,4.9,5.6,10.458,7.818,15.933a62.258,62.258,0,0,1,3.507,10.545c.29,1.377.695,5.109-1.479,3.473-.882-.663-2.142,4.368-1.9,5.17.827,2.787,3.775,5.4,5.51,7.655,4.08,5.3,6.812,11.245,9.69,17.243,6.233,12.989,13.175,25.6,19.844,38.364,13.581,25.994,28.423,50.989,43.99,75.835q11.57,18.464,23.91,36.369c3.638,5.277,7.288,10.558,10.847,15.889,3.025,4.53,6.01,9.575,5.231,15.23a13.049,13.049,0,0,1-8.756,11.029c-2.663.907-5.825,1.953-8.675,1.675-3.117-.3-5.867-2.392-8.465-3.958q-17.909-10.8-35.827-21.582c-13.361-8.038-25.581-17.583-38.328-26.52-6.486-4.547-13.174-8.646-19.932-12.762-1.522-.927-8.427-7.568-9.891-6.662" transform="translate(0 1.405)" fill-rule="evenodd"/><path d="M493.691,1311.934c-3.263,4.809-6.7,9.328-11.289,12.977a108.053,108.053,0,0,1-15.3,9.94c-9.529,5.26-22.3,9.917-33.37,7.533-3.147-.678-8.183-3.434-5.447-7.369,1.375-1.977,4.326-1.462,6.414-1.353,3.364.176,6.307.367,9.531-.765,5.924-2.083,11.889-4.047,17.673-6.5,5.6-2.375,10.516-5.632,15.656-8.831,4.821-3,8.5-6.592,12.733-10.219,1.16-.993,3.154-2.732,4.251-.8.793,1.4-.414,4.021-.849,5.385" transform="translate(-330.864 -1010.224)" fill-rule="evenodd"/><path d="M7.177,58.71c-1.055,1.833-3.4,5.389-5.958,3.856-3.263-1.956.969-8.2,1.765-10.558C6.454,41.751,6.7,30.763,5,20.157,4.158,14.884,2.628,9.735,2.053,4.417,1.941,3.384,1.424.735,2.72.129,4.276-.6,5.836,1.922,6.343,3.029,8.3,7.311,9.06,12.935,10.109,17.516a84.428,84.428,0,0,1,2.339,18.663C12.461,43.776,11.009,52.053,7.177,58.71Z" transform="matrix(0.94, -0.342, 0.342, 0.94, 267.874, 18.026)" fill-rule="evenodd"/><path d="M5.531,12.666c-.314,1.883-.457,7.267-3.473,6.652C-1.361,18.62.542,10.255.413,7.808c-.069-1.29-.808-7.13.9-7.721C4.871-1.143,5.4,11.009,5.531,12.666" transform="matrix(0.94, -0.342, 0.342, 0.94, 292.158, 26.112)" fill-rule="evenodd"/><path d="M561.384,1269.981c-3.276,2.987-7.079,2.812-11.215,2.527-2.1-.144-6.963-1.389-3.583-4,1.765-1.362,15.615-2.3,14.8,1.468" transform="translate(-422.137 -980.537)" fill-rule="evenodd"/><path d="M1745.359,1514.213c.233-.464,2.2-2.688,2.623-1.789.4.849-2.1,1.764-2.623,1.789" transform="translate(-1350.839 -1170.075)" fill-rule="evenodd"/><path d="M583.469,787.313c-.4.832-2.086.106-2.666.232.788-1.688,1.724-1.326,2.666-.232" transform="translate(-449.519 -608.313)" fill-rule="evenodd"/><path d="M1148.2,399.866q-.263,1-.525,2l-.808-1.5,1.333-.5" transform="translate(-887.629 -309.163)" fill-rule="evenodd"/><path d="M1092.089,772.5c4.2.425,8.423.639,12.644.769,3.563.109,5.026-.565,5.482-4.271.539-4.394.724-8.827,1.262-13.223.244-2,2.18-5.988-.151-7.057-1.954-.9-5,.387-7.048.538-2.28.169-5.72-.528-7.735.825-2.155,1.446-1.686,6.51-2.053,8.886-.7,4.53-1.543,9.03-2.4,13.532m-2.005-21.34c-3.811.288-7.634.515-11.434.922-1.691.181-5.114,1.018-6.539-.213-3.346-2.89,9.159-3.9,10.578-4.133,2.391-.384,6.482.126,8.016-2.133,1.516-2.234,1.133-5.988,1.525-8.582.589-3.9,1.264-7.8,1.658-11.731.132-1.321-.057-5.683,1.337-6.331,3.2-1.49,2.2,13.864,2.144,15.016-.09,1.981-.189,3.972-.465,5.937-.156,1.107-.7,2.605-.365,3.718.966,3.19,6.452,1.35,8.95,1.1,2.8-.286,7.125.8,8.052-2.658,1.165-4.346,1-9.281,1.427-13.752.12-1.237.432-10.471,2.708-9.755,2.542.8,1.55,8.516,1.527,10.5-.026,2.242-.017,4.486-.17,6.724-.136,2.011-.7,4.475-.283,6.467.735,3.493,4.873,1.635,6.074,4.413,1.141,2.641-5.08.57-6.241,1.478-1.735,1.355-1.317,7.014-1.565,9-.544,4.353-1.588,8.873-1.928,13.213-.268,3.426,2.484,2.971,5.284,2.723,2.4-.213,5.04-.784,7.447-.463,1.934.257,4.636,2.04,1.821,3.227-4.4,1.856-13.366-1.936-15.578,3.7-.417,1.063-2.358,13.394-4.8,7.307-1.02-2.544,1.477-6.536-1.185-8.485-.923-.676-2.3-.557-3.369-.632-2.637-.184-5.291-.247-7.933-.3s-5-.585-6.019,2.3c-.793,2.25-.7,4.768-1.338,7.07-.475,1.726-2.035,4.748-3.652,1.924-1.062-1.855-.249-5.1-.039-7.112.1-1.01.706-3.1-.059-3.948-.822-.91-3.021-.418-4.06-.335-3,.238-8.59,1.684-10.887-1.04-1.922-2.279,2.073-2.323,3.644-2.477,1.618-.159,3.237-.305,4.854-.476,1.78-.188,4.137.063,5.812-.5,2.813-.938,2.613-4.766,2.8-7.249.361-4.851,1.452-9.642,2.253-14.435" transform="translate(-828.301 -555.79)" fill-rule="evenodd"/><path d="M1363.138,907.67a36.857,36.857,0,0,1-1.434,8.6c-.684,2.012-2.064,2.623-2.535.062-.3-1.623,1.684-10.773,3.969-8.663" transform="translate(-1051.92 -701.94)" fill-rule="evenodd"/><path d="M569.4,809.3c-1.122-.806-6.437-5.047-2.6-5.215,1.962-.086,6.187,3.143,6.308,4.934.031.452-.936.686-.883,1.124.1.833,1.332,1.228,1.729,1.89a5.913,5.913,0,0,1-.618,5.735c-2.578,3.167-5.44-2.194-3.445-3.246-.445.234-6.412-2.8-6.636-3.487-1.227-3.757,5.838-.218,6.14-1.735" transform="translate(-435.828 -622.014)" fill-rule="evenodd"/><path d="M612.992,867.475c-1.363.043-4.1-.052-5.121-1.026-1.9-1.81,1.8-2.051,2.887-2.894,1.518-1.182,1.816-5.025,4.2-2.647,2.364,2.359.285,5.1-1.964,6.567" transform="translate(-470.055 -665.402)" fill-rule="evenodd"/><path d="M545.425,848.363c2.464-.362,7.947,4.955,5.286,5.308-1.761.234-4.9-3.888-5.286-5.308" transform="translate(-422.137 -656.268)" fill-rule="evenodd"/></g></g></g></svg>