<svg xmlns="http://www.w3.org/2000/svg" width="474.278" height="338.636" viewBox="0 0 474.278 338.636"><g transform="translate(-90 -82)"><path d="M445.93,329.13c-5.112,3.706-4.3,11-2.76,16.3,2.266,7.8,6.78,15.023,11.929,21.247,9.135,11.043,24.642,23.443,38.936,13.748,12.73-8.634,20.759-26.056,23.531-40.731.857-4.535,2-11.292-2.027-14.7-5.95-5.04-16.446-4.123-23.629-3.474-4.731.427-9.3,1.877-13.97,1.2-10.862-1.583-22.95-.149-32.01,6.419" transform="translate(-154.262 -104.74)" fill="#12c97a" fill-rule="evenodd"/><g transform="translate(90 82)"><path d="M430.415,260.812c-10.356,13.137-27.962,15.212-43.6,15.083a143.345,143.345,0,0,1-28-2.7,122.407,122.407,0,0,1-14.688-4.04c-3.168-1.085-7.883-1.627-9.231-5.021-3.556-8.955-.939-20.185.525-29.274.745-4.623,1.3-9.274,2.028-13.9.463-2.96.685-6.235,1.926-9,1.453-3.244,3.287-2.6,6.36-1.7a98.947,98.947,0,0,0,12.93,2.414A102.035,102.035,0,0,1,388.2,222.2c9.545,4.583,18.8,9.107,27.316,15.48a68.016,68.016,0,0,1,11.492,10.851c2.675,3.18,6.667,8.144,3.405,12.283m-45.269,58.349c-.083,1.415-16.314-2.856-18.449-3.335-14.014-3.143-28.306-6.723-41.536-12.4-12.349-5.3-23.23-11.365-32.947-20.783a141.609,141.609,0,0,1-12.5-13.936c-1.954-2.468-4.623-2.181-6.8-4.269-1.96-1.879-3.463-3.346-2.851-6.155,4.9,1.29,13.941,9.4,19.018,5.306,2.894-2.335-1.12-4.774-2.972-6.127a53.546,53.546,0,0,1-9.23-8.977,40.961,40.961,0,0,1,13.316,5.18c1.838,1.1,8.138,5.093,9.605,1.288.9-2.343-3.369-5.287-4.7-6.584-3.271-3.182-6.8-6.9-8.538-11.177,4.293-1,8.34,2.322,11.264,5.025,3.245,3,7.224,6.15,9.945,9.607,1.4,1.783,1.71,3.889,2.806,5.813a22.431,22.431,0,0,0,5.095,5.62,48.131,48.131,0,0,0,12.25,7.236,158.055,158.055,0,0,0,31.289,9.463,94.255,94.255,0,0,0,15.593,1.7c4.113.138,5.934,1.368,7.5,5.158,4.25,10.255,3.478,21.537,2.844,32.343m-122.059-78.14c-2.378,2.225-5.468,3.621-7.954,5.76a61,61,0,0,1-7.152,5.413c-2.606,1.624-4.554.486-6.9-.985-2.755-1.725-5.922-2.424-8.759-3.967-9.81-5.339-21.812-18.422-19.98-30.435.776-5.091,3.409-10.1,8.188-12.411,4.341-2.1,10.652-3.262,15.3-1.508,2.62.989,4.494,3.173,6.173,5.32,1.957,2.5,2.707,2.108,4.7-.306,3.567-4.318,9.449-8.106,15.263-8.015a20.811,20.811,0,0,1,8.363,1.854c.353.163.549.655.9.822.435.2,1.149-.221,1.451-.03a9.014,9.014,0,0,1,1.963,2.755c1.764,3.069,4.94,9.088,1.74,11.672,0,0,.142,3.5.1,3.895a16.8,16.8,0,0,1-1.875,5.713c-2.789,5.729-6.906,10.139-11.518,14.453m4.742,48.468c-2.253.7-4.679-6.36-2.518-7.487,2.06-1.075,4.558,6.853,2.518,7.487m-35.384-8.441c-.78,2.667-1.11,5.693-3.018,7.864a6.894,6.894,0,0,1-.225-8.029c.967-1.216,4.1-2.749,3.243.165m72.093-46.727c-.013.068,2.711,1.37,1.382,2.795-1.815,1.945-1.566-1.841-1.382-2.795m11.255-21.736c-.031,2.7-5.74,2.046-5.7-.666.05-3.338,5.733-2.192,5.7.666m-6.814-22.537c.565-2.469,10.494-5.9,10.224-1.6-.136,2.157-11.423,6.849-10.224,1.6M207.186,273.774c-1.113,1.338-2.694,1.866-4.028,2.893a35.029,35.029,0,0,0-3.621,3.737c-3.356,3.47-7.4,6.321-11.016,9.508-6.656,5.859-13.032,12.157-20.411,17.126-13.187,8.879-28.48,13.735-43.661,17.987-1.258.352-4.88,1.774-6.125.715-1.342-1.142-.66-5.161-.6-6.681.252-6.23.978-12.534.9-18.755-.033-2.555-.781-6.188.553-8.526,1.489-2.611,5.645-3.375,8.216-4.358,7.814-2.987,15.342-8.025,22.245-12.691,8.485-5.737,17.055-11.568,25.788-16.923,8.555-5.246,17.992-8.759,27.535-11.755.442.929-4.112,3.919-4.632,4.338-2.5,2.01-5.213,4.093-7.066,6.746-1.312,1.878-2.658,6.129.965,6.237,1.756.053,4.352-1.646,5.945-2.2a45.608,45.608,0,0,1,8.092-1.959c-2.365,2.6-10.383,7.283-8.924,11.614,1.415,4.2,9.6-.7,12.42-.7-.462,1.466-1.623,2.5-2.575,3.644m-96.714,11.731a135.188,135.188,0,0,1-16.027,4.082c-5.157,1.135-9.925,1.99-15.207,1.326-7.294-.917-15.365-3.938-16.29-12.226-1.1-9.819,5.838-18.843,11.793-25.887a165.516,165.516,0,0,1,24.2-23.173,178.721,178.721,0,0,1,28.28-18.2c7.579-3.925,16.138-6.308,24.151-9.253,1.525-.56,5.741-2.529,7.167-.9,1.152,1.32-.416,3.518-.941,4.743a24.158,24.158,0,0,0-1.43,7.358c-1.182,11.453-2.6,22.9-3.258,34.405a86.254,86.254,0,0,0-.316,9.767c.1,1.777,1.028,4.04.412,5.774-1.184,3.335-6.6,5.542-9.477,7.031-5.143,2.666-10.588,4.656-15.784,7.207-5.706,2.8-11.261,5.829-17.278,7.946m72.709-74.419c1.439-.2,3.595-.589,4.878.343,1.673,1.216,1.234,2.908-.311,3.789a7.271,7.271,0,0,1-5.282.255,2.3,2.3,0,0,1,.715-4.387m7.97,26.521c-1.163,1.937-5.413,3.207-5.043-.407.318-3.095,7.185-3.159,5.043.407m-1.578-54.563c1.869.724,5.262,1.344,5.816,3.749.516,2.238-1.605,2.09-3.136,1.474-1.259-.506-6.867-5.261-2.681-5.223m292.9,85.381c-1.092-4.249-.26-8.953-.863-13.3a54.436,54.436,0,0,0-3.146-12.071A108.254,108.254,0,0,0,465.874,218.6a163.582,163.582,0,0,0-36.332-37.985,180.667,180.667,0,0,0-46.288-24.988c-17.552-6.336-35.22-8.541-53.729-9.756-5.528-.362-11.05-.792-16.546-1.49-4.017-.51-9.053-1.139-13.024.092-2.5.773-3.889,2.949-1.171,4.377,1.927,1.013,4.45,1.134,6.579,1.4-2.571,8.168-6.754,16.364-13.384,21.989-6.472,5.491-15.133,7.374-23.3,8.766a59.908,59.908,0,0,1-13.888,1.013c-2.844-.205-5.063-1.522-6.211,1.407-.8,2.035-1.173,4.268-2.223,1.2-1.242-3.633-1.851-3.61-5.713-4.642-7.9-2.11-16.954-4.036-23.845-8.6-7.149-4.735-9.636-12.394-13.627-19.526-.987-1.763-3.964-5.331-2.443-7.35,1.391-1.847,5.916-1.663,7.987-1.856,2.186-.2,4.386-.212,6.579-.3,1.271-.049,3.827.472,3.316-1.426-.772-2.861-9.036-2.494-11.088-2.541a87.081,87.081,0,0,0-11.483.423,350.13,350.13,0,0,0-56.047,11.067c-35.35,9.961-69.587,28.316-95.385,54.759C19.843,230.018,12,272.257,27.222,304.667c7.911,16.843,25.081,23.763,41.725,29.351,8.779,2.947,18.075,5.253,27.407,4.7,4.478-.267,8.728-1.473,13.1-2.381a22.274,22.274,0,0,1,6.029-.869c1.481.121,2.9,1.48,4.293.758.986-.513,1.415-1.985,2.62-2.612a21.133,21.133,0,0,1,4.763-1.4c4.343-1.055,8.549-2.766,12.794-4.169a133.8,133.8,0,0,0,12.745-5.208c2.127-.954,7.049-4.833,8.435-2,.632,1.294.363,3.79.517,5.148.27,2.374.587,4.743.933,7.107.763,5.2,1.676,10.387,2.612,15.563a130.072,130.072,0,0,0,7.507,27.066c2.907,7.015,5.458,14.966,10.855,20.546a9.335,9.335,0,0,0,8.95,2.767c3.844-.871,5.757-4.363,8.091-7.186,5.134-6.212,13.61-10.972,21.437-12.686,9.584-2.1,18.921.971,28.069,3.579,9.677,2.759,19.528,5.388,29.027,8.705,8.851,3.091,18.408,7.657,28.007,7.259,8.371-.346,16.19-7.159,22.227-12.352,6.063-5.216,13.645-12.852,22.363-12.238,4.329.3,8.274,2.393,12.491,3.242,4.629.932,9.555,1.064,14.262,1.412,5.844.431,18.917-1.092,21.079-8.122.321-1.043.323-3.191-1.055-3.608-1.267-.383-1.914,1.1-3.114,1.03-2.442-.138-4.35-4.4-5.691-6.043-5.414-6.654-12.84-11.617-18.915-17.629-6.86-6.787-12.716-15.01-17.885-23.121,2.337-.607,4.858.4,7.119.88,2.748.582,5.426,1.286,8.134,2.031,2.984.822,6.012,1.387,9.041,2.013,2.26.466,5.26.607,7.3,1.741,1.781.99,2.775,2.053,4.986,2.34a50.483,50.483,0,0,0,6.815.031c6.109-.041,12.2-.155,18.285-.8,21.484-2.282,44.257-11.369,57.175-29.4A56.652,56.652,0,0,0,479.881,284c1.4-4.5,3.8-10.847,2.588-15.574" transform="translate(-8.524 -60.634)" fill-rule="evenodd"/><path d="M436.787,0c5.646.08,10.938,1.754,16.2,3.657,4.626,1.674,9.558,3.222,13.3,6.562,6.728,6.009,8.481,15.958,9.582,24.47,1.373,10.622-3.2,19.533-7.044,29.143-3.6,8.988-10.2,16.268-18.05,21.816a48.431,48.431,0,0,1-13.412,6.2c-4.83,1.562-9.508,3.655-14.675,3.647-7.848-.011-17.894-3.739-21.237-11.47-1.522-3.52-.04-4.152,3.006-2.239,4.418,2.776,8.677,5.771,13.84,7C428.307,91.18,440.3,87.48,449.079,82.6s14.669-12.214,18.606-21.345c3.973-9.211,5.517-18.288,3.984-28.219-1.3-8.415-3.881-16.1-11.465-20.671C443.834,2.5,421.777,3.3,407.218,16.112c-2,1.757-3.97,3.466-6.028,5.144-1.308,1.066-2.849,2.345-2.658,4.189.162,1.579,3.529,7.667-.525,5.8-3.286-1.516-5.072-4.48-9.053-4.847-4.237-.391-9.292,2.864-10.559,6.961-1.209,3.909.947,9.257,4.324,11.5,2.091,1.388,4.392,1.174,6.767,1.118,1.178-.028,4.46-.411,5.239.835,1.38,2.2-3.489,4.52-5.06,5.007a9.4,9.4,0,0,1-10.54-3.623,25.179,25.179,0,0,1-4.072-11.619A16.979,16.979,0,0,1,378,25.352c2.485-3.458,7.551-7.335,12.092-6.134,1.971.521,3.554,2.558,5.489,2.945,1.221.244.707.418,1.719-.487a27.813,27.813,0,0,0,1.842-2.314c3.408-3.913,6.778-8.089,10.95-11.221C417.566,2.525,427.507-.127,436.787,0ZM416.1,77.585c.885-2.074,2.51,1.626,2.99,2.244.951,1.224,3.188,2.176,3.091,3.98-.159,2.98-4.22,2.427-5.575.873C415.069,82.913,415.23,79.633,416.1,77.585Zm28.852-14.107c2.191,3.414-.479,7.1-2.211,10.122-1.656,2.889-3.195,6.155-5.123,8.872-3.2,4.51-10.164-.369-10.371-5-.158-3.548,2.355-2,3.968-.678,1.66,1.365,2.447,1.7,4.188.214,3.5-3,5.075-8.017,7.5-11.816A7.165,7.165,0,0,1,444.956,63.478Zm6.246,1.1c.565,1.651-.62,6.026,2.674,5.589,1.821-.242,2.209-2.854,3.166-3.994,3.219-3.833,2.232,3.417,1.391,5.231-1.854,4-7.042,6.754-9.615,1.681a9.439,9.439,0,0,1-.467-6.3C448.615,65.68,450.159,61.527,451.2,64.576Zm-29.38-7.82c-.292,1.927-2.1,5.765.108,7.143,1.945,1.213,5.333-1.421,6.831-2.521,1.557-1.143,5.084-4.422,5.222-.342.071,2.08-2.012,4.576-3.5,5.774-3.17,2.556-9.757,4.848-12.093.038-1.273-2.62-.576-6.351.265-8.991C419.339,55.717,422.525,52.1,421.821,56.756ZM463.4,46.209c1.29,1.5,4.348,4.854,2.685,6.988-1.944,2.494-5.1-2.082-6.347-3.355-1.122-1.147-3.482-4.414-2.475-6.146C458.926,40.828,462.265,44.894,463.4,46.209Zm-20.276-6.451c4.217,2.747-1.327,4.725-3.729,4.971-2.907.3-6.624.493-9.293-.933-3.785-2.022-2.523-5.076,1.145-5.807C435.005,37.24,439.849,37.626,443.121,39.758ZM388.3,31.013c3.1.6,6.643,1.389,7.7,4.769,1.09,3.494-.476,4.653-3.644,3.867-2.93-.728-7.308-1.461-8.964-4.323C381.414,31.906,385.427,30.454,388.3,31.013Z" transform="translate(-164.342 0)" fill-rule="evenodd"/><path d="M53.337,151.227c-1.041,3.361-6.308,5.59-8.934,7.632A303.168,303.168,0,0,0,17.932,181.6c-4.311,4.234-7.574,9.355-11.312,14.064-.912,1.149-2.528,3.723-4.317,3.481-1.963-.264-2.36-3.645-2.3-5.121.214-5.034,4.812-9.9,8.091-13.363,3.688-3.9,7.632-7.7,11.659-11.246a133.872,133.872,0,0,1,14.149-10.554c4.815-3.229,9.432-6.959,14.439-9.884C50.7,147.6,54.62,147.08,53.337,151.227Zm321.142-31.916c3.835.121,7.577,1.379,11.193,2.546a166.875,166.875,0,0,1,23,9.857,223.219,223.219,0,0,1,37.259,23.41,67.17,67.17,0,0,0,7.518,4.933c1.681.983,4.078,2.183,4.725,4.187,1.645,5.094-6.658-.019-7.837-.75l-1.657-1.028c-24.584-15.237-49.14-30.041-76.949-38.779a1.966,1.966,0,0,1-1.165-3.1C371.412,119.172,373.054,119.266,374.479,119.311ZM52.218,129.972c-.178,1.551-1.935,1.9-3.119,2.4-4.421,1.857-8.953,3.441-13.362,5.329-8.183,3.5-15.7,8.588-24.24,11.247-1.952.609-2.24-1.361-1.717-2.7.582-1.5,2.33-2.547,3.595-3.412a68.308,68.308,0,0,1,11.834-6.03c4.015-1.722,8.15-3.024,12.267-4.468C41.3,131,45.743,128.5,49.852,128.315l.18-.009C51.339,128.24,52.425,128.151,52.218,129.972ZM381.459,106.41c-3.91-1.1-.216-3.575,2.107-3.4,2.592.194,5.1,1.418,7.556,2.156a132.055,132.055,0,0,1,21.5,8.227c1.047.523,5.66,3,2.609,4.1-2.115.76-7.054-2.5-8.869-3.285C398.385,110.766,389.812,108.759,381.459,106.41Z" transform="translate(0 -45.139)" fill-rule="evenodd"/><path d="M394.33,109.6c.489-1.434,6.533-17.108,4.167-17.581-2.506-.5-5.856,8.593-6.583,10.236a87.734,87.734,0,0,0-5.52,19.088,54.775,54.775,0,0,0-1.326,13.809c.233,3.561,1.7,4.1,4.128,6.282A98.637,98.637,0,0,1,394.33,109.6" transform="translate(-168.724 -40.318)" fill-rule="evenodd"/></g></g></svg>