<svg xmlns="http://www.w3.org/2000/svg" width="460.379" height="656.754" viewBox="0 0 460.379 656.754"><path d="M401.409,382l-.139.017c-2.019.391-5.365,6.166-6.736,7.808L381.28,405.709c-1.768,2.119-4.318,4.344-5.578,6.8-.969,1.886-1.3,4.488-1.88,6.51-7.185,25.116-14.211,50.395-19.445,76-1.127,5.511-2.2,11.061-2.822,16.656-.309,2.765-1.121,6.829.083,9.5,1.358,3.012,5.727,4.264,8.565,5.2a117.072,117.072,0,0,0,17.023,3.871c13.783,2.339,27.738,3.7,41.667,4.8,4.255.336,8.636.33,12.864.9,2.02.273,1.414-.269,2.051,1.087.886,1.886.3,5.823.4,7.879q.372,7.257.743,14.513h0L436.984,599q1.028,20.067,2.056,40.134.388,7.6.778,15.207c.139,2.709-.274,6.207.452,8.831.55,1.984-.354,1.4,2.078,1.517,5.633.272,11.47-.41,17.106-.612l19.176-.685c1.825-.066,3.865.452,4.6-.857.9-1.594.214-5.975.277-7.755q.266-7.439.532-14.878l1.461-40.841q1-27.849,1.994-55.7l21.324,4.291L540.326,554c4.817.97,10.538,3.182,15.512,2.468,4.941-.709,6.983-2.819,7.26-7.509.3-5.027.182-10.094.114-15.125-.111-8.23-.347-16.459-.658-24.684l-42.1-3.792-22.417-2.019c-1.7-.152-5.876.175-6.633-1.1-1.177-1.987.133-8.522.168-10.769h0l.335-21.249h0l1.227-78.183q-5.04.165-10.08.3c-14.618.412-29.307,1.01-43.929.561-7.333-.225-14.28-2.2-21.2-4.537-3.681-1.241-7.324-2.592-10.939-4.013-1.138-.447-4.486-2.563-5.713-2.326Zm19.68,72.752,7.468,36.525L403,489.586Z" transform="translate(-187.831 -54.978)" fill="#12c97a" fill-rule="evenodd"/><g transform="translate(0)"><path d="M19.813,104c.522,4.063.15,8.492,4.737,9.563,4.244.992,8.9.714,13.228,1.061,4.863.391,9.711.925,14.564,1.405,6.118.606,5.245-1.745,6.583-6.97,1.222-4.771,3.173-9.533,4.8-14.187A50.475,50.475,0,0,1,66.4,88.681c.932-1.845.488-4.355,1.492-5.906,3.425-5.292,20.13,9.178,21.682,6.326-2.827-2.2-7.719-4.663-8.586-8.429-1.02-4.426,1.792-5.747,5.326-4.129a109.758,109.758,0,0,0,28.214,8.549c-3.067-2.05-30.807-18.209-21.5-23,2.1-1.08,4.9.953,6.793,1.722a71.151,71.151,0,0,0,9.275,2.84q4.955,1.265,9.937,2.421c2.33.538,6.483,2.449,8.753,1.977,2.3-.479-1.778-1.91-2.447-2.247-2.915-1.469-5.783-3.046-8.628-4.644a50.246,50.246,0,0,1-13.551-10.5c-2.9-3.308-7.681-10.531-5.664-15.1,1.169-2.651,3.73-5.1,5.235-7.613,1.757-2.934,3.175-6.061,4.7-9.117-2.554,1.123-5.421,1.411-8.028,2.418s-5.255,1.825-7.967,2.575c-5.441,1.5-10.866,1.771-16.259,2.991-6.1,1.38-12.464,2.924-18.665,3.721A35.136,35.136,0,0,0,41.64,38.643,45.34,45.34,0,0,0,22.325,63.978c-1.942,6.258-2.415,12.788-2.643,19.3-.241,6.865-.747,13.888.132,20.723m53.021.505c6.6,4.809,14.288,8.567,21.368,12.658,4.051,2.34,8.189,4.527,12.321,6.721,2.932,1.557,6.5,4.422,9.723,5.22,2.042.505,1.89.544,3.182-1.318,1.235-1.778,2.314-3.692,3.47-5.523q3.2-5.064,6.434-10.1c4.823-7.539,9.637-15.077,14.705-22.456,5.084-7.4,9.961-14.944,14.886-22.453,2.289-3.491,4.564-7,6.993-10.391,1.855-2.592,6.611-6.547,4.352-9.6-2.1-2.835-6.876-5.191-9.7-7.337-3.454-2.62-6.928-5.213-10.373-7.847-7.405-5.661-14.616-11.569-22.015-17.238C121.9,25.855,114.513,36.18,107.063,46.418c6.738,4.3,13.544,8.387,20.644,12.068,5.244,2.718,13.266,6.392,16.578,11.549,3.263,5.078.058,10.937-5.758,11.03-3.478.055-6.945-.866-10.355-1.392-2.462-.38-6.956-2.154-9.176-.9,3.989,2.545,18.462,9.964,10.66,16.467-5.577,4.649-15-2.135-21.028-.739,1.836,3.524,3.745,9.145-1.352,11.061-4.241,1.6-9.793-1.378-13.61-2.955-2.758-1.139-5.5-2.317-8.211-3.56-2.156-.989-4.739-2.993-7.044-3.42-2.689-.5-8.164,7-5.577,8.882M195.478,364.225c-3.775-.688-5.713-2.249-6.9,2.333-1.065,4.105-2.12,8.06-3.492,12.089a26.148,26.148,0,0,1,15.4,7.285c3.062,2.822,9.151,9.557,7.641,14.282-3.667,11.482-22.191-14.277-24.392-17.03-2.695,3.938-3.686,9.094-5.025,13.6-.953,3.205-4.491,9.35.186,10.129,6.565,1.094,18.883,3.539,18.1,12.838-.92,10.976-14.882,10.913-22.715,11.407-4.416.277-4.437,3.816-5.065,7.776-.282,1.771-1.16,4.164.344,5.461,1.335,1.151,5.424,1.183,7.162,1.555,5.066,1.088,10.129,2.2,15.195,3.283,5.751,1.234,8.792-.494,14.167-2.07,1.991-.583,3.99-.337,4.136-2.565.09-1.368-1.248-3.482-1.687-4.834a75.4,75.4,0,0,1-3.711-16.479c-.726-8.165.181-20.406,10.234-22,4.783-.758,5.7-1.005,7.862-5.494,2.336-4.854,6.043-9.349,5.147-14.941-.648-4.052.446-11.719-2.141-15.079-1.2-1.553-3.526-2.481-5.117-3.62-2.027-1.454-3.979-3.011-5.868-4.639-1.589-1.368-3.526-4.044-5.328-5.033-2.2-1.209-2.268-.385-3.849,1.5-2.333,2.787-6.042,11.018-10.284,10.244m-10.669,18.139c1.308,2.64,4.331,5.095,6.257,7.3A85.614,85.614,0,0,0,197,396.231c2.378,2.212,10.823,7.553,8.962.363-1.448-5.592-6.865-10.122-11.634-12.912-.923-.541-11.729-5.785-9.515-1.318m-9.239,26.623c-.837,3.743-1.288,7.6-2,11.372-.367,1.927-2.394,6.583-1.567,8.437,1.4,3.142,14-.577,16.612-1.658,6.217-2.574,9.072-9.181,3.338-13.887-2.174-1.783-15.543-8-16.38-4.263m-8.26,44.955c-.7,3.573-2.755,6.886.639,9.588,2.818,2.243,7.435,3.773,10.908,4.572,4.733,1.088,6.255-1.564,8.76-4.975,2.694-3.668,5.561-7.212,8.537-10.656L168.122,446.2a39.714,39.714,0,0,1-.812,7.747M189.7,470.526c4.873-.252,10.116,1.215,15.057,1.6,6.172.482,12.326,1.183,18.5,1.6-1.582-5.049-4.425-9.552-6.649-14.322-2.23-4.786-3.8-5.3-8.929-5.673-4.755-.342-8.109-1.979-11.618,2.055-3.651,4.2-6.958,8.755-10.291,13.2a6.852,6.852,0,0,0,3.926,1.54m34.831,1.031c1.2.876,4.91-1.614,6.159-2.1,2.431-.939,2.969-1.242,4.238-3.612,1.09-2.038,2.823-4.355,3.165-6.682.451-3.066-.906-7.1-1.4-10.152-1.316,3.172-5.635,3.541-8.553,4.059-2.207.393-8.746-.233-10.41,1.339-1.839,1.737,1.546,6.579,2.428,8.4,1.053,2.177,2.352,7.269,4.373,8.74m2.356,2.516c1.447.235,5.611,1.674,5.528-.969-.093-3.019-5.823.238-5.528.969m7.338-.158c.264,2.542,5.734,2.331,5.859.1.213-3.778-6.279-4.154-5.859-.1m6.254-68.548c1.4,3.983,9.916,5.408,13.187,6.634,2.987,1.12,11.911,6.289,14.992,4.414-10.427-7.166-21.112-14.188-29.946-23.338a13.161,13.161,0,0,0,.856,6.288c.6,1.931.292,4.238.911,6m2.593,14.524c1.5,9.756,2.973,19.64,5,29.3,3.869-1.182,7.06-3.578,11.125-4.413a32.435,32.435,0,0,1,11.281-.224c7.97,1.185,15.075,5.128,22.029,8.969.642-6.69,1.972-13.85,1.815-20.564-.13-5.577-9.674-7.228-14-9.532-2.619-1.394-4.987-3.354-7.971-3.84-3.07-.5-6.033-.486-9.066-1.421-7.171-2.212-13.919-5.72-20.944-8.334-.574,3.349.224,6.761.732,10.061m6.7,41.289c.319,2.217-.083,6.175,1.607,7.865,1.591,1.592,4.991,1.644,7.089,2.075q9.589,1.973,19.164,4,4.284.91,8.581,1.729c1.368.258,4.8,1.57,5.951.482,1.093-1.034.279-4.336.22-5.721a79,79,0,0,1-.1-8.311c.333-5.31.037-7.343-4.9-10.09a53.466,53.466,0,0,0-16.583-6,30.536,30.536,0,0,0-17.379,1.8c-1.585.639-3.962,1.426-4.7,3.135-1,2.325.717,6.678,1.055,9.034m7.2,85.591c2.343,1.469,7.442,1.219,10.134,1.517a49.513,49.513,0,0,0,13.039-.465c3.25-.5,8.1-1.2,10.592-3.485,3.539-3.242-.545-3.391-3.254-3.163a152.523,152.523,0,0,1-23.717-.369c-1.532-.111-5.649-1.456-7.126-.826-1.888.8-1.31,5.762.331,6.791m4.465,52.4c14.672-1.426,23.179-13.576,28.5-26,2.856-6.668,1.826-13.666,2.108-20.717.051-1.288.86-4.485-.464-5.446-1.244-.9-6.278,1.891-7.639,2.224a47.141,47.141,0,0,1-21.691.213c-3.03-.72-4.727-2.058-5.689.945-.775,2.418.5,6.874.636,9.409.24,4.384-.447,39.824,4.24,39.369m29.31.013c.056-2.128,1.13-23.635.088-23.7-3.1,6.678-6.275,12.651-11.911,17.563a32.363,32.363,0,0,1-9.715,6.12c-1.353.506-9.017.89-9.393,2.568-.657,2.937,4.575,1.752,6.127,1.513,1.245-.193,2.366-.723,3.587-.945,2.327-.422,4.527.145,6.864.193,3.551.072,7.039-.3,10.592.008,3.248.28,3.674-.093,3.761-3.32m-2.166-96.465c-12.561-4.06-23.058,3.629-29.687,13.692-3.78,5.739-4.625,9.752-3.964,16.547.237,2.433-.2,4.079,2.036,5.07,2.214.982,7.243.254,9.638.366a194.584,194.584,0,0,0,20.638.341c4.474-.265,5.107-1.023,5.029-5.366-.092-5.228.342-10.433.638-15.67.32-5.666,2.266-12.849-4.329-14.98m4.11-7.531c-.008-3.841.223-7.783-.012-11.619-.234-3.8-1.852-3.615-5.442-4.264-7.774-1.405-15.538-2.978-23.208-4.884-3.033-.753-6.461-2.2-9.621-2.211-3.316-.013-3.14,1.692-2.919,4.628.492,6.5,1.683,12.911,2.046,19.381.391,6.982.6,14.054.565,21.043-.011,2.36-.584,4.107,1.427,1.9s3-5.736,4.8-8.222a29.111,29.111,0,0,1,15.232-10.908,21.913,21.913,0,0,1,10.316-.429c1.039.209,6.243,2.693,6.906,2.2.448-.332-.087-6.463-.087-6.618M246.738,628.331a92.526,92.526,0,0,1-16.084,8.952c-3.143,1.408-15.582,4.371-15.979,7.54-.212,1.69,1.85,3.585,3.2,3.785,1.713.254,4.535-.865,6.279-1.077,6.344-.77,12.676-.775,18.866-2.541,12.359-3.527,25.172-4.521,37.66-7.6,2.971-.731,5.949-1.417,8.935-2.08,2.837-.63,4.108-.522,4.208-3.553.221-6.653-1.687-13.47-1.7-20.205-10.1,1.153-20.239,1.138-30.369,2.087-4.341.406-4.24,1.229-6.142,5.022a27.722,27.722,0,0,1-8.872,9.665m49.256-216.154c.128-2.463.228-4.933.451-7.389.15-1.65,1.657-6.262.807-7.548-1.01-1.526-2.027-.594-3.834-.637a12.157,12.157,0,0,1-6.34-2.267,30.09,30.09,0,0,1-8.9-9.14c-2.124-3.208-1.729-7.59-1.7-11.43.067-9.932-.657-19.619-.05-29.594.278-4.582-3.633-1.772-6.791-1.179-5.166.97-10.782.3-16.032.311.2,1.221,10.932,4.253,12.666,5.408a14.207,14.207,0,0,1,6.625,13.064c-.815,10.837-12.75,12.648-21.471,12.669,7.235,6.4,14.341,12.5,20.028,20.389,4.193,5.819,11.578,17.293,4.723,23.731,6.059,3.441,12.065,7.269,18.917,8.925.307-5.1.636-10.208.9-15.315m2.751-197.82c-2.467,1.585-3.5-.656-5.381-1.816-2.644-1.635-3.519-1.474-3.855-5.125-.62-6.771,2.228-12.9,5.8-18.441,1.625-2.518,3.247-5.518,5.541-7.486,2.092-1.795,4.206-1.177,6.144-3.032.761-.73.6-1.759,1.855-1.73.828.019,2.841,2.585,3.525,3.151,2.161,1.789,4.8,3.151,7.636,1.675,4.123-2.147,2.8-9.939-.4-12.463-2.466-1.943-5.38-1.643-8.187-1.957-2.105-.235-2.543-.143-1.677-2.552.607-1.687,2.006-3,2.7-4.654,1.328-3.168,1.039-7.019,1.613-10.372.515-3,1.72-6.254,1.676-9.305-.057-3.885-1.327-4.895-4.693-5.984-3.261-1.055-5.962-3.381-8.739-5.335-3.144-2.212-6.588-3.673-9.819-5.693-2.193-1.372-3.609-4.145-6.021-2.85-2.866,1.539-5.9,6-8.334,8.272,3.566,2.264,4.4,3.254,3.9,7.686-.452,4.063-1.279,7.683-4.384,10.513-1.193,1.088-3.418,1.959-4.343,3.213-1.079,1.461-.377.173-.241,1.822.072.889.776,1.471.623,2.5-.684,4.566-5.93,1.871-8.091.285-7.723-5.667,6.7-10.168,10.122-12.232,2.365-1.426,3.534-5.979-.213-4.77-2.493.8-8.124,7.625-8.7,1.408-6.181,3.59-10,11.219-15.179,16.042-3.737,3.478-8.758,7.337-5.791,12.892,3.78,7.081,11.277,10.3,18.12,13.351,6.638,2.963,5.26,11.349,1.712,16.481A17.867,17.867,0,0,1,257.7,204c-3.3,1.474-3.989,3.2-4.711,6.622-.8,3.791.05,5.319,3.333,7.278a90.492,90.492,0,0,0,9.978,5.263c7.4,3.238,15.075,3.442,22.945,4.546,2.758.387,5.4,1.192,6.908-1.542,1.692-3.077,1.817-8.377,2.594-11.808m1.19-14.727c1.852-.976,6.323,2.266,8.665,2.408,3.788.229,6.274.143,9.636,2.152,6.356,3.8,11.63,8.688,16.726,13.99q8.611,8.959,17.169,17.966,3.889,4.07,7.833,8.085c2.076,2.107,4.105,5.069,6.675,6.572-.134-1.785-1.228-3.049-1.617-4.7-.226-.968.169-1.789.023-2.715-.048-.3-.856-1.347-.979-1.69-.328-.905-.729-1.8-1.118-2.739-.363-.878-.31-1.787-.678-2.7-.379-.945-1.417-1.57-1.776-2.5-1.055-2.724.691-3.986,3.484-3.922-1.093-5.45-1.57-8.115-7.268-10.037a87.459,87.459,0,0,1-15.762-6.766c-4.44-2.547-8.144-6.218-12.413-9.057-3.821-2.542-8.578-5.2-8.538-10.417-2.167,1.469-4.2,2.706-6.675,1.243-2.092-1.236-2.369-2.23-4.787-2.463a7.942,7.942,0,0,0-4.959.629c-2.073,1.02-2.357,1.731-3.564-1.275-1.372,1.155-4.841,5.966-4.725,7.87.063,1.049.222,1.522,1.522,1.8,1.844.392,1.772-1.01,3.127-1.724m8.637,284.7c.9,1.381,4.7,1.126,6.168,1.108,4.473-.058,6.036-3.812,8-7.439,3.094-5.719,7.718-17.6,2.642-23.6-4.006-4.737-11.809,1.231-14.542,4.809-2.36,3.091-1.659,7.727-1.878,11.435-.185,3.126-2.169,10.96-.388,13.687M320.79,486.4c1.788,1.788,7.592,1.41,9.961,1.794a95,95,0,0,1,12.537,2.756c3.054.93,6.073,3.431,6.879-.826.676-3.579.34-7.873.275-11.486-.07-3.9-.478-7.746-.816-11.626-.23-2.624.345-7.452-1.8-9.466-1.846-1.736-6.335-1.9-8.732-2.478-3.935-.944-8.047-2.184-12.138-1.761a27.157,27.157,0,0,1,.03,19.728c-.73,1.843-7.3,12.261-6.2,13.365M350.867,460.6c1,9.745,2,19.551,1.04,29.345-.058.584-.756,3.26-.452,3.678.314.434,2.8.658,3.361.791,2.24.531,4.476,1.094,6.73,1.566,4.387.917,4.959-1.854,5.82-5.92,1.844-8.711-1.731-18.156-3.9-26.522-1.055-4.074-1.837-4.543-5.843-4.881-2.788-.235-7.183-2.2-6.759,1.943m16.941,36.356c1.676,1.525,3.352-5.67,3.5-6.4.586-2.912.26-5.865.251-8.822-.014-4.619.339-9.217.346-13.814,0-2.486,1.867-7.57-1.075-8.886a9.759,9.759,0,0,0-5.072.282c-1.617,1.056-.979,1.74-.5,3.577,1.073,4.122,2,8.265,2.934,12.421.916,4.075,1.82,8,1.384,12.205-.144,1.392-2.836,8.467-1.767,9.439m-53.465-45.405c-4.087-1.152-4.305,1.98-4.3,4.976.623-.477,6.431-4.375,4.3-4.976m54.666-219.97c1,1.65,7.344,2.1,9.156,2.535,3.566.854,7.133,1.7,10.689,2.592,6.663,1.666,13.162,3.546,19.992,4.417-3.751-6.005-4.917-11.191-4.22-18.685a204.924,204.924,0,0,1,4.178-28.089c2.147-9.133,4.633-18.2,7.028-27.276,1.176-4.457,2.448-8.829,4.013-13.165,1.254-3.476,3.213-7.851,1.085-11.414-5.4,3.942-9.736,8.188-12.817,14.176-3.3,6.419-6.184,13.008-10.015,19.149-1.752,2.808-3.8,5.368-5.672,8.086-1.115,1.617-1.927,3.95-3.347,5.314-1.637,1.572-3.382,2.313-4.318-.34-1-2.847,2.2-8.481,3.143-11.155,2.283-6.455,4.546-12.9,6.306-19.518,1.424-5.352,3.778-11.823,2.945-17.47-.825-5.591-4.618-1.59-6.538,1.01-3.957,5.359-6.327,11.605-8.926,17.68-2.389,5.582-5.176,10.9-7.82,16.355-.92,1.9-2.132,6.8-4.542,7.362-3.5.821-3.206-4.111-2.871-6.113,2.219-13.267,8.014-25.971,9.216-39.468.058-.645.9-5.66.222-6.078-1.306-.812-3.067,4.275-3.63,5.522a135.31,135.31,0,0,0-6.843,20.167c-1.592,5.824-3.033,11.693-4.82,17.462-.982,3.172-2.108,6.29-3.217,9.418-1,2.834-2.023,7.676-4.641,9.543-3.714,2.649-17.006-3.649-18.353,1.981-.958,4,11.367,7.225,13.991,8.44,3.455,1.6,6.845,3.351,10.3,4.953,2.617,1.211,6.379,1.708,8.272,3.988,2.006,2.415,2.327,5.806,2.387,8.8.046,2.267-1.525,7.863-.336,9.82m8.4,43.7c.176,1.258,1.175,2.923,1.625,4.12a57.069,57.069,0,0,0,2.968,7.63c1.1,1.962,2.712,3.716,3.771,5.708,1,1.89,1.138,4.068,2.31,5.961,1.342,2.162,3.56,3.717,4.892,5.866a29.584,29.584,0,0,0,2.263,3.4,112.084,112.084,0,0,1,9.193,12.055c.676,1.1,3.978,5.884,5.292,6.143,2.747.54-.451-3.365-.988-4.173-3.892-5.84-7.348-11.989-11.1-17.921-3.639-5.743-7.362-11.441-10.864-17.271-2.856-4.753-4.831-11.576-9.473-14.924q-.026,1.707.115,3.407M250.507,221.6c-2.261,9.294-4.965,18.3-7.513,27.51-2.365,8.546-5.512,17.692-6.492,26.5a113.739,113.739,0,0,1-6.2,25.842c-1.387,3.833-2.814,7.68-4.32,11.469-.827,2.081-1.752,4.116-2.691,6.148-.729,1.579-2.655,4.137-2.729,5.81-.059,1.34-.525.8.8,1.811,1.37,1.043,3.742.664,5.337.848,4.16.481,8.216,2.046,12.272,3.06,7.821,1.954,17.144,3.506,25.159,2.146,3.371-.572,6.873-1.068,10.206-1.814,4.1-.918,4.945-2.615,5.787-6.647,1.841-8.814,3.427-17.6,4.947-26.477,1.808-10.554,3.764-21.1,5.159-31.715,1.409-10.743,2.421-21.5,4.629-32.122-8.906,1.49-17.293,3.172-26.225.731a30.361,30.361,0,0,1-18.121-13.1M215.644,336.658c-1.991,4.1,2.808,7.793,5.133,10.954,3.067,4.166,5.931,8.519,9.5,12.287,1.07-4.282,2.009-9.1,4.864-12.617,3.647-4.491,7.9-2.656,12.371-4.78-4.685-2.28-10.668-1.41-15.638-3.442-4.9-2-9.853-3.578-14.415-6.183-.606,1.26-1.2,2.523-1.814,3.782M233.02,432.4c2.995.166.991-6.149.8-7.718-.535-4.314-1.075-8.627-1.544-12.949q-3.706,9.773-7.41,19.545c2.715.388,5.412.969,8.157,1.121m4.871,31.233c-.409.908-2.314,3.934-.81,4.492,2.061.764,2.309-4.247.81-4.492m3.573-70.189c9.54,7.617,19.013,15.253,29.335,21.81,2.262,1.437,4.539,2.038,6.038-.811,1.178-2.24-.066-4.764-.822-6.957-1.927-5.591-5.284-10.451-9-15-7.43-9.087-16.274-16.848-27.558-20.431-1.846-.587-4.7-2.355-5.343.087-.381,1.437,1.231,5.024,1.558,6.373,1.348,5.568,1.053,11.145,5.8,14.93M214,448.991c-.21,6.467,17.47,1.251,19.672.1-2.311-.775-19.577-3-19.672-.1m-6.565.04c-1.05.28-5.079.635-3.574,2.012,1.347,1.232,7.446.738,9.063.889-1.086-3.568-1.911-3.854-5.489-2.9m3.275-8.663c.4,1.439.556,3.634,1.845,4.62,1.607,1.229,5.021.483,6.839.493q4.633.024,9.248.481c1.176.117,5.94,1.553,7.042.573.81-.72.508-4.095-.082-4.853-1.211-1.559-4-1.02-5.746-1.082-6.393-.229-12.751-.247-19.148-.232m4.1-23.906a6.053,6.053,0,0,0,1.449-3.352c.411-2.168,1.458-4.022,2.073-6.117,1.354-4.61-2.972-4.2-6.145-2.51-8.231,4.385-6.244,19.708-4.209,26.881,2.959-2.175,4.051-3.162,5.07-6.673.387-1.334.821-2.645,1.223-3.971.3-.977.09-3.59.539-4.258m-.713-74.576c-2.3-.277-4.4,6.853-3.744,8.4,1.343,3.156,6.478,5.976,9.092,7.991,1.741,1.341,3.471,2.879,5.331,4.048,1.728,1.085,2.721.477,4.328,1,2.325.752,2.888,3.212,5.267,4.269,3.348,1.488,7.405,1.9,10.9,3.247a22.441,22.441,0,0,0,12.579.9c6.4-1.11,13.9-4.285,13.319-12.057-1.016-13.715-28.254-20.742-35.682-9.114-1.934,3.027-1.9,6.555-3.159,9.806-1.359,3.519-2.678,2.136-4.722-.456-2.675-3.391-5.16-6.963-7.731-10.435-.831-1.122-4.123-7.394-5.782-7.6m166.92,133.534c.13,2.333-.009,4.7.8,6.924.817,2.244,2.474,4.059,3.428,6.241,1.935,4.421,1.92,9.769,1.843,14.506-.18,11.021-2.79,21.725-4.17,32.614,4.595-.011,9.344.041,13.8-1.273,3.977-1.173,4.612-4.08,5.737-7.744,3.159-10.289,6.57-20.533,7.59-31.308.485-5.134.689-10.311.921-15.462.2-4.519-.812-6.49-4.891-8.727-8.866-4.864-18.057-8.913-26.833-14.008.9,6.045,1.433,12.136,1.775,18.236M2.515,114.325c2.159-.4,4.338-.644,6.517-.9,1.137-.136,4.679.053,5.529-.688,1.012-.882-.741-7.549-.831-8.979a169.423,169.423,0,0,1,.879-26.043c1.428-15.516,6.307-29.89,17.565-41.062,5.6-5.561,11.9-9.974,19.556-12.1,4.458-1.241,9.053-1.9,13.521-3.105a66.89,66.89,0,0,1,10.713-2.469c7.468-.768,14.3-3.59,21.584-5.223,5.362-1.2,13.986-4.05,17.463,2a44.522,44.522,0,0,1,8.94-8.013c3.306-2.293,3.846-4.584,7.895-1.936,7.865,5.145,15.232,11.422,22.578,17.276,6.861,5.467,13.5,11.192,20.69,16.22,7.334,5.128,5.943,13.831,2.494,21.046-6.489,13.58-16.5,25.189-25.257,36.83q-8.231,10.938-16.458,21.9c-5.225,6.984-9.744,15.066-15.849,21.34-3.85,3.955-8.444-1.217-11.918-3.607-4.312-2.968-8.549-6.046-12.866-9.006-8.99-6.165-18.61-11.939-28.1-17.305l-2.071,5.871c2.084.156,4.9-.309,5.961,1.932,1.516,3.2-2.2,3.621-2.854,5.456-.583,1.639,1.805,5.968,2.511,7.445a38.383,38.383,0,0,0,6.249,8.936c9.665,10.841,21.9,18.6,34.307,25.987,13.28,7.908,27.514,12.737,42.053,17.833,7.393,2.591,15.067,3.794,22.7,5.454,7.351,1.6,14.7,3.7,22.208,4.3,15.369,1.233,31.677,2.158,46.86-1.157a43.532,43.532,0,0,1,5.112-1.3c1.355-.12,2.359.448,3.639.521,2.748.157,4.322-2.3,6.5-.017,1.092,1.142,1.111,3.059,2.633.928,1.936-2.711-3.012-3.235-4.846-4.008-6.174-2.6-11.137-7.836-15.06-13.128s-4.484-10.936-2.1-17.128,7.813-10.385,11.887-15.411c1.971-2.434,3.784-5.008,5.948-7.28,1.155-1.214,3.017-2.376,3.089-3.6.084-1.422-.768-2.129-.258-3.858.132-.45.7-.705.817-1.2a18.28,18.28,0,0,0-.005-2.231,9.237,9.237,0,0,1,1.9-4.308,17.83,17.83,0,0,1,2.336-3.38c1.468-1.184,3.47-.7,4.962-1.9,2.362-1.9,3.192-5.9,5.281-8.2,2.941-3.241,3.568.034,6.684-1,2.664-.884,2.633-4.893,4.786-6.249,3.033-1.91,5.587,1.6,8.28,2.386,3.543,1.03,2.182-2.967,5.34-3.331,2.852-.33,6.8,5.455,8.224,7.51,1.449-1.689,3.033-4.566,5.64-3.536,2.737,1.083,3.223,6.12,5.223,7.917.7.625.55,1.086,1.407,1.374,1.107.371,2.583-1.237,4.014-.746,2.888.989,2.536,4.843,2.542,7.339,3.408-.5,5.784-.751,6.925,2.921,1.116,3.594,1.54,2.008,5.133,3.176,3.1,1.006,3.53,3.947,4.041,6.824a7.329,7.329,0,0,1-.457,4.15c-.607,2.054-.607,2.028.383,3.989,1.724,3.421,1.828,7.19,2.1,10.955.293,4.018,1,7.675-.146,11.6-.706,2.428-.76,5.733-3.138,7.093-.943.539-2.546.244-3.349.778-1.533,1.02-1.066,2.574-2.087,4.064-.765,1.115-2,1.223-2.855,2.128-.932.984-.987,2.184-1.518,3.385-1.57,3.557-3.048,5.278,2.072,5.482,3.158.125,6.527,1.073,9.672.782,3.712-.342,4.635-2.417,5.816-5.576,5.954-15.919,9.154-33.174,17-48.312,1.722-3.324,8.789-16.9,11.776-7.009,2.519,8.345-.786,18.528-2.053,26.834,3.976-3.583,5.446-10.038,8.465-14.413,2.23-3.232,9.212-11.17,13.3-6.621,3.226,3.585,2.42,11.187,1.824,15.473-.941,6.78-3.107,13.315-4.655,19.965,1.949-2.549,2.91-5.661,4.262-8.531a56.753,56.753,0,0,1,6.223-10.176A59.8,59.8,0,0,1,414.813,140c1.952-1.8,5.449-5.746,8.221-5.96,7.135-.547,4.891,12.542,3.8,16.284-2.252,7.756-4.695,15.3-6.443,23.21-3.418,15.458-7.559,30.56-10.077,46.215-.557,3.472-1.229,6.242.144,9.579,1.21,2.94,2.465,6.455,4.7,8.715a91.189,91.189,0,0,1,13.025,16.751,214.435,214.435,0,0,1,11.512,20.3c1.518,3.226,2.76,6.715,4.505,9.819,1.576,2.8,3.47,5.014,4.59,8.115,5.351,14.817,9.314,29.375,11.128,45.065,1.49,12.881.1,30.016-15.451,33.03-7.145,1.384-13.559-1.784-20-4.4-6.664-2.7-11.482-7.1-16.917-11.772-6.754-5.805-13.765-11.252-20.59-16.961s-13.136-12.046-19.927-17.819a176.511,176.511,0,0,1-18.578-18.384c-5.755-6.57-10.429-13.849-16-20.51.021,8.625,1.3,17.172,1.66,25.785q.493,11.846.018,23.68c-.319,7.889,1.766,15.4,1.782,23.27.018,7.679.322,15.313.49,22.983.076,3.441.75,7.3-.536,10.621-.96,2.479-3.978,3.254-6.552,3.922-3.978,1.032-15.948-.956-17.724,3.294-.97,2.319.007,6.541-.069,9.1-.126,4.223-.281,8.445-.425,12.668q-.224,6.542-.454,13.082c-.141,3.841-.889,8.122-.425,11.925.4,3.26,2.3,2.834,5.309,3,4.547.251,9.1.453,13.644.651,6.673.293,13.637.159,20.034.946,2.687.33,5.623.19,8.457.729a73.6,73.6,0,0,0,10.443,1.026c2.906.144,6.643-.067,8.926,2.081a11.728,11.728,0,0,1,1.531,2.464c1.052,1.554.467,1.146,2.193,1.5a147.991,147.991,0,0,1,19.735,5.2c3.3,1.15,6.362,2.694,9.677,3.776,2.906.948,5.035,2.116,6.471,4.968,2.566,5.094,1.916,12.463,1.73,17.953-.293,8.565-2.2,16.719-4.247,25-2.135,8.617-3.809,17.465-7.961,25.382-1.365,2.6-2.837,5.92-5.624,7.276-3.6,1.75-9.132.689-13.059.7-2.636,0-9.7.909-11.665-1.3-1.908-2.14.012-8.176.281-10.831.944-9.307,2.643-18.7,2.621-28.07-2.15,3.177-5.878,8.66-9.608,3.793-.918-1.2-.56-1.754-2.19-2.449a10.749,10.749,0,0,0-3.785-.553c-1.336.09-1.83.627-3.058.364-1.086-.233-2.308-1.205-3.554-1.5-15.442-3.67-30.794-7.626-46.3-10.9-4.1-.865-3.518,2.283-3.788,5.828-.3,3.921.272,7.881-.272,11.757a29.776,29.776,0,0,0-.175,10.054c.786,4,.28,7.342-.5,11.305-3.017,15.284-2.478,31.862-3.158,47.4-.354,8.091.406,16.351-.355,24.4-.288,3.04-1.984,4.719-2.672,7.484-.789,3.175,1.364,7.217,2.019,10.293,1.316,6.173,3.628,15.01-.6,20.381-2.283,2.9-5.277,3.322-8.658,4.3-4.046,1.174-8.033,2.543-12.1,3.655-14.852,4.065-30.9,4.86-46.122,7.1a49.5,49.5,0,0,1-10.935.237c-2.312-.161-8.007.6-9.93-.783-1.03-.741-.508-1.668-1.032-2.573a7.3,7.3,0,0,0-2.911-2.609c-2.1-1.325-4.521-2.1-4.875-4.834-.865-6.7,7.508-10.25,11.985-13.147,5.721-3.7,12.632-5.133,18.7-8.156,3.35-1.668,6.582-3.557,9.81-5.45,1.4-.82,4.237-1.749,5.213-3.041,1-1.318.021-3.2-.391-5.083-1.7-7.783-1.127-15.742-2.007-23.607s-.641-15.8-.931-23.723c-.3-8.155-.973-16.289-1.49-24.432-.476-7.521-.956-15.163-1.036-22.691-.075-6.981-1.027-13.83-1.252-20.857-.077-2.385.351-6.71-1.232-8.73-1.389-1.772-5.987-1.549-8.132-1.86-5.781-.839-11.283-1.574-17-2.08-13.6-1.2-28.734-2.09-41.594-6.83-5.3-1.954-12.36-4.625-14.12-10.715-2.024-7,.618-15.6.705-22.762.093-7.642,2.309-15.1,3.97-22.5,1.789-7.971,2.916-16.08,4.848-24.021,1.774-7.287,4.651-13.74,7.371-20.658,1.1-2.806,7.388-12.474,5.439-14.859-1.05-1.284-4.833-1.61-6.367-2.2a63.828,63.828,0,0,1-9.671-4.506c-4.072-2.407-12.988-6.388-13.4-11.735-.391-5.111,4.631-10.275,7.183-14.288,4.113-6.468,9.3-12.121,13.217-18.717,7.916-13.328,14.212-27.927,19.983-42.29,3.019-7.515,4.005-14.591,4.5-22.612-8.767.021-17.691,1.1-26.4-.126-9.481-1.335-18.974-3.582-28.372-5.434-17.114-3.373-33.546-7.182-49.4-14.778-14.846-7.112-29.911-14.9-42.2-26.187-6.356-5.838-12.84-11.788-18.328-18.464-5.639-6.858-9.88-14.649-14.23-22.348A145.6,145.6,0,0,1,7.882,130.6c-.608-1.869-.611-4.248-1.389-6.014-.878-1.993-2.474-2.045-4.141-3.1-2.345-1.477-3.906-6.42.164-7.167" transform="translate(0 -0.446)" fill-rule="evenodd"/><path d="M291.553,19.817c-2,1.722-10.642,7.787-13.432,6.312-3.442-1.821,2.008-7.3,3.475-8.656,1.867-1.72,8.54-6.924,11.1-6.441,5.106.966.665,7.235-1.138,8.785" transform="translate(-84.923 -1.063)" fill-rule="evenodd"/><path d="M284.576,88.245c-1.133-2.229-4.145-3.048-5.537-5.2-1.676-2.593-2.445-4.861-1.827-8.041,4.289,1.444,9.168,5.813,12.037,9.23,2.4,2.855,5.805,8.822-.453,8.838q.082-1.274.164-2.548a4.1,4.1,0,0,1-4.383-2.274" transform="translate(-82.213 -7.247)" fill-rule="evenodd"/><path d="M275.456,48.075c-2.765.795-5.046.682-7.871.744-2.05.046-4.851,1.172-6.512-.1,1.474-.854-.389-.9-.024-1.733.306-.694.889-.467,1.362-1.028,1.688-2,3.155-1.977,5.831-2.393,2.074-.324,5.123-1.072,7.115-.041,2.1,1.085,2.908,3.742.1,4.549" transform="translate(-52.662 -4.155)" fill-rule="evenodd"/><path d="M307.911,114.977c-1.788-1.5-3.737-5.842-4.1-8.082-.141-.878.491-1.55.416-2.2-.145-1.231-2.675-3.611-.025-4.621,2.318-.884,4.5,5.985,5.086,7.484.6,1.533,2.251,4.519,1.745,6-.419,1.23-1.916,2.425-3.123,1.413" transform="translate(-124.473 -9.663)" fill-rule="evenodd"/><path d="M329.492,12.342c-1.618-1.5-2.642-3.2-2.474-5.269.133-1.627,1.351-7.234,2.722-7.069,4.552.549,2.505,14.9-.248,12.339" transform="translate(-167.444 0)" fill-rule="evenodd"/><path d="M2.832,9.212C3.207,7.84,4.569-.543,6.923.028,8.712.462,6.854,7.84,6.77,8.81c-.174,2.031,3.73,1.964,5.543,1.69,2.877-.435,2.646-2.121,3.077-4.736.162-.988.785-5.455,2.846-3.819,1.393,1.105.4,6.614.281,7.871-.4,4.353-.874,11.786-3.462,15.739-1.032,1.576-1.96,2.355-3.044.333-1.1-2.046,1.386-8.282,1.821-10.375-2.048.2-7.944-.464-9.177,1.663-1.127,1.942.676,7.489-2.939,7.94C-.428,25.383-.039,22.9.167,20.989A76.237,76.237,0,0,1,2.832,9.212" transform="matrix(0.998, 0.07, -0.07, 0.998, 246.344, 251.413)" fill-rule="evenodd"/><path d="M234.471,289.045c2.374,1.072-.607,16.708-4.08,16.2-4.054-.59,1.818-17.226,4.08-16.2" transform="translate(35.347 -23.408)" fill-rule="evenodd"/><path d="M231.5,283.094c.293,3.521-4.282,4.833-4.5,1.007-.167-2.952,4.191-4.708,4.5-1.007" transform="translate(41.864 -22.635)" fill-rule="evenodd"/><path d="M217.775,179.706c-2.089,7.784-21.1,11.094-18.538.6,1.283-5.256,6.639-.587,10.38-1.2,2.42-.4,9.629-4.888,8.158.6" transform="translate(62.637 -17.103)" fill-rule="evenodd"/><path d="M177.061,163.794c-.894-4.165,8.217-8.762,11.522-7.615,4.836,1.678,4.815,12.405,1.126,15.257-.486.376-1.974,1.27-2.7.557-1.15-1.128.106-.82.375-1.947.426-1.792,1.819-4.092.432-6.13-2.624-3.851-9.473,5.845-10.753-.122" transform="translate(108.125 -15.074)" fill-rule="evenodd"/><path d="M161.546,187c3.285-.185,5.978,4.914,1.146,4.487-.926-.082-2.914-.315-3.451-1.287-.889-1.611.861-3.119,2.306-3.2" transform="translate(151.419 -18.069)" fill-rule="evenodd"/><path d="M336.9,52.128c1.124-1.626,3.481-4.244,5.509-2.612,1.8,1.447,1.484,5.017.794,6.791-1.855,4.776-6.239,9.031-11.2,6.28,1.723-3.452,2.694-7.275,4.9-10.458" transform="translate(-183.285 -4.735)" fill-rule="evenodd"/></g></svg>