<?xml version="1.0" encoding="utf-8"?>
<!-- Generator: Adobe Illustrator 22.0.1, SVG Export Plug-In . SVG Version: 6.00 Build 0)  -->
<svg version="1.1" id="Layer_1" xmlns="http://www.w3.org/2000/svg" xmlns:xlink="http://www.w3.org/1999/xlink" x="0px" y="0px"
	 viewBox="0 0 263.6 70.1" style="enable-background:new 0 0 263.6 70.1;" xml:space="preserve">
<style type="text/css">
	.st0{fill:#42B877;}
	.st1{enable-background:new    ;}
	.st2{fill:#231F20;}
</style>
<title>Asset 1</title>
<g id="Layer_2_1_">
	<g id="Layer_1-2">
		<path class="st0" d="M54.7,32.4v1.9c0,0,0,0.1-0.1,0.1s-0.1,0-0.1,0c0-0.1,0-0.1,0-0.2c0-1.1,0-2.1,0-3.2c0-0.1,0-0.2,0-0.3
			 M54.5,30.8c0,0.1,0,0.3,0,0.4c0,0.3,0,0.7,0,1c0,0.1,0,0.2,0.1,0.3L54.5,30.8z"/>
		<path class="st0" d="M54.5,34.5c0,0,0-0.2,0.1-0.1v0.8c-0.1,0.1,0,0.2-0.1,0.3s0,0.2-0.1,0.1c0-0.2,0-0.3,0-0.5c0-0.2,0-0.3,0-0.5
			C54.5,34.6,54.5,34.5,54.5,34.5z"/>
		<path class="st0" d="M54.5,31.1c0.1,0.1,0,0.2,0,0.3s0,0.2,0.1,0.2v0.8c-0.1,0-0.1-0.1-0.1-0.2L54.5,31.1z"/>
		<path class="st0" d="M24.9,54.6H24c0,0-0.1-0.1,0-0.2c0.3,0,0.6,0,0.9,0C25,54.5,24.9,54.5,24.9,54.6z"/>
		<path class="st0" d="M39.1,54.6h-0.6c0,0-0.1,0-0.2-0.1s-0.1,0,0-0.1c0.2,0,0.5,0,0.7,0c0.1,0,0.2,0,0.3,0s0,0.1,0,0.1
			S39.1,54.5,39.1,54.6z"/>
		<path class="st0" d="M32.1,54.6h-0.6c0-0.1-0.1,0-0.2-0.1s-0.1,0,0-0.1c0.3,0,0.6,0,0.9,0h0C32.3,54.5,32.1,54.5,32.1,54.6z"/>
		<path class="st0" d="M16.4,54.6c0-0.2-0.1-0.1-0.2-0.2c-0.2-0.2-0.3-0.5-0.3-0.8c0,0,0,0,0,0l0,0c0,0.2,0.1,0.4,0.2,0.5
			c0,0,0,0.1,0.1,0.1l0,0c0,0.1,0.1,0.1,0.2,0.2S16.5,54.4,16.4,54.6L16.4,54.6z"/>
		<path class="st0" d="M17.1,54.6h-0.4c0,0-0.1-0.1,0-0.2c0.2,0,0.4,0,0.5,0C17.2,54.5,17.1,54.5,17.1,54.6z"/>
		<path class="st0" d="M31.3,54.4c0,0,0.1,0,0.1,0s0.1,0,0.1,0.1h-0.3c0-0.1-0.1,0-0.1-0.1l0,0C31.1,54.4,31.2,54.4,31.3,54.4
			L31.3,54.4z"/>
		<path class="st0" d="M39.1,54.6c0-0.1,0-0.1,0.1-0.1s0.1,0,0.2,0s0.1,0,0.1,0h0.1l0,0c0,0-0.1,0-0.2,0s-0.1,0-0.1,0.1H39.1z"/>
		<path class="st0" d="M17.4,54.4c0,0-0.1,0.1-0.1,0.1h-0.2c0-0.1,0.1-0.1,0.1-0.1C17.2,54.4,17.3,54.4,17.4,54.4
			C17.4,54.4,17.4,54.4,17.4,54.4z"/>
		<path class="st0" d="M24,54.4c0,0,0,0.1,0,0.1h-0.1c0-0.1-0.1-0.1-0.1-0.1l0,0C23.8,54.4,23.9,54.4,24,54.4z"/>
		<path class="st0" d="M24.9,54.6c0,0,0-0.1,0-0.1c0.1,0,0.2,0,0.2,0l0,0C25.1,54.4,24.9,54.4,24.9,54.6L24.9,54.6z"/>
		<path class="st0" d="M16.6,54.4c0,0,0.1,0.1,0.1,0.1h-0.1c0-0.1,0-0.1-0.1-0.1l0,0C16.5,54.4,16.5,54.4,16.6,54.4
			C16.6,54.4,16.6,54.4,16.6,54.4z"/>
		<path class="st0" d="M15.9,53.6L15.9,53.6c-0.1-0.1-0.1-0.3-0.1-0.5c0-2.2,0-4.5,0-6.8c0-0.2,0-0.4,0-0.7c0-0.3,0-0.1,0-0.1
			s-0.1-0.2-0.1-0.3l0,0l0,0l0,0c0,0.1,0.1,0.2,0.1,0.3c0,0.2,0,0.4,0.1,0.5c0,0.1,0,0.2,0,0.3v6.3c0,0.2,0.1,0.4,0,0.6
			S16,53.5,15.9,53.6z"/>
		<path class="st0" d="M0.1,37.9c0,0,0-0.1,0-0.2v-0.9c0-0.2,0-0.3-0.1-0.4s0-0.1,0-0.1v-2.6c0.1-0.5,0.1-1,0.1-1.6l0,0
			c0,0.1,0,0.3,0,0.4c0,1.6,0,3.2,0,4.8v0.4C0.2,37.8,0.2,37.9,0.1,37.9z"/>
		<path class="st0" d="M9,49v3c-0.1,0.6-0.1,1.3-0.1,1.9c0,0.1,0,0.1-0.1,0.1s-0.3,0.1-0.5,0.1c-0.1,0-0.2,0-0.3-0.1
			c-0.2-0.1-0.3,0-0.5,0l0,0c0,0,0.1,0,0.1,0h0.2c0.2,0,0.4,0,0.6,0s0.3,0,0.3-0.3c0-0.1,0-0.2,0-0.4c0-0.2,0-0.5,0-0.7
			c0-0.1,0-0.3,0-0.4c0-0.2,0-0.4,0-0.6c0.1-0.8,0.1-1.6,0.1-2.4C8.9,49.1,8.9,49,9,49z"/>
		<path class="st0" d="M14.9,44.9h-5c-0.2,0-0.5,0.1-0.7,0.2c0,0,0-0.1,0-0.1l0,0c0.1,0,0.1-0.1,0.2-0.1c0.1,0,0.2,0,0.3,0
			c0.5,0,0.9,0,1.4,0c0.1,0,0.2,0,0.4-0.1c0.1,0,0.1,0,0.2,0h0.6c0.1,0,0.3,0,0.4,0.1c0.1,0,0.2,0,0.2,0c0.5,0,1.1,0,1.6,0
			c0.2,0,0.3,0,0.5,0c0.1,0,0.2,0,0.2,0.2 M15.3,45.1c-0.1-0.1-0.3-0.2-0.4-0.2L15.3,45.1z"/>
		<path class="st0" d="M17.8,7.8L17.8,7.8c0.2,0,0.4-0.1,0.6-0.2h0.2c0.2,0,0.5-0.1,0.7-0.2c0.5,0,1,0,1.5,0l0,0
			c-0.1,0.1-0.1,0.1-0.2,0.1h-0.6c-0.2,0-0.4,0-0.5,0.1c-0.2,0.1-0.4,0.1-0.5,0.1l-0.4,0.1c-0.3,0.1-0.7,0.2-1,0.2
			c-0.1,0-0.2,0.1-0.3,0.1c0,0-0.1,0-0.1,0c0,0-0.1,0-0.1,0C17,8,17.2,8,17.3,7.9C17.5,7.9,17.7,7.9,17.8,7.8z"/>
		<path class="st0" d="M28.6,6.5c0.1,0.3,0.1,0.6,0.2,0.9c0.1,0.5,0.1,1,0.2,1.5c0,0,0,0.1,0,0.1c0,0.1,0,0.3,0,0.4
			c0,0.1,0,0.1,0,0.2c0,0.1,0,0.3,0,0.4s0-0.1,0-0.2s0-0.3,0-0.5V9.2c0-0.1,0-0.2-0.1-0.3c0,0,0-0.1,0-0.1c0,0,0,0,0-0.1
			c0-0.3,0-0.6-0.1-0.8c0-0.2-0.1-0.3,0-0.5c0,0,0,0,0-0.1c0-0.2-0.1-0.3-0.1-0.5C28.6,6.7,28.6,6.6,28.6,6.5L28.6,6.5z"/>
		<path class="st0" d="M9,49c-0.1,0,0,0.1,0,0.2s0,0.4,0,0.5c0.1,0.8-0.1,1.6-0.1,2.3c0,0,0,0.1,0,0.1l0,0c0-0.1,0-0.1,0-0.2
			c0-0.9,0.1-1.8,0-2.8C8.9,49.1,8.9,49,9,49L9,49z"/>
		<path class="st0" d="M9,48.9L9,48.9c0,0,0-0.1,0-0.1c0-0.6-0.1-1.1-0.1-1.7c0-0.3-0.1-0.6,0-0.9c0-0.2,0-0.3,0.1-0.5
			c0,0,0-0.1,0-0.1c0.1,0,0,0.1,0,0.2v0.1c0,0.3,0,0.5,0,0.8c0,0.3,0,0.7,0,1c0,0.1,0,0.1,0,0.2V48.9z"/>
		<path class="st0" d="M0.2,31.2c0-0.4,0-0.9,0.1-1.3c0-0.1,0-0.1,0.1-0.1l0,0c0,0.1,0,0.2,0,0.3c-0.1,0.2-0.1,0.5-0.1,0.8
			C0.4,31,0.4,31.1,0.2,31.2c0.1,0.2,0.1,0.5,0,0.7c-0.1,0.2,0,0.2-0.1,0.2l0,0v-0.5c0-0.1,0-0.2,0-0.2C0.1,31.4,0.2,31.3,0.2,31.2z
			"/>
		<path class="st0" d="M52.8,23.6c0.1,0,0.1,0.1,0.1,0.2c0,0.1,0,0.2,0,0.2c0,0,0,0,0,0c0,0.2,0.2,0.4,0.2,0.7l0,0
			c0,0,0,0.1,0.1,0.1c0.1,0.3,0.2,0.6,0.3,0.9c0,0,0,0.1,0,0.1c-0.1,0-0.1-0.1-0.2-0.2v0c0-0.1-0.1-0.2-0.1-0.4
			c0-0.2-0.2-0.4-0.2-0.6s-0.2-0.6-0.4-0.9c0,0,0-0.1,0-0.1C52.7,23.6,52.8,23.6,52.8,23.6z"/>
		<path class="st0" d="M24.7,0.2C24.8,0,25-0.1,25.2,0c0.3,0.1,0.5,0.2,0.8,0.3c0,0,0,0.1,0,0.1c-0.1,0-0.1,0-0.2,0c0,0-0.1,0-0.1,0
			c-0.2-0.1-0.4-0.2-0.7-0.2C24.9,0.2,24.8,0.2,24.7,0.2C24.7,0.2,24.7,0.2,24.7,0.2z"/>
		<path class="st0" d="M32.7,9.7c0-0.1,0.2-0.1,0.3-0.1c0.1,0,0.2,0,0.3-0.1c0.1-0.1,0.2,0,0.3-0.1s0.1,0,0.2,0
			c0.1,0,0.2-0.1,0.2-0.1l0,0c0.1,0,0.1,0,0.2,0c0,0.1-0.1,0.1-0.2,0.1c-0.3,0-0.7,0.2-1,0.2l0,0c-0.1,0-0.1,0-0.2,0.1
			C32.8,9.7,32.8,9.7,32.7,9.7C32.7,9.7,32.7,9.7,32.7,9.7z"/>
		<path class="st0" d="M9,47.9c-0.1,0,0-0.1,0-0.2c0-0.2,0-0.5,0-0.7s-0.1-0.4-0.1-0.6c0-0.2,0-0.3,0.1-0.5V47.9z"/>
		<path class="st0" d="M0.7,27.4l0.2-0.5C1,27,0.9,27.1,0.9,27.2c0,0.1,0,0.1,0,0.2c-0.1,0.1-0.1,0.3-0.1,0.5c0,0.1,0,0.3-0.1,0.4
			c0,0.1,0,0.2-0.1,0.2c0-0.1,0-0.3,0-0.4c0-0.1,0-0.2,0.1-0.2V27.4z"/>
		<path class="st0" d="M52.1,21.9c0.1,0.1,0.2,0.2,0.2,0.3c0,0.1,0.1,0.3,0.2,0.4c0,0.1,0.1,0.1,0.1,0.2c0,0.1,0.1,0.1,0.1,0.1
			c0,0,0,0.1,0,0.1c-0.1,0.1-0.1,0-0.2,0c0,0,0,0,0,0c0-0.1-0.1-0.2-0.1-0.3c-0.1-0.1-0.1-0.3-0.2-0.4s0-0.2-0.1-0.2l0,0
			c0,0,0,0,0-0.1C52,21.9,52,21.9,52.1,21.9z"/>
		<path class="st0" d="M39.9,9.7c0.1,0,0.1,0.1,0.2,0.2s-0.1,0-0.1,0l0,0c-0.1,0-0.2-0.1-0.3-0.1s-0.5-0.1-0.7-0.2
			c-0.1,0-0.3-0.1-0.4-0.1l0,0c0.1,0,0.1,0,0.2,0H39c0.2,0,0.2,0.1,0.4,0.1h0.1C39.7,9.6,39.8,9.7,39.9,9.7L39.9,9.7z"/>
		<path class="st0" d="M0.7,42L0.7,42c-0.1-0.2-0.1-0.3-0.1-0.5c0-0.1,0-0.2,0-0.3c-0.1-0.1-0.1-0.3-0.1-0.4v-0.6l0,0v0
			c0,0.3,0.1,0.7,0.1,1c0,0.1,0,0.3,0,0.4S0.7,41.9,0.7,42z"/>
		<path class="st0" d="M0.3,38.8c-0.1-0.1,0-0.2,0-0.3c0-0.1,0-0.2-0.1-0.2v-1c0.1,0,0.1,0.1,0.1,0.2c0,0.3,0.1,0.6,0.1,0.9
			C0.4,38.5,0.4,38.7,0.3,38.8z"/>
		<path class="st0" d="M3.6,50.8L3.6,50.8l-0.2-0.3c0,0,0-0.1,0-0.2l0,0c0.2,0.3,0.4,0.6,0.6,0.9c0,0,0,0.1,0,0.1
			c-0.2-0.1-0.2-0.2-0.3-0.3C3.7,50.9,3.6,50.8,3.6,50.8z"/>
		<path class="st0" d="M28.4,5.3c0.1,0.1,0.1,0.3,0.1,0.5c0.1,0.2,0.1,0.3,0.1,0.5v0.3c0,0,0,0,0,0c-0.1-0.2-0.2-0.5-0.2-0.8
			c0-0.1-0.1-0.1-0.1-0.2c0,0,0-0.1,0-0.1C28.3,5.3,28.3,5.3,28.4,5.3z"/>
		<path class="st0" d="M3.4,19.9L3.4,19.9c0.1-0.1,0.1-0.1,0.2-0.2l0,0c0-0.1,0.1-0.1,0.2-0.2s0.1-0.1,0.1-0.1v-0.1
			c0-0.1,0.1-0.1,0.1-0.1l0,0c0,0.1-0.1,0.2-0.2,0.3c-0.1,0.2-0.2,0.3-0.3,0.5l0,0.2l0,0l0,0L3.4,19.9C3.5,20,3.4,19.9,3.4,19.9z"/>
		<path class="st0" d="M24.3,9.5c0.2,0.2,0.3,0.4,0.5,0.5c0,0,0,0.1,0.1,0.1l0,0c-0.1,0-0.2-0.1-0.2-0.1c0,0-0.1-0.1-0.1-0.1
			C24.4,9.8,24.3,9.7,24.3,9.5C24.2,9.5,24.2,9.5,24.3,9.5L24.3,9.5z"/>
		<path class="st0" d="M28.1,4v0.2c0,0.1,0.1,0.1,0.1,0.2v0.2C28.1,4.6,28,4.4,28,4.3c0-0.1-0.1-0.3-0.1-0.4c0-0.1,0-0.1,0-0.2
			c0-0.1,0-0.1,0-0.2l0,0l0,0v0.1C28,3.7,28,3.9,28.1,4z"/>
		<path class="st0" d="M5.2,52.5c-0.1,0-0.2-0.1-0.2-0.2c0,0-0.1-0.1-0.2-0.1l-0.2-0.1V52 M4.6,52c0.2,0,0.2,0.2,0.4,0.3
			s0.2,0.2,0.2,0.3L4.6,52z"/>
		<path class="st0" d="M0.4,29.8c0-0.3,0-0.6,0-0.9c0-0.1,0.1-0.2,0.1-0.3c0.1,0.1,0.1,0.3,0,0.4c-0.1,0.1-0.1,0.3-0.1,0.5
			C0.5,29.6,0.5,29.7,0.4,29.8L0.4,29.8L0.4,29.8z"/>
		<path class="st0" d="M16.2,8.4L16.2,8.4c0,0.1-0.1,0.1-0.2,0.2c-0.1,0-0.2,0.1-0.3,0.1c-0.1,0-0.2,0-0.3,0l0,0
			c0.1-0.1,0.3-0.2,0.5-0.2c0-0.1,0.1-0.1,0.2-0.1L16.2,8.4z"/>
		<path class="st0" d="M1.3,24.9v-0.1c0.1-0.1,0.1-0.2,0.1-0.4c0-0.1,0.1-0.2,0.1-0.2c0,0,0,0.1,0,0.1c0,0,0,0,0,0.1
			c0,0-0.1,0.1-0.1,0.1s0,0.1,0,0.1v0C1.5,24.7,1.4,24.9,1.3,24.9z"/>
		<path class="st0" d="M1.9,23c0.1-0.2,0.2-0.4,0.3-0.6l0,0c0,0.1,0,0.1,0,0.2C2.1,22.7,2,22.9,2,23.1c0,0.1-0.1,0.1-0.1,0.1
			c0,0,0,0,0,0C1.8,23.1,1.9,23,1.9,23z"/>
		<path class="st0" d="M48.6,16.5L48.6,16.5c0,0.1,0.1,0.1,0.2,0.1c0.1,0.1,0.2,0.3,0.3,0.4c0,0.1,0.1,0.1,0.1,0.2s0,0,0,0.1
			s0,0-0.1,0c0,0-0.1-0.1-0.1-0.1c-0.2-0.1-0.2-0.3-0.4-0.5C48.5,16.6,48.5,16.6,48.6,16.5C48.5,16.5,48.5,16.5,48.6,16.5z"/>
		<path class="st0" d="M44.6,12.4L44.6,12.4c0.1,0,0.1,0.1,0.2,0.1s0.1,0.1,0.2,0.1l0,0c0,0,0,0.1,0.1,0.1l0,0c0,0,0.1,0.1,0.1,0.1
			c0,0,0,0,0,0.1l0,0c-0.1,0-0.1,0-0.1-0.1C44.9,12.7,44.7,12.6,44.6,12.4c-0.1,0.1-0.2,0-0.1-0.1S44.5,12.4,44.6,12.4z"/>
		<path class="st0" d="M2.8,49.2L2.8,49.2L2.8,49.2C2.7,49,2.7,49,2.7,49c0,0,0-0.1,0-0.2c0,0,0,0,0,0c0.2,0,0.2,0.1,0.2,0.2
			s0,0.1,0.1,0.2s0.1,0.2,0.2,0.3c0,0,0,0.1,0,0.2c0,0,0,0,0,0C3,49.6,3,49.5,2.9,49.4C2.9,49.3,2.8,49.2,2.8,49.2z"/>
		<path class="st0" d="M19,7.6h0.4c-0.2,0.1-0.5,0.2-0.7,0.1l0,0h0.1C18.9,7.6,18.9,7.6,19,7.6z"/>
		<path class="st0" d="M26.9,1.3v0.1l0,0c-0.2-0.2-0.3-0.4-0.4-0.6c0,0,0.1,0,0.1,0c0,0,0,0,0,0C26.7,1.1,26.9,1.2,26.9,1.3z"/>
		<path class="st0" d="M21.4,1.6h0.1l0,0c-0.1,0.1,0,0.2,0,0.3c0,0.1-0.1,0-0.1,0c-0.1,0-0.2-0.1-0.2-0.1c0,0,0,0,0,0
			C21.3,1.6,21.3,1.6,21.4,1.6z"/>
		<path class="st0" d="M32.7,9.7L32.7,9.7 M32.7,9.7c-0.1,0-0.2,0.1-0.3,0.2s-0.2,0-0.2-0.1C32.3,9.7,32.5,9.6,32.7,9.7L32.7,9.7z"
			/>
		<path class="st0" d="M0.5,29.5c0-0.2,0-0.3,0.1-0.5c0-0.1,0-0.3,0-0.4l0,0c0,0,0,0,0.1,0C0.6,28.9,0.6,29.2,0.5,29.5
			C0.5,29.5,0.5,29.5,0.5,29.5z"/>
		<path class="st0" d="M50.7,19.4c0.1,0.1,0.1,0.4,0.3,0.5c0,0,0,0.1,0,0.1c-0.1,0.1-0.2,0-0.2-0.1s0-0.1-0.1-0.2l0,0
			c0-0.1,0-0.1,0-0.2C50.7,19.6,50.7,19.5,50.7,19.4z"/>
		<path class="st0" d="M13.8,9.6c0.1-0.1,0.2-0.2,0.4-0.2c0.1,0,0.1-0.1,0.2-0.1s0,0,0,0.1l0,0C14.2,9.5,14,9.6,13.8,9.6L13.8,9.6z"
			/>
		<path class="st0" d="M4.2,51.6l-0.1-0.2C4.2,51.3,4.2,51.4,4.2,51.6c0.1,0,0.1,0.1,0.2,0.1c0.1,0.1,0.2,0.2,0.2,0.3l0,0V52
			c-0.1,0-0.2-0.1-0.2-0.2S4.2,51.7,4.2,51.6z"/>
		<path class="st0" d="M42.4,10.9c0.1,0,0.1,0.1,0.2,0.2h-0.1c-0.2-0.1-0.3-0.1-0.4-0.3l0,0C42.2,10.7,42.2,10.9,42.4,10.9z"/>
		<path class="st0" d="M42.8,11.2c0.1,0,0.2,0.1,0.3,0.1c0,0,0.1,0.1,0.2,0.1c0,0,0.1,0,0.1,0.1l0,0c0,0,0,0.1,0,0.1l0,0
			c-0.1,0-0.2-0.1-0.2-0.1s-0.1-0.1-0.2-0.2S42.8,11.2,42.8,11.2L42.8,11.2z"/>
		<path class="st0" d="M22.5,1.2L22.5,1.2L22.9,1C22.9,1,23,1,23,1c0,0,0,0,0,0l0,0l0,0c-0.1,0-0.2,0.1-0.3,0.1h-0.1
			C22.6,1.2,22.5,1.2,22.5,1.2z"/>
		<path class="st0" d="M2.2,22.4c0-0.1,0.1-0.1,0.1-0.2c0-0.1,0-0.1,0-0.2c0.1,0,0.1-0.1,0.1-0.1h0c0,0,0,0,0,0
			c0,0.2-0.1,0.3-0.2,0.4S2.2,22.5,2.2,22.4L2.2,22.4z"/>
		<path class="st0" d="M6.1,16.1c0.1,0,0.1,0,0.1-0.1s0.1-0.1,0.1-0.1s0,0,0,0s-0.2,0.2-0.2,0.4S6,16.4,5.9,16.3s0,0,0-0.1
			S6,16.2,6,16.2S6,16.1,6.1,16.1L6.1,16.1z"/>
		<path class="st0" d="M23.5,0.7c0-0.1,0.1-0.1,0.2-0.1c0.1,0,0.2,0,0.2-0.1c0-0.1,0.2,0,0.2-0.1s0,0,0,0l0,0l0,0
			c-0.1,0.1-0.3,0.1-0.4,0.2C23.7,0.7,23.6,0.8,23.5,0.7z"/>
		<path class="st0" d="M49.2,17.3L49.2,17.3c0.2,0.1,0.3,0.3,0.5,0.5l0,0l0,0c-0.1,0-0.1-0.1-0.2-0.1l0,0c0-0.1-0.1-0.1-0.1-0.2l0,0
			C49.3,17.4,49.2,17.4,49.2,17.3L49.2,17.3z"/>
		<path class="st0" d="M4.2,18.8c0-0.2,0.2-0.3,0.2-0.4c0,0,0.1,0,0.1,0C4.5,18.6,4.4,18.7,4.2,18.8C4.2,18.8,4.2,18.8,4.2,18.8z"/>
		<path class="st0" d="M50.5,19L50.5,19c0,0.1,0.1,0.1,0.1,0.2s0,0.1,0.1,0.2v0.1c-0.1,0-0.1-0.1-0.2-0.1S50.4,19.2,50.5,19
			C50.4,19,50.4,19,50.5,19z"/>
		<path class="st0" d="M0.6,28.6L0.6,28.6c0-0.3,0-0.6,0.1-0.9c0,0.1,0,0.2-0.1,0.3c-0.1,0.1,0,0.2,0,0.3
			C0.7,28.5,0.7,28.6,0.6,28.6z"/>
		<path class="st0" d="M6.2,53.4H6.1c-0.1-0.1-0.3-0.1-0.3-0.3l0,0c0,0,0.1,0,0.2,0c0,0.1,0.1,0.1,0.2,0.1
			C6.2,53.3,6.3,53.4,6.2,53.4L6.2,53.4z"/>
		<path class="st0" d="M50.2,18.5v0.2c-0.2-0.1-0.2-0.2-0.3-0.4c0,0,0-0.1,0-0.1l0,0c0.1,0,0.1,0.1,0.1,0.1
			C50,18.5,50.1,18.5,50.2,18.5z"/>
		<path class="st0" d="M1.7,23.7v-0.1c0-0.1,0.1-0.2,0.1-0.3l0,0l0,0c0,0,0,0.1,0,0.1c0,0.2-0.1,0.3-0.2,0.5 M1.6,23.9
			c0-0.1,0.1-0.1,0.1-0.2L1.6,23.9z"/>
		<path class="st0" d="M38.1,9.3h0.2c0.1,0,0.1,0,0.2,0s0.1,0,0.1,0.1l0,0c-0.1,0-0.1,0-0.2,0C38.3,9.4,38.2,9.3,38.1,9.3 M38,9.2
			C38.1,9.2,38.1,9.2,38,9.2L38,9.2z"/>
		<path class="st0" d="M37.2,9.1h0.5l0.1,0.1c0,0,0.1,0.1,0,0.1c-0.1,0.1-0.2,0.1-0.3,0c-0.1,0-0.1,0-0.2,0
			C37.3,9.2,37.2,9.2,37.2,9.1z"/>
		<path class="st0" d="M21.8,2.3V2.2c0.1,0,0.1,0.1,0.2,0.1s0.2,0.1,0.1,0.2s0,0,0,0S22,2.3,21.8,2.3L21.8,2.3z"/>
		<path class="st0" d="M5.9,16.3L5.9,16.3c0.1,0.2-0.1,0.2-0.1,0.3c0,0-0.1,0-0.2,0c0-0.1,0.2-0.2,0.1-0.3L5.9,16.3z"/>
		<path class="st0" d="M23.5,0.7c0.1,0,0.1-0.1,0.2-0.1c0,0,0,0.1,0,0.1C23.7,0.8,23.6,0.8,23.5,0.7c-0.1,0.1-0.2,0.1-0.2,0.2h0
			c0,0-0.1,0-0.1,0C23.3,0.8,23.3,0.7,23.5,0.7z"/>
		<path class="st0" d="M9,45.8v-0.2c0,0,0-0.1,0-0.1c0,0,0,0,0,0c0.1-0.1,0.1-0.1,0.1-0.2c0-0.1,0.1-0.1,0.2-0.1
			C9.2,45.3,9.1,45.6,9,45.8z"/>
		<path class="st0" d="M49.6,17.8L49.6,17.8c0.1,0,0.2,0.1,0.2,0.2s0.1,0.1,0.1,0.2c0,0-0.1,0-0.1,0C49.7,18,49.6,18,49.6,17.8z"/>
		<path class="st0" d="M14.4,9.3c0.1,0,0.1-0.1,0.1-0.1c0.1,0,0.2,0,0.2,0C14.7,9.3,14.6,9.4,14.4,9.3C14.4,9.3,14.4,9.3,14.4,9.3
			L14.4,9.3L14.4,9.3L14.4,9.3z"/>
		<path class="st0" d="M11.8,10.8v-0.1c0.1,0,0.1,0,0.2-0.1c0-0.1,0.1-0.1,0.2-0.1l0,0l0,0c-0.1,0.1-0.1,0.1-0.1,0.1H12
			C11.9,10.7,11.9,10.8,11.8,10.8L11.8,10.8z"/>
		<path class="st0" d="M45.2,13L45.2,13c0.1,0,0.1,0,0.2,0c0,0.1,0.1,0.1,0.1,0.1v0.1l0,0l0,0c0,0-0.1-0.1-0.1-0.1h-0.1
			C45.3,13.2,45.3,13.1,45.2,13L45.2,13L45.2,13z"/>
		<path class="st0" d="M28.6,6.3c-0.1-0.1-0.2-0.3-0.1-0.5l0,0c0.1,0.1,0,0.2,0.1,0.2L28.6,6.3z"/>
		<path class="st0" d="M13.4,9.9c0.1-0.1,0.1-0.2,0.2-0.2l0.1-0.1h0.1l0,0C13.7,9.8,13.6,9.8,13.4,9.9L13.4,9.9z"/>
		<path class="st0" d="M4.5,18.4L4.5,18.4c0-0.1,0-0.3,0.1-0.4c0,0,0,0.1,0,0.1C4.6,18.2,4.6,18.3,4.5,18.4z"/>
		<path class="st0" d="M23.8,8.8C23.9,8.9,24,9,24,9.1l0,0c-0.1,0-0.1-0.1-0.2-0.1S23.7,8.9,23.8,8.8L23.8,8.8z"/>
		<path class="st0" d="M25.9,0.3c0.1,0,0.1,0,0.1,0.1c0.1,0,0.2,0.1,0.2,0.2l0,0l0,0c0,0,0,0-0.1,0c-0.1,0-0.1-0.1-0.2-0.1l0,0
			C25.9,0.5,25.8,0.4,25.9,0.3z"/>
		<path class="st0" d="M32.2,9.9h0.2l0,0C32.3,9.9,32.1,10,32,10C31.9,9.8,32.1,9.9,32.2,9.9L32.2,9.9z"/>
		<path class="st0" d="M3.8,19.4c0,0.1-0.1,0.2-0.2,0.2s0-0.1,0-0.1c0.1-0.1,0.1-0.1,0.2-0.2C3.8,19.3,3.8,19.4,3.8,19.4z"/>
		<path class="st0" d="M12.2,10.6L12.2,10.6c0.1,0,0.1-0.2,0.2-0.1s0.1-0.1,0.2-0.1c0,0,0,0.1,0,0.1c0,0.1-0.1,0.1-0.1,0.1
			S12.3,10.7,12.2,10.6z"/>
		<path class="st0" d="M4.2,18.8L4.2,18.8c0.1,0.2,0,0.2-0.1,0.3h0V19C4,19,4.2,18.9,4.2,18.8z"/>
		<path class="st0" d="M27.6,2.7v0.2c-0.1-0.1-0.2-0.2-0.2-0.4C27.6,2.5,27.6,2.6,27.6,2.7L27.6,2.7z"/>
		<path class="st0" d="M27.8,3.1L27.8,3.1L27.8,3.1c0,0.2,0.2,0.3,0.1,0.4l0,0c-0.1,0-0.1-0.1-0.2-0.2c0,0,0-0.1,0-0.1
			C27.7,3.2,27.7,3.1,27.8,3.1z"/>
		<path class="st0" d="M24.3,9.5L24.3,9.5c0,0-0.1,0-0.1,0c0-0.1-0.2-0.1-0.1-0.3l0,0C24.1,9.3,24.2,9.4,24.3,9.5z"/>
		<path class="st0" d="M15.6,45.3L15.6,45.3c0,0-0.1-0.1-0.1-0.1l0,0c0-0.1-0.1-0.1-0.1-0.2C15.5,45,15.6,45.2,15.6,45.3z"/>
		<path class="st0" d="M7.3,53.9H7.1c-0.1,0-0.1-0.1-0.2-0.2c0,0,0.1,0,0.1,0C7.1,53.7,7.2,53.8,7.3,53.9z"/>
		<path class="st0" d="M14.9,44.9c0.1,0,0.3,0.1,0.4,0.1s0,0,0,0l0,0C15.1,45.1,15,45,14.9,44.9z"/>
		<path class="st0" d="M44.1,12h0.1c0.1,0,0.1,0.1,0.1,0.1l0,0C44.1,12.2,44,12.2,44.1,12z"/>
		<path class="st0" d="M4.6,18.2V18c0,0,0-0.1,0.1-0.1 M4.8,17.9c0,0.2,0,0.2-0.1,0.2L4.8,17.9z"/>
		<path class="st0" d="M52.6,23.1c0,0.1,0.1,0.1,0.2,0.2v0.2l0,0c0,0,0-0.1-0.1-0.1s-0.1-0.1-0.1-0.2C52.6,23.2,52.6,23.2,52.6,23.1
			z"/>
		<path class="st0" d="M26.3,0.6L26.3,0.6c0.1,0,0.1,0.1,0.2,0.1c0,0,0,0.1,0,0.1C26.3,0.8,26.2,0.8,26.3,0.6z"/>
		<path class="st0" d="M26.5,0.8L26.5,0.8c0.1,0,0.2,0,0.2,0.1c0,0-0.1,0-0.1,0C26.4,0.9,26.4,0.8,26.5,0.8z"/>
		<path class="st0" d="M24.3,0.3c0.1-0.1,0.2,0,0.2-0.2h0.1l0,0C24.7,0.3,24.5,0.4,24.3,0.3C24.3,0.3,24.3,0.3,24.3,0.3z"/>
		<path class="st0" d="M9.2,45.1c-0.1,0-0.1,0-0.1,0.1s0,0,0,0s0-0.2,0.2-0.2L9.2,45.1L9.2,45.1z"/>
		<path class="st0" d="M44.2,12.2L44.2,12.2c0.1,0,0.1,0.1,0.2,0.1c0,0,0,0-0.1,0C44.3,12.3,44.2,12.3,44.2,12.2z"/>
		<path class="st0" d="M24.7,5.9L24.7,5.9c0,0,0-0.1,0-0.1c0,0-0.1-0.1-0.1-0.1s0.1,0.1,0.2,0.1C24.8,5.9,24.8,5.9,24.7,5.9z"/>
		<path class="st0" d="M5,17.5L5,17.5c0.1,0.1,0,0.1-0.1,0.2c0,0,0,0-0.1,0C4.9,17.6,4.9,17.5,5,17.5z"/>
		<path class="st0" d="M4.9,17.7L4.9,17.7L4.9,17.7c0,0,0,0.1-0.1,0.1c0,0-0.1,0-0.1,0l0,0C4.8,17.7,4.8,17.7,4.9,17.7z"/>
		<path class="st0" d="M51.8,21.3L51.8,21.3c0,0.1,0.2,0.1,0.1,0.3S51.7,21.5,51.8,21.3C51.7,21.4,51.7,21.3,51.8,21.3
			C51.7,21.3,51.8,21.3,51.8,21.3z"/>
		<path class="st0" d="M32.1,9.9c0,0.1-0.1,0-0.1,0.1c0,0-0.1,0-0.1,0c0,0,0,0,0,0l0,0c0-0.1,0.1-0.1,0.1-0.1L32.1,9.9z"/>
		<path class="st0" d="M14.4,9.3L14.4,9.3c-0.1,0-0.1,0.1-0.2,0.1S14.3,9.3,14.4,9.3z"/>
		<path class="st0" d="M51.9,21.6L51.9,21.6c0,0.1,0.2,0.1,0.1,0.2C51.9,21.9,51.8,21.8,51.9,21.6C51.9,21.4,51.9,21.6,51.9,21.6z"
			/>
		<path class="st0" d="M34,9.3L34,9.3h0.5c0,0,0,0,0,0.1c-0.1,0-0.2,0-0.2,0L34,9.3z"/>
		<path class="st0" d="M15.3,8.8c0,0,0-0.1,0-0.1h0.1C15.5,8.8,15.4,8.9,15.3,8.8z"/>
		<path class="st0" d="M42.5,11h0.2c0,0,0.1,0.1,0.1,0.1S42.5,11.1,42.5,11z"/>
		<path class="st0" d="M42.7,11.2L42.6,11c0.1,0,0.2,0.1,0.2,0.1l0,0C42.8,11.2,42.7,11.2,42.7,11.2L42.7,11.2z"/>
		<path class="st0" d="M11,11.4L11,11.4v-0.1h0.1l0,0C11.1,11.4,11,11.4,11,11.4L11,11.4z"/>
		<path class="st0" d="M51.9,21.6L51.9,21.6L51.9,21.6L51.9,21.6c0-0.1-0.1-0.1-0.1-0.2C51.9,21.4,51.9,21.5,51.9,21.6z"/>
		<path class="st0" d="M12.5,10.3L12.5,10.3L12.5,10.3c0,0,0,0.1-0.1,0.1S12.4,10.3,12.5,10.3z"/>
		<path class="st0" d="M4,19v0.1H3.9C3.9,19,3.9,19,4,19z"/>
		<path class="st0" d="M15.3,45L15.3,45L15.3,45L15.3,45c0,0,0.1,0,0.1,0.1S15.3,45.1,15.3,45z"/>
		<path class="st0" d="M51.8,21.3L51.8,21.3c-0.1,0-0.2-0.1-0.1-0.2S51.8,21.2,51.8,21.3L51.8,21.3z"/>
		<path class="st0" d="M3.6,19.7c0,0.1,0,0.2-0.2,0.2v-0.1L3.6,19.7L3.6,19.7z"/>
		<path class="st0" d="M44.4,12.3L44.4,12.3c0.2,0,0.1,0.1,0.2,0.1h-0.1C44.5,12.5,44.4,12.4,44.4,12.3z"/>
		<path class="st0" d="M52,21.9c0-0.1-0.1-0.1-0.1-0.2S52.1,21.7,52,21.9C52,22,52,21.9,52,21.9L52,21.9z"/>
		<path class="st0" d="M43.2,11.4c-0.1,0-0.1,0-0.1-0.1S43.2,11.3,43.2,11.4L43.2,11.4L43.2,11.4z"/>
		<path class="st0" d="M2.7,48.9c0.1,0,0.1,0.1,0.1,0.1S2.6,49,2.7,48.9C2.6,48.9,2.7,48.9,2.7,48.9z"/>
		<path class="st0" d="M23.1,0.9h0.1C23.3,0.9,23.2,0.9,23.1,0.9C23.1,1,23.1,1,23,1V0.9H23.1z"/>
		<path class="st0" d="M24.1,0.4l0.2-0.1l0,0C24.3,0.4,24.3,0.5,24.1,0.4L24.1,0.4L24.1,0.4z"/>
		<path class="st0" d="M32,9.9c0,0.1-0.1,0.1-0.1,0.1V9.9L32,9.9z"/>
		<path class="st0" d="M2.7,48.9L2.7,48.9l-0.1-0.3h0c0,0,0,0.1,0,0.1C2.6,48.8,2.6,48.9,2.7,48.9z"/>
		<path class="st0" d="M3.8,19.4v-0.1h0.1C3.9,19.3,3.8,19.4,3.8,19.4z"/>
		<path class="st0" d="M3.6,19.7c0,0.1,0,0.1-0.1,0.1S3.5,19.7,3.6,19.7z"/>
		<path class="st0" d="M15.5,45.2c0.1,0,0.1,0,0.1,0.1l0,0C15.5,45.3,15.5,45.2,15.5,45.2z"/>
		<path class="st0" d="M53.4,24.9c0,0-0.1-0.1-0.1-0.1C53.4,24.8,53.4,24.8,53.4,24.9z"/>
		<path class="st0" d="M1.6,24L1.6,24c0,0,0,0.1,0,0.1c0,0,0,0.1,0,0.1l0,0C1.6,24.3,1.6,24.1,1.6,24z"/>
		<path class="st0" d="M49.8,18.1L49.8,18.1l0.1,0.1l0,0C49.8,18.2,49.8,18.2,49.8,18.1z"/>
		<path class="st0" d="M4.8,18L4.8,18v-0.1l0,0C4.8,17.9,4.8,17.9,4.8,18L4.8,18z"/>
		<path class="st0" d="M45.3,54c-0.2,0-0.2-0.2-0.2-0.3c0-0.2,0-0.3,0-0.5V46 M45.2,46c0,0.2,0,0.4,0,0.5V53c0,0.1,0,0.2,0.1,0.3
			c0,0.1,0,0.2,0,0.3c0,0.1,0,0.2,0.1,0.3c0,0,0,0,0,0.1L45.2,46z"/>
		<path class="st0" d="M54.2,38.4c0,0.2,0,0.4-0.1,0.6c-0.1,0.1,0,0.2,0,0.4c0,0.1,0,0.2-0.1,0.3c0,0,0,0.1,0,0.1
			c0,0.3-0.1,0.5-0.2,0.8c-0.1-0.1,0-0.2,0-0.3c0,0,0-0.1,0-0.1c0.1-0.1,0.1-0.2,0.1-0.4c0-0.2,0-0.3,0.1-0.5c0-0.1,0-0.2-0.1-0.3
			c0-0.1,0-0.2,0-0.3c0.1-0.1,0.1-0.2,0.1-0.3C54.1,38.4,54.2,38.4,54.2,38.4z"/>
		<path class="st0" d="M53.5,41.7c0,0.2-0.1,0.3-0.1,0.5c0,0.3-0.1,0.5-0.3,0.8c0,0.1,0,0.1,0,0.2c0,0.1,0,0.2-0.1,0.2
			c0,0.1-0.1,0.1-0.1,0.2c0,0.1,0,0.2-0.1,0.2s0,0-0.1,0c0,0,0,0,0,0c0,0,0.1-0.1,0.1-0.1v-0.2c0.1-0.3,0.1-0.5,0.2-0.8
			c0.1-0.2,0.2-0.5,0.2-0.8C53.4,41.8,53.4,41.7,53.5,41.7z"/>
		<path class="st0" d="M45.1,46L45.1,46c0-0.2-0.1-0.3-0.1-0.5c0-0.1-0.1-0.1-0.1-0.2c-0.1-0.1-0.1-0.1-0.2-0.2
			c-0.1,0-0.1-0.1-0.1-0.1s0,0,0,0c0.1,0,0.1,0,0.2,0c0.1,0,0.1,0.1,0.2,0.1c0.2,0.2,0.3,0.5,0.3,0.7C45.2,45.9,45.2,46,45.1,46z"/>
		<path class="st0" d="M49.2,50.1c-0.1,0.2-0.2,0.4-0.4,0.5c-0.1,0.1-0.3,0.3-0.4,0.5c0,0,0,0-0.1,0c0,0,0-0.1,0-0.1l0,0l0,0
			c0,0,0.1-0.1,0.1-0.1c0-0.1,0.2-0.2,0.2-0.3c0,0,0.1-0.1,0.1-0.1l0,0c0.1-0.1,0.2-0.2,0.2-0.3l0,0L49.2,50.1z"/>
		<path class="st0" d="M45.3,54L45.3,54C45.3,54,45.3,54,45.3,54c0.3,0,0.5,0,0.6-0.1l0,0l0,0.1c0,0-0.2,0.1-0.3,0.1
			C45.5,54.1,45.4,54.1,45.3,54z"/>
		<path class="st0" d="M47.7,52c-0.1,0.2-0.2,0.4-0.4,0.5c0,0-0.1,0-0.1,0s0-0.1,0-0.2s0.2-0.3,0.3-0.4C47.6,51.9,47.6,51.9,47.7,52
			L47.7,52L47.7,52z"/>
		<path class="st0" d="M53.8,40.3v0.3c0,0.2-0.2,0.3-0.1,0.5l0,0c0-0.1,0-0.1,0-0.2c0,0,0,0,0,0c0-0.1,0-0.2,0-0.3l0,0
			c0.1,0,0.1-0.1,0.1-0.2C53.7,40.4,53.7,40.3,53.8,40.3C53.7,40.3,53.8,40.3,53.8,40.3z"/>
		<path class="st0" d="M47.3,52.4c0,0.1,0,0.1-0.1,0.2s-0.1,0.2-0.2,0.2s-0.1,0.1-0.2,0.1c0-0.2,0.2-0.4,0.3-0.5
			C47.2,52.4,47.2,52.4,47.3,52.4z"/>
		<path class="st0" d="M54.5,36.7c-0.2,0-0.1,0.2-0.1,0.3c-0.1-0.2-0.1-0.4,0-0.6c0-0.1,0-0.2,0.1-0.3L54.5,36.7L54.5,36.7z"/>
		<path class="st0" d="M46.8,52.8c0.1,0,0.1,0,0.2-0.1c-0.1,0.2-0.3,0.4-0.5,0.6c0,0,0,0,0-0.1l0,0c0.1-0.1,0.1-0.1,0.1-0.2
			C46.7,53,46.8,52.9,46.8,52.8z"/>
		<path class="st0" d="M49.6,49.5c-0.1,0.2-0.2,0.5-0.4,0.6l0,0c0-0.1,0-0.1,0.1-0.2s0,0,0,0S49.4,49.6,49.6,49.5L49.6,49.5z"/>
		<path class="st0" d="M52.4,44.9L52.4,44.9c-0.1-0.1,0-0.2,0-0.2c0-0.1,0.1-0.1,0.1-0.2c0-0.1,0-0.2,0.2-0.2l0,0
			C52.5,44.5,52.5,44.7,52.4,44.9z"/>
		<path class="st0" d="M54.3,37.6c0,0.2-0.1,0.3-0.1,0.5c0,0.1,0,0.1,0,0.2v0.1l0,0l0,0c0-0.1,0-0.2,0-0.3c0,0,0-0.1,0-0.1
			c0-0.1,0-0.1,0-0.2C54.2,37.7,54.3,37.6,54.3,37.6C54.4,37.6,54.4,37.6,54.3,37.6z"/>
		<path class="st0" d="M53.6,41.1L53.6,41.1c0,0.2-0.1,0.3-0.1,0.4l0,0c0-0.1,0-0.2,0-0.3C53.4,41.2,53.5,41.1,53.6,41.1
			C53.6,41.1,53.6,41.1,53.6,41.1z"/>
		<path class="st0" d="M52.8,43.7L52.8,43.7c0,0.2-0.1,0.4-0.2,0.6l0,0c0-0.1,0-0.2,0-0.2c0,0,0,0,0,0l0,0c0.1,0,0.1-0.1,0.1-0.1
			C52.7,43.9,52.7,43.8,52.8,43.7L52.8,43.7z"/>
		<path class="st0" d="M46,53.9L46,53.9c0.1-0.1,0.1-0.2,0.2-0.3c0-0.1,0.1-0.1,0.2-0.2l0,0l0,0c0,0,0,0,0.1,0
			c0,0.1-0.2,0.2-0.2,0.3C46.2,53.8,46.1,53.9,46,53.9L46,53.9C46.1,53.9,46.1,53.9,46,53.9z"/>
		<path class="st0" d="M48.3,51.2c0,0.1-0.1,0.1-0.1,0.2s-0.1,0.2-0.2,0.2c0,0,0,0,0-0.1c0-0.1,0.1-0.1,0.1-0.2S48.2,51.2,48.3,51.2
			z"/>
		<path class="st0" d="M53.5,41.7l-0.1,0.2c-0.1-0.2,0-0.3,0.1-0.4l0,0L53.5,41.7z"/>
		<path class="st0" d="M50.9,47.7L50.9,47.7c0,0.2,0,0.2-0.1,0.2c0,0,0,0,0-0.1C50.7,47.8,50.8,47.7,50.9,47.7z"/>
		<path class="st0" d="M50.8,47.8L50.8,47.8c0,0.2-0.1,0.2-0.2,0.3c0,0,0,0,0-0.1l0,0C50.6,48,50.7,48,50.8,47.8L50.8,47.8
			C50.7,47.9,50.8,47.8,50.8,47.8z"/>
		<path class="st0" d="M50.6,48.2c0,0.1-0.1,0.2-0.1,0.2 M50.4,48.4C50.4,48.4,50.4,48.4,50.4,48.4c0-0.1,0-0.1,0-0.1
			s0.1-0.1,0.1-0.1L50.4,48.4z"/>
		<path class="st0" d="M48,51.7c0,0-0.1,0-0.1,0l0,0c0,0,0-0.1,0-0.1c0,0,0.1-0.1,0.1,0l0,0L48,51.7L48,51.7z"/>
		<path class="st0" d="M50.6,48.2c-0.1,0-0.1,0.1-0.1,0.1c0-0.1,0-0.2,0.1-0.2V48.2z"/>
		<path class="st0" d="M51.5,46.8L51.5,46.8L51.5,46.8L51.5,46.8C51.3,46.8,51.4,46.8,51.5,46.8z"/>
		<path class="st0" d="M46.5,53.4L46.5,53.4c-0.1-0.1-0.1-0.1,0-0.1s0,0,0,0L46.5,53.4L46.5,53.4z"/>
		<path class="st0" d="M16.6,54.4h-0.1 M16.5,54.4c0.2,0,0.4,0,0.7,0c0.3,0,0.6-0.3,0.7-0.6c0-0.2,0-0.5,0-0.7V38.2
			c0-0.3,0-0.5,0-0.8c0-0.4,0.2-0.8,0.3-1.1c0.1-0.2,0.2-0.3,0.4-0.3c0.1,0,0.1,0.1,0,0.2c-0.1,0.1-0.2,0.2-0.3,0.3
			c-0.1,0.2-0.2,0.4-0.2,0.6v0c0,0.2,0,0.4-0.1,0.6c0,0,0,0.1,0,0.1c0.1,0.2,0.1,0.4,0.1,0.5v14.5c0,0.3,0,0.6-0.1,0.9
			c0,0.1,0,0.2,0,0.3l0,0c-0.1,0.1-0.1,0.3-0.3,0.3c0,0.1-0.1,0.1-0.2,0.1h-0.9L16.5,54.4z"/>
		<path class="st0" d="M23.4,54.2c-0.2-0.3-0.2-0.7-0.2-1c0-5.3,0-10.6,0-15.9c0-0.2,0-0.3,0-0.5s-0.1-0.2-0.1-0.3c0,0,0,0,0,0
			c0.1,0,0.1,0.1,0.1,0.2s0,0.2,0,0.3s0,0.4,0,0.7v15.1c0,0.3,0,0.7,0.1,1C23.5,53.9,23.5,54,23.4,54.2
			C23.5,54.1,23.5,54.1,23.4,54.2L23.4,54.2z"/>
		<path class="st0" d="M17.9,54c0-0.2,0-0.4,0.1-0.7c0,0,0-0.1,0-0.2V38c0-0.1,0-0.2-0.1-0.2c0-0.1,0-0.1,0-0.2
			c0.1-0.2,0.1-0.4,0.1-0.6v0.5c-0.1,0.1-0.1,0.2,0,0.3l0,0c0,0.1,0,0.1,0,0.2v15.4c0,0.1,0,0.1,0,0.2l0,0
			C18.1,53.7,18,53.8,17.9,54L17.9,54z"/>
		<path class="st0" d="M18.1,53.5V37.8c0.1,0,0,0.1,0,0.2c0,5.1,0,10.2,0,15.4C18.1,53.4,18.1,53.5,18.1,53.5z"/>
		<path class="st0" d="M21,30.7L21,30.7c0-0.1,0-0.2,0-0.4c0-0.1-0.1-0.3-0.1-0.4c0-0.1-0.1,0.1-0.1,0c0-0.1,0-0.1,0-0.2
			c0.1-0.1,0.2-0.1,0.2,0c0.1,0.2,0.2,0.3,0.2,0.5c0,0.2,0,0.4,0.1,0.6c0.1,0.2,0.1,0.4,0,0.7c0,0,0,0,0,0.1l0,0l0,0
			C21.1,31.2,21,31,21,30.7z"/>
		<path class="st0" d="M22.6,36.1c-0.2,0-0.4-0.2-0.6-0.3c-0.2-0.1-0.3-0.3-0.4-0.5c-0.1-0.2-0.1-0.4-0.1-0.5l0,0
			c0,0.2,0.1,0.4,0.2,0.6c0,0.1,0.1,0.2,0.2,0.2c0.1,0.1,0.3,0.2,0.5,0.3C22.4,35.9,22.4,36,22.6,36.1C22.5,36,22.6,36,22.6,36.1z"
			/>
		<path class="st0" d="M19.7,35c-0.1,0.2-0.2,0.3-0.3,0.4s-0.3,0.2-0.5,0.4s-0.1,0-0.1,0c0,0-0.1,0-0.1,0c0,0,0-0.1,0-0.1
			c0.1,0,0.1,0,0.2-0.1c0.2-0.2,0.4-0.4,0.6-0.6c0.1,0,0.1-0.1,0.1-0.2c0,0,0-0.1,0.1-0.1s0,0,0,0C19.7,34.9,19.8,35,19.7,35
			C19.7,35,19.7,35,19.7,35z"/>
		<path class="st0" d="M20.3,32.3c0,0.2,0,0.4,0,0.6l0,0c-0.2,0.1-0.1,0.3-0.1,0.5c0,0.1-0.1,0.2-0.1,0.3c0-0.1,0-0.1,0-0.2l0,0
			c0.1-0.1,0.1-0.2,0.1-0.3C20.1,32.9,20.2,32.6,20.3,32.3C20.3,32.3,20.3,32.3,20.3,32.3z"/>
		<path class="st0" d="M21.5,34.7L21.5,34.7c0-0.1,0-0.1,0-0.2c0-0.1,0-0.2-0.1-0.3v-0.7l0,0c0.1,0.1,0.1,0.3,0.2,0.5
			c0,0.2,0,0.4,0,0.6C21.6,34.6,21.6,34.7,21.5,34.7z"/>
		<path class="st0" d="M21.2,32.6v-0.3c0-0.2-0.2-0.5-0.1-0.7l0,0c0.1,0,0.1,0.1,0.2,0.3c0,0.2,0,0.4,0,0.6
			C21.3,32.4,21.3,32.5,21.2,32.6C21.3,32.6,21.3,32.6,21.2,32.6z"/>
		<path class="st0" d="M20.5,31.1v0.2c0,0.2-0.1,0.4-0.1,0.6c0,0,0-0.1,0-0.1c0-0.1,0-0.2,0-0.4C20.4,31.3,20.4,31.1,20.5,31.1z"/>
		<path class="st0" d="M18.7,35.9h0.1c-0.1,0.1-0.2,0.2-0.4,0.3c0,0-0.1,0.1-0.1,0.1 M18.3,36.3c0.1-0.1,0.1-0.2,0.2-0.3
			s0.1-0.1,0.1-0.1L18.3,36.3z"/>
		<path class="st0" d="M21.4,34.2c0.2,0.1,0.1,0.3,0.1,0.5c-0.1,0-0.1,0-0.1-0.1V34.2z"/>
		<path class="st0" d="M18.3,36.3L18.3,36.3c0.1,0-0.1,0.1,0,0.2c0,0.2-0.1,0.3-0.2,0.5C18.1,36.7,18.1,36.5,18.3,36.3z"/>
		<path class="st0" d="M21.1,31.6c0,0.2,0,0.4,0.1,0.5c0,0.1,0,0.1,0,0.2C21.1,32.1,21.1,31.8,21.1,31.6L21.1,31.6z"/>
		<path class="st0" d="M22.6,36.1L22.6,36.1C22.6,36.1,22.6,36.1,22.6,36.1c0.3,0,0.5,0.2,0.6,0.4c0,0,0,0.1,0,0.1l0,0l0,0
			c-0.1-0.1-0.2-0.2-0.3-0.3c-0.1,0-0.1-0.1-0.2-0.1L22.6,36.1z"/>
		<path class="st0" d="M21.4,33.3c0-0.1,0-0.2-0.1-0.3s0-0.2,0-0.2c0.2,0,0.1,0.2,0.2,0.3c0,0.2,0,0.4,0,0.6l0,0
			C21.4,33.5,21.4,33.4,21.4,33.3z"/>
		<path class="st0" d="M20.4,31.7v0.1c0,0.1-0.1,0.1,0,0.2s0,0.1-0.1,0.2l0,0C20.2,32.1,20.2,31.9,20.4,31.7z"/>
		<path class="st0" d="M17.9,54c0-0.2,0.1-0.3,0.2-0.5C18.1,53.8,18,53.9,17.9,54c0,0.3,0,0.1-0.1,0.1S17.8,54,17.9,54z"/>
		<path class="st0" d="M19.9,34L19.9,34c0,0.2,0,0.2,0,0.3c0,0.1-0.1,0.2-0.1,0.3v0.1l0,0c0,0,0-0.1,0-0.1c0-0.1,0-0.3,0-0.4
			C19.9,34.1,20,34,19.9,34L19.9,34z"/>
		<path class="st0" d="M23.8,54.4c-0.2,0-0.2-0.2-0.3-0.3l0,0c0.1,0,0.1,0,0.2,0.1S23.8,54.3,23.8,54.4L23.8,54.4z"/>
		<path class="st0" d="M19.8,34.6c-0.1-0.2,0.1-0.3,0.1-0.5C20,34.3,19.9,34.5,19.8,34.6z"/>
		<path class="st0" d="M17.9,54c0,0.1,0,0.1-0.1,0.1s0,0.1,0,0.1c-0.1,0-0.1,0.1-0.2,0.1c0,0,0-0.1,0-0.1c0,0,0,0,0,0
			C17.7,54.2,17.8,54.2,17.9,54C17.8,54.1,17.9,54,17.9,54z"/>
		<path class="st0" d="M19.8,34.7L19.8,34.7c0,0.1,0,0.3-0.1,0.3v-0.2C19.7,34.8,19.7,34.8,19.8,34.7z"/>
		<path class="st0" d="M23.1,36.5L23.1,36.5c0,0.1,0.1,0.2,0.1,0.3C23.1,36.8,23.1,36.6,23.1,36.5z"/>
		<path class="st0" d="M18.1,37.8c-0.1-0.1-0.1-0.2,0-0.3V37.8z"/>
		<path class="st0" d="M20,33.6v0.2c0,0.1,0,0.2,0,0.2l0,0C19.9,33.9,19.8,33.7,20,33.6z"/>
		<path class="st0" d="M20.3,32.3c0-0.1,0-0.2,0.1-0.2C20.4,32.2,20.4,32.3,20.3,32.3z"/>
		<path class="st0" d="M30.6,54c-0.1-0.1-0.1-0.1-0.1-0.2c0-1,0-2,0-2.9c0-2.3,0-4.7,0-7c0-0.5,0-1,0-1.5c0-0.1,0-0.1-0.1-0.2
			c-0.1-0.1-0.1-0.1-0.1-0.2c0-0.2-0.1-0.3-0.3-0.3c-0.1,0-0.1-0.2-0.2-0.1s0,0,0-0.1c0.1,0,0.2,0,0.3,0.1c0.2,0.1,0.3,0.3,0.4,0.5
			c0,0.1,0,0.1,0,0.2c0,0.5,0,1,0,1.6c0.1,1.1,0,2.1,0,3.2s0,2.2,0,3.2s0,1.8-0.1,2.8c0,0.3,0,0.5,0.1,0.8
			C30.7,53.8,30.7,53.9,30.6,54L30.6,54z"/>
		<path class="st0" d="M25.6,42.5c0,0.8,0,1.6,0,2.5c0.1,2.7,0,5.4,0,8.1c0,0.3,0,0.5-0.1,0.8c-0.1-0.1,0-0.3,0-0.4c0,0,0,0,0-0.1
			c0.1-0.1,0.1-0.3,0.1-0.4v-7.6c0-0.1,0-0.2,0-0.2s0,0,0-0.1c0-0.1,0-0.2,0-0.3c0-0.5,0-1.1,0-1.6c0.1-0.2,0.1-0.4,0.1-0.6
			C25.6,42.6,25.6,42.6,25.6,42.5L25.6,42.5C25.6,42.6,25.6,42.5,25.6,42.5z"/>
		<path class="st0" d="M25.8,41.7v0.1c-0.1,0.2-0.2,0.4-0.1,0.7l0,0c-0.1-0.1,0-0.2,0-0.3c0-0.1,0-0.1,0-0.2
			C25.6,41.9,25.6,41.8,25.8,41.7z"/>
		<path class="st0" d="M25.5,54L25.5,54c-0.1-0.1,0-0.2,0-0.3c0-0.1,0-0.1,0-0.2l0,0L25.5,54L25.5,54z"/>
		<path class="st0" d="M32.5,54.4h-1.2c-0.2,0-0.3-0.1-0.5-0.2c0,0,0-0.1,0-0.1c0-0.1-0.1-0.3-0.1-0.4c-0.1-1-0.1-2.1,0-3.1
			c0.1-2.2,0-4.4,0-6.6c0-0.5,0-1,0-1.5c0-0.2,0-0.4-0.1-0.6c-0.1-0.3-0.4-0.5-0.7-0.6c-0.6-0.1-1.1-0.1-1.7-0.1c-0.1,0-0.1,0-0.2,0
			c-0.4,0-0.7,0-1.1,0s-0.7,0-1,0.2c-0.1,0.1-0.2,0.3-0.3,0.4v0.1c-0.1,0.4-0.1,0.9-0.1,1.3c0,0.5,0,1.1,0,1.6c0.1,2.7,0,5.4,0,8.1
			c0,0.1,0,0.2,0,0.3v0.2c0,0.2-0.1,0.5-0.3,0.6c-0.1,0.1-0.2,0.1-0.4,0.1h-0.6c-0.2,0-0.4,0-0.5-0.2c0-0.1-0.1-0.1-0.2-0.2
			c0-0.2,0-0.5-0.1-0.7c0,0,0-0.1,0-0.1c0-5.2,0-10.4,0-15.6v-0.1c0.1-0.2,0.1-0.4,0-0.6c0,0,0-0.1,0-0.2c0-0.4-0.3-0.7-0.7-0.8
			c0,0-0.1-0.1-0.1-0.1c-0.3-0.1-0.5-0.2-0.7-0.4c-0.1-0.1-0.1-0.1-0.1-0.2c-0.1-0.2-0.1-0.5-0.2-0.7c0-0.3,0-0.6,0-0.8
			c-0.1-0.4-0.1-0.8-0.1-1.1c0-0.1,0-0.1-0.1-0.2l0-0.1c0-0.2,0-0.4,0-0.7c0-0.1,0-0.1-0.1-0.2c0-0.2,0-0.4,0-0.5c0-0.1,0-0.1,0-0.2
			c-0.1-0.2-0.2-0.4-0.2-0.6c0-0.2-0.1-0.3-0.2-0.5s-0.1-0.1-0.1,0c0,0.4-0.2,0.8-0.2,1.1c0,0,0,0.1,0,0.1c-0.1,0.1-0.1,0.3-0.1,0.4
			c0,0.1,0,0.3-0.1,0.4c-0.1,0.1-0.1,0.2-0.1,0.4c0,0.1,0,0.2-0.1,0.3c0,0.1-0.1,0.2-0.1,0.3c0,0.3-0.1,0.5-0.1,0.8
			c-0.1,0.3-0.1,0.7-0.2,1c0,0.1-0.1,0.2-0.1,0.3c0,0,0,0.1,0,0.1s0,0.1-0.1,0.1c-0.1,0.3-0.3,0.5-0.6,0.6c0,0-0.1,0.1-0.1,0.1h-0.1
			h-0.1l0,0c-0.2,0.1-0.3,0.3-0.4,0.5c-0.2,0.4-0.3,0.8-0.3,1.2c0,0.1,0,0.2,0,0.4c0,5.1,0,10.2,0,15.3c0,0.2,0,0.4,0,0.6
			c0,0.2-0.2,0.2-0.3,0.3c-0.1,0.1-0.3,0.2-0.5,0.2c-0.2,0-0.4,0-0.6,0c0,0-0.1,0-0.1,0s-0.1-0.1-0.2-0.1l0,0l0,0
			c-0.1-0.1-0.2-0.3-0.2-0.4c0-0.1-0.1-0.2-0.1-0.3c0-2.4,0-4.8,0-7.2c0-0.2,0-0.3-0.1-0.5c0-0.1,0-0.2-0.1-0.3
			c0-0.1-0.1-0.2-0.1-0.2l0,0c0-0.1-0.1-0.3-0.3-0.3l0,0c0-0.1-0.1-0.1-0.2-0.1h-0.4c-0.1,0-0.2-0.1-0.3-0.1l0,0h-1.9
			c-0.8,0-1.5,0-2.3,0c-0.1,0-0.3,0-0.4,0.1H9.6c0,0-0.1,0.1-0.1,0.1l0,0c-0.1,0-0.2,0.1-0.2,0.2c0,0.1-0.1,0.1-0.1,0.2H9
			c-0.1,0.3-0.2,0.7-0.2,1.1c0,0.1,0,0.2,0,0.3c0,1.3,0,2.6,0,4c0,0.1,0,0.1,0,0.2c0,0.3,0,0.6,0,0.9c0,0.2,0,0.4,0,0.6
			c0,0.5-0.1,0.9-0.1,1.4c0,0.1-0.1,0.1-0.1,0.2c-0.3,0-0.6,0-0.9-0.1c-0.1,0-0.2,0-0.3,0H7.3c0,0-0.1-0.1-0.2-0.1
			c-0.2,0-0.3-0.1-0.4-0.2l-0.2-0.1l0,0c-0.2,0-0.2-0.1-0.3-0.2S6.1,53.1,6,53.1c-0.1-0.1-0.3-0.2-0.4-0.3c0-0.1-0.1-0.1-0.2-0.1
			l0,0c0,0-0.1-0.1-0.1-0.1l-0.6-0.6l0,0c-0.1-0.1-0.2-0.2-0.3-0.4c-0.1-0.1-0.2-0.2-0.2-0.3C4.1,51.1,4,51,3.9,50.9
			s-0.3-0.3-0.4-0.5l0,0c0,0-0.1-0.1-0.1-0.1s-0.2-0.3-0.2-0.4c0,0,0-0.1-0.1-0.1l0,0l0,0c0-0.1-0.1-0.2-0.2-0.2
			c-0.1-0.1,0-0.2-0.1-0.3c-0.1,0-0.1-0.1-0.1-0.2c0-0.1,0-0.2-0.1-0.3v-0.1c-0.1-0.1-0.2-0.3-0.2-0.4c0-0.1-0.1-0.1-0.1-0.2
			c-0.1-0.2-0.2-0.4-0.2-0.7C2,47.2,2,47,1.9,46.8c-0.1-0.3-0.1-0.5-0.2-0.8s-0.1-0.4-0.2-0.6s0-0.1,0-0.2s-0.2-0.4-0.2-0.6
			c-0.1-0.2-0.1-0.3-0.1-0.5c0-0.1,0-0.1,0-0.2c0-0.3-0.1-0.6-0.2-0.9c-0.1-0.1,0-0.3-0.1-0.5c-0.1-0.3-0.1-0.6-0.2-0.9
			c0-0.2,0-0.4-0.1-0.5s-0.1-0.6-0.1-0.9l0,0c0-0.2,0-0.4,0-0.6c-0.1-0.3-0.1-0.5-0.1-0.8c0-0.4,0-0.9-0.1-1.3
			c-0.1-0.8-0.1-1.6-0.2-2.4c0-0.5,0-1.1,0-1.6c0-0.4,0-0.8,0.1-1.2c0-0.3,0-0.7,0.1-1v-0.4c0-0.2,0.1-0.4,0.1-0.5
			c0-0.2,0-0.3,0.1-0.5v-0.3c0.1-0.3,0.2-0.6,0.1-0.9v-0.2c0.1-0.2,0.2-0.4,0.1-0.7c0-0.1,0-0.3,0.1-0.4s0-0.1,0-0.2
			c0-0.3,0.1-0.7,0.2-1c0-0.3,0.1-0.5,0.2-0.8c0,0,0-0.1,0-0.1c0-0.2,0.2-0.4,0.2-0.7l0,0c0.1-0.1,0.1-0.2,0.1-0.4v-0.1
			c0-0.1,0.1-0.2,0.1-0.3c0-0.2,0.1-0.3,0.1-0.5S2,23,2.1,22.8s0-0.1,0-0.2s0.1-0.1,0.1-0.2c0.1-0.2,0.2-0.5,0.3-0.7
			c0-0.1,0-0.2,0.1-0.3c0,0,0-0.1,0-0.2l0,0l0,0c0.2,0,0.3-0.1,0.3-0.3c0,0,0-0.1,0-0.1C3,20.9,3,20.7,3.2,20.6s0.2-0.4,0.3-0.6l0,0
			c0,0,0.1-0.1,0.1-0.1c0.1-0.2,0.2-0.3,0.3-0.5L4.1,19c0-0.1,0.2-0.2,0.1-0.3c0.1-0.1,0.2-0.3,0.3-0.4s0.1-0.1,0.1-0.2
			s0.2-0.1,0.1-0.2l0,0l0,0c0.1,0,0.2-0.1,0.2-0.2c0.1-0.1,0.1-0.2,0.2-0.3c0.1,0,0.1-0.1,0.2-0.1l0,0c0.1-0.1,0.2-0.3,0.3-0.4
			c0-0.1,0.1-0.1,0.1-0.2s0.2-0.1,0.2-0.2c0.2,0,0.2-0.2,0.3-0.3s0-0.1,0.1-0.1s0.1-0.2,0.2-0.3c0.1-0.1,0.2-0.2,0.3-0.3
			c0-0.1,0.1-0.1,0.1-0.1L8,14.1l0,0c0.1-0.2,0.3-0.2,0.4-0.4s0.3-0.3,0.5-0.4L9.1,13c0.1,0,0.1,0,0.1-0.1l0,0
			c0.1,0,0.1-0.1,0.1-0.1c0.1-0.1,0.2-0.2,0.3-0.2c0.4-0.2,0.7-0.5,1-0.8c0.1,0,0.1-0.1,0.2-0.1l0,0c0.1,0,0.1-0.1,0.2-0.1H11
			c0.1-0.1,0.3-0.2,0.4-0.3h0.1c0.1,0,0.1-0.1,0.2-0.1l0,0c0.1-0.1,0.2-0.1,0.2-0.2s0,0,0.1-0.1l0,0c0.1-0.1,0.3-0.1,0.4-0.2
			l0.1-0.1c0,0,0.1-0.1,0.1-0.1c0.2-0.1,0.4-0.2,0.6-0.4c0,0,0.1,0,0.2,0c0.1-0.1,0.2-0.2,0.4-0.3c0.2,0,0.4-0.1,0.6-0.3
			c0.2,0,0.2-0.1,0.4-0.2l0,0c0.1,0,0.1-0.1,0.2-0.1C15,9.1,15.2,9,15.4,8.9c0.1-0.1,0.3-0.1,0.4-0.2s0.4-0.2,0.7-0.2
			c0.2-0.1,0.4-0.1,0.6-0.2h0.1c0.1,0,0.1-0.1,0.2-0.1c0.2,0,0.4-0.1,0.6-0.2c0.1-0.1,0.3,0,0.4-0.1c0.2-0.1,0.5-0.1,0.8-0.1h0.2
			c0.1,0,0.2,0,0.2-0.1s0.1,0,0.2,0h1.1c0.3,0.1,0.6,0.1,0.9,0.1c0.1,0.1,0.3,0.1,0.5,0.1C22.3,8,22.4,8,22.5,8s0.1,0.1,0.2,0.1
			c0,0,0.1,0,0.1,0h0.1c0.1,0.1,0.2,0.1,0.3,0.2c0.2,0.2,0.4,0.4,0.6,0.6c0.2,0.2,0.4,0.5,0.5,0.7c0.1,0.1,0.2,0.2,0.3,0.3l0,0
			c0.1,0.1,0.1,0.1,0.2,0.2c0,0,0.1,0.1,0.1,0.1l0,0c0.1,0.1,0.2,0.2,0.4,0.2l0,0c0,0,0.1,0.1,0.1,0.1c0.1,0,0.2,0,0.2,0.1
			c0.1,0.1,0.2,0,0.3,0s0,0,0-0.1c-0.1-0.3,0-0.7-0.1-1c0-0.1,0-0.3-0.1-0.5l0,0c0-0.1,0-0.2-0.1-0.3c0-0.2,0-0.4-0.1-0.6
			c-0.1-0.1-0.1-0.3-0.1-0.4c0-0.2-0.1-0.4-0.2-0.6c0-0.1-0.1-0.3-0.2-0.4c-0.1-0.2-0.1-0.3-0.2-0.4c-0.1-0.2-0.2-0.4-0.3-0.6
			C24.4,5.3,24.2,5,24,4.6c-0.1,0-0.1-0.1-0.1-0.1l-0.1-0.1c-0.1-0.2-0.2-0.3-0.3-0.5l-0.1-0.1L23,3.3c0,0,0-0.1-0.1-0.1l0,0l0,0
			l0,0c0-0.1-0.1-0.2-0.2-0.2c0,0-0.1-0.1-0.1-0.1c0,0-0.1-0.1-0.1-0.1l0,0c0,0-0.1-0.1-0.1-0.1l0,0c0,0-0.1-0.1-0.1-0.1l0,0
			c0-0.1-0.1-0.1-0.1-0.2S21.8,2.1,21.7,2s-0.1-0.2,0.1-0.3s0.1,0,0.2-0.1s0,0,0,0c0.2,0,0.4-0.2,0.6-0.2l0.3-0.1
			c0-0.1,0.1-0.2,0.2-0.3l0,0c0.1,0,0.1-0.1,0.2-0.1c0,0,0.1,0,0.1,0l0,0l0.1-0.1c0.1,0,0.2,0,0.3,0c0,0,0-0.1,0.1-0.1
			c0.1,0,0.3-0.1,0.4-0.2l0,0c0.2-0.1,0.4-0.1,0.5-0.3s0,0,0,0c0.3,0,0.5,0,0.8,0.1L26,0.5l0,0l0.2,0.1h0.1c0,0.1,0.1,0.1,0.2,0.2
			c0,0,0,0.1,0,0.1c0.2,0.2,0.3,0.4,0.4,0.6c0.1,0.1,0.2,0.3,0.3,0.4c0.1,0.2,0.1,0.3,0.2,0.5c0,0,0,0,0,0.1
			c0.1,0.2,0.1,0.4,0.3,0.6c0,0.1,0,0.1,0,0.2v0.1c0,0.1,0.1,0.2,0.1,0.3c0,0.2,0.1,0.3,0.2,0.4l0,0c0,0.2,0.1,0.4,0.2,0.6l0,0
			c0,0.1,0,0.1,0,0.2c0.1,0.2,0.1,0.4,0.1,0.6v0.1c0,0.1,0,0.1,0.1,0.1c0,0.2,0,0.4,0,0.6c0,0.1,0.1,0.2,0.1,0.3
			c0,0.2,0,0.4,0.1,0.6c0,0,0,0.1,0.1,0.1l0,0c0,0.1,0,0.2,0,0.3c0,0.2,0,0.4,0.1,0.6c0,0.1,0,0.2,0,0.3s0,0.1,0,0.2l0,0
			c0,0.1,0,0.3,0,0.4c0,0.1,0.1,0.2,0.3,0.2c0,0,0,0.1,0,0.1c0,0.4,0,0.8,0.1,1.1c0,0.1,0.1,0.2,0.1,0.3c0.1,0,0.1,0,0.2,0
			c0.4-0.2,0.7-0.3,1.1-0.4c0.2-0.1,0.4-0.2,0.6-0.2c0,0,0-0.1,0.1-0.1l0,0c0.1,0,0.1,0,0.2,0c0.1,0,0.2-0.1,0.4-0.1H32
			c0.2,0,0.3-0.1,0.5-0.1s0.1-0.2,0.3-0.1c0.1,0,0.2-0.1,0.3-0.1c0.4-0.1,0.7-0.2,1.1-0.2c0.1,0,0.1-0.1,0.2-0.1h0.2
			c0.7-0.1,1.4-0.2,2.2-0.1c0.1,0,0.2,0,0.3,0c0.1,0,0.2,0,0.3,0.1c0.1,0.1,0.2,0,0.4,0h0.1c0.4,0,0.7,0.1,1.1,0.2
			c0.2,0,0.4,0.1,0.6,0.2c0.2,0,0.4,0.1,0.6,0.2c0,0,0.1,0,0.1,0l0,0c0.2,0.1,0.5,0.1,0.7,0.2c0.3,0.1,0.6,0.3,1,0.5
			c0.1,0.1,0.3,0.1,0.4,0.2s0,0,0,0.1l0.4,0.2c0.1,0.1,0.1,0.1,0.2,0.1l0,0c0.1,0,0.1,0.1,0.2,0.1c0.1,0,0.2,0.1,0.2,0.2
			c0.1,0.1,0.3,0.2,0.4,0.2c0.1,0.1,0.3,0.1,0.4,0.3s0.4,0.3,0.5,0.4l0,0c0,0.2,0.2,0.2,0.3,0.3c0.1,0.1,0.2,0.2,0.3,0.3
			c0,0,0.1,0,0.1,0l0,0c0,0.1,0,0.1,0.1,0.1c0,0,0,0,0.1,0l0.1,0.1l0,0c0.1,0.1,0.1,0.1,0.2,0.2s0.3,0.2,0.4,0.4
			c0.1,0.1,0.2,0.2,0.3,0.2c0,0,0,0,0,0.1s0.1,0.1,0.2,0.2c0.2,0.2,0.5,0.5,0.7,0.7l0,0c0,0.1,0.1,0.1,0.1,0.1l0,0
			c0.1,0.2,0.2,0.3,0.4,0.4c0,0,0.1,0.1,0.2,0.1l0,0c0,0.1,0.1,0.1,0.2,0.2s0.2,0.3,0.4,0.5l0,0c0,0.1,0.2,0.2,0.2,0.3
			c0.1,0.1,0.1,0.2,0.2,0.3l0.1,0.1l0,0l0,0c0,0.1,0.1,0.1,0.2,0.1l0,0c0,0.1,0.1,0.2,0.1,0.2l0,0c0.2,0.2,0.3,0.4,0.5,0.6l0.3,0.4
			l0,0c0,0,0.1,0.1,0.1,0.1c0.1,0.1,0.1,0.2,0.2,0.3c0,0.1,0,0.1,0.1,0.2s0,0.1,0,0.1s0.1,0.2,0.2,0.3l0,0c0,0,0.1,0,0.1,0
			c0.2,0.4,0.5,0.8,0.7,1.2c0.1,0.2,0.2,0.3,0.2,0.5c0,0.1,0.1,0.1,0.1,0.2l0,0c0,0.1,0,0.2,0.1,0.2V22c0.1,0.2,0.3,0.5,0.3,0.7
			c0,0,0,0.1,0.1,0.1s0,0.1,0.1,0.1l0,0c0.1,0.1,0.1,0.3,0.2,0.4c0.1,0.2,0.2,0.4,0.2,0.5c0.1,0.3,0.2,0.6,0.3,0.8
			c0,0.1,0,0.2,0.1,0.3c0.1,0.1,0,0.2,0.1,0.3s0.1,0.2,0.1,0.3c0.1,0.3,0.2,0.6,0.3,1c0.1,0.3,0.2,0.6,0.2,0.9
			c0,0.1,0.1,0.3,0.1,0.4c0,0.3,0.1,0.6,0.2,0.9c0,0.2,0,0.4,0.1,0.6c0,0.2,0,0.3,0,0.5c0,0.3,0.1,0.5,0.1,0.8c0,1.2,0.1,2.5,0,3.7
			v0.6c0,0.2,0,0.4,0,0.6c0,0.2,0,0.5-0.1,0.7c0,0.2-0.1,0.4-0.1,0.6c0,0.3-0.2,0.6-0.2,1v0c0,0.2-0.1,0.4-0.1,0.6l0,0
			c0,0.4-0.1,0.8-0.2,1.2l0,0c0,0.1,0,0.2-0.1,0.3v0.1c0,0.1-0.1,0.1-0.1,0.2l0,0c0,0.1,0,0.2,0,0.3l0,0c-0.1,0.2-0.2,0.5-0.2,0.8
			c-0.1,0.2-0.2,0.5-0.2,0.7c-0.1,0.2-0.1,0.4-0.2,0.6c-0.1,0.2-0.1,0.3-0.1,0.5c0,0,0,0.1,0,0.1v0.1c0,0.1-0.1,0.2-0.1,0.2l0,0
			c0,0,0,0.2-0.1,0.3c-0.2,0.5-0.4,0.9-0.6,1.4c0,0.2-0.1,0.2-0.1,0.4c0,0.1,0,0.1-0.1,0.2c0,0-0.1,0.1-0.1,0.2
			c-0.1,0.1-0.2,0.3-0.3,0.5c0,0.1,0,0.2-0.1,0.2C51.1,47,51,47.1,51,47.2c0,0,0,0.1,0,0.1c-0.1,0.1-0.2,0.2-0.3,0.4l0,0
			c0,0.1-0.1,0.1-0.1,0.2l0,0c0,0.1-0.2,0.1-0.1,0.2l0,0c-0.1,0.1-0.1,0.2-0.2,0.3s-0.3,0.3-0.4,0.5c0,0-0.1,0.1-0.1,0.2l0,0
			c-0.2,0.2-0.3,0.3-0.4,0.5l0,0c0,0-0.1,0-0.1,0.1S49,50,48.9,50.1l0,0c-0.1,0.1-0.2,0.2-0.3,0.3c-0.1,0.1-0.1,0.2-0.2,0.3l0,0
			c0,0.1-0.1,0.1-0.1,0.2l0,0c-0.1,0.1-0.2,0.2-0.2,0.3l0,0c0,0.1-0.1,0.1-0.2,0.1v0.1c-0.1,0.1-0.2,0.2-0.3,0.3s-0.2,0.2-0.2,0.3
			c0,0.1-0.1,0.1-0.1,0.2c-0.1,0-0.2,0.1-0.2,0.2c-0.1,0.1-0.1,0.2-0.2,0.3c0,0.1-0.2,0.1-0.2,0.2c-0.1,0.1-0.1,0.1-0.1,0.2l0,0
			c0,0-0.1,0.1-0.1,0.1l0,0c0,0.1-0.2,0.1-0.2,0.2s-0.1,0.2-0.2,0.2c0,0.1-0.1,0.1-0.2,0.1h-0.4c-0.1,0-0.1-0.1-0.1-0.1c0,0,0,0,0,0
			c0-0.4-0.1-0.8-0.1-1.2c0-1.9,0-3.8,0-5.7c0-0.1,0-0.2,0-0.3V46c0.1-0.3-0.1-0.5-0.2-0.7c0-0.1-0.2-0.1-0.1-0.2
			c-0.3-0.2-0.6-0.3-0.9-0.3c-1,0-2,0-2.9,0c-0.2,0-0.4,0.1-0.5,0.1c-0.1,0-0.1,0.1-0.2,0.2c0,0-0.1,0.1-0.1,0.1l0,0
			c-0.1,0-0.1,0.1-0.1,0.2c0,0.1,0,0.1,0,0.2c0,0.2-0.1,0.4-0.1,0.5s0,0.3,0,0.5c0,1.9,0,3.7,0,5.6c0,0.5-0.1,0.9,0,1.3
			c0,0.1,0,0.2-0.1,0.3c0,0.1,0,0.1,0,0.2l0,0c-0.1,0.2-0.4,0.3-0.6,0.3c0,0-0.1,0-0.2,0h-0.8c-0.2-0.1-0.3-0.3-0.4-0.5
			c-0.1-0.3-0.1-0.5-0.1-0.8c0-1.2,0-2.5,0-3.8c0-0.1,0-0.1,0-0.2v-0.1c0-0.3,0-0.6-0.1-0.9l0,0c0,0,0-0.1-0.1-0.2s-0.1-0.2-0.2-0.2
			s-0.1,0-0.2-0.1c-0.1,0-0.1,0-0.2-0.1c-0.2,0-0.4,0-0.6,0c-0.3,0-0.7-0.1-1,0c-0.5,0-1.1,0-1.6,0.1c-0.2,0.1-0.5,0.2-0.6,0.4
			c0,0,0,0.1,0,0.1c0,0,0,0,0,0c0,0-0.1,0.1-0.1,0.1c0,0,0,0,0,0c-0.1,0.3-0.1,0.6-0.1,0.9v3.9c0,0.2,0,0.3,0,0.5
			c0,0.2-0.1,0.4-0.2,0.5C32.5,54.3,32.5,54.4,32.5,54.4z"/>
		<path class="st0" d="M54.5,30.8c-0.1-0.1-0.1-0.3-0.1-0.5c0-0.1,0-0.3,0-0.4c0-0.2,0-0.3-0.1-0.5c-0.1-0.2-0.1-0.4-0.1-0.6
			c0-0.1,0-0.2,0-0.3l0,0c0,0.3,0.1,0.5,0.1,0.8C54.3,29.8,54.5,30.3,54.5,30.8L54.5,30.8L54.5,30.8z"/>
		<path class="st0" d="M54.3,37c0-0.2,0-0.4,0-0.6c0.1-0.4,0.1-0.8,0.1-1.2c0,0,0,0,0-0.1v1.1C54.4,36.5,54.3,36.8,54.3,37L54.3,37
			 M54.3,37.1C54.3,37,54.3,37,54.3,37.1C54.3,37,54.3,37,54.3,37.1L54.3,37.1z"/>
		<path class="st0" d="M23.6,54.2c0.1,0,0.1,0,0.2,0.1s0.1,0.1,0.2,0.1h0.8c0.1,0,0.2,0,0.2-0.1s0.1,0,0.1,0l0,0l0,0v0.1
			c-0.1,0-0.2,0-0.2,0h-1.2C23.7,54.3,23.7,54.2,23.6,54.2L23.6,54.2L23.6,54.2z"/>
		<path class="st0" d="M39,54.4L39,54.4c0.2,0,0.5-0.1,0.6-0.3h0.1c0,0.1,0,0.2-0.1,0.2c0,0,0,0,0,0c0,0.1-0.1,0.1-0.2,0.1L39,54.4
			L39,54.4z"/>
		<path class="st0" d="M15.8,45.5c0.1,0.3,0.2,0.7,0.2,1c0,2.4,0,4.8,0,7.1c0,0.1,0,0.2,0.1,0.2s0,0.2,0.1,0.3s0,0.1,0,0.1
			s-0.1,0-0.1-0.1c0-0.2-0.2-0.4-0.2-0.6c-0.1-1.7,0-3.5,0-5.2v-0.8C15.9,46.9,15.9,46.2,15.8,45.5C15.8,45.5,15.8,45.5,15.8,45.5z"
			/>
		<path class="st0" d="M16.2,54.3L16.2,54.3c0.1,0,0.1,0.1,0.1,0.1h0.1l0,0l0,0C16.3,54.4,16.2,54.4,16.2,54.3z"/>
		<path class="st0" d="M37.7,49.2c0,0.1,0,0.1,0,0.2c0,1.3,0,2.5,0,3.8c0,0.3,0.2,0.6,0.2,0.8c0,0.1,0.1,0.1,0.2,0.2
			c0.1,0.1,0.1,0.1,0.2,0.2c-0.1,0-0.2,0-0.2-0.1s-0.2-0.3-0.3-0.5C37.7,52.3,37.7,50.9,37.7,49.2C37.7,49.3,37.7,49.3,37.7,49.2z"
			/>
		<path class="st0" d="M17.6,54.3L17.6,54.3c0,0.1-0.1,0.1-0.1,0.1C17.5,54.3,17.6,54.3,17.6,54.3z"/>
		<path class="st0" d="M30.8,54.2C30.8,54.2,30.9,54.2,30.8,54.2c0.1,0,0.3,0.1,0.5,0.2h-0.1C31,54.4,30.9,54.4,30.8,54.2
			C30.7,54.1,30.8,54.3,30.8,54.2z"/>
		<path class="st0" d="M39.5,54.4l0.2-0.1v0.1L39.5,54.4z"/>
		<path class="st0" d="M15.8,45.5L15.8,45.5c-0.1,0-0.2,0-0.1-0.2S15.8,45.3,15.8,45.5z"/>
		<path class="st0" d="M0.3,31.2c0.1,0.5,0.1,0.9,0,1.4c-0.1,0.7-0.1,1.5-0.1,2.2c0,0.8,0,1.5,0,2.3c0,0.2,0.1,0.4,0.1,0.6
			c0,0.4,0,0.8,0,1.2c0,0.1,0,0.2,0,0.3c0-0.1,0-0.2,0-0.3c0-0.3,0-0.5-0.1-0.8c-0.1-0.2,0-0.5-0.1-0.7c0-1.7,0-3.5,0-5.2
			c0,0,0.1-0.1,0.1-0.1C0.2,31.8,0.3,31.5,0.3,31.2C0.3,31.3,0.3,31.3,0.3,31.2z"/>
		<path class="st0" d="M7.6,53.8c0.1,0,0.2,0,0.2,0.1s0.1,0,0.1,0h0.5c0.1,0,0.1,0,0.1-0.2c0-0.1,0-0.3,0-0.4
			c0.1-0.8,0.1-1.5,0.1-2.3c0,0,0-0.1,0-0.2c0,0.3,0,0.6,0,0.9c0,0.1,0,0.2,0,0.3c0,0.4,0,0.8,0,1.2c0,0.2,0,0.3,0,0.5
			c0,0.1-0.1,0.2-0.2,0.2c0,0,0,0,0,0c-0.3,0-0.5,0-0.8,0L7.6,53.8L7.6,53.8C7.6,53.9,7.6,53.8,7.6,53.8z"/>
		<path class="st0" d="M8.8,53.3v-1.2l0,0l0,0v1C8.8,53.2,8.9,53.2,8.8,53.3z"/>
		<path class="st0" d="M7.5,54C7.5,54,7.5,54,7.5,54C7.5,53.8,7.6,53.9,7.5,54L7.5,54C7.6,53.9,7.7,54,7.5,54L7.5,54z"/>
		<path class="st0" d="M7.7,54L7.7,54c0.1-0.1,0.1-0.1,0.2,0H7.7z"/>
		<path class="st0" d="M9.7,44.9c0.2-0.1,0.3-0.2,0.5-0.1h4c0.1,0,0.3,0,0.4,0.1c-0.6,0-1.2,0-1.8,0c-0.4,0-0.7-0.1-1.1-0.1h-0.1
			c-0.5,0.1-1.1,0.2-1.6,0.1L9.7,44.9z"/>
		<path class="st0" d="M9.3,45c0,0,0.1-0.1,0.1-0.1C9.4,45,9.3,45,9.3,45z"/>
		<path class="st0" d="M17.2,8.1c-0.3,0.1-0.6,0.2-0.9,0.3c-0.2,0.1-0.3,0.1-0.5,0.2c-0.2,0.1-0.4,0.1-0.5,0.2S15.1,9.1,15,9
			s0,0,0,0l0,0c0.1-0.1,0.2-0.2,0.4-0.1s0.1-0.1,0.2-0.1s0.2-0.1,0.3-0.1s0.3-0.2,0.5-0.2s0.4-0.1,0.5-0.2c0.1,0,0.1,0,0.2,0
			L17.2,8.1z"/>
		<path class="st0" d="M21.8,7.7h-0.7c-0.1,0-0.1-0.1-0.2-0.1l0,0h0.3C21.4,7.7,21.6,7.8,21.8,7.7L21.8,7.7L21.8,7.7z"/>
		<path class="st0" d="M17.6,8c0,0.1-0.1,0.2-0.2,0.1C17.4,8.1,17.5,8,17.6,8z"/>
		<path class="st0" d="M31.2,10.3c-0.2,0.1-0.4,0.1-0.5,0.2l-0.2,0.1c-0.3,0.1-0.5,0.2-0.8,0.2c-0.1,0-0.1,0-0.1,0.1
			c-0.1,0.1-0.3,0.1-0.4,0S29,10.4,29,10.2c0-0.3,0-0.5,0-0.8l0,0l0,0c0,0.2,0,0.5,0,0.7l0,0c0.1,0.2,0.1,0.5,0.1,0.7l0,0
			c0,0,0.1,0,0.1,0c0.1,0,0.1-0.1,0.2-0.1l0,0c0.3-0.1,0.6-0.1,0.8-0.3l0,0c0.2,0,0.4-0.1,0.6-0.2l0,0H31
			C31,10.1,31.1,10.1,31.2,10.3C31.2,10.2,31.2,10.2,31.2,10.3z"/>
		<path class="st0" d="M28.9,8.7c0,0,0-0.1,0-0.1c0-0.2,0-0.4-0.1-0.6c-0.1-0.3-0.1-0.5,0-0.8c0.1,0.1,0,0.3,0,0.4
			C28.9,8,28.9,8.4,28.9,8.7z"/>
		<path class="st0" d="M28.7,7.3c-0.2-0.1-0.1-0.3-0.1-0.4c0-0.1,0-0.2,0-0.3l0,0C28.6,6.8,28.7,7,28.7,7.3z"/>
		<path class="st0" d="M29.1,9.6c0.1,0.2,0.1,0.4,0.1,0.6c-0.1,0,0-0.2-0.1-0.2l0,0V9.6z"/>
		<path class="st0" d="M29,9.3c-0.1,0-0.1-0.1-0.1-0.1V8.7c0,0,0,0.1,0,0.1C29,8.9,29,8.9,29,9C29,9.1,29.1,9.2,29,9.3L29,9.3z"/>
		<path class="st0" d="M29,9.3c0-0.1-0.1-0.2-0.1-0.3C29.1,9,29,9.1,29,9.2L29,9.3L29,9.3z"/>
		<path class="st0" d="M29,9.1C29,9.1,29,9,28.9,9V8.8C29,8.9,29,9,29,9.1z"/>
		<path class="st0" d="M8.1,14.1c-0.2,0.2-0.4,0.4-0.6,0.6c-0.2,0.2-0.3,0.4-0.5,0.6 M6.9,15.2c0-0.1,0.1-0.2,0.2-0.2
			s0.2-0.3,0.4-0.4l0.5-0.5v-0.1C8,14,8,14,8.1,14c0,0,0,0,0,0L6.9,15.2z"/>
		<path class="st0" d="M8.1,14.1H8l0.4-0.4c0.1-0.1,0.2-0.2,0.3-0.3c0.1,0,0.1-0.1,0.1-0.1h0.1l0,0c0,0.1-0.2,0.2-0.3,0.3
			S8.3,13.9,8.1,14.1z"/>
		<path class="st0" d="M6.9,15.2L6.9,15.2c0,0.1-0.1,0.2-0.1,0.2l0,0v-0.1C6.8,15.2,6.9,15.2,6.9,15.2z"/>
		<path class="st0" d="M1.3,25.4c-0.1,0.3-0.1,0.6-0.2,0.8c0,0.1,0,0.1,0,0.2c0,0.3-0.2,0.5-0.2,0.8v-0.3c0-0.2,0-0.3,0.1-0.5h0
			c0-0.3,0.1-0.6,0.2-0.8C1.2,25.5,1.2,25.4,1.3,25.4z"/>
		<path class="st0" d="M1.5,24.6c0,0.2,0,0.3-0.1,0.4c-0.1,0.1,0,0.2-0.1,0.2c0,0,0-0.1,0-0.1v-0.3C1.4,24.8,1.4,24.7,1.5,24.6z"/>
		<path class="st0" d="M1.3,25.2v0.2c-0.1,0.1-0.1,0.1-0.1,0.2C1.1,25.4,1.2,25.3,1.3,25.2z"/>
		<path class="st0" d="M8.8,52.1L8.8,52.1v-1.3c0-0.1,0-0.1,0-0.2c0-0.3,0-0.7,0-1.1s0-0.6,0-0.9c0-0.6-0.1-1.2,0-1.8c0,0,0,0,0-0.1
			c0-0.2,0-0.3,0-0.5c0-0.3,0-0.6,0.2-0.8v0.2c-0.1,0.3-0.2,0.7-0.1,1c0,0.3,0,0.7,0,1C8.9,48.1,9,48.5,8.9,49
			c-0.1,0-0.1,0.1-0.1,0.1c0,0,0,0,0,0v0.2C8.9,50.2,8.8,51.2,8.8,52.1z"/>
		<path class="st0" d="M47.3,15.1l-0.5-0.4l-0.3-0.3l0,0c0,0,0.2,0.1,0.2,0.2C46.9,14.7,47.1,14.8,47.3,15.1
			C47.3,15,47.3,15,47.3,15.1z"/>
		<path class="st0" d="M46.4,14.1c-0.2-0.1-0.3-0.2-0.4-0.4s-0.2-0.2-0.3-0.2s0,0,0,0s0.2,0,0.2,0.1s0.1,0,0.1,0s0.1,0.2,0.2,0.3
			S46.3,14,46.4,14.1z"/>
		<path class="st0" d="M47.3,15.1L47.3,15.1c0.1,0,0.2,0.1,0.3,0.1c0,0,0,0.1,0.1,0.1l0,0c-0.1,0-0.1-0.1-0.2-0.1l0,0L47.3,15.1
			L47.3,15.1z"/>
		<path class="st0" d="M46.6,14.3L46.6,14.3c0-0.1-0.1-0.1-0.1-0.2C46.5,14.2,46.6,14.2,46.6,14.3C46.6,14.3,46.6,14.3,46.6,14.3z"
			/>
		<path class="st0" d="M47.7,15.4v0.1l0,0C47.7,15.5,47.6,15.5,47.7,15.4L47.7,15.4L47.7,15.4L47.7,15.4z"/>
		<path class="st0" d="M54.2,28.5v0.3c-0.1-0.2-0.1-0.5-0.2-0.7c0-0.3-0.1-0.5-0.2-0.7c0-0.2-0.1-0.4-0.2-0.6c0-0.2-0.1-0.4-0.2-0.6
			c-0.1-0.2-0.1-0.3-0.1-0.5l0,0l0,0c0,0.1,0.1,0.2,0.1,0.4v0.1c0,0.1,0.1,0.2,0.1,0.4c0,0.1,0,0.3,0.1,0.4c0.1,0.1,0,0.3,0.1,0.4
			c0.1,0.3,0.1,0.7,0.2,1C54.2,28.4,54.2,28.5,54.2,28.5z"/>
		<path class="st0" d="M53.8,26.5c-0.1-0.1-0.2-0.2-0.1-0.4l0.1,0.1V26.5z"/>
		<path class="st0" d="M0.3,39.1v-0.3c0,0.3,0.2,0.5,0.1,0.8c0,0.2,0,0.4,0,0.6l0,0c0-0.3-0.1-0.7-0.1-1C0.3,39.2,0.3,39.1,0.3,39.1
			z"/>
		<path class="st0" d="M22.8,3.2L22.8,3.2L23,3.3l0.4,0.5c0,0-0.1,0-0.1,0l0,0l-0.1-0.1c-0.1-0.1-0.1-0.2-0.2-0.3
			C22.9,3.3,22.9,3.3,22.8,3.2z"/>
		<path class="st0" d="M23.4,3.9c0.2,0.1,0.3,0.3,0.4,0.5c0,0,0,0-0.1,0s-0.1-0.1-0.2-0.1S23.4,4.1,23.4,3.9L23.4,3.9z"/>
		<path class="st0" d="M22.1,2.5L22.1,2.5c0,0,0.1,0.1,0.1,0.1l0,0c0.1,0,0.1,0.1,0.1,0.1l0,0c0,0,0.1,0.1,0.1,0.2
			C22.3,2.8,22.2,2.6,22.1,2.5z"/>
		<path class="st0" d="M22.6,2.9c0.1,0,0.1,0,0.1,0.1c0,0,0,0,0,0.1l0,0C22.7,3.1,22.6,3.1,22.6,2.9C22.6,2.8,22.5,2.9,22.6,2.9z"/>
		<path class="st0" d="M23.4,3.9L23.4,3.9c0,0-0.2,0-0.1-0.1L23.4,3.9C23.4,3.8,23.4,3.9,23.4,3.9z"/>
		<path class="st0" d="M22.6,2.9L22.6,2.9L22.6,2.9l-0.1-0.2C22.5,2.8,22.6,2.8,22.6,2.9z"/>
		<path class="st0" d="M23.2,3.7c0.1,0,0.1,0,0.1,0.1S23.2,3.7,23.2,3.7z"/>
		<path class="st0" d="M22.9,3.2L22.9,3.2c-0.1,0-0.1,0-0.1-0.1l0,0C22.8,3.1,22.8,3.1,22.9,3.2z"/>
		<path class="st0" d="M0.5,29.8c0,0.3,0,0.6-0.1,0.9c0,0.1,0,0.1-0.1,0.1c0-0.3,0-0.5,0.1-0.8C0.4,30,0.4,29.9,0.5,29.8L0.5,29.8z"
			/>
		<path class="st0" d="M53.2,24.8C53,24.5,53,24.2,52.9,24s-0.1-0.4-0.3-0.6l0,0c0.1,0,0.1,0,0.1,0.1v0.1l0.2,0.5
			c0.1,0.2,0.1,0.4,0.2,0.5C53.2,24.7,53.2,24.7,53.2,24.8z"/>
		<path class="st0" d="M53.2,24.8v-0.1c0,0.2,0.2,0.4,0.2,0.6c0,0,0,0,0,0C53.4,25.1,53.1,25,53.2,24.8z"/>
		<path class="st0" d="M53.4,25.3L53.4,25.3c0.1,0,0.1,0.2,0.1,0.3l0,0C53.5,25.5,53.3,25.5,53.4,25.3z"/>
		<path class="st0" d="M53.6,26c-0.1-0.1-0.2-0.2-0.1-0.4l0.1,0.2V26z"/>
		<path class="st0" d="M0.6,41.2c0.1,0,0,0.1,0,0.2s0,0.2,0.1,0.2s0,0.1,0,0.1s0,0.4,0,0.6s0.1,0.1,0.1,0.2c0,0.1,0,0.3,0,0.4
			c0,0.1,0,0.2,0.1,0.2s0,0.1,0,0.1c0,0.3,0.1,0.5,0.1,0.8c-0.2,0-0.1-0.1-0.1-0.2v-0.1c0-0.2,0-0.3-0.1-0.5c0-0.1,0-0.1-0.1-0.2
			c0-0.2,0-0.4-0.1-0.5c0-0.2,0-0.4,0.1-0.6c-0.1-0.1,0-0.2-0.1-0.3L0.6,41.2c-0.7,0.1-1.3,0.7-1.3,0c0-0.7,0.6-1.3,1.3-1.3
			C0.6,40,0.6,40,0.6,41.2z"/>
		<path class="st0" d="M0.6,41.7c0.1,0.1,0.1,0.2,0.1,0.3l0,0C0.6,41.9,0.6,41.8,0.6,41.7z"/>
		<path class="st0" d="M37.6,9.3L37.6,9.3c-0.3,0-0.7-0.2-1-0.1H36c-0.3,0-0.7,0-1,0.1c-0.2,0-0.4,0-0.6,0l0,0c0.1,0,0.3,0,0.4-0.1
			c0.2-0.1,0.3-0.1,0.5-0.1h1.9c0.2,0,0.4,0.2,0.7,0.1H38l0,0C37.9,9.3,37.8,9.3,37.6,9.3z"/>
		<path class="st0" d="M28.3,5.4c0-0.2-0.1-0.3-0.1-0.5c0.1,0,0.1,0.1,0.1,0.2V5.4z"/>
		<path class="st0" d="M28.3,5.1c0-0.1-0.1-0.1-0.1-0.2V4.6C28.3,4.8,28.4,4.9,28.3,5.1z"/>
		<path class="st0" d="M28.2,4.4c-0.1-0.1-0.1-0.1-0.1-0.2S28.2,4.3,28.2,4.4z"/>
		<path class="st0" d="M26,0.5c0,0-0.1,0-0.1,0c-0.3-0.2-0.6-0.3-1-0.3c-0.1,0-0.1,0-0.1,0.1s0,0,0,0c-0.2,0-0.3,0.2-0.5,0.2l0,0
			c0.1,0,0.1,0,0.1-0.1s0.3-0.1,0.4-0.2c0.2,0,0.3,0,0.5,0c0.2,0,0.4,0,0.5,0.1c0.1,0,0.1,0,0.2,0C25.9,0.4,25.9,0.4,26,0.5z"/>
		<path class="st0" d="M42.1,10.8c-0.2-0.1-0.4-0.2-0.6-0.3c-0.1-0.1-0.2-0.1-0.3-0.1c-0.1-0.1-0.3-0.1-0.4-0.2c0,0,0.1,0,0.1,0
			c0,0,0,0,0,0c0.1,0,0.2,0,0.3,0.1c0,0.1,0.2,0,0.2,0c0,0.2,0.2,0.1,0.3,0.2c0,0,0.1,0.1,0.1,0.1l0,0c0.1,0,0.1,0.1,0.1,0.1H42
			L42.1,10.8z"/>
		<path class="st0" d="M40.8,10.1L40.8,10.1C40.5,10,40.2,10,40,9.9h0.2C40.4,10,40.6,10,40.8,10.1z"/>
		<path class="st0" d="M10.7,11.8c-0.3,0.3-0.5,0.5-0.9,0.7c0,0-0.1,0-0.1,0.1c0,0,0,0,0-0.1c0.1,0,0.1-0.1,0.1-0.1l0,0
			c0.1,0,0.1-0.1,0.2-0.1l0,0c0.1-0.1,0.2-0.2,0.3-0.3c0.1-0.1,0.1-0.1,0.2-0.2C10.6,11.7,10.7,11.7,10.7,11.8z"/>
		<path class="st0" d="M9.7,12.5L9.7,12.5c-0.1,0.2-0.1,0.3-0.3,0.3s-0.1,0.1-0.1,0.1l0,0c0-0.1,0.1-0.1,0.1-0.1
			c0,0,0.1-0.1,0.1-0.1l0,0C9.6,12.6,9.6,12.5,9.7,12.5L9.7,12.5C9.7,12.5,9.7,12.4,9.7,12.5z"/>
		<path class="st0" d="M10.6,11.8c0,0.1-0.1,0.1-0.2,0.1c0,0-0.1,0.1-0.1,0.1C10.3,11.8,10.4,11.8,10.6,11.8L10.6,11.8L10.6,11.8z"
			/>
		<path class="st0" d="M10.3,12l0.1-0.1c0,0.2-0.2,0.2-0.3,0.3C10.1,12.1,10.2,12,10.3,12z"/>
		<path class="st0" d="M10.7,11.6h0.1l0,0l0,0c-0.1,0-0.1,0.2-0.2,0.1l0,0C10.6,11.7,10.7,11.6,10.7,11.6z"/>
		<path class="st0" d="M9.7,12.5L9.7,12.5l0.2-0.1c0,0.1,0,0.1-0.1,0.2C9.8,12.5,9.7,12.5,9.7,12.5z"/>
		<path class="st0" d="M10.1,12.2c-0.1,0.1-0.1,0.2-0.2,0.1C10,12.3,10,12.1,10.1,12.2z"/>
		<path class="st0" d="M9.7,12.5c0,0.1,0,0.1-0.1,0.1S9.6,12.4,9.7,12.5z"/>
		<path class="st0" d="M33,9.6c0,0.2-0.2,0.1-0.3,0.1l0,0h0.1C32.9,9.7,32.9,9.6,33,9.6L33,9.6z"/>
		<path class="st0" d="M33.8,9.4c0.1-0.1,0.1-0.1,0.2-0.1C33.9,9.4,33.9,9.4,33.8,9.4z"/>
		<path class="st0" d="M33,9.6l-0.1,0.1C32.8,9.6,32.9,9.6,33,9.6z"/>
		<path class="st0" d="M30.4,10.5c0,0,0,0.1-0.1,0.1c-0.3,0-0.5,0.2-0.8,0.2c0,0,0,0,0,0s0.1,0,0.2,0c0.1,0,0.1-0.1,0.1-0.1
			c0,0,0.1,0,0.1,0S30.2,10.5,30.4,10.5z"/>
		<path class="st0" d="M29.1,10c0.1,0.1,0,0.2,0.1,0.2c0,0.2,0,0.3,0,0.5l0,0C29.1,10.5,29.1,10.2,29.1,10z"/>
		<path class="st0" d="M29.5,10.7L29.5,10.7c0,0.1,0,0.1-0.1,0.1 M29.4,10.8L29.4,10.8z"/>
		<path class="st0" d="M29.8,10.6c0,0.1-0.1,0.1-0.1,0.1l0,0C29.6,10.7,29.7,10.6,29.8,10.6z"/>
		<path class="st0" d="M29.4,10.7L29.4,10.7c0,0.1-0.1,0.1-0.1,0l0,0l0,0H29.4z"/>
		<path class="st0" d="M24,4.5c0.2,0.2,0.3,0.4,0.4,0.6c0.1,0.2,0.3,0.4,0.4,0.7l0,0c0,0,0-0.2-0.1-0.1c0-0.2-0.2-0.3-0.2-0.4
			C24.3,5,24.2,4.9,24,4.8c0,0,0-0.1,0-0.1S24,4.6,24,4.5z"/>
		<path class="st0" d="M24,4.5v0.1c-0.1,0-0.1-0.1-0.1-0.1c0,0,0-0.1,0-0.1L24,4.5z"/>
		<path class="st0" d="M23.9,4.4L23.9,4.4L23.9,4.4c-0.1,0.1-0.1,0-0.1-0.1L23.9,4.4C23.8,4.4,23.9,4.4,23.9,4.4z"/>
		<path class="st0" d="M48.5,16.5c-0.2,0-0.2-0.2-0.2-0.2c-0.1-0.1-0.2-0.2-0.3-0.3c-0.1,0-0.1-0.1-0.1-0.2c0.1,0.1,0.3,0.3,0.4,0.4
			c0,0,0.1,0.1,0.1,0.2S48.5,16.5,48.5,16.5z"/>
		<path class="st0" d="M48,15.8c-0.1,0-0.1-0.1-0.2-0.1s-0.2-0.1-0.1-0.2l0,0C47.9,15.5,47.9,15.7,48,15.8z"/>
		<path class="st0" d="M48.5,16.5c0,0-0.1-0.1-0.1-0.1S48.6,16.4,48.5,16.5L48.5,16.5L48.5,16.5z"/>
		<path class="st0" d="M52.5,23c0,0,0-0.1-0.1-0.1s0-0.1-0.1-0.1c-0.1-0.2-0.2-0.4-0.3-0.6c0,0-0.1-0.1,0-0.1l0,0
			c0.1,0.1,0.1,0.1,0.1,0.2c0.1,0.2,0.1,0.4,0.2,0.5S52.5,22.9,52.5,23z"/>
		<path class="st0" d="M52.6,23.4c0-0.1-0.2-0.2-0.1-0.4c0.1,0,0.1,0,0.1,0.1V23.4C52.6,23.3,52.6,23.4,52.6,23.4z"/>
		<path class="st0" d="M52.2,22.2c0-0.1-0.2-0.1-0.1-0.2S52.2,22.1,52.2,22.2z"/>
		<path class="st0" d="M1.9,46.9c0.2,0.3,0.3,0.5,0.3,0.8c0,0.1,0.1,0.2,0.1,0.4s0.1,0.1,0.1,0.1c0,0.2,0.2,0.3,0.2,0.5l0,0l0,0
			c0,0,0-0.1-0.1-0.1l0,0l0,0c0-0.1,0-0.2-0.1-0.3c0,0,0,0,0-0.1c0-0.2-0.1-0.2-0.1-0.3c0-0.1,0-0.2-0.1-0.3l0,0
			c0-0.2-0.1-0.3-0.2-0.5c-0.1,0-0.2,0-0.2-0.1C1.9,46.9,1.9,46.9,1.9,46.9z"/>
		<path class="st0" d="M1.9,46.9V47C1.9,46.9,1.9,46.9,1.9,46.9c0-0.1-0.1-0.2-0.1-0.2c0-0.2-0.1-0.4-0.2-0.6v-0.2
			c0-0.1-0.1-0.1-0.1-0.1v-0.1c0,0,0-0.1,0-0.1c0.1,0.1,0.1,0.3,0.1,0.4s0.1,0.5,0.2,0.7S1.9,46.8,1.9,46.9z"/>
		<path class="st0" d="M1.8,46.6c0.1,0,0.1,0.1,0.1,0.2H1.8L1.8,46.6z"/>
		<path class="st0" d="M51.8,21.4c-0.2-0.3-0.4-0.6-0.5-0.9c-0.2-0.3-0.3-0.5-0.4-0.8c0.1,0,0.1,0,0.1,0.1c0,0.1,0.1,0.2,0.2,0.2
			v0.1c0,0.1,0.1,0.1,0.1,0.2c0.1,0.1,0.1,0.3,0.2,0.4c0,0,0.1,0.1,0.1,0.2c0,0.1,0.1,0.1,0.1,0.2v0.1c0,0.1,0.1,0.1,0.1,0.2
			L51.8,21.4z"/>
		<path class="st0" d="M51.6,21c-0.1,0-0.2-0.1-0.1-0.2S51.6,20.9,51.6,21z"/>
		<path class="st0" d="M51.2,20.3c-0.1,0-0.1-0.1-0.1-0.2l0.1,0L51.2,20.3z"/>
		<path class="st0" d="M37.6,9.3H38c0.2-0.1,0.4,0.1,0.6,0.1s0.5,0.2,0.8,0.2s0.2,0.1,0.4,0.1s0.2,0,0.1,0.1s-0.2-0.1-0.3-0.1
			c-0.2,0-0.5-0.1-0.7-0.2c-0.2,0-0.4-0.1-0.6-0.1C38.1,9.3,37.8,9.4,37.6,9.3z"/>
		<path class="st0" d="M39.9,9.9c0-0.1-0.1-0.1-0.1-0.1c0.1,0,0.2,0.1,0.2,0.1H39.9z"/>
		<path class="st0" d="M26,9.2L26,9.2c0.1,0.4,0.1,0.8,0.1,1.3c0,0.1,0.1,0.2,0,0.3l0,0c-0.1-0.2,0-0.5-0.1-0.7V9.4
			C26,9.3,26,9.2,26,9.2z"/>
		<path class="st0" d="M26,9.2v0.2L25.9,9V8.7l0,0c0,0,0,0.1,0,0.1C25.9,8.9,26,9,26,9.2L26,9.2z"/>
		<path class="st0" d="M31.8,10c-0.1,0-0.2,0.2-0.4,0.1c0,0-0.1,0-0.1,0C31.5,10,31.6,10,31.8,10L31.8,10z"/>
		<path class="st0" d="M31.1,10.3h-0.2l0,0c0.1,0,0.2-0.1,0.3-0.1s0,0,0,0l0,0C31.2,10.2,31.2,10.2,31.1,10.3z"/>
		<path class="st0" d="M31.2,10.2L31.2,10.2h0.2C31.4,10.2,31.3,10.2,31.2,10.2z"/>
		<path class="st0" d="M21.8,1.5c0.2,0,0.3-0.2,0.5-0.2l0,0C22.1,1.4,22,1.5,21.8,1.5L21.8,1.5z"/>
		<path class="st0" d="M22.5,1.2h0.1c0,0.1-0.1,0.1-0.2,0.1c0,0-0.1,0-0.1,0l0,0C22.3,1.2,22.4,1.2,22.5,1.2z"/>
		<path class="st0" d="M21.8,1.5L21.8,1.5c0,0.2-0.1,0.1-0.1,0.1s-0.1,0-0.1,0l0,0C21.7,1.6,21.7,1.5,21.8,1.5z"/>
		<path class="st0" d="M25.9,8.8V8.7c0-0.1-0.1-0.2-0.1-0.4V8.1c0,0,0-0.1,0-0.1c0-0.1,0-0.1-0.1-0.2c0-0.2-0.1-0.3-0.2-0.5
			s0-0.1-0.1-0.2S25.3,7.1,25.3,7c0-0.1-0.1-0.2-0.1-0.2c0-0.1,0-0.2-0.1-0.3s0-0.1,0-0.2s0,0,0,0s0.1,0,0.1,0.1
			c0,0.2,0.1,0.3,0.2,0.5c0,0.2,0.1,0.4,0.2,0.5c0,0,0,0.1,0,0.1s0,0.1,0,0.2c0.1,0.1,0.1,0.3,0.1,0.4c0,0.1,0.1,0.1,0.1,0.2
			C25.9,8.5,25.9,8.7,25.9,8.8C25.8,8.8,25.9,8.8,25.9,8.8z"/>
		<path class="st0" d="M25.1,6.4L25.1,6.4C24.9,6.2,25,6,24.8,5.9V5.8l0,0h0.1C24.9,6,25.1,6.2,25.1,6.4z"/>
		<path class="st0" d="M0.6,41.2L0.6,41.2c-0.1-0.2-0.1-0.6-0.1-0.9C0.6,40.6,0.6,40.9,0.6,41.2z"/>
		<path class="st0" d="M21.8,7.7L21.8,7.7c0.1,0,0.2,0,0.2,0.1c0.1,0.1,0.2,0.1,0.3,0.1V8c-0.1,0.1-0.1,0-0.1-0.1h-0.3
			C21.8,7.8,21.8,7.8,21.8,7.7z"/>
		<path class="st0" d="M4.1,51.2l0.3,0.3l0,0c0,0-0.1,0-0.1,0c0-0.1,0-0.2-0.1-0.2l0,0L4.1,51.2z"/>
		<path class="st0" d="M1.2,44.2c0,0.2,0.2,0.3,0.1,0.5c0,0,0,0.1,0,0.2C1.2,44.7,1.1,44.5,1.2,44.2C1.1,44.3,1.1,44.3,1.2,44.2z"/>
		<path class="st0" d="M1.5,45.5v0.1C1.4,45.6,1.5,45.5,1.5,45.5c-0.1-0.1-0.1-0.2-0.2-0.3V45c0.1,0,0.1,0.2,0.2,0.3L1.5,45.5z"/>
		<path class="st0" d="M1.5,45.3c0-0.1-0.1-0.2-0.2-0.3v-0.3C1.3,44.9,1.5,45.1,1.5,45.3z"/>
		<path class="st0" d="M1.2,44.2L1.2,44.2C1.2,44.2,1,44,1,43.9C1,43.9,1,44,1.2,44L1.2,44.2z"/>
		<path class="st0" d="M5.5,52.8c0.1,0.1,0.2,0.1,0.3,0.2c0,0,0.1,0,0.1,0.1l0,0l0,0H5.8C5.8,53,5.7,53,5.6,53
			c-0.1-0.1-0.3-0.2-0.4-0.3c0,0,0.1,0,0.1,0l0,0C5.4,52.7,5.5,52.8,5.5,52.8z"/>
		<path class="st0" d="M5.4,52.7L5.4,52.7c-0.2,0-0.2-0.1-0.2-0.1h0.1C5.3,52.5,5.3,52.6,5.4,52.7z"/>
		<path class="st0" d="M28.5,5.7c-0.1,0-0.1-0.1-0.1-0.1C28.4,5.6,28.4,5.6,28.5,5.7z"/>
		<path class="st0" d="M11.5,11.2c-0.1,0.1-0.3,0.2-0.4,0.3c0-0.1,0.1-0.1,0.1-0.1l0,0c0,0,0.1,0,0.1-0.1S11.4,11.2,11.5,11.2
			C11.4,11.2,11.4,11.1,11.5,11.2C11.5,11.2,11.5,11.2,11.5,11.2z"/>
		<path class="st0" d="M11.5,11.2L11.5,11.2l-0.1-0.1c0,0,0.2-0.2,0.4-0.2l0,0c0,0,0,0,0,0.1c-0.1,0-0.1,0.1-0.1,0.1l0,0
			C11.6,11,11.5,11,11.5,11.2L11.5,11.2z"/>
		<path class="st0" d="M3.5,20c-0.1,0.2-0.2,0.4-0.3,0.6c0,0,0-0.1,0-0.1v-0.1c0.1-0.1,0.1-0.2,0.2-0.3l0,0L3.5,20L3.5,20z"/>
		<path class="st0" d="M3.5,20c0,0.1,0,0.1-0.1,0.1S3.4,20,3.5,20L3.5,20z"/>
		<path class="st0" d="M3.6,19.9c0,0.1,0,0.1-0.1,0.1S3.5,19.9,3.6,19.9z"/>
		<path class="st0" d="M6.8,15.4L6.8,15.4c-0.1,0.2-0.3,0.3-0.4,0.4s-0.1,0.1-0.1,0.2l0,0c0-0.1,0.1-0.2,0.2-0.2S6.6,15.4,6.8,15.4z
			"/>
		<path class="st0" d="M24.6,10c-0.2-0.2-0.4-0.4-0.5-0.6C24,9.3,23.8,9.1,23.7,9c0,0,0.1,0,0.1,0c0,0.1,0,0.2,0.2,0.1
			s0.2,0.2,0.2,0.3s0.1,0.1,0.1,0.1C24.4,9.7,24.5,9.8,24.6,10C24.6,9.9,24.6,10,24.6,10z"/>
		<path class="st0" d="M24.9,10.2c-0.1,0-0.2-0.1-0.2-0.2c0,0,0,0,0.1,0c0,0,0,0,0,0C24.8,10,24.8,10.1,24.9,10.2
			c0.2,0,0.1,0.1,0.2,0.1l0,0l0,0L24.9,10.2z"/>
		<path class="st0" d="M24.3,9.6c-0.1,0-0.1,0-0.1-0.1s0.1,0,0.1,0V9.6z"/>
		<path class="st0" d="M24.7,10h-0.1V9.9C24.7,9.9,24.7,9.9,24.7,10z"/>
		<path class="st0" d="M3.2,49.8c0,0.2,0.2,0.3,0.2,0.5s0,0-0.1,0s0-0.1-0.1-0.1c0-0.2-0.1-0.3-0.2-0.4l0,0
			C3.1,49.7,3.2,49.7,3.2,49.8z"/>
		<path class="st0" d="M2.8,49.2c0.1,0,0.1,0.1,0.1,0.2C2.8,49.3,2.8,49.3,2.8,49.2z"/>
		<path class="st0" d="M27.9,3.7c0-0.1-0.2-0.2-0.1-0.3c0,0,0.1,0.1,0.1,0.1V3.7z"/>
		<path class="st0" d="M6.7,53.5l0.5,0.2c-0.1,0-0.1,0-0.1,0H6.9C6.8,53.7,6.7,53.6,6.7,53.5c0,0-0.1,0-0.1,0c0,0-0.2,0-0.1-0.2
			s0.1,0,0.1,0l0,0C6.5,53.4,6.6,53.5,6.7,53.5z"/>
		<path class="st0" d="M6.4,53.4c0,0,0.1,0.1,0.1,0.1c-0.1,0-0.2-0.1-0.3-0.1l0,0C6.3,53.4,6.3,53.4,6.4,53.4z"/>
		<path class="st0" d="M23.8,9h-0.1c0-0.1-0.1-0.2-0.2-0.2s-0.2-0.3-0.4-0.4c0,0,0-0.1,0-0.1c0,0,0,0,0,0c0.2,0.1,0.4,0.3,0.6,0.4
			c0,0,0,0.1,0.1,0.1S23.8,8.9,23.8,9z"/>
		<path class="st0" d="M23.1,8.3v0.1c0-0.1-0.1-0.1-0.2-0.1c-0.1,0-0.1-0.1-0.1-0.1c0.1,0,0.1,0,0.1,0.1S23.1,8.2,23.1,8.3z"/>
		<path class="st0" d="M23,8.2c0,0-0.1-0.1-0.1-0.1l0,0c0,0,0,0,0,0L23,8.2L23,8.2z"/>
		<path class="st0" d="M27.8,3.2c-0.1-0.3-0.3-0.5-0.4-0.8c0-0.1-0.1-0.3-0.2-0.4c-0.1,0,0-0.1,0-0.2s0,0,0,0l0,0
			c0,0.1,0.1,0.2,0.1,0.2c0,0,0,0.1,0,0.1c0,0.1,0.1,0.1,0.1,0.2v0.1c0,0.2,0.2,0.3,0.2,0.4s0.1,0.1,0.1,0.2L27.8,3.2z"/>
		<path class="st0" d="M27.2,1.9L27.2,1.9c-0.1-0.1-0.2-0.3-0.3-0.4l0,0C27.1,1.6,27.2,1.7,27.2,1.9z"/>
		<path class="st0" d="M27.3,2.1c-0.1,0-0.2-0.1-0.1-0.2c0,0,0,0,0,0C27.3,1.9,27.3,2,27.3,2.1z"/>
		<path class="st0" d="M30.9,10.3c-0.1,0.1-0.4,0.2-0.6,0.2C30.6,10.4,30.7,10.2,30.9,10.3z"/>
		<path class="st0" d="M26.1,10.7L26.1,10.7c-0.2,0-0.4,0-0.6-0.1c0,0-0.1-0.1-0.1-0.1l0,0l0,0c0,0,0.2,0.2,0.3,0.1
			S26,10.8,26.1,10.7z"/>
		<path class="st0" d="M25.4,10.5L25.4,10.5c-0.2,0-0.3-0.1-0.4-0.2h0.1l0.1,0.1L25.4,10.5z"/>
		<path class="st0" d="M25.3,10.4c-0.1,0-0.1-0.1-0.1-0.1S25.3,10.3,25.3,10.4z"/>
		<path class="st0" d="M1.6,24.3c0,0.1,0,0.2-0.1,0.4v-0.1C1.5,24.4,1.5,24.4,1.6,24.3L1.6,24.3L1.6,24.3z"/>
		<path class="st0" d="M1.6,24.3c0,0.1,0,0.1-0.1,0.1C1.5,24.4,1.5,24.3,1.6,24.3z"/>
		<path class="st0" d="M2.2,22.6c0,0.3-0.1,0.6-0.3,0.8v-0.2c0,0,0.1,0,0.1-0.1C2,22.9,2.1,22.8,2.2,22.6L2.2,22.6z"/>
		<path class="st0" d="M2.2,22.6L2.2,22.6v-0.2c0.1,0,0.1-0.1,0.1-0.1c0,0,0,0.1,0,0.1C2.3,22.6,2.3,22.6,2.2,22.6z"/>
		<path class="st0" d="M49.1,17.2c-0.1,0-0.1,0-0.1-0.1S49.1,17.2,49.1,17.2z"/>
		<path class="st0" d="M44.7,12.6h0.1l0.1,0.1C44.8,12.8,44.8,12.6,44.7,12.6z"/>
		<path class="st0" d="M45.1,12.9c0.1,0,0.1,0,0.1,0.1S45.1,13,45.1,12.9z"/>
		<path class="st0" d="M45,12.8c0.1,0,0.1,0,0.1,0.1c0,0,0,0,0,0C45,12.9,45,12.9,45,12.8z"/>
		<path class="st0" d="M2.8,49c0.1,0,0.1,0.1,0.1,0.1S2.8,49.1,2.8,49z"/>
		<path class="st0" d="M25.7,8v0.1l0,0C25.7,8.1,25.6,8.1,25.7,8C25.7,7.9,25.7,8,25.7,8z"/>
		<path class="st0" d="M25.7,8h-0.1V7.8C25.7,7.9,25.7,7.9,25.7,8z"/>
		<path class="st0" d="M9,13.2L9,13.2C9,13.1,9,13,9.2,13l0,0l0,0C9.2,13.1,9.1,13.2,9,13.2z"/>
		<path class="st0" d="M9.2,12.9L9.2,12.9L9.2,12.9L9.2,12.9L9.2,12.9c0,0.1-0.1,0.1-0.1,0.1l0,0C9.1,12.9,9.2,12.9,9.2,12.9z"/>
		<path class="st0" d="M25.8,8.3c0.1,0.1,0.2,0.2,0.1,0.4l0,0C25.9,8.5,25.7,8.4,25.8,8.3z"/>
		<path class="st0" d="M3.2,20.5L3.2,20.5C3,20.7,3.1,21,2.9,21.1c0,0,0-0.1,0-0.1l0,0c0,0,0-0.1,0.1-0.1v-0.1
			C3,20.6,3.1,20.6,3.2,20.5z"/>
		<path class="st0" d="M2.9,21L2.9,21c0,0.2,0,0.3-0.2,0.3v-0.1c0,0,0.1-0.1,0.1-0.1S2.9,21,2.9,21z"/>
		<path class="st0" d="M3,20.8c0,0.1,0,0.1-0.1,0.1C2.9,20.9,2.9,20.8,3,20.8C3,20.8,3,20.8,3,20.8z"/>
		<path class="st0" d="M2.9,21.1c0,0.1,0,0.1-0.1,0.1S2.8,21.1,2.9,21.1z"/>
		<path class="st0" d="M21.5,1.6h0.1l0,0l0,0c0,0-0.1,0.1,0,0.2C21.8,2,21.9,2.1,22,2.2c0,0,0,0.1,0,0.1c-0.1,0-0.1-0.1-0.2-0.1
			c-0.1-0.1-0.2-0.1-0.3-0.2C21.4,1.8,21.4,1.7,21.5,1.6z"/>
		<path class="st0" d="M43.9,12c-0.1-0.2-0.3-0.2-0.4-0.3c0,0,0,0,0-0.1c0.1,0,0.1,0,0.2,0S43.9,11.8,43.9,12
			C44,12.1,44,12.1,43.9,12z"/>
		<path class="st0" d="M43.9,12L43.9,12L43.9,12c0.1,0.1,0.2,0.1,0.3,0.1c0,0,0,0,0,0c0,0.1,0.1,0.1,0.1,0.1l0.1,0.1
			c-0.1,0-0.2-0.1-0.2-0.1S44,12.2,43.9,12z"/>
		<path class="st0" d="M43.7,11.7c0,0-0.1,0-0.1,0l0,0l0,0C43.6,11.7,43.6,11.7,43.7,11.7z"/>
		<path class="st0" d="M43.5,11.6L43.5,11.6c-0.1,0-0.1,0-0.2-0.1L43.5,11.6L43.5,11.6z"/>
		<path class="st0" d="M50.8,19.7c-0.1-0.1-0.2-0.2-0.2-0.3c0.1,0,0.1,0.1,0.1,0.1L50.8,19.7z"/>
		<path class="st0" d="M4.3,51.5c0.1,0.1,0.1,0.2,0.2,0.3c0,0,0,0.1,0,0.1c-0.2,0-0.2-0.2-0.3-0.3C4.3,51.6,4.3,51.6,4.3,51.5
			C4.3,51.6,4.3,51.6,4.3,51.5L4.3,51.5z"/>
		<path class="st0" d="M4.3,51.6L4.3,51.6c-0.1,0.1-0.1,0.1-0.1,0L4.3,51.6z"/>
		<path class="st0" d="M5.8,16.6c0,0.1-0.1,0.1-0.1,0.2s-0.1,0.1-0.2,0.1l0,0l0,0c0-0.1,0.2-0.1,0.2-0.2L5.8,16.6z"/>
		<path class="st0" d="M5.5,16.9L5.5,16.9c0,0.1,0,0.2-0.1,0.2l0,0c0,0,0,0,0,0C5.4,17,5.4,16.9,5.5,16.9z"/>
		<path class="st0" d="M5.3,17.1L5.3,17.1c0,0.1,0,0.1-0.1,0.1S5.2,17.1,5.3,17.1L5.3,17.1z"/>
		<path class="st0" d="M43.4,11.6l0.2,0.1v0.1c-0.2-0.1-0.3-0.2-0.4-0.3C43.2,11.4,43.3,11.6,43.4,11.6z"/>
		<path class="st0" d="M42.9,11.3c-0.1,0-0.2-0.1-0.2-0.1h0.1C42.8,11.2,42.9,11.2,42.9,11.3z"/>
		<path class="st0" d="M15,9L15,9c-0.1,0-0.1,0.2-0.2,0.1S14.8,9,14.9,9L15,9z"/>
		<path class="st0" d="M23,1l-0.2,0.1c0,0-0.1,0-0.1,0C22.7,1,22.9,1,23,1z"/>
		<path class="st0" d="M22.6,1.2h0.1c-0.1,0-0.2,0.1-0.3,0.1s0,0-0.1,0S22.5,1.2,22.6,1.2L22.6,1.2z"/>
		<path class="st0" d="M23.2,0.9C23.1,1,23.1,1,23,1l0,0C23,1,23.1,0.9,23.2,0.9z"/>
		<path class="st0" d="M2.3,22.5v-0.1c0-0.1,0-0.1,0.1-0.2s0-0.1,0.1-0.2s0.1-0.2,0.2-0.2s0,0.1,0,0.2c-0.1,0-0.1,0.1-0.1,0.2
			C2.5,22.2,2.3,22.3,2.3,22.5z"/>
		<path class="st0" d="M2.6,21.7c0,0.1-0.1,0.1-0.2,0.2l0,0c0.1-0.1,0.2-0.3,0.3-0.5s0-0.1,0-0.1c0.1,0.1,0.1,0.2,0,0.2c0,0,0,0,0,0
			C2.7,21.6,2.6,21.7,2.6,21.7z"/>
		<path class="st0" d="M13.5,9.9c-0.2,0.1-0.4,0.2-0.6,0.4c-0.1,0.1-0.2,0.1-0.3,0.2v-0.1c0,0,0.1,0,0.1,0c0-0.1,0.1-0.1,0.1-0.1
			c0.2-0.1,0.3-0.2,0.4-0.3L13.5,9.9L13.5,9.9z"/>
		<path class="st0" d="M13.7,9.6c0,0.1-0.1,0.1-0.1,0.1S13.6,9.6,13.7,9.6z"/>
		<path class="st0" d="M24.2,0.5c0,0.1-0.1,0.1-0.2,0.2c-0.1,0-0.2,0-0.2,0.1V0.6c0.1,0,0.2,0,0.3-0.1S24.1,0.5,24.2,0.5z"/>
		<path class="st0" d="M49.9,18.3c-0.2-0.1-0.2-0.3-0.3-0.4s-0.2-0.1-0.1-0.2c0.1,0,0.1,0.1,0.2,0.1c0,0.1,0.2,0.2,0.2,0.3
			L49.9,18.3L49.9,18.3z"/>
		<path class="st0" d="M49.4,17.7c-0.1,0-0.2-0.1-0.1-0.2C49.3,17.5,49.5,17.5,49.4,17.7z"/>
		<path class="st0" d="M49.3,17.4c-0.1,0-0.2,0-0.2-0.1L49.3,17.4z"/>
		<path class="st0" d="M50.5,19.1c-0.1,0-0.1-0.2-0.2-0.3s0,0,0.1,0s0.1,0.1,0.2,0.2L50.5,19.1z"/>
		<path class="st0" d="M50.3,18.8L50.3,18.8c-0.2,0-0.1-0.1-0.1-0.1C50.2,18.7,50.3,18.8,50.3,18.8z"/>
		<path class="st0" d="M5.9,53.1L5.9,53.1c0.1,0,0.2,0,0.2,0.1l0,0l0,0C6,53.3,5.9,53.3,5.9,53.1z"/>
		<path class="st0" d="M6.1,53.3L6.1,53.3l0.4,0.2H6.2C6.2,53.4,6.2,53.3,6.1,53.3z"/>
		<path class="st0" d="M12.9,10.1l-0.1,0.1v-0.1H12.9z"/>
		<path class="st0" d="M45.7,13.5L45.7,13.5c-0.1,0-0.2-0.1-0.2-0.2h0C45.6,13.3,45.7,13.4,45.7,13.5z"/>
		<path class="st0" d="M1.8,23.9c0,0.1-0.1,0.2-0.1,0.3V24l0,0C1.7,24,1.7,24,1.8,23.9L1.8,23.9L1.8,23.9z"/>
		<path class="st0" d="M23.5,0.8c0,0.1,0,0.1-0.1,0.1S23.4,0.8,23.5,0.8z"/>
		<path class="st0" d="M41.8,10.6c-0.1,0-0.1,0-0.1-0.1S41.7,10.5,41.8,10.6L41.8,10.6z"/>
		<path class="st0" d="M9,45.5c0-0.1,0-0.2,0.1-0.2l0,0C9.1,45.3,9.1,45.4,9,45.5z"/>
		<path class="st0" d="M5.2,17.2c0.1,0,0.1,0,0.1-0.1l0,0c0,0,0,0.1,0,0.1l0,0c-0.1,0-0.1,0.1-0.1,0.1c-0.1,0.1-0.1,0.2-0.2,0.3l0,0
			l0,0c0,0,0.1-0.1,0.1-0.2S5.2,17.3,5.2,17.2z"/>
		<path class="st0" d="M1.5,45.7c0.1,0,0.1,0.1,0.1,0.1S1.5,45.8,1.5,45.7z"/>
		<path class="st0" d="M2.5,48.5L2.5,48.5l0.1,0.1l0,0C2.5,48.7,2.4,48.6,2.5,48.5z"/>
		<path class="st0" d="M12.4,10.5L12.4,10.5c0,0.1-0.2,0.2-0.4,0.2c0.1,0,0.1-0.1,0.2-0.1S12.4,10.5,12.4,10.5z"/>
		<path class="st0" d="M11.9,10.9L11.9,10.9c0-0.1,0.1-0.1,0.2-0.1v0.1C12.1,10.8,12,10.9,11.9,10.9z"/>
		<path class="st0" d="M45.5,13.3c-0.1,0-0.1,0-0.1-0.1S45.5,13.3,45.5,13.3z"/>
		<path class="st0" d="M45.3,13.2c-0.1,0-0.1-0.1-0.1-0.1L45.3,13.2z"/>
		<path class="st0" d="M26.2,0.6c-0.1,0-0.2,0-0.2-0.1S26.2,0.5,26.2,0.6z"/>
		<path class="st0" d="M41.9,10.7c-0.1,0-0.1,0-0.1-0.1h0.1V10.7z"/>
		<path class="st0" d="M22.9,8.1h-0.1c-0.1,0-0.1-0.1-0.2-0.1c-0.1,0-0.3,0-0.3-0.1c0,0,0.1,0.1,0.1,0.1c0.1,0,0.2,0,0.3,0.1
			C22.7,8.1,22.8,8.1,22.9,8.1z"/>
		<path class="st0" d="M3.3,20.1c0,0.1,0,0.2-0.2,0.3v-0.2C3.3,20.3,3.3,20.2,3.3,20.1L3.3,20.1z"/>
		<path class="st0" d="M3.3,50.2L3.3,50.2c0.2,0,0.1,0.1,0.1,0.2H3.4C3.4,50.4,3.3,50.3,3.3,50.2z"/>
		<path class="st0" d="M10.8,11.6L10.8,11.6c0-0.1,0.1-0.1,0.1-0.1l0,0l0,0C11,11.5,10.9,11.6,10.8,11.6z"/>
		<path class="st0" d="M7,53.7h0.1c0.1,0,0.1,0.1,0.1,0.2l0,0C7.2,53.8,7.1,53.8,7,53.7z"/>
		<path class="st0" d="M7.6,53.9c-0.1,0-0.1,0-0.2,0c0,0-0.1,0-0.1,0C7.4,53.8,7.5,53.9,7.6,53.9z"/>
		<path class="st0" d="M1.7,23.9c0,0.1,0,0.1-0.1,0.1S1.7,23.9,1.7,23.9z"/>
		<path class="st0" d="M52.6,23.4L52.6,23.4c0.1-0.1,0.2,0,0.1,0.1L52.6,23.4z"/>
		<path class="st0" d="M4.9,17.7L4.9,17.7C5,17.8,5,17.9,4.8,18s0-0.1,0.1-0.1L4.9,17.7z"/>
		<path class="st0" d="M4.9,17.8c0,0-0.1,0.1-0.1,0.1l0,0v-0.1L4.9,17.8z"/>
		<path class="st0" d="M11,11.5L11,11.5l0.2-0.1c0,0.1,0,0.1-0.1,0.1L11,11.5z"/>
		<path class="st0" d="M39.9,53.7v-7.2c0-0.2,0-0.3,0-0.5c0-0.1,0.1-0.2,0.1-0.3s0,0,0,0v0.6C40,46.3,40,46.4,40,46.5c0,2,0,4,0,6
			C40,52.9,39.9,53.3,39.9,53.7C39.9,53.7,39.9,53.7,39.9,53.7z"/>
		<path class="st0" d="M39.9,53.7L39.9,53.7c0,0.1,0,0.2-0.1,0.3s-0.1,0-0.1,0S39.9,53.8,39.9,53.7z"/>
		<path class="st0" d="M39.8,54L39.8,54c0.1,0,0,0.1,0,0.1C39.7,54.1,39.7,54,39.8,54z"/>
		<path class="st0" d="M44.5,45h-0.2l0,0c-0.3,0-0.7-0.1-1-0.1c-0.5,0-1.1,0-1.6,0c-0.3,0-0.5,0.1-0.8,0.1h-0.3l0,0
			c0.5-0.1,1.1-0.2,1.6-0.1c0.6,0,1.2,0,1.8,0C44.2,44.9,44.4,44.9,44.5,45L44.5,45z"/>
		<path class="st0" d="M45.1,46.6c0.1,0,0.1,0.1,0.1,0.2c0,2,0,4.1,0,6.2c0,0.3,0,0.6,0.1,0.9c0,0.1,0.1,0.1,0.1,0.1h-0.1
			c-0.1,0-0.1-0.2-0.1-0.2s0-0.3,0-0.4c-0.1-0.1-0.1-0.2-0.1-0.3c0-2.1,0-4.1,0-6.2C45.2,46.8,45.2,46.7,45.1,46.6L45.1,46.6z"/>
		<path class="st0" d="M45.1,46.7c0.1,0.1,0,0.1,0,0.2v6.1c0,0.1,0,0.3,0.1,0.4c-0.1,0-0.1-0.1-0.1-0.2L45.1,46.7z"/>
		<path class="st0" d="M40,45.7L40,45.7c0,0,0-0.1,0-0.1c0.1-0.1,0.1-0.1,0.1-0.2l0,0c0,0,0-0.1,0.1-0.1l0,0
			C40.2,45.3,40.2,45.6,40,45.7z"/>
		<path class="st0" d="M40.3,45.2L40.3,45.2L40.3,45.2L40.3,45.2c0-0.1,0.1-0.2,0.2-0.1l0,0l0,0C40.5,45.1,40.4,45.2,40.3,45.2z"/>
		<path class="st0" d="M53.8,40c0-0.1,0-0.2,0.1-0.2s0-0.1,0-0.1c0-0.2,0-0.5,0.1-0.7c0.1-0.1,0-0.2,0-0.4c0,0.1,0,0.2,0,0.3
			c0,0.2,0,0.3-0.1,0.5c0,0.1-0.1,0.3-0.1,0.4C53.8,39.8,53.9,40,53.8,40z"/>
		<path class="st0" d="M53.8,40c0.1,0,0.1-0.1,0.1-0.1c0,0.1,0,0.3-0.1,0.3C53.8,40.1,53.8,40.1,53.8,40z"/>
		<path class="st0" d="M54.2,38.4c0,0.1,0,0.2-0.1,0.3l0,0C54.1,38.6,54.1,38.4,54.2,38.4L54.2,38.4z"/>
		<path class="st0" d="M53.8,40v0.3l0,0C53.8,40.2,53.7,40.1,53.8,40z"/>
		<path class="st0" d="M54.1,39v-0.3l0,0C54.1,38.8,54.1,38.9,54.1,39z"/>
		<path class="st0" d="M52.8,43.6c0.1-0.2,0.1-0.4,0.2-0.6s0-0.1,0-0.2c0.1-0.2,0.2-0.5,0.3-0.7c0-0.1,0-0.1,0-0.2
			c0-0.1,0-0.2,0.1-0.3c0,0,0-0.1,0-0.1c0-0.2,0-0.3,0.2-0.5v0.2c-0.2,0.1-0.1,0.3-0.1,0.4s-0.2,0.2-0.1,0.4c0,0.1,0,0.3-0.1,0.4
			C53,42.4,53,42.6,53,42.7c-0.1,0.2-0.2,0.5-0.2,0.7C52.8,43.4,52.8,43.5,52.8,43.6L52.8,43.6z"/>
		<path class="st0" d="M52.8,43.6c0-0.1,0-0.1,0.1-0.1L52.8,43.6C52.9,43.6,52.8,43.6,52.8,43.6z"/>
		<path class="st0" d="M52.8,43.6L52.8,43.6c0.1,0.1,0,0.1,0,0.1L52.8,43.6L52.8,43.6z"/>
		<path class="st0" d="M54.3,37.1L54.3,37.1c0,0.2,0,0.4,0,0.6l0,0C54.3,37.4,54.3,37.2,54.3,37.1z"/>
		<path class="st0" d="M51.9,45.7c0-0.2,0.1-0.3,0.2-0.5s0.2-0.4,0.2-0.6c0.1-0.1,0.1-0.3,0.2-0.4c0,0,0,0.1,0,0.1
			c0,0.1,0,0.2-0.1,0.2c-0.1,0.1-0.1,0.1-0.1,0.2c0,0.1-0.2,0.2-0.2,0.4c0,0.1-0.1,0.1-0.1,0.2v0.1C52,45.6,52,45.7,51.9,45.7
			L51.9,45.7C52,45.7,51.9,45.8,51.9,45.7z"/>
		<path class="st0" d="M51.6,46.4c0-0.1,0.1-0.2,0.1-0.3s0,0,0,0v0.1c0,0.2-0.2,0.3-0.2,0.5h-0.1C51.5,46.5,51.6,46.5,51.6,46.4z"/>
		<path class="st0" d="M51.8,46.1L51.8,46.1c0-0.1,0-0.2,0.1-0.2c0,0,0-0.1,0-0.1l0,0C51.9,45.9,51.9,46,51.8,46.1z"/>
		<path class="st0" d="M52.1,45.5c0-0.1,0.1-0.1,0.1-0.2S52.2,45.5,52.1,45.5z"/>
		<path class="st0" d="M51.9,45.7c0-0.1,0-0.1,0.1-0.1S52,45.8,51.9,45.7z"/>
		<path class="st0" d="M40.5,45L40.5,45c0.2-0.1,0.5-0.2,0.8-0.2h2.3c0.3,0,0.5,0,0.8,0c0.2,0.1,0.5,0,0.6,0.3c-0.1,0-0.1,0-0.2-0.1
			S44.6,45,44.5,45c-0.3-0.1-0.5-0.1-0.8-0.1c-0.1,0-0.1,0-0.2,0h-1.9c-0.2,0-0.5,0-0.7,0C40.8,44.9,40.7,45,40.5,45z"/>
		<path class="st0" d="M48.4,50.9c0-0.1,0.1-0.2,0.2-0.2c0.1-0.1,0.2-0.2,0.3-0.3c0,0.2-0.1,0.2-0.2,0.3l-0.1,0.2
			C48.5,50.9,48.5,50.9,48.4,50.9L48.4,50.9z"/>
		<path class="st0" d="M48.9,50.4c0-0.2,0.2-0.2,0.2-0.3s0.1-0.1,0.1-0.1c0,0,0,0.1,0,0.1C49.1,50.2,49,50.3,48.9,50.4z"/>
		<path class="st0" d="M48.3,51.1c0-0.1,0.1-0.1,0.1-0.2c0,0,0,0.1,0,0.1C48.4,51.1,48.3,51.1,48.3,51.1z"/>
		<path class="st0" d="M49.2,50.1L49.2,50.1c0-0.1,0.1-0.1,0.1-0.1S49.2,50.1,49.2,50.1L49.2,50.1z"/>
		<path class="st0" d="M48.5,50.9c0-0.1,0.1-0.1,0.1-0.1C48.6,50.9,48.5,50.9,48.5,50.9z"/>
		<path class="st0" d="M49.7,49.3c0-0.2,0.2-0.2,0.2-0.4s0.2-0.2,0.2-0.3c0,0,0,0.1,0,0.1c0,0.2-0.1,0.3-0.2,0.4c0,0,0,0.1-0.1,0.1
			C49.9,49.2,49.8,49.3,49.7,49.3z"/>
		<path class="st0" d="M49.3,49.9c0.1-0.2,0.2-0.4,0.4-0.6l0,0l0,0l0,0c0,0-0.1,0.1-0.1,0.1l0,0L49.3,49.9z"/>
		<path class="st0" d="M50.2,48.7L50.2,48.7c0.1-0.1,0.1-0.1,0.1-0.2c0,0,0,0,0,0c0-0.1,0.1-0.1,0.2-0.2v0.1c-0.1,0-0.2,0.1-0.1,0.2
			L50.2,48.7z"/>
		<path class="st0" d="M49.7,49.4L49.7,49.4L49.7,49.4c0-0.1,0.1-0.1,0.2-0.1C49.9,49.3,49.8,49.3,49.7,49.4z"/>
		<path class="st0" d="M49.6,49.5c0-0.1,0-0.1,0.1-0.1S49.7,49.5,49.6,49.5z"/>
		<path class="st0" d="M47.6,52c0.1-0.1,0.1-0.3,0.3-0.3v0C47.9,51.8,47.7,51.9,47.6,52L47.6,52z"/>
		<path class="st0" d="M53.6,40.9c0-0.1,0-0.2,0-0.3C53.6,40.7,53.6,40.8,53.6,40.9z"/>
		<path class="st0" d="M53.6,40.6l0.1-0.2C53.8,40.5,53.8,40.5,53.6,40.6z"/>
		<path class="st0" d="M46.6,53.3c0-0.1,0-0.2,0.1-0.2C46.7,53.2,46.6,53.2,46.6,53.3z"/>
		<path class="st0" d="M52.5,44.4v-0.1c0.1,0,0.1-0.2,0.1-0.3v0.3C52.6,44.3,52.5,44.4,52.5,44.4z"/>
		<path class="st0" d="M54.3,37.1v0.5c-0.2,0.1-0.1,0.2-0.1,0.4c0-0.3,0-0.7,0.1-1V37.1z"/>
		<path class="st0" d="M54.1,38.7L54.1,38.7c0-0.1,0-0.2,0.1-0.3s0-0.2,0-0.3v0.4C54.1,38.5,54.1,38.6,54.1,38.7z"/>
		<path class="st0" d="M51,47.4C51,47.4,51,47.4,51,47.4c0-0.1,0.1-0.2,0.1-0.2l0,0v0.1C51,47.3,51,47.4,51,47.4
			c0,0.2,0,0.2-0.1,0.2S51,47.5,51,47.4z"/>
		<path class="st0" d="M51,47.4c0,0.1-0.2,0.1-0.1,0.2s0,0,0,0.1s-0.1,0.1-0.1,0.1l0,0C50.8,47.7,50.9,47.5,51,47.4z"/>
		<path class="st0" d="M52.6,44c0-0.1,0.1-0.2,0.1-0.2v0.1C52.7,43.9,52.7,44,52.6,44L52.6,44z"/>
		<path class="st0" d="M52.7,44c0,0,0.1-0.1,0.1-0.1C52.8,44,52.7,44,52.7,44z"/>
		<path class="st0" d="M46.2,53.6c0-0.1,0.1-0.2,0.2-0.2C46.5,53.5,46.3,53.5,46.2,53.6z"/>
		<path class="st0" d="M46.4,53.4c0-0.1,0-0.2,0.1-0.1S46.5,53.4,46.4,53.4L46.4,53.4z"/>
		<path class="st0" d="M51.2,47.1c0.1,0,0.1-0.1,0.1-0.2l0,0c0,0.1,0,0.3-0.2,0.3l0,0C51.1,47.2,51.2,47.1,51.2,47.1z"/>
		<path class="st0" d="M48,51.4c0.1-0.1,0.1-0.2,0.3-0.3v0.1c-0.1,0-0.1,0.1-0.1,0.2C48.1,51.4,48,51.4,48,51.4z"/>
		<path class="st0" d="M48,51.4h0.1L48,51.5l0,0C48,51.5,48,51.4,48,51.4L48,51.4z"/>
		<path class="st0" d="M51.4,46.9L51.4,46.9c0.1-0.2,0.1-0.4,0.3-0.5c0,0.1-0.1,0.1-0.1,0.2v0.1C51.5,46.8,51.4,46.8,51.4,46.9z"/>
		<path class="st0" d="M50.6,48c0-0.1,0.1-0.1,0.1-0.2C50.7,48,50.7,48,50.6,48z"/>
		<path class="st0" d="M48,51.4v0.1c0,0-0.1,0-0.1,0C47.9,51.5,48,51.5,48,51.4z"/>
		<path class="st0" d="M18.6,35.9L18.6,35.9c0,0.1,0,0.2-0.1,0.1C18.6,36,18.6,36,18.6,35.9z"/>
		<path class="st0" d="M22.6,35.9c0.1,0.1,0.3,0.1,0.4,0.2c0.2,0.2,0.3,0.4,0.4,0.7c0.1,0.2,0.1,0.5,0.1,0.7c0,0.1,0,0.2-0.1,0.1
			c0,0,0-0.1,0-0.2c0.1-0.2,0.1-0.3,0-0.5c0-0.1,0-0.2,0-0.3c0-0.1,0-0.2-0.1-0.2c0-0.1-0.1-0.2-0.2-0.2S22.8,36,22.6,36
			C22.6,36,22.5,36,22.6,35.9C22.5,35.9,22.6,35.9,22.6,35.9z"/>
		<path class="st0" d="M23.3,37c0.1,0.1,0.1,0.3,0.1,0.5c0,0.1,0,0.1,0,0.2l0,0L23.3,37z"/>
		<path class="st0" d="M23.6,54.2L23.6,54.2c0,0-0.1-0.1-0.1-0.1V54C23.4,54,23.6,54.1,23.6,54.2z"/>
		<path class="st0" d="M20.5,31c0.1-0.2,0-0.4,0.1-0.6c0.1-0.2,0.1-0.4,0.1-0.6v0.2c0,0.1,0,0.1,0,0.2c0,0.2,0,0.3-0.1,0.5
			C20.5,30.8,20.5,30.9,20.5,31l0,0.3C20.4,31.2,20.3,31.1,20.5,31z"/>
		<path class="st0" d="M21,30.3c-0.1-0.1-0.1-0.2-0.1-0.3s0,0,0-0.1C20.9,30,21,30.1,21,30.3z"/>
		<path class="st0" d="M20.8,29.9V30c-0.1,0-0.1,0.1-0.1,0.1l0,0V30C20.7,30,20.7,29.7,20.8,29.9z"/>
		<path class="st0" d="M22.6,35.9L22.6,35.9c-0.1,0-0.1,0-0.2,0c-0.2,0-0.4-0.1-0.5-0.3c-0.2-0.2-0.3-0.5-0.3-0.8
			c0-0.4,0-0.8-0.1-1.2c0-0.2,0-0.4,0-0.6s0-0.1,0-0.2s-0.1-0.2-0.1-0.4s0.1,0,0.1,0.1c0,0.2,0,0.3,0,0.5c0,0.2,0,0.4,0.1,0.6
			c0,0,0,0.1,0,0.2c0,0.2,0,0.4,0,0.7c0,0.2,0,0.4,0.1,0.5c0.1,0.1,0,0.3,0.1,0.5c0.1,0.1,0.2,0.2,0.4,0.3
			C22.3,35.8,22.4,35.9,22.6,35.9z"/>
		<path class="st0" d="M22.4,35.9c0.1,0,0.1,0,0.2,0V36l0,0C22.5,36,22.4,36,22.4,35.9C22.4,35.9,22.4,35.9,22.4,35.9z"/>
		<path class="st0" d="M19.6,34.9c0-0.1,0-0.2,0.1-0.3l0,0v0.1C19.8,34.8,19.8,34.9,19.6,34.9L19.6,34.9z"/>
		<path class="st0" d="M18.8,35.9c0-0.1,0.1-0.1,0.1-0.1C18.9,35.8,18.9,35.9,18.8,35.9z"/>
		<path class="st0" d="M19.5,35.2c0,0,0-0.1,0.1-0.1S19.6,35.2,19.5,35.2z"/>
		<path class="st0" d="M19.8,34.6L19.8,34.6c0-0.2,0-0.4,0-0.5c0.1-0.3,0-0.6,0.1-0.8s0-0.5,0.1-0.7s0-0.5,0.2-0.8
			c0.1-0.2,0.1-0.4,0.1-0.6c0-0.1,0-0.2,0.1-0.2c-0.1,0.1-0.1,0.2-0.1,0.4v0.4c-0.1,0.2-0.2,0.4-0.1,0.6c0,0.2-0.2,0.4-0.1,0.7
			c0,0.1,0,0.2,0,0.3c-0.1,0.1,0,0.2-0.1,0.3l0,0c-0.1,0.2,0,0.3,0,0.5C19.9,34.2,19.8,34.4,19.8,34.6z"/>
		<path class="st0" d="M20,33.6c0-0.1,0-0.2,0.1-0.3C20.1,33.4,20.1,33.5,20,33.6z"/>
		<path class="st0" d="M21.3,32.4c0,0.1,0.1,0.2,0.1,0.3s-0.1-0.1-0.1-0.1L21.3,32.4L21.3,32.4z"/>
		<path class="st0" d="M21.3,32.7l0.1,0.1V33C21.4,32.9,21.4,32.8,21.3,32.7L21.3,32.7z"/>
		<path class="st0" d="M27.9,41.2c0,0,0.1,0,0.2,0c0.5,0,1,0,1.5,0c0.2,0,0.4,0.1,0.6,0.1c0.1,0,0.2,0.1,0.2,0.2
			c0.1,0.2,0.3,0.3,0.2,0.5c0,0.1,0,0.3,0.1,0.3c0,0,0,0.1,0,0.1c0,0.9,0,1.8,0,2.6c0,1.6,0,3.2,0,4.8v2.5c0,0.5,0,0.9,0,1.4
			c0,0.1,0.1,0.2,0.1,0.3c-0.1,0.1-0.1,0-0.1-0.1V54c0-0.2,0-0.5-0.1-0.7c0,0,0-0.1,0-0.1c0-0.8,0-1.7,0-2.5c0.1-2.2,0-4.3,0.1-6.5
			c-0.1-0.7,0-1.4-0.1-2.1c0-0.2-0.1-0.2-0.2-0.3c-0.1-0.1-0.2-0.2-0.3-0.3c-0.1-0.1-0.2,0-0.3,0h-0.1
			C29.1,41.4,28.5,41.3,27.9,41.2C27.9,41.3,27.9,41.3,27.9,41.2z"/>
		<path class="st0" d="M25.5,45.2L25.5,45.2c0,0.1,0,0.2,0,0.3v7.6c0,0.1,0,0.2-0.1,0.2c0-0.1,0-0.1,0-0.2v-7.7
			C25.5,45.3,25.4,45.2,25.5,45.2z"/>
		<path class="st0" d="M25.5,45.2v8.1c0,0.1,0,0.1,0,0.2l0,0l0,0V42.8c0-0.2,0-0.5,0.1-0.7v0.4l0,0c-0.1,0.2,0,0.3-0.1,0.5
			c0,0.1,0,0.1,0,0.2L25.5,45.2z"/>
		<path class="st0" d="M25.5,53.5v-0.2c0.1,0,0.1-0.2,0.1-0.2v-7.2c0-0.2,0-0.4,0-0.6c0.1,0,0.1,0.1,0.1,0.2v7.7
			C25.6,53.2,25.6,53.3,25.5,53.5z"/>
		<path class="st0" d="M25.5,43c0-0.1,0-0.2,0-0.3c0-0.1,0-0.2,0.1-0.2v0.1c0,0.1,0,0.2,0,0.3C25.6,42.9,25.6,43,25.5,43z"/>
		<path class="st0" d="M25.5,43c0.1,0,0.1-0.1,0.1-0.2s0-0.2,0-0.2c0,0.2,0,0.4-0.1,0.6L25.5,43z"/>
		<path class="st0" d="M27.9,41.2H28c0,0.1-0.1,0.1-0.2,0.1h-1c-0.1,0-0.1,0-0.2,0l0,0c-0.2,0-0.5,0.1-0.7,0.2
			c0,0.1-0.1,0.1-0.1,0.1l0,0L25.6,42c0-0.3,0.3-0.6,0.6-0.6c0.2,0,0.3,0,0.5-0.1s0.1,0,0.1,0L27.9,41.2z"/>
		<path class="st0" d="M26.6,41.4c0.1-0.1,0.2,0,0.3,0h0.8c0.1,0,0.2,0,0.2-0.1s0.3,0,0.5,0c0.4,0,0.8,0.1,1.2,0.1L26.6,41.4z"/>
		<path class="st0" d="M25.8,41.7c0-0.1,0.1-0.1,0.1-0.1C25.9,41.6,25.8,41.7,25.8,41.7z"/>
		<path class="st0" d="M30.7,54.1c0,0,0.1,0.1,0.1,0.1v0.1C30.7,54.2,30.6,54.2,30.7,54.1z"/>
		<path class="st0" d="M25.2,54.2c0.1-0.2,0.2-0.4,0.3-0.6V54l0,0c0,0.1-0.1,0.1-0.1,0.2v0.1C25.3,54.3,25.2,54.3,25.2,54.2
			C25.2,54.3,25.2,54.3,25.2,54.2L25.2,54.2z"/>
		<path class="st0" d="M25.3,54.2c0-0.1,0.1-0.1,0.1-0.2C25.5,54.1,25.4,54.1,25.3,54.2z"/>
		<path class="st0" d="M25.2,54.3c0,0,0.1,0,0.1,0v0.1L25.2,54.3L25.2,54.3z"/>
		<path class="st0" d="M32.8,53.8v-4.4c0-0.1,0.1-0.2,0.1-0.3c0-0.1,0-0.1,0.1-0.2v0.5c-0.1,0.1,0,0.1,0,0.2c0,1.2,0,2.5,0,3.7
			C32.9,53.5,32.9,53.7,32.8,53.8z"/>
		<path class="st0" d="M33.7,47.8c0,0,0.1,0,0.2,0h0.8c0.1,0,0.2,0,0.3-0.1c0.2-0.1,0.4-0.1,0.6,0c0.1,0,0.2,0.1,0.3,0.1
			c0.3,0,0.6,0,1,0c0.1,0,0.1,0,0.2,0c-0.1,0-0.2,0-0.3,0H34C33.9,47.8,33.8,47.8,33.7,47.8L33.7,47.8z"/>
		<path class="st0" d="M33.1,48.3c0-0.2,0.1-0.4,0.3-0.4c0.1,0,0.1-0.2,0.3-0.1l0,0c0,0.1-0.1,0.1-0.1,0.1s-0.2,0.1-0.2,0.2
			C33.2,48.1,33.1,48.2,33.1,48.3C33.1,48.3,33.1,48.3,33.1,48.3z"/>
		<path class="st0" d="M33,48.9c-0.1,0.1,0,0.2-0.1,0.3s0,0.1-0.1,0.2c0-0.3,0.1-0.7,0.1-1c0,0.1,0,0.1,0,0.2L33,48.9z"/>
		<path class="st0" d="M37.6,48.3c0.2,0.3,0.1,0.6,0.1,0.9c-0.1-0.1,0-0.2,0-0.3s0-0.2-0.1-0.2L37.6,48.3z"/>
		<path class="st0" d="M36.8,47.8H37c0,0,0.1,0,0.1,0c0,0.1,0.1,0,0.1,0.1s0.2,0.1,0.2,0.2c0,0-0.1,0-0.1,0l0,0
			c0-0.1-0.1-0.1-0.2-0.1C37.1,47.9,36.9,47.8,36.8,47.8z"/>
		<path class="st0" d="M33.5,47.9c0-0.1,0.1-0.1,0.1-0.1H34C33.8,47.8,33.7,47.9,33.5,47.9z"/>
		<path class="st0" d="M37.5,48.1L37.5,48.1c0.2,0,0.1,0.1,0.2,0.2S37.4,48.2,37.5,48.1z"/>
		<path class="st0" d="M33,48.7v-0.2c0-0.1,0.1-0.1,0.1-0.1l0,0C33.1,48.5,33,48.5,33,48.7z"/>
		<path class="st0" d="M37.3,47.9c0.1,0,0.2,0,0.2,0.1S37.3,48,37.3,47.9z"/>
		<path class="st0" d="M8.8,46.8c0.1,0.1,0,0.3,0,0.4c0,0.2,0,0.4,0,0.6c0.1,0.3,0.1,0.6,0.1,0.9c-0.1,0.7-0.1,1.4-0.1,2
			c0,0,0,0.1,0,0.1L8.8,46.8z"/>
		<path class="st0" d="M22.4,1.3L22.4,1.3c-0.1,0-0.2,0.2-0.5,0.2s-0.1,0.2-0.3,0.1l0,0c0.1,0,0.2,0,0.2-0.1c0.2,0,0.3-0.1,0.4-0.2
			L22.4,1.3z"/>
		<path class="st0" d="M36.6,9.2c0.3,0,0.7,0,1,0.1h-0.3c-0.1,0-0.1,0-0.2-0.1s-0.1,0-0.2,0S36.7,9.2,36.6,9.2z"/>
		<path class="st0" d="M47.7,15.5c0,0.1,0.1,0.1,0.1,0.2c-0.1,0-0.2-0.1-0.2-0.2s-0.2-0.1-0.2-0.3c0.1,0,0.1,0.1,0.2,0.1l0,0
			C47.6,15.4,47.6,15.5,47.7,15.5L47.7,15.5z"/>
		<path class="st0" d="M5.4,17.3v-0.1c0.1,0,0.1-0.1,0.1-0.2l0.2-0.1C5.6,17,5.5,17.1,5.4,17.3z"/>
		<path class="st0" d="M25.9,8.8L25.9,8.8C26,8.9,26,9,26,9.1C26,9,25.9,8.9,25.9,8.8z"/>
		<path class="st0" d="M40.2,45.3c0,0.1,0,0.2-0.1,0.2C40,45.4,40.1,45.3,40.2,45.3z"/>
		<path class="st0" d="M11.9,10.9c0.1,0,0.1-0.1,0.1-0.1S11.8,11,11.7,11C11.7,10.9,11.8,10.9,11.9,10.9z"/>
		<path class="st0" d="M51.2,47.1v0.1c0,0,0,0.1-0.1,0.1S51.2,47.2,51.2,47.1z"/>
		<path class="st0" d="M16,53.8c-0.1,0-0.1-0.1-0.1-0.2C16,53.7,16.1,53.7,16,53.8z"/>
		<path class="st0" d="M9.3,12.9L9.3,12.9c0-0.1,0.1-0.1,0.1-0.1S9.4,12.9,9.3,12.9z"/>
		<path class="st0" d="M47.3,15.1c0.1,0,0.1,0.1,0.1,0.1C47.3,15.2,47.3,15.2,47.3,15.1z"/>
		<path class="st0" d="M22.9,3.2c-0.1,0-0.1-0.1-0.1-0.1V3C22.8,3,22.9,3.1,22.9,3.2z"/>
		<path class="st0" d="M10.6,11.7c0.1,0,0.1-0.1,0.2-0.1L10.6,11.7L10.6,11.7L10.6,11.7z"/>
		<path class="st0" d="M5.5,52.8c-0.1,0-0.2,0-0.2-0.1C5.4,52.7,5.5,52.7,5.5,52.8z"/>
		<path class="st0" d="M2.5,48.2c-0.1,0-0.1-0.1-0.1-0.1S2.5,48.1,2.5,48.2z"/>
		<path class="st0" d="M22.6,8c0.1,0,0.1,0.1,0.1,0.1C22.6,8.2,22.6,8.1,22.6,8z"/>
		<path class="st0" d="M5.2,17.4c0-0.1,0-0.1,0.1-0.1C5.3,17.3,5.3,17.4,5.2,17.4z"/>
		<path class="st0" d="M22.3,2.6c0,0-0.1-0.1-0.1-0.1S22.3,2.5,22.3,2.6z"/>
		<path class="st0" d="M16.4,54.4l-0.1-0.1C16.3,54.2,16.4,54.3,16.4,54.4z"/>
		<path class="st0" d="M11.6,11.1c0-0.1,0.1-0.1,0.2-0.1L11.6,11.1z"/>
		<path class="st0" d="M24.9,10.2c0,0,0.1,0,0.1,0.1c0,0,0,0,0,0C24.9,10.3,24.9,10.3,24.9,10.2z"/>
		<path class="st0" d="M31.1,10.3c0,0,0.1-0.1,0.1-0.1v0.1H31.1z"/>
		<path class="st0" d="M23,3.3c-0.1,0-0.1,0-0.1-0.1c0,0,0,0,0,0C23,3.2,23,3.2,23,3.3z"/>
		<path class="st0" d="M6.7,53.5c-0.1,0-0.1,0-0.1-0.1S6.6,53.5,6.7,53.5z"/>
		<path class="st0" d="M3.2,49.8c0,0-0.1,0-0.1-0.1S3.2,49.7,3.2,49.8z"/>
		<path class="st0" d="M22.4,2.8c-0.1,0-0.1-0.1-0.1-0.1C22.4,2.6,22.4,2.7,22.4,2.8z"/>
		<path class="st0" d="M40.3,45.1L40.3,45.1C40.2,45.1,40.2,45.2,40.3,45.1C40.2,45.3,40.2,45.1,40.3,45.1z"/>
		<path class="st0" d="M9.1,13c0.1,0,0.1,0,0.1-0.1S9.2,13,9.1,13C9.1,13,9.1,13,9.1,13z"/>
		<path class="st0" d="M52.3,22.8c0,0,0.1,0.1,0.1,0.1C52.3,22.9,52.3,22.8,52.3,22.8z"/>
		<path class="st0" d="M25.4,10.5l0.1,0.1C25.5,10.6,25.5,10.6,25.4,10.5C25.4,10.5,25.4,10.5,25.4,10.5z"/>
		<path class="st0" d="M37.3,47.9c-0.1,0-0.1,0-0.1-0.1L37.3,47.9z"/>
		<path class="st0" d="M33.1,48.3L33,48.4C33,48.4,33,48.3,33.1,48.3z"/>
		<path class="st0" d="M29.2,10.8c0,0,0.1,0,0.1,0v0.1C29.3,10.8,29.2,10.9,29.2,10.8z"/>
		<path class="st0" d="M47.7,15.5c-0.1,0-0.1,0-0.1-0.1C47.6,15.4,47.7,15.5,47.7,15.5z"/>
		<path class="st0" d="M2.6,48.6c-0.1,0-0.1,0-0.1-0.1C2.5,48.5,2.6,48.5,2.6,48.6C2.6,48.6,2.6,48.6,2.6,48.6z"/>
		<g class="st1">
			<path class="st2" d="M98.2,22.1H81.4v6.9H97v9.5H81.4v15.9H68.7V12h30.8L98.2,22.1z"/>
			<path class="st2" d="M128.3,24.1c2.3,1.2,4.1,2.9,5.3,5.1c1.2,2.1,1.8,4.6,1.8,7.4v3.8h-20.6v3c0,1.4,0.4,2.5,1.3,3.2
				c0.9,0.7,2,1.1,3.4,1.1c1.4,0,2.6-0.4,3.3-1.3c0.8-0.9,1.1-2.1,1.1-3.7h11.3c0,2.4-0.6,4.5-1.8,6.4c-1.2,1.9-3,3.4-5.3,4.5
				c-2.3,1.1-5.1,1.6-8.3,1.6H119c-3.3,0-6.3-0.6-8.9-1.8c-2.6-1.2-4.7-3-6.2-5.3c-1.5-2.3-2.3-5.1-2.3-8.3v-1.9
				c0-3.2,0.7-6,2.1-8.3s3.4-4.1,6-5.3c2.6-1.2,5.5-1.8,8.8-1.8h1.5C123.3,22.3,126,22.9,128.3,24.1z M116,31
				c-0.8,0.8-1.2,1.9-1.2,3.1V35h8.6v-0.9c0-1.2-0.4-2.2-1.2-3.1c-0.8-0.8-1.8-1.3-3-1.3C117.9,29.8,116.9,30.2,116,31z"/>
			<path class="st2" d="M165.6,24.1c2.3,1.2,4.1,2.9,5.3,5.1c1.2,2.1,1.8,4.6,1.8,7.4v3.8h-20.6v3c0,1.4,0.4,2.5,1.3,3.2
				c0.9,0.7,2,1.1,3.4,1.1c1.4,0,2.6-0.4,3.3-1.3c0.8-0.9,1.1-2.1,1.1-3.7h11.3c0,2.4-0.6,4.5-1.8,6.4c-1.2,1.9-3,3.4-5.3,4.5
				c-2.3,1.1-5.1,1.6-8.3,1.6h-0.9c-3.3,0-6.3-0.6-8.9-1.8c-2.6-1.2-4.7-3-6.2-5.3c-1.5-2.3-2.3-5.1-2.3-8.3v-1.9
				c0-3.2,0.7-6,2.1-8.3s3.4-4.1,6-5.3c2.6-1.2,5.5-1.8,8.8-1.8h1.5C160.6,22.3,163.3,22.9,165.6,24.1z M153.3,31
				c-0.8,0.8-1.2,1.9-1.2,3.1V35h8.6v-0.9c0-1.2-0.4-2.2-1.2-3.1c-0.8-0.8-1.8-1.3-3-1.3C155.1,29.8,154.1,30.2,153.3,31z"/>
			<path class="st2" d="M198.9,54.6l-1.1-3.7c-2.3,2.9-4.9,4.3-8,4.3c-2.6,0-4.9-0.6-6.9-1.8s-3.7-3-4.8-5.4
				c-1.2-2.4-1.8-5.4-1.8-8.9v-0.7c0-3.5,0.5-6.5,1.6-8.9c1.1-2.4,2.5-4.2,4.3-5.4c1.8-1.2,3.8-1.8,6.1-1.8c3.9,0,6.6,1.3,8.2,3.9
				V9.9h12.3v44.6H198.9z M189.8,31.3c-0.7,0.8-1.1,1.9-1.1,3.1v9c0,1.2,0.4,2.2,1.1,3.1c0.7,0.8,1.7,1.3,2.7,1.3
				c1.1,0,2-0.4,2.7-1.3c0.7-0.8,1.1-1.9,1.1-3.1v-9c0-1.2-0.4-2.2-1.1-3.1c-0.7-0.8-1.7-1.3-2.7-1.3
				C191.5,30,190.6,30.4,189.8,31.3z"/>
			<path class="st2" d="M227.1,18.8h-12.2V9.9h12.2V18.8z M227.1,54.6h-12.2V22.9h12.2V54.6z"/>
			<path class="st2" d="M259.8,23.5c1.4,0.8,2.6,2,3.4,3.4c0.8,1.4,1.2,3,1.2,4.7v23h-12.3V34.7c0-1-0.3-1.9-1-2.6
				c-0.6-0.7-1.4-1.1-2.3-1.1s-1.7,0.4-2.3,1.1c-0.6,0.7-1,1.6-1,2.6v19.8h-12.3V22.9h9.2l1.2,4.6c2.3-3.5,5.5-5.2,9.6-5.2h1.7
				C256.8,22.3,258.4,22.7,259.8,23.5z"/>
		</g>
	</g>
</g>
</svg>
