<svg xmlns="http://www.w3.org/2000/svg" viewBox="0 0 263.59 70.07"><defs><style>.cls-1{fill:#42b877;}.cls-2{font-size:62px;fill:#231f20;font-family:Chivo-Bold, Chivo;font-weight:700;}</style></defs><title>Asset 1</title><g id="Layer_2" data-name="Layer 2"><g id="Layer_1-2" data-name="Layer 1"><path class="cls-1" d="M54.66,32.43v1.89s0,.07-.08.11-.07,0-.1,0a.55.55,0,0,1,0-.18c0-1.07-.05-2.13,0-3.2a.67.67,0,0,1,0-.28,0,0,0,0,1,.06,0c0,.12,0,.26,0,.39,0,.33,0,.66,0,1A.39.39,0,0,0,54.66,32.43Z"/><path class="cls-1" d="M54.52,34.46s0-.17.14-.14v.84c-.09.08,0,.2-.06.3s0,.16-.1.14a2.92,2.92,0,0,1,0-.51c0-.15,0-.3,0-.45A.23.23,0,0,1,54.52,34.46Z"/><path class="cls-1" d="M54.52,31.13c.06.09,0,.2,0,.3s0,.19.1.23v.77c-.13,0-.14-.09-.14-.18Z"/><path class="cls-1" d="M24.88,54.57H24s-.09-.11,0-.17a4.22,4.22,0,0,1,.87,0C25,54.46,24.92,54.52,24.88,54.57Z"/><path class="cls-1" d="M39.07,54.57h-.6s-.11,0-.17-.08-.07-.05,0-.09a4.48,4.48,0,0,1,.73,0c.09,0,.19,0,.27,0s0,.08,0,.09S39.11,54.51,39.07,54.57Z"/><path class="cls-1" d="M32.1,54.57h-.57c-.05-.07-.13,0-.2-.07s-.12,0,0-.1a4.22,4.22,0,0,1,.94,0l.05,0C32.27,54.54,32.14,54.5,32.1,54.57Z"/><path class="cls-1" d="M16.36,54.57c0-.15-.14-.09-.21-.17a1,1,0,0,1-.28-.77s0,0,0-.05h0a1.61,1.61,0,0,0,.18.52.18.18,0,0,0,.08.11l0,0c0,.13.15.12.24.15s.1.08.05.16Z"/><path class="cls-1" d="M17.07,54.57h-.43s-.12-.09,0-.17a1.63,1.63,0,0,1,.54,0C17.23,54.51,17.09,54.51,17.07,54.57Z"/><path class="cls-1" d="M31.26,54.43s.1,0,.15,0,.12,0,.12.11h-.28c0-.1-.1,0-.14-.1a0,0,0,0,1,0,0,.12.12,0,0,1,.13,0Z"/><path class="cls-1" d="M39.07,54.57c0-.07,0-.11.1-.11s.1,0,.15,0,.07,0,.11,0h.13l0,0c-.05,0-.11,0-.16,0s-.12,0-.13.11Z"/><path class="cls-1" d="M17.38,54.43a.23.23,0,0,0-.07.14h-.24c0-.09.06-.1.1-.14A.14.14,0,0,1,17.38,54.43Z"/><path class="cls-1" d="M24,54.43a.23.23,0,0,1,0,.14H23.9c0-.1-.09-.1-.15-.13l0,0A.2.2,0,0,1,24,54.43Z"/><path class="cls-1" d="M24.88,54.57a.15.15,0,0,1,0-.14.24.24,0,0,1,.23,0s0,0,0,0-.17,0-.18.14Z"/><path class="cls-1" d="M16.57,54.43s.09.07.07.14H16.5c0-.06,0-.1-.07-.14l0,0A.09.09,0,0,1,16.57,54.43Z"/><path class="cls-1" d="M15.9,53.59h0c-.1-.14-.06-.31-.11-.46,0-2.25,0-4.51,0-6.76q0-.33,0-.66s0-.08,0-.1-.1-.18-.11-.29a0,0,0,0,1,0,0h0a.08.08,0,0,1,0,0c0,.11.14.17.15.29a1.65,1.65,0,0,0,.09.54.87.87,0,0,1,0,.32v6.31c0,.2.05.4,0,.61S16,53.53,15.9,53.59Z"/><path class="cls-1" d="M.14,37.93c-.05,0,0-.12,0-.18v-.91c0-.15.05-.31-.1-.43s0-.09,0-.13V33.72a7.61,7.61,0,0,0,.14-1.58l0,0a.86.86,0,0,1,0,.42c0,1.59,0,3.19,0,4.78v.39C.19,37.82.2,37.88.14,37.93Z"/><path class="cls-1" d="M9,49v3a8,8,0,0,0-.11,1.89c0,.06,0,.13-.07.14s-.3.14-.48.12A.89.89,0,0,1,8,54.05c-.16-.08-.33,0-.49,0a0,0,0,0,1,0,0,.25.25,0,0,1,.14,0h.15c.2,0,.39,0,.59,0s.32-.05.33-.33a2.26,2.26,0,0,1,0-.37,4.21,4.21,0,0,0,0-.71,3,3,0,0,1,0-.43c0-.21,0-.41,0-.61a23.65,23.65,0,0,0,.07-2.38C8.89,49.07,8.87,49,9,49Z"/><path class="cls-1" d="M14.89,44.9h-5a1.71,1.71,0,0,0-.67.22.08.08,0,0,1,0-.09l0,0c.07,0,.1-.09.17-.12a1.06,1.06,0,0,1,.31,0c.47,0,.95,0,1.42,0a.91.91,0,0,0,.36-.06.41.41,0,0,1,.22,0h.65a.68.68,0,0,1,.37.07.48.48,0,0,0,.24,0c.54,0,1.09,0,1.63,0a3.53,3.53,0,0,1,.46,0c.1,0,.22,0,.24.15a0,0,0,0,1,0,.05C15.14,45,15,44.9,14.89,44.9Z"/><path class="cls-1" d="M17.84,7.84h0a3.1,3.1,0,0,0,.6-.15h.21a3.06,3.06,0,0,0,.73-.15c.5,0,1,0,1.49,0a.05.05,0,0,1,0,0c-.06.07-.14.06-.22.06h-.59a1.55,1.55,0,0,0-.52.07,1.66,1.66,0,0,1-.55.06l-.44.08c-.34.05-.66.17-1,.21-.12,0-.18.08-.27.11a.32.32,0,0,1-.14,0,.21.21,0,0,1-.13,0c0-.14.16-.17.28-.2A2.7,2.7,0,0,0,17.84,7.84Z"/><path class="cls-1" d="M28.63,6.49a6.63,6.63,0,0,1,.19.86c.14.49.07,1,.24,1.5a.32.32,0,0,1,0,.14,1.76,1.76,0,0,1,0,.4.56.56,0,0,0,0,.22c0,.13,0,.27-.05.39S29,9.9,29,9.84s0-.34,0-.51V9.16a.54.54,0,0,0-.07-.33.61.61,0,0,1-.05-.12.13.13,0,0,1,0-.06,2.4,2.4,0,0,0-.11-.84,2.12,2.12,0,0,1-.05-.5s0,0,0-.06c0-.18-.14-.33-.11-.52a1.21,1.21,0,0,1,0-.19Z"/><path class="cls-1" d="M9,49c-.05,0,0,.11,0,.17s0,.36,0,.54c.05.78-.12,1.57-.07,2.35a.13.13,0,0,1,0,.1l0,0a.44.44,0,0,1,0-.2c0-.92.06-1.84,0-2.76,0-.08,0-.17.09-.21a0,0,0,0,1,.06,0Z"/><path class="cls-1" d="M9,48.93h0a.17.17,0,0,1,0-.13c0-.56-.11-1.11-.07-1.67,0-.3-.05-.6,0-.9a2.54,2.54,0,0,1,.09-.48A.14.14,0,0,1,9,45.63c.06,0,0,.09,0,.15v.1a2.45,2.45,0,0,0,0,.81c0,.33,0,.67,0,1,0,.06,0,.13,0,.19Z"/><path class="cls-1" d="M.25,31.24a11.21,11.21,0,0,1,.06-1.3.16.16,0,0,1,.11-.14l0,0a.31.31,0,0,1,0,.28,1.93,1.93,0,0,0-.08.75,2.41,2.41,0,0,1,0,.38c0,.24,0,.48-.1.71s0,.19-.11.21h0v-.45a.55.55,0,0,0,0-.25A.24.24,0,0,1,.25,31.24Z"/><path class="cls-1" d="M52.81,23.56a.21.21,0,0,1,.14.21A.23.23,0,0,0,53,24a.09.09,0,0,1,0,.05c0,.25.23.41.19.66l0,0c.05,0,0,.1.07.14.09.31.17.62.28.91a.08.08,0,0,1,0,.08c-.13,0-.13-.13-.17-.21l0-.05a.63.63,0,0,0-.13-.35c0-.23-.15-.4-.17-.62s-.21-.63-.38-.92a.2.2,0,0,1,0-.13S52.79,23.56,52.81,23.56Z"/><path class="cls-1" d="M24.7.15A.46.46,0,0,1,25.21,0,5.13,5.13,0,0,1,26,.3.09.09,0,0,1,26,.4c-.08,0-.14,0-.21,0a.29.29,0,0,1-.1,0A1,1,0,0,0,25,.21a.76.76,0,0,1-.26,0A.08.08,0,0,1,24.7.15Z"/><path class="cls-1" d="M32.65,9.68c.05-.12.17-.12.28-.13a.51.51,0,0,0,.33-.11c.08-.07.21,0,.3-.06s.13,0,.19,0A2.09,2.09,0,0,0,34,9.29H34c.06,0,.12,0,.18,0a.16.16,0,0,1-.15.13c-.35,0-.68.16-1,.21h0c-.08,0-.12,0-.18.06a.17.17,0,0,1-.12,0A.08.08,0,0,1,32.65,9.68Z"/><path class="cls-1" d="M9,47.88c-.05-.05,0-.11,0-.17,0-.23,0-.47,0-.71s-.09-.42-.08-.64A1,1,0,0,1,9,45.88Z"/><path class="cls-1" d="M.7,27.38l.17-.46c.09.08.05.18.06.27a.33.33,0,0,1,0,.2.61.61,0,0,0-.1.45,1.31,1.31,0,0,1-.05.39c0,.07,0,.16-.14.17a.58.58,0,0,1,0-.41,1.55,1.55,0,0,0,.06-.23Z"/><path class="cls-1" d="M52.07,21.85a.61.61,0,0,1,.18.3,2,2,0,0,0,.17.4,1,1,0,0,1,.09.21.2.2,0,0,0,.11.14.27.27,0,0,1,0,.15c-.07.07-.12,0-.17,0a.08.08,0,0,1,0-.05,2.18,2.18,0,0,0-.11-.27c-.06-.15-.13-.3-.18-.44s0-.18-.11-.21a.05.05,0,0,1,0,0A.11.11,0,0,1,52,22,.13.13,0,0,1,52.07,21.85Z"/><path class="cls-1" d="M39.94,9.69c.09,0,.14.15.25.17s-.09,0-.14,0l0,0c-.09,0-.15-.14-.26-.11s-.47-.14-.7-.21a1.62,1.62,0,0,1-.43-.12s0,0,0,0a.2.2,0,0,1,.17,0H39c.15,0,.25.11.39.14h.14c.15,0,.26.14.42.14Z"/><path class="cls-1" d="M.67,42H.6a1.54,1.54,0,0,1,0-.48.8.8,0,0,0,0-.26c-.1-.12-.07-.28-.11-.41v-.61h0l0,.05a6.44,6.44,0,0,0,.15,1c0,.13,0,.26,0,.39S.69,41.88.67,42Z"/><path class="cls-1" d="M.28,38.8c-.07-.08,0-.17,0-.26a.18.18,0,0,0-.11-.19v-1c.08,0,.08.1.08.16,0,.3.08.58.09.88A.55.55,0,0,1,.28,38.8Z"/><path class="cls-1" d="M3.58,50.78l0-.06-.16-.2c0-.05,0-.1,0-.15h0a4.6,4.6,0,0,1,.59.87.16.16,0,0,1,0,.1c-.16-.06-.21-.21-.29-.33A.77.77,0,0,0,3.58,50.78Z"/><path class="cls-1" d="M28.35,5.26a.83.83,0,0,1,.14.5c.06.16.07.34.14.5v.28s0,0-.05,0a1.32,1.32,0,0,1-.17-.82c0-.07-.06-.13-.08-.19a.36.36,0,0,1,0-.14A.22.22,0,0,1,28.35,5.26Z"/><path class="cls-1" d="M3.43,19.92a0,0,0,0,0,0,0,.6.6,0,0,0,.17-.22v0c0-.1.14-.15.17-.24s.08-.1.11-.15l0-.14A.13.13,0,0,1,4,19.06s0,0,0,0a.77.77,0,0,1-.15.33,1.89,1.89,0,0,1-.28.45L3.54,20l0,0h0l-.06,0S3.42,19.93,3.43,19.92Z"/><path class="cls-1" d="M24.32,9.48a2.48,2.48,0,0,0,.55.52s.05.07.08.11a0,0,0,0,1,0,0c-.12,0-.16-.1-.25-.13a.32.32,0,0,0-.13-.1.75.75,0,0,1-.32-.36.24.24,0,0,1,0-.08Z"/><path class="cls-1" d="M28.06,4v.24c0,.07.1.13.13.21v.24A.52.52,0,0,1,28,4.29a1,1,0,0,0-.12-.41.3.3,0,0,1,0-.19.92.92,0,0,1,0-.16l0,0a0,0,0,0,1,0,0v.07A1.28,1.28,0,0,1,28.06,4Z"/><path class="cls-1" d="M5.18,52.54c-.14,0-.18-.14-.25-.21a.3.3,0,0,0-.16-.08l-.17-.14,0-.1a0,0,0,0,1,0-.06c.17,0,.24.19.36.29s.22.15.24.3Z"/><path class="cls-1" d="M.42,29.8a8.14,8.14,0,0,1,0-.86,1.28,1.28,0,0,1,.11-.27.37.37,0,0,1,0,.38,1,1,0,0,0-.06.46.63.63,0,0,1,0,.27,0,0,0,0,1,0,0Z"/><path class="cls-1" d="M16.25,8.39h.08c-.07.12-.2.14-.31.18a.79.79,0,0,0-.26.13.28.28,0,0,1-.27,0l0,0a1.13,1.13,0,0,1,.46-.21c0-.07.11-.08.17-.11Z"/><path class="cls-1" d="M1.3,24.9v-.15a.82.82,0,0,0,.13-.38.44.44,0,0,1,.15-.25s0,.08,0,.13a.19.19,0,0,1,0,.07c0,.05-.1.08-.08.15s0,.08,0,.12l0,.05C1.46,24.74,1.44,24.87,1.3,24.9Z"/><path class="cls-1" d="M1.89,23a3.62,3.62,0,0,0,.28-.6l0,0a.32.32,0,0,1,0,.17,2.58,2.58,0,0,0-.17.49.1.1,0,0,1-.16.06A.22.22,0,0,1,1.89,23Z"/><path class="cls-1" d="M48.56,16.45h0c0,.07.12.08.15.14a1.17,1.17,0,0,0,.27.35c0,.13.14.14.14.24s0,.05,0,.07,0,0-.06,0a.43.43,0,0,0-.11-.12c-.15-.14-.24-.34-.41-.46a.13.13,0,0,1,0-.14A.09.09,0,0,1,48.56,16.45Z"/><path class="cls-1" d="M44.57,12.45h.1s0,.09.09.12.12.11.19.14l0,0s0,.07.09.09a.1.1,0,0,1,0,0,.28.28,0,0,0,.09.1.07.07,0,0,1,0,.05l0,0a.15.15,0,0,1-.14-.05,2.16,2.16,0,0,0-.46-.39c-.07,0-.13-.09-.1-.18S44.55,12.44,44.57,12.45Z"/><path class="cls-1" d="M2.77,49.2l0,0v-.1a.6.6,0,0,0-.09-.15.12.12,0,0,1,0-.17c.18,0,.16.14.19.25s0,.12.09.17.08.22.15.32a.12.12,0,0,1,0,.17,1.2,1.2,0,0,1-.18-.31A.31.31,0,0,0,2.77,49.2Z"/><path class="cls-1" d="M19,7.55h.42a1.23,1.23,0,0,1-.7.14s0,0,0,0h.08A.53.53,0,0,1,19,7.55Z"/><path class="cls-1" d="M26.91,1.31v.14s0,0,0,0a1.62,1.62,0,0,1-.38-.58.1.1,0,0,1,.14.05C26.71,1.07,26.85,1.16,26.91,1.31Z"/><path class="cls-1" d="M21.41,1.6h.14a0,0,0,0,1,0,0c-.14.09,0,.21,0,.31s-.08,0-.11,0a.15.15,0,0,1-.15-.16C21.26,1.64,21.34,1.63,21.41,1.6Z"/><path class="cls-1" d="M32.65,9.68h0a0,0,0,0,1,0,.05c-.11,0-.17.15-.29.16s-.17,0-.23-.05A.58.58,0,0,1,32.65,9.68Z"/><path class="cls-1" d="M.46,29.53a1,1,0,0,1,.06-.46.79.79,0,0,0,0-.4v0s0,0,.06,0a1.29,1.29,0,0,1-.09.82A.13.13,0,0,1,.46,29.53Z"/><path class="cls-1" d="M50.73,19.43c.14.13.14.35.32.45a.15.15,0,0,1,0,.13c-.1.06-.15,0-.19-.1s0-.13-.09-.17a.08.08,0,0,1,0,0,.35.35,0,0,1-.05-.18S50.7,19.45,50.73,19.43Z"/><path class="cls-1" d="M13.8,9.58a.42.42,0,0,1,.35-.18c.07,0,.11-.13.21-.11s0,0,0,.05a0,0,0,0,1,0,0,1,1,0,0,1-.57.26A0,0,0,0,1,13.8,9.58Z"/><path class="cls-1" d="M4.17,51.56l-.1-.18c.14-.07.14.06.17.13a.32.32,0,0,0,.12.14c.09.08.15.2.25.27l0,0V52c-.14,0-.16-.1-.21-.18S4.18,51.71,4.17,51.56Z"/><path class="cls-1" d="M42.36,10.85a.28.28,0,0,1,.18.17l-.07,0c-.15-.07-.34-.08-.42-.28a.13.13,0,0,1,0,0C42.21,10.68,42.25,10.85,42.36,10.85Z"/><path class="cls-1" d="M42.82,11.16c.13,0,.15.15.28.14a.88.88,0,0,0,.15.12s.09,0,.13.06h0a.09.09,0,0,1,0,.09,0,0,0,0,1,0,0c-.11,0-.15-.08-.24-.1s-.12-.14-.21-.17-.12-.07-.11-.15Z"/><path class="cls-1" d="M22.46,1.17v0l.4-.2a.24.24,0,0,1,.16,0A.11.11,0,0,1,23,1l0,0,0,0c-.13,0-.22.07-.32.13h-.08A.11.11,0,0,1,22.46,1.17Z"/><path class="cls-1" d="M2.17,22.44c0-.12.1-.13.11-.21a1.55,1.55,0,0,1,0-.21.21.21,0,0,0,.1-.14h.05s0,0,0,.05c0,.17-.12.26-.15.41s-.06.14-.16.11Z"/><path class="cls-1" d="M6.1,16.07c.05,0,.1,0,.11-.07s.07-.08.13-.08,0,0,0,0-.17.23-.25.35-.1.12-.18.07,0-.05,0-.07.07-.07.11-.1,0-.11.07-.14Z"/><path class="cls-1" d="M23.51.72c0-.08.09-.14.18-.14a.24.24,0,0,0,.2-.09c.05-.07.16,0,.24-.06s0,0,.05,0v0l0,0a1.28,1.28,0,0,1-.42.17C23.66.68,23.6.78,23.51.72Z"/><path class="cls-1" d="M49.15,17.26v-.08a2.62,2.62,0,0,1,.45.6l0,0h0c-.09,0-.12-.08-.18-.11l0,0c0-.09-.09-.14-.13-.21l0,0c0-.05-.09-.08-.11-.14Z"/><path class="cls-1" d="M4.17,18.76c0-.19.16-.26.24-.38a.08.08,0,0,1,.08,0,.48.48,0,0,1-.27.4S4.19,18.77,4.17,18.76Z"/><path class="cls-1" d="M50.46,19h0c0,.09.14.13.14.24s0,.13.1.18v.11c-.09,0-.11-.1-.17-.15s-.17-.15-.15-.29A.1.1,0,0,1,50.46,19Z"/><path class="cls-1" d="M.6,28.64h0a1.48,1.48,0,0,1,.14-.88.43.43,0,0,1-.07.31c-.07.1,0,.22,0,.33A.18.18,0,0,1,.6,28.64Z"/><path class="cls-1" d="M6.24,53.42H6.1c-.06-.14-.26-.13-.32-.27a0,0,0,0,1,0,0,.17.17,0,0,1,.15,0,.28.28,0,0,0,.21.12.16.16,0,0,1,.11.16Z"/><path class="cls-1" d="M50.17,18.52v.17c-.17-.06-.21-.24-.31-.36a.11.11,0,0,1,0-.08h0a.14.14,0,0,1,.14.14A.16.16,0,0,0,50.17,18.52Z"/><path class="cls-1" d="M1.72,23.7v-.1c0-.13.11-.2.14-.32h0s0,0,0,0a.21.21,0,0,1,0,.13,3.66,3.66,0,0,1-.18.46,0,0,0,0,1-.05,0C1.67,23.81,1.7,23.76,1.72,23.7Z"/><path class="cls-1" d="M38.09,9.26h.24c.06,0,.12,0,.19,0s.12,0,.1.11h0a.17.17,0,0,1-.2,0c-.12,0-.25-.07-.38-.11a0,0,0,0,1,0-.05A.08.08,0,0,1,38.09,9.26Z"/><path class="cls-1" d="M37.21,9.13h.49l.14.07s.07.05,0,.09a.26.26,0,0,1-.27,0,.37.37,0,0,0-.2,0C37.31,9.2,37.23,9.22,37.21,9.13Z"/><path class="cls-1" d="M21.83,2.33V2.19c.09,0,.12.08.2.08s.18.06.14.19,0,0-.05,0-.11-.13-.21-.1Z"/><path class="cls-1" d="M5.92,16.31v.08c.08.14-.08.17-.13.25a.11.11,0,0,1-.15,0c0-.1.17-.16.14-.29Z"/><path class="cls-1" d="M23.51.72c.09,0,.14-.08.22-.1a.09.09,0,0,1,0,.1c-.07.08-.16.07-.25.08s-.13.07-.18.11l-.05,0a.12.12,0,0,1-.1,0C23.26.82,23.34.68,23.51.72Z"/><path class="cls-1" d="M9,45.78v-.15a.14.14,0,0,1,0-.14s0,0,0-.05a.4.4,0,0,0,.12-.23c0-.07.08-.12.17-.07A1.84,1.84,0,0,0,9,45.78Z"/><path class="cls-1" d="M49.61,17.82v0c.08,0,.15.07.15.17s.13.09.13.19a.14.14,0,0,1-.11,0C49.71,18.05,49.57,18,49.61,17.82Z"/><path class="cls-1" d="M14.37,9.27c.08,0,.06-.1.1-.14a.4.4,0,0,1,.24,0,.24.24,0,0,1-.34.2h0s0,0,0,0Z"/><path class="cls-1" d="M11.84,10.84l0-.13c.08,0,.11,0,.16-.09a.19.19,0,0,1,.19-.06,0,0,0,0,1,0,0h0c-.05.05-.1.11-.15.15l-.05,0c-.06,0-.1.06-.16.09Z"/><path class="cls-1" d="M45.23,13h.07s.07,0,.11,0a.44.44,0,0,0,.13.14l0,.13h0l0,0a.15.15,0,0,0-.09-.06l-.07,0a.55.55,0,0,1-.09-.14V13Z"/><path class="cls-1" d="M28.63,6.26a.64.64,0,0,1-.14-.5h0c.06.08.05.18.11.25Z"/><path class="cls-1" d="M13.41,9.86c.05-.08.07-.17.19-.17l.14-.1h.06v0c-.06.17-.21.22-.35.28Z"/><path class="cls-1" d="M4.49,18.38H4.41A.72.72,0,0,1,4.63,18a.14.14,0,0,1,0,.12A.33.33,0,0,1,4.49,18.38Z"/><path class="cls-1" d="M23.76,8.84a.46.46,0,0,1,.25.28l0,0c-.12,0-.15-.06-.19-.13s-.09-.09-.05-.16Z"/><path class="cls-1" d="M25.86.33A.21.21,0,0,1,26,.4a.69.69,0,0,1,.24.18,0,0,0,0,1,0,0s0,0,0,0a.06.06,0,0,1-.07,0c-.06,0-.09-.12-.18-.12L26,.49C25.91.46,25.83.44,25.86.33Z"/><path class="cls-1" d="M32.17,9.85h.24v0A.8.8,0,0,1,32,10c-.07-.16.08-.11.13-.16Z"/><path class="cls-1" d="M3.79,19.39c0,.13-.1.19-.19.25s0-.09,0-.12a1,1,0,0,0,.17-.23A.08.08,0,0,1,3.79,19.39Z"/><path class="cls-1" d="M12.23,10.6v0c.07,0,.09-.16.2-.14s.07-.13.16-.09a.12.12,0,0,1,0,.1c0,.06-.1.07-.15.09S12.33,10.66,12.23,10.6Z"/><path class="cls-1" d="M4.17,18.76h0c.09.17,0,.24-.14.32H4S4,19,4,19,4.15,18.85,4.17,18.76Z"/><path class="cls-1" d="M27.65,2.72v.17a.59.59,0,0,1-.2-.4c.14,0,.14.09.19.16Z"/><path class="cls-1" d="M27.75,3.06h0v.07c0,.12.17.2.1.34h0c-.12,0-.14-.07-.17-.15a.41.41,0,0,1,0-.11C27.71,3.17,27.7,3.11,27.75,3.06Z"/><path class="cls-1" d="M24.32,9.48h0a.21.21,0,0,1-.15,0c0-.11-.21-.15-.14-.31l0,0A1.52,1.52,0,0,0,24.32,9.48Z"/><path class="cls-1" d="M15.63,45.29h0a.64.64,0,0,1-.13-.1,0,0,0,0,1,0,0c0-.06-.14-.07-.09-.17A.25.25,0,0,1,15.63,45.29Z"/><path class="cls-1" d="M7.26,53.87H7.08a.58.58,0,0,1-.18-.17.08.08,0,0,1,.1,0C7.09,53.73,7.2,53.76,7.26,53.87Z"/><path class="cls-1" d="M14.89,44.9c.15,0,.26.08.39.11s0,0,0,0h0C15.12,45.07,15,45,14.89,44.9Z"/><path class="cls-1" d="M44.07,12h.11c.07,0,.07.09.11.13a.1.1,0,0,1,0,0C44.12,12.22,44,12.18,44.07,12Z"/><path class="cls-1" d="M4.63,18.17V18c0-.05,0-.07.07-.07a0,0,0,0,1,.07,0C4.82,18.09,4.75,18.15,4.63,18.17Z"/><path class="cls-1" d="M52.63,23.14a.3.3,0,0,0,.17.18v.24h0s0-.06-.07-.1-.09-.11-.12-.17A.14.14,0,0,1,52.63,23.14Z"/><path class="cls-1" d="M26.27.62v0c.09,0,.11.1.17.14a.06.06,0,0,1,0,.08C26.33.8,26.25.77,26.27.62Z"/><path class="cls-1" d="M26.45.79V.72c.08.06.17.1.18.21a.14.14,0,0,0-.14,0C26.41.88,26.43.84,26.45.79Z"/><path class="cls-1" d="M24.31.33c.08-.06.23,0,.25-.17h.14v0a.29.29,0,0,1-.35.19A.05.05,0,0,1,24.31.33Z"/><path class="cls-1" d="M9.25,45.14c-.07,0-.13,0-.14.11s0,0,0,0,0-.24.19-.23v.13Z"/><path class="cls-1" d="M44.25,12.18h0c.11,0,.11.11.17.14a.08.08,0,0,1-.07,0C44.29,12.33,44.22,12.3,44.25,12.18Z"/><path class="cls-1" d="M24.74,5.94h0a.22.22,0,0,0,0-.14s-.09-.07-.07-.14.13.06.17.14A.14.14,0,0,1,24.74,5.94Z"/><path class="cls-1" d="M5,17.5h0c.06.11,0,.15-.09.19a.07.07,0,0,1-.06,0C4.91,17.6,4.9,17.51,5,17.5Z"/><path class="cls-1" d="M4.9,17.67h0l0,0a.13.13,0,0,1-.06.11.11.11,0,0,1-.12,0h0C4.77,17.73,4.85,17.71,4.9,17.67Z"/><path class="cls-1" d="M51.79,21.32v0c0,.09.16.13.1.26s-.15-.08-.18-.18a.13.13,0,0,1,0-.1S51.77,21.31,51.79,21.32Z"/><path class="cls-1" d="M32.09,9.86c0,.05-.14,0-.14.14a.1.1,0,0,1-.13,0,.09.09,0,0,1-.05,0l0,0c0-.05.1-.07.14-.11Z"/><path class="cls-1" d="M14.37,9.27v0c-.09,0-.12.12-.22.1S14.27,9.27,14.37,9.27Z"/><path class="cls-1" d="M51.93,21.64v0c0,.07.17.1.1.22-.16,0-.18-.08-.15-.25S51.91,21.62,51.93,21.64Z"/><path class="cls-1" d="M34,9.3v0h.46s0,0,0,.05a.22.22,0,0,1-.22,0Z"/><path class="cls-1" d="M15.31,8.84a.2.2,0,0,0,0-.13h.15C15.48,8.83,15.45,8.91,15.31,8.84Z"/><path class="cls-1" d="M42.46,11h.15s.1.07.06.15S42.49,11.13,42.46,11Z"/><path class="cls-1" d="M42.67,11.16,42.61,11a.33.33,0,0,1,.21.14h0a.11.11,0,0,1-.12,0Z"/><path class="cls-1" d="M11,11.43v-.06l0-.07h.14a0,0,0,0,1,0,0,.19.19,0,0,1-.16.1Z"/><path class="cls-1" d="M51.93,21.64h0v0a0,0,0,0,1,0,0c0-.11-.11-.15-.1-.25A.26.26,0,0,1,51.93,21.64Z"/><path class="cls-1" d="M12.51,10.28h.07a0,0,0,0,1,0,0c-.05,0-.06.12-.15.1S12.42,10.29,12.51,10.28Z"/><path class="cls-1" d="M4,19v.1l-.11,0C3.9,19,3.93,19,4,19Z"/><path class="cls-1" d="M15.28,45v0h0s0,0,0,0,.13,0,.1.14S15.34,45.06,15.28,45Z"/><path class="cls-1" d="M51.79,21.32h0c-.08,0-.15-.07-.1-.18s.1.07.14.11Z"/><path class="cls-1" d="M3.61,19.67c0,.14,0,.19-.17.22l0-.08.11-.13Z"/><path class="cls-1" d="M44.39,12.32h.07c.1,0,.07.1.11.14h-.1S44.38,12.39,44.39,12.32Z"/><path class="cls-1" d="M52,21.89c0-.11-.11-.13-.1-.22s.15.07.14.18,0,.08,0,.1A0,0,0,0,1,52,21.89Z"/><path class="cls-1" d="M43.24,11.44c-.07,0-.14,0-.14-.14s.13,0,.14.1a0,0,0,0,1,0,0Z"/><path class="cls-1" d="M2.67,48.93c.09,0,.06.08.06.14s-.11-.06-.1-.14S2.65,48.91,2.67,48.93Z"/><path class="cls-1" d="M23.15.89h.12c0,.06-.05.06-.09.07S23.06,1,23,1l0-.11Z"/><path class="cls-1" d="M24.14.4l.17-.07h0c0,.1,0,.15-.14.1h-.05Z"/><path class="cls-1" d="M32,9.86c0,.06-.06.11-.14.11v-.1Z"/><path class="cls-1" d="M2.67,48.93H2.6v-.28h.05a.08.08,0,0,1,0,.1A.3.3,0,0,0,2.67,48.93Z"/><path class="cls-1" d="M3.79,19.39v-.1l.09,0C3.9,19.33,3.84,19.36,3.79,19.39Z"/><path class="cls-1" d="M3.58,19.68c0,.06,0,.12-.11.13S3.51,19.7,3.58,19.68Z"/><path class="cls-1" d="M15.46,45.18c.07,0,.1,0,.13.1v0A.2.2,0,0,1,15.46,45.18Z"/><path class="cls-1" d="M53.36,24.89a.21.21,0,0,1-.07-.14C53.39,24.76,53.36,24.84,53.36,24.89Z"/><path class="cls-1" d="M1.58,24.05h0s0,.06,0,.1a.23.23,0,0,1,0,.11h0v-.21Z"/><path class="cls-1" d="M49.79,18.13h.1v.1h0C49.82,18.23,49.78,18.2,49.79,18.13Z"/><path class="cls-1" d="M4.77,18H4.7l.07-.14h0s0,.07,0,.11Z"/><path class="cls-1" d="M45.34,54c-.19,0-.16-.21-.21-.32a1.23,1.23,0,0,1,0-.47V46a0,0,0,0,1,.06,0,2,2,0,0,1,0,.55V53a.42.42,0,0,0,.06.29.63.63,0,0,1,0,.3.83.83,0,0,0,.06.35A.06.06,0,0,1,45.34,54Z"/><path class="cls-1" d="M54.24,38.38a1,1,0,0,1-.11.62c-.07.1,0,.24,0,.36a.49.49,0,0,1-.09.31.15.15,0,0,0,0,.13c0,.28-.11.5-.18.76-.07-.08,0-.18,0-.27a.41.41,0,0,1,0-.11.49.49,0,0,0,.13-.38.94.94,0,0,1,.1-.49A1.13,1.13,0,0,0,54,39c0-.1,0-.21,0-.31a.88.88,0,0,0,.12-.28S54.22,38.38,54.24,38.38Z"/><path class="cls-1" d="M53.5,41.71c0,.18-.1.29-.13.45a1.58,1.58,0,0,1-.27.75.7.7,0,0,0,0,.16.26.26,0,0,1-.08.23.27.27,0,0,0-.06.21c0,.11,0,.2-.13.24s0,0-.06,0a.09.09,0,0,1,0-.05s.1-.06.1-.13V43.4a6.49,6.49,0,0,1,.23-.75,5,5,0,0,0,.24-.75C53.37,41.83,53.4,41.73,53.5,41.71Z"/><path class="cls-1" d="M45.13,46h0c0-.19-.14-.34-.14-.53a.42.42,0,0,0-.11-.16.6.6,0,0,0-.22-.17c-.06,0-.12-.06-.14-.13s0,0,0,0a.14.14,0,0,1,.17,0,.76.76,0,0,0,.19.12,1.1,1.1,0,0,1,.31.72C45.17,45.92,45.18,46,45.13,46Z"/><path class="cls-1" d="M49.2,50.09a6.42,6.42,0,0,1-.38.53,3.23,3.23,0,0,0-.36.45.08.08,0,0,1-.07,0s0-.09,0-.13l0,0,0,0a.14.14,0,0,0,.07-.1c0-.13.16-.19.24-.29a.76.76,0,0,0,.08-.11l0,0c.11-.07.15-.2.25-.28h0Z"/><path class="cls-1" d="M45.34,54v0s0,0,.07,0c.19,0,.39,0,.57-.07,0,0,0,0,0,0S46,54,46,54s-.19.13-.33.11A.38.38,0,0,1,45.34,54Z"/><path class="cls-1" d="M47.65,52a3.68,3.68,0,0,1-.37.51s-.06,0-.08,0,0-.11,0-.16.22-.28.34-.41a.06.06,0,0,1,.08,0s0,0,0,0S47.65,52,47.65,52Z"/><path class="cls-1" d="M53.78,40.27v.29c0,.2-.16.35-.14.55,0,0,0,0,0,0a.23.23,0,0,1,0-.16.07.07,0,0,1,0-.05c0-.1,0-.21,0-.31a.08.08,0,0,1,0,0,.23.23,0,0,0,.08-.18.15.15,0,0,1,0-.09S53.76,40.26,53.78,40.27Z"/><path class="cls-1" d="M47.26,52.39c0,.07,0,.1-.06.15s-.13.16-.18.24-.09.13-.18.08a.89.89,0,0,1,.31-.47A.08.08,0,0,1,47.26,52.39Z"/><path class="cls-1" d="M54.52,36.74c-.16,0-.06.22-.14.31a.71.71,0,0,1,0-.57c0-.09,0-.22.11-.27v.53Z"/><path class="cls-1" d="M46.85,52.85a.22.22,0,0,0,.17-.07,2.76,2.76,0,0,1-.45.57.06.06,0,0,1,0-.07l0,0a.38.38,0,0,0,.1-.2C46.7,53,46.78,52.91,46.85,52.85Z"/><path class="cls-1" d="M49.63,49.53c-.12.2-.18.45-.43.56h0c0-.07.05-.1.07-.16s0,0,0,0,.15-.3.33-.36Z"/><path class="cls-1" d="M52.38,44.9h0c-.07-.08,0-.15,0-.22a.6.6,0,0,0,.09-.22c0-.08,0-.16.16-.17l0,0C52.51,44.49,52.53,44.73,52.38,44.9Z"/><path class="cls-1" d="M54.35,37.62c0,.16-.09.3-.11.45a1.47,1.47,0,0,0,0,.21v.1h0l0,0a.82.82,0,0,1,0-.35.19.19,0,0,1,0-.08,1.52,1.52,0,0,0,0-.21.15.15,0,0,1,.14-.15S54.36,37.6,54.35,37.62Z"/><path class="cls-1" d="M53.6,41.11h0c0,.17-.09.29-.13.43a.08.08,0,0,1,0,0,.61.61,0,0,1,0-.27A.12.12,0,0,1,53.6,41.11Z"/><path class="cls-1" d="M52.77,43.71l0,0c0,.22-.14.37-.18.56h0a.34.34,0,0,1,0-.24s0,0,0-.05l0,0a.12.12,0,0,0,.09-.11s0-.08,0-.12Z"/><path class="cls-1" d="M46,53.9v0a.73.73,0,0,1,.22-.27c0-.06.13-.08.17-.16l0,0h0a.08.08,0,0,1,.07,0c-.05.12-.19.17-.24.28a1.3,1.3,0,0,0-.15.18h0S46.06,53.93,46,53.9Z"/><path class="cls-1" d="M48.28,51.23c0,.06-.09.09-.1.16s-.1.15-.18.2a.08.08,0,0,1,0-.07c0-.08.09-.12.12-.19S48.17,51.18,48.28,51.23Z"/><path class="cls-1" d="M53.5,41.71l-.14.18c-.1-.17,0-.26.13-.36h0Z"/><path class="cls-1" d="M50.88,47.7l0,.07c0,.08,0,.15-.14.15a.11.11,0,0,1,0-.07C50.74,47.76,50.81,47.72,50.88,47.7Z"/><path class="cls-1" d="M50.77,47.84v.08c0,.13-.11.14-.17.21a.09.09,0,0,1,0-.06l0,0a.49.49,0,0,0,.11-.14s0,0,0,0S50.75,47.83,50.77,47.84Z"/><path class="cls-1" d="M50.59,48.19c0,.12-.1.15-.1.25a0,0,0,0,1-.05,0,.18.18,0,0,1,0-.1s0,0,0-.05S50.5,48.17,50.59,48.19Z"/><path class="cls-1" d="M48,51.66a.23.23,0,0,0-.14,0l0,0a.16.16,0,0,1,0-.1.15.15,0,0,1,.13-.05h0v.14Z"/><path class="cls-1" d="M50.59,48.19a.3.3,0,0,0-.14.11c-.05-.14,0-.21.14-.25v.14Z"/><path class="cls-1" d="M51.47,46.76v.1l-.1,0,0,0C51.35,46.8,51.38,46.75,51.47,46.76Z"/><path class="cls-1" d="M46.53,53.41h-.07c0-.06,0-.1.06-.14s0,0,0,0v.08Z"/><path class="cls-1" d="M16.57,54.43h-.1a0,0,0,0,1,0-.05,2.92,2.92,0,0,1,.66,0,.76.76,0,0,0,.67-.62,5.94,5.94,0,0,0,0-.73V38.16a6.91,6.91,0,0,1,0-.79,3.48,3.48,0,0,1,.33-1.14.8.8,0,0,1,.4-.35c.1,0,.07.1,0,.16a1,1,0,0,0-.28.29,1.69,1.69,0,0,0-.21.62V37a2.7,2.7,0,0,1-.08.56.13.13,0,0,0,0,.12.85.85,0,0,1,.08.54v14.5a2.26,2.26,0,0,1-.1.93,1.09,1.09,0,0,0,0,.26.11.11,0,0,1,0,0c-.1.09-.13.26-.28.31a.37.37,0,0,1-.17.13h-.91Z"/><path class="cls-1" d="M23.44,54.15a1.53,1.53,0,0,1-.18-1q0-7.94,0-15.87c0-.17,0-.34,0-.51s-.15-.18-.11-.31a.06.06,0,0,1,.05,0c.12,0,.13.14.14.23s0,.22,0,.33,0,.44,0,.65V52.75a3.38,3.38,0,0,0,.1,1,.93.93,0,0,1,0,.33.17.17,0,0,1,0,.1Z"/><path class="cls-1" d="M17.9,54a1.33,1.33,0,0,1,.13-.65.37.37,0,0,0,0-.15V38c0-.08,0-.16-.07-.22a.17.17,0,0,1,0-.2,5.66,5.66,0,0,0,.13-.56v.45a.36.36,0,0,0,0,.32h0a.4.4,0,0,1,0,.19V53.36a.4.4,0,0,1,0,.19h0c0,.16-.12.29-.13.45Z"/><path class="cls-1" d="M18.08,53.55V37.79c.06.05,0,.12,0,.18q0,7.68,0,15.37C18.11,53.41,18.14,53.49,18.08,53.55Z"/><path class="cls-1" d="M21,30.71v0c0-.12,0-.24,0-.35a1,1,0,0,0-.12-.39c0-.07-.12.06-.15,0a.34.34,0,0,1,0-.2c.1-.11.17-.11.24,0a.93.93,0,0,1,.16.51,1.23,1.23,0,0,0,.1.59,1.51,1.51,0,0,1,0,.67.14.14,0,0,1,0,.06s0,0,0,0v0C21.08,31.24,21,31,21,30.71Z"/><path class="cls-1" d="M22.57,36.07c-.25,0-.4-.16-.59-.26a1.1,1.1,0,0,1-.41-.52,1.26,1.26,0,0,1-.06-.55,0,0,0,0,1,0,0,5.76,5.76,0,0,0,.18.59.51.51,0,0,0,.18.25.93.93,0,0,0,.46.29.63.63,0,0,0,.18.15S22.58,36.05,22.57,36.07Z"/><path class="cls-1" d="M19.69,35.05c-.09.15-.17.3-.27.44s-.33.25-.48.39-.08,0-.12,0a.09.09,0,0,1-.1,0s0-.06,0-.08a.26.26,0,0,0,.16-.09,2,2,0,0,0,.58-.59.17.17,0,0,0,.08-.16c0-.05,0-.11.08-.13s0,0,.05,0A.14.14,0,0,1,19.69,35.05Z"/><path class="cls-1" d="M20.29,32.29c0,.2,0,.4,0,.6,0,0,0,0,0,0-.22.14-.12.35-.13.54a.49.49,0,0,1-.14.32.19.19,0,0,1,0-.19l0,0c.09-.09.07-.2.07-.32a2.19,2.19,0,0,1,.21-.94S20.27,32.28,20.29,32.29Z"/><path class="cls-1" d="M21.55,34.74h0a.31.31,0,0,1,0-.21.55.55,0,0,0-.06-.28v-.66h0a1.1,1.1,0,0,1,.16.46,3.62,3.62,0,0,1,0,.57S21.59,34.71,21.55,34.74Z"/><path class="cls-1" d="M21.24,32.57v-.28c0-.25-.17-.48-.11-.73h0c.15,0,.15.15.17.26a3.47,3.47,0,0,1,0,.56.52.52,0,0,1,0,.18S21.26,32.58,21.24,32.57Z"/><path class="cls-1" d="M20.53,31.09v.18c0,.21-.14.39-.14.6a.16.16,0,0,1,0-.14,2.17,2.17,0,0,1,0-.36C20.41,31.27,20.41,31.15,20.53,31.09Z"/><path class="cls-1" d="M18.71,35.89h.11a2.69,2.69,0,0,1-.37.3.19.19,0,0,0-.09.12,0,0,0,0,1-.07,0c.06-.11.09-.25.25-.28s.08-.08.1-.14A0,0,0,0,1,18.71,35.89Z"/><path class="cls-1" d="M21.41,34.25c.18.13.08.32.1.49-.08,0-.1,0-.1-.12Z"/><path class="cls-1" d="M18.29,36.31h.07s-.12.08-.11.16a1.33,1.33,0,0,1-.17.47A.83.83,0,0,1,18.29,36.31Z"/><path class="cls-1" d="M21.12,31.56a1.35,1.35,0,0,0,.11.52.74.74,0,0,1,0,.21,1.12,1.12,0,0,1-.13-.74Z"/><path class="cls-1" d="M22.57,36.07v0a.1.1,0,0,1,.05,0,.82.82,0,0,1,.58.37.13.13,0,0,1,0,.12h0s0,0,0,0a.69.69,0,0,0-.28-.28c-.08,0-.12-.12-.22-.14Z"/><path class="cls-1" d="M21.37,33.3c0-.11,0-.23-.08-.33s0-.15,0-.23c.17,0,.13.18.18.28a1.52,1.52,0,0,1,0,.56h0C21.35,33.5,21.39,33.4,21.37,33.3Z"/><path class="cls-1" d="M20.39,31.72v.15c0,.07-.06.14,0,.21s-.05.14-.1.21h0A.46.46,0,0,1,20.39,31.72Z"/><path class="cls-1" d="M17.9,54a2.58,2.58,0,0,1,.18-.46c.06.21-.11.36-.13.54s-.07.06-.11.06,0-.1.06-.14Z"/><path class="cls-1" d="M19.94,34v.1a.19.19,0,0,1,0,.18.69.69,0,0,0-.08.28v.14s0,0,0,0a.22.22,0,0,1,0-.14,1.07,1.07,0,0,1,.05-.4.18.18,0,0,1,.12-.16Z"/><path class="cls-1" d="M23.75,54.44c-.19,0-.24-.15-.31-.29h0c.09,0,.12,0,.17.08s.17.08.15.2Z"/><path class="cls-1" d="M19.84,34.6c-.07-.18.1-.3.1-.46C20,34.33,19.88,34.45,19.84,34.6Z"/><path class="cls-1" d="M17.9,54c0,.06,0,.1-.06.14s0,.07,0,.1a.36.36,0,0,0-.18.14.07.07,0,0,1,0-.1.26.26,0,0,0,.16-.18A.12.12,0,0,1,17.9,54Z"/><path class="cls-1" d="M19.8,34.74h0c0,.13,0,.26-.14.31v-.17A.45.45,0,0,1,19.8,34.74Z"/><path class="cls-1" d="M23.13,36.49h0c0,.12.14.18.1.31C23.1,36.75,23.12,36.62,23.13,36.49Z"/><path class="cls-1" d="M18.08,37.79c-.12-.11-.09-.21,0-.32Z"/><path class="cls-1" d="M20,33.58v.22c0,.08,0,.17,0,.24h0C19.89,33.88,19.82,33.72,20,33.58Z"/><path class="cls-1" d="M20.29,32.29c0-.09,0-.18.1-.21A.19.19,0,0,1,20.29,32.29Z"/><path class="cls-1" d="M30.62,54a.25.25,0,0,1-.1-.24q-.06-1.47,0-2.94c.05-2.34,0-4.67,0-7,0-.51,0-1,0-1.52,0-.07,0-.14-.07-.19a.3.3,0,0,1-.08-.21.36.36,0,0,0-.31-.33c-.1,0-.13-.15-.25-.14s0,0,0-.06a.32.32,0,0,1,.31.06,1.85,1.85,0,0,1,.41.47.54.54,0,0,1,.05.22c.05.52,0,1.05.05,1.57.11,1.07,0,2.14.05,3.21s0,2.15,0,3.22,0,1.83-.06,2.75a5.43,5.43,0,0,0,.09.81.65.65,0,0,1,0,.31A0,0,0,0,1,30.62,54Z"/><path class="cls-1" d="M25.61,42.52q-.06,1.23,0,2.46c.07,2.71,0,5.42,0,8.14a1.61,1.61,0,0,1-.13.75c-.09-.12,0-.26-.05-.38a.64.64,0,0,1,0-.07.85.85,0,0,0,.08-.39V45.45c0-.08,0-.16-.05-.23s0,0,0-.06a.57.57,0,0,1,0-.29c0-.55,0-1.1,0-1.64a1.1,1.1,0,0,0,.1-.59s0,0,0-.08l0,0S25.6,42.51,25.61,42.52Z"/><path class="cls-1" d="M25.75,41.71v.14a1.1,1.1,0,0,0-.14.67h0c-.09-.11,0-.23,0-.35a.61.61,0,0,1,0-.19C25.59,41.87,25.63,41.76,25.75,41.71Z"/><path class="cls-1" d="M25.47,54h0c-.08-.09,0-.19-.05-.29a.34.34,0,0,1,0-.18,0,0,0,0,1,0,0V54Z"/><path class="cls-1" d="M32.47,54.42H31.26a.72.72,0,0,1-.48-.18.36.36,0,0,1,0-.11,1,1,0,0,1-.07-.39,19.8,19.8,0,0,1-.05-3.08c.08-2.21,0-4.41,0-6.62,0-.51,0-1,0-1.53a1.93,1.93,0,0,0-.09-.6.87.87,0,0,0-.7-.56,14,14,0,0,0-1.71-.09.41.41,0,0,0-.19,0c-.36,0-.73,0-1.08,0s-.7,0-1,.25a.73.73,0,0,0-.27.42v.14a5.67,5.67,0,0,0-.12,1.3c0,.54,0,1.08,0,1.63.07,2.7,0,5.4,0,8.1a.7.7,0,0,1,0,.32v.18a1.08,1.08,0,0,1-.29.63.49.49,0,0,1-.38.12h-.63a.64.64,0,0,1-.53-.16c-.05-.07-.12-.11-.17-.18a2,2,0,0,0-.12-.68.29.29,0,0,1,0-.13c0-5.19,0-10.38,0-15.58l0-.06a1.13,1.13,0,0,0,0-.63.83.83,0,0,1,0-.15A.88.88,0,0,0,22.7,36a.69.69,0,0,0-.15-.07,1.26,1.26,0,0,1-.66-.36.54.54,0,0,1-.15-.22,3.1,3.1,0,0,1-.17-.73,2.88,2.88,0,0,0,0-.83,7.39,7.39,0,0,1-.14-1.14.28.28,0,0,0-.07-.19l-.05-.07a3.65,3.65,0,0,0,0-.66.24.24,0,0,0-.1-.18c0-.18,0-.36,0-.55a.28.28,0,0,0,0-.18A.85.85,0,0,1,21,30.2c0-.2-.1-.33-.17-.5s-.11-.08-.15,0c0,.4-.19.76-.16,1.15a.18.18,0,0,1,0,.12.67.67,0,0,0-.1.43,1,1,0,0,1-.08.37.67.67,0,0,0-.08.37.61.61,0,0,1-.07.35.55.55,0,0,0-.06.28c0,.26-.13.5-.14.75a7.24,7.24,0,0,0-.17,1,.71.71,0,0,1-.13.31s0,.09,0,.14,0,.11-.1.14a1.23,1.23,0,0,1-.6.59.49.49,0,0,1-.14.11l-.07,0h-.06s0,0,0,0a1.21,1.21,0,0,0-.44.48,4,4,0,0,0-.3,1.21c0,.13,0,.25,0,.38q0,7.66,0,15.32a2.88,2.88,0,0,1,0,.59c0,.15-.18.23-.27.35a.5.5,0,0,1-.47.17c-.22,0-.44,0-.65,0,0,0-.06,0-.09,0s-.08-.12-.16-.13l0,0h0a.74.74,0,0,1-.19-.42c0-.1-.08-.17-.07-.27,0-2.41,0-4.82,0-7.23a2.74,2.74,0,0,0-.08-.5c0-.11,0-.22-.05-.33a.86.86,0,0,0-.15-.22h0a.34.34,0,0,0-.28-.28h0c0-.12-.14-.12-.24-.13h-.43a1.16,1.16,0,0,0-.32-.08h0l-1.94,0c-.76,0-1.52,0-2.28,0a1.53,1.53,0,0,0-.37.08l-.31,0a.36.36,0,0,1-.14.11h0a.26.26,0,0,0-.18.24,2,2,0,0,1-.1.21H9a2.33,2.33,0,0,0-.16,1.08c0,.09,0,.18,0,.27,0,1.32,0,2.64,0,3.95a.5.5,0,0,1,0,.17,8.42,8.42,0,0,0,0,.87,4.56,4.56,0,0,0,0,.64c0,.47-.12.91-.09,1.37q0,.13-.15.15a2.07,2.07,0,0,1-.89-.08,1.56,1.56,0,0,1-.31,0H7.29s-.09-.12-.17-.14a2.75,2.75,0,0,1-.45-.17l-.15-.1,0,0c-.15,0-.23-.13-.35-.18s-.12-.12-.21-.13a2,2,0,0,1-.38-.27.7.7,0,0,0-.16-.14l0,0a.67.67,0,0,1-.11-.14l-.6-.6h0a2.76,2.76,0,0,1-.31-.37,1.31,1.31,0,0,1-.25-.33c-.07-.13-.19-.23-.24-.35s-.26-.34-.36-.52h0s-.06-.1-.09-.14-.18-.27-.21-.44a.2.2,0,0,0-.08-.1l0,0h0A.22.22,0,0,0,3,49.44c-.08-.06,0-.19-.09-.27A.76.76,0,0,1,2.77,49c0-.12,0-.23-.14-.28v-.1a.81.81,0,0,1-.2-.43c0-.08-.06-.12-.1-.18-.08-.22-.16-.43-.23-.65a5.09,5.09,0,0,0-.22-.54c-.1-.26-.14-.54-.25-.8s-.09-.38-.17-.56,0-.11,0-.17-.16-.38-.16-.6a4.1,4.1,0,0,1-.14-.5c0-.07,0-.13,0-.2a7.52,7.52,0,0,0-.19-.92c-.07-.14,0-.33-.07-.49a6.8,6.8,0,0,1-.17-.9c0-.18,0-.36-.09-.53s-.11-.62-.13-.94h0c0-.2,0-.41,0-.62a7.36,7.36,0,0,1-.12-.8,6.66,6.66,0,0,0-.08-1.34A21,21,0,0,1,.16,35.1c0-.54,0-1.08,0-1.61a8.65,8.65,0,0,1,.08-1.25c0-.34,0-.67.08-1v-.38a4.68,4.68,0,0,0,.09-.54c0-.17,0-.34.05-.51v-.27a1.82,1.82,0,0,0,.14-.89V28.4a1,1,0,0,0,.14-.66c0-.13,0-.26.11-.35s0-.12,0-.18a5.06,5.06,0,0,1,.17-1,5.85,5.85,0,0,1,.2-.8.36.36,0,0,1,0-.11c0-.24.18-.43.2-.67h0a3.65,3.65,0,0,0,.14-.35v-.1a.72.72,0,0,1,.13-.28c0-.18.13-.29.15-.46s.15-.42.25-.62.05-.1,0-.16.08-.11.1-.18c.1-.24.21-.47.31-.72a.41.41,0,0,1,.11-.26.16.16,0,0,0,0-.16v0h0A.28.28,0,0,0,2.9,21c.14-.12.11-.33.26-.44s.19-.43.35-.61h0a.36.36,0,0,0,.1-.11c.08-.17.2-.31.29-.47l.17-.33c0-.13.19-.17.14-.32.14-.09.18-.26.28-.38s.14-.11.14-.21.15-.1.14-.21h0l0,0A.25.25,0,0,0,5,17.7c.12-.07.12-.23.22-.31a.5.5,0,0,0,.15-.14l0,0a2.42,2.42,0,0,0,.29-.42c0-.09.1-.1.13-.16s.19-.11.15-.24c.18,0,.19-.24.31-.34s0-.08.1-.09.12-.21.2-.29a1.58,1.58,0,0,1,.28-.3.24.24,0,0,1,.11-.13L8,14.08l0,0c.1-.16.28-.25.39-.4s.34-.28.49-.45L9.1,13c.05,0,.11,0,.13-.11a.1.1,0,0,1,0,0,.26.26,0,0,0,.14-.13,3.2,3.2,0,0,0,.27-.25,7.82,7.82,0,0,0,1-.76c.06,0,.09-.11.16-.14l0,0a1.83,1.83,0,0,1,.16-.13l.06,0a1.88,1.88,0,0,0,.39-.29l.08,0c.06,0,.1-.09.17-.11l0,0c.08-.06.18-.08.24-.18s0,0,.06-.06h0c.12-.1.29-.12.39-.25l.14-.07a.31.31,0,0,1,.11-.12,3.94,3.94,0,0,0,.61-.39s.11,0,.16,0a1.77,1.77,0,0,0,.35-.26,1.1,1.1,0,0,0,.56-.3c.16,0,.24-.11.35-.18h0c.08,0,.12-.13.22-.12a3.76,3.76,0,0,0,.55-.23c.15-.08.31-.13.45-.21s.45-.16.68-.25a2.6,2.6,0,0,1,.56-.17h.14c.09,0,.14-.09.21-.14A.92.92,0,0,0,18,7.9c.12-.07.27,0,.4-.06a2.48,2.48,0,0,1,.76-.13l.25,0c.09,0,.18,0,.25-.07s.11,0,.17,0h1.07a4.82,4.82,0,0,0,.86.12,1.76,1.76,0,0,0,.46.14c.1.06.18.15.31.14s.08.13.16.12a.15.15,0,0,0,.09,0l.06,0c.07.1.22.09.3.19a2,2,0,0,1,.6.59,6.4,6.4,0,0,0,.55.71,1,1,0,0,0,.31.29l0,0a1.3,1.3,0,0,0,.23.18.27.27,0,0,0,.11.1l0,0a.81.81,0,0,0,.38.19l0,0a.24.24,0,0,0,.13.09.51.51,0,0,1,.24.1c.1.07.21,0,.32,0s0,0,0-.05c-.09-.33,0-.67-.08-1,0-.15,0-.32-.07-.48a.09.09,0,0,1,0,0,.64.64,0,0,0-.1-.33,1,1,0,0,0-.15-.6,1.36,1.36,0,0,1-.11-.43c-.05-.19-.14-.38-.2-.58a1.43,1.43,0,0,0-.17-.38,3.74,3.74,0,0,0-.22-.45,2,2,0,0,0-.28-.56A14.29,14.29,0,0,0,24,4.58a.53.53,0,0,1-.13-.13l-.08-.08a3,3,0,0,0-.34-.45l-.06-.1L23,3.33a.11.11,0,0,0-.08-.09l0,0h0l0,0A.51.51,0,0,0,22.69,3a.35.35,0,0,0-.13-.11.34.34,0,0,0-.12-.12l0,0a.38.38,0,0,0-.11-.11l0,0a.27.27,0,0,0-.1-.11v0c0-.11-.08-.13-.15-.17s-.28-.24-.41-.37-.11-.22.07-.3.14,0,.18-.08,0,0,0,0c.23,0,.37-.19.57-.22l.29-.14A.49.49,0,0,1,23,1h0a.77.77,0,0,0,.18-.1.14.14,0,0,0,.11,0h0l.15-.13a.84.84,0,0,0,.27,0s0-.09.09-.09a.87.87,0,0,0,.37-.16h0c.17-.09.39-.11.53-.26s0,0,.05,0a1.91,1.91,0,0,1,.75.06L26,.47h0l.18.14h.06c0,.12.11.13.18.17a.12.12,0,0,0,0,.11,3,3,0,0,1,.39.55,1.59,1.59,0,0,1,.3.43,2,2,0,0,0,.22.46s0,.05,0,.08a2.07,2.07,0,0,0,.27.63c0,.06,0,.13.05.19v.11c0,.12.15.18.14.31A.34.34,0,0,0,28,4,.08.08,0,0,1,28,4c0,.23.11.41.19.6h0c0,.07,0,.14,0,.2a2,2,0,0,1,.09.55v.13c0,.05,0,.11.1.14a3.94,3.94,0,0,0,0,.6c0,.11.15.15.1.28a2.39,2.39,0,0,0,.08.59s0,.1.06.14h0a1,1,0,0,1,0,.29,1.36,1.36,0,0,0,.12.59c.05.1,0,.22,0,.34s0,.15,0,.22h0a1,1,0,0,1,0,.38A.31.31,0,0,0,29,9.3a.32.32,0,0,1,0,.14,8.57,8.57,0,0,0,.07,1.13.46.46,0,0,0,.13.26.14.14,0,0,0,.18,0,7,7,0,0,1,1.12-.37,2.67,2.67,0,0,1,.62-.21s.05-.07.09-.1l0,0a.31.31,0,0,0,.19,0c.12,0,.22-.12.35-.11H32c.16,0,.3-.11.46-.14s.14-.18.28-.14A.55.55,0,0,0,33,9.63a5.59,5.59,0,0,1,1.08-.22c.07,0,.1-.07.16-.1h.23a9.69,9.69,0,0,1,2.15-.15,1.43,1.43,0,0,0,.29,0,.62.62,0,0,1,.33.07c.1.07.24,0,.36,0l.06,0a7.16,7.16,0,0,1,1.11.19,2.51,2.51,0,0,1,.58.16,3.06,3.06,0,0,1,.58.2.35.35,0,0,1,.11,0h0a4.26,4.26,0,0,1,.71.25c.33.13.64.32,1,.46.14.06.26.14.4.21s0,0,0,.05l.37.19c.07.05.12.14.21.14h0c.1,0,.14.12.24.14a.33.33,0,0,1,.21.17,1.73,1.73,0,0,0,.41.25c.14.09.33.13.42.3s.36.29.54.44h0c0,.16.2.19.31.27a1.59,1.59,0,0,1,.29.29.16.16,0,0,0,.13,0h0c0,.06,0,.12.11.14a.07.07,0,0,0,.07,0l.1.1h0c.07.05.12.12.19.16s.27.25.4.36a3.07,3.07,0,0,0,.26.25s0,0,0,.07.14.08.16.17a9.39,9.39,0,0,1,.71.7l0,0a.22.22,0,0,0,.12.13l0,0a1.56,1.56,0,0,0,.39.42c.05,0,.07.12.15.14h0c0,.11.1.15.16.21s.24.33.39.47l0,0c0,.14.17.17.23.28a3.55,3.55,0,0,0,.23.31l.1.11,0,0h0a.2.2,0,0,0,.15.14v0a.72.72,0,0,0,.14.24h0c.17.2.29.44.45.64l.28.38h0a1,1,0,0,1,.09.13,1.37,1.37,0,0,0,.19.3c0,.07,0,.15.1.17s0,.07,0,.1.12.22.18.32h0s.06,0,.07,0c.18.43.47.79.66,1.21.07.16.17.31.25.47a.2.2,0,0,0,.14.17v0a.23.23,0,0,0,.14.25V22a2.88,2.88,0,0,1,.33.71s0,.09.07.12,0,.11.06.15h0c.07.12.1.27.18.39a2,2,0,0,1,.22.54c.12.27.2.56.31.83a.4.4,0,0,0,.1.26c.09.08,0,.21.07.29s.14.21.11.34c.07.33.2.64.26,1a6.45,6.45,0,0,1,.2.87c0,.15.1.29.11.44a6.8,6.8,0,0,0,.17.9,2.51,2.51,0,0,0,.1.61,1.67,1.67,0,0,1,0,.5,5.63,5.63,0,0,0,.11.81c0,1.23.06,2.47,0,3.71v.63a2.59,2.59,0,0,0,0,.62,2.25,2.25,0,0,1-.08.69,2.76,2.76,0,0,0-.06.57c0,.33-.16.63-.16,1V38a3.32,3.32,0,0,1-.11.63l0,0a6.59,6.59,0,0,1-.25,1.25.11.11,0,0,1,0,0c0,.1,0,.2-.06.3v.1a.27.27,0,0,1-.11.18h0c0,.11,0,.23,0,.35v0a2.34,2.34,0,0,0-.23.78c-.07.24-.15.48-.22.72a3.58,3.58,0,0,1-.21.63c-.07.16-.07.34-.14.5a.18.18,0,0,1,0,.1v.07a.56.56,0,0,1-.14.25s0,0,0,0,0,.24-.11.31a13.4,13.4,0,0,1-.6,1.4c0,.15-.13.23-.14.36a.25.25,0,0,1-.08.18.26.26,0,0,0-.07.17,1.29,1.29,0,0,0-.27.45c0,.08,0,.16-.12.21a.91.91,0,0,0-.15.23s0,.07,0,.11a1.31,1.31,0,0,0-.3.4h0c0,.09-.11.13-.14.21h0c-.05.08-.15.13-.14.25v0c-.11.08-.12.24-.25.31s-.26.34-.38.52a.51.51,0,0,0-.07.15l0,0a1.62,1.62,0,0,0-.42.55v0s-.08,0-.11.07-.2.24-.3.35h0a1.58,1.58,0,0,1-.26.31,2.94,2.94,0,0,0-.2.26h0a1.15,1.15,0,0,1-.14.17h0c-.08.09-.15.19-.24.28l0,0c0,.08-.11.09-.16.14v.09c-.11.1-.16.24-.28.33s-.15.16-.22.26a.78.78,0,0,1-.1.15c-.14,0-.17.12-.22.19a1.31,1.31,0,0,0-.19.27c0,.12-.16.1-.15.21a1.53,1.53,0,0,0-.14.21h0a.76.76,0,0,0-.11.14h0c0,.08-.15.11-.17.21s-.13.2-.25.25a.23.23,0,0,1-.23.11h-.36a.13.13,0,0,1-.13-.14c0-.42-.1-.83-.1-1.25,0-1.89,0-3.79,0-5.68a.51.51,0,0,0,0-.32V46c.07-.26-.09-.47-.15-.7,0-.06-.15-.07-.13-.17a1.45,1.45,0,0,0-.89-.26c-1,0-2,0-2.92,0a1.53,1.53,0,0,0-.52.13.48.48,0,0,0-.2.15.16.16,0,0,0-.1.11l0,0a.27.27,0,0,0-.12.21.37.37,0,0,1,0,.18c0,.19-.07.36-.08.54s0,.31,0,.47c0,1.86,0,3.73,0,5.59,0,.45-.06.9,0,1.35a.35.35,0,0,1-.08.31.47.47,0,0,0,0,.16h0a.65.65,0,0,1-.59.3.26.26,0,0,0-.15,0h-.8a.77.77,0,0,1-.36-.45,2.66,2.66,0,0,1-.12-.79c0-1.25,0-2.51,0-3.76a.41.41,0,0,0,0-.19v-.1a2.89,2.89,0,0,0-.14-.88h0c-.05,0,0-.13-.09-.18s-.1-.16-.2-.18-.11,0-.16-.06a.76.76,0,0,1-.16-.06,6.08,6.08,0,0,0-.61,0c-.34,0-.7-.07-1,0-.55,0-1.09,0-1.63.09a1,1,0,0,0-.61.42.24.24,0,0,0,0,.08.09.09,0,0,1,0,.05.2.2,0,0,0-.08.13.08.08,0,0,1,0,.05,4.81,4.81,0,0,0-.1.93v3.92c0,.16,0,.31-.05.46a.5.5,0,0,1-.24.45C32.54,54.32,32.52,54.38,32.47,54.42Z"/><path class="cls-1" d="M54.48,30.75c-.14-.14-.11-.32-.13-.49a2.44,2.44,0,0,1,0-.38,1.13,1.13,0,0,0-.08-.48,1.4,1.4,0,0,1-.06-.58.48.48,0,0,1,0-.29h0c0,.29.13.55.13.83,0,.47.21.91.16,1.38h0Z"/><path class="cls-1" d="M54.34,37a1.94,1.94,0,0,1,0-.64,3.68,3.68,0,0,0,.11-1.19s0,0,0-.06v1.12a3,3,0,0,0-.13.84h0a0,0,0,0,1-.05,0A.06.06,0,0,1,54.34,37Z"/><path class="cls-1" d="M23.58,54.22c.07,0,.14,0,.19.1s.14.07.22.07h.84c.08,0,.16,0,.2-.09s.08,0,.13,0v0s0,0,0,0v.07a.67.67,0,0,1-.24,0H23.76a.33.33,0,0,0-.18-.17s0,0,0,0Z"/><path class="cls-1" d="M39,54.43l0,0a.81.81,0,0,0,.64-.26l.06,0a.16.16,0,0,1-.14.18.24.24,0,0,1-.18.13H39Z"/><path class="cls-1" d="M15.77,45.46a3.17,3.17,0,0,1,.18,1q0,3.57,0,7.14c0,.07,0,.16.1.21s0,.24.12.31,0,.08,0,.12-.1,0-.11-.06c0-.21-.22-.38-.18-.61-.06-1.72,0-3.45,0-5.17v-.75a11.77,11.77,0,0,0-.11-2.14A.06.06,0,0,1,15.77,45.46Z"/><path class="cls-1" d="M16.19,54.26h0c.06,0,.13.07.15.14h.1v0h0C16.31,54.42,16.18,54.44,16.19,54.26Z"/><path class="cls-1" d="M37.74,49.24c0,.06,0,.14,0,.2,0,1.27,0,2.53,0,3.79,0,.3.15.56.17.85,0,.06.09.13.15.18a1.22,1.22,0,0,1,.15.17c-.1,0-.18,0-.21-.11s-.15-.32-.28-.45c0-1.52,0-3,0-4.54C37.73,49.3,37.74,49.27,37.74,49.24Z"/><path class="cls-1" d="M17.63,54.29v.1a.14.14,0,0,1-.14,0A.47.47,0,0,1,17.63,54.29Z"/><path class="cls-1" d="M30.8,54.25s.08,0,.09,0,.24.13.37.17h-.15c-.13,0-.25,0-.31-.15S30.78,54.26,30.8,54.25Z"/><path class="cls-1" d="M39.45,54.42l.18-.13,0,.14Z"/><path class="cls-1" d="M15.77,45.46v.07c-.06-.07-.17-.12-.13-.24S15.78,45.35,15.77,45.46Z"/><path class="cls-1" d="M.32,31.23a5.12,5.12,0,0,1,0,1.36,11.23,11.23,0,0,0-.09,2.24c0,.76,0,1.52,0,2.28,0,.19.1.37.12.57,0,.39,0,.77,0,1.15a.39.39,0,0,1,0,.26c0-.09,0-.19,0-.29A2.15,2.15,0,0,0,.23,38c-.06-.23,0-.46-.08-.68,0-1.73,0-3.47,0-5.21A.12.12,0,0,0,.21,32c0-.24.12-.47.08-.72C.28,31.29.31,31.26.32,31.23Z"/><path class="cls-1" d="M7.64,53.83c.08,0,.16,0,.22.07s.08,0,.13,0h.52c.12,0,.15,0,.15-.15a1.48,1.48,0,0,1,0-.42,11.05,11.05,0,0,0,.1-2.3s0-.1,0-.15a8.42,8.42,0,0,1,0,.87c0,.11,0,.22,0,.32,0,.39,0,.78,0,1.16,0,.17,0,.34,0,.51a.18.18,0,0,1-.18.2,3.47,3.47,0,0,1-.79,0l-.15-.07,0,0A.09.09,0,0,1,7.64,53.83Z"/><path class="cls-1" d="M8.8,53.27V52.12s0,0,0,0h0v1C8.83,53.15,8.85,53.22,8.8,53.27Z"/><path class="cls-1" d="M7.54,54a.08.08,0,0,1-.07-.07c0-.09.11,0,.17,0h0s.06.05,0,.1Z"/><path class="cls-1" d="M7.68,54l0-.1a.17.17,0,0,1,.18.1Z"/><path class="cls-1" d="M9.71,44.86a.7.7,0,0,1,.54-.14h4a.38.38,0,0,1,.36.14,13.22,13.22,0,0,1-1.78,0,10.36,10.36,0,0,0-1.11-.08h-.12a5.19,5.19,0,0,1-1.62.1Z"/><path class="cls-1" d="M9.26,45a.31.31,0,0,1,.14-.11C9.39,45,9.33,45,9.26,45Z"/><path class="cls-1" d="M17.21,8.15c-.28.14-.59.2-.88.32a4.69,4.69,0,0,0-.46.21c-.16.09-.35.14-.52.22s-.23.16-.39.12,0,0,0,0h0c.12-.06.21-.16.35-.15s.14-.06.19-.12.23-.1.33-.13.33-.16.5-.2.37-.1.53-.2a.37.37,0,0,1,.2,0Z"/><path class="cls-1" d="M21.79,7.73l-.7,0c-.09,0-.11-.08-.17-.1v0h.34a1,1,0,0,0,.53.15s0,0,0,0A0,0,0,0,1,21.79,7.73Z"/><path class="cls-1" d="M17.56,8c0,.1-.1.16-.21.14C17.41,8.09,17.46,8,17.56,8Z"/><path class="cls-1" d="M31.22,10.28c-.18.07-.36.15-.55.21l-.19.06a3,3,0,0,1-.82.22.16.16,0,0,0-.14.06c-.11.14-.26.1-.37,0s-.1-.45-.13-.68a5.58,5.58,0,0,1,0-.82h0v0a4.11,4.11,0,0,0,0,.7h0a2.88,2.88,0,0,1,.1.7l0,0a.15.15,0,0,0,.14,0c.07,0,.11-.06.16-.08h0a3.33,3.33,0,0,0,.81-.26h0c.21,0,.36-.14.56-.18h0l.17,0A.15.15,0,0,1,31.22,10.28Z"/><path class="cls-1" d="M28.91,8.71a.13.13,0,0,1,0-.1A1.45,1.45,0,0,0,28.78,8a1.8,1.8,0,0,1-.05-.77c.08.13,0,.29.05.43A2.63,2.63,0,0,1,28.91,8.71Z"/><path class="cls-1" d="M28.73,7.27c-.18-.08-.09-.26-.13-.39a1.29,1.29,0,0,1,0-.34h0C28.56,6.8,28.74,7,28.73,7.27Z"/><path class="cls-1" d="M29.08,9.61a1.57,1.57,0,0,1,.11.64c-.14,0-.05-.17-.11-.25h0Z"/><path class="cls-1" d="M29,9.3c-.09,0-.1-.07-.1-.14V8.71s0,.07,0,.1A.23.23,0,0,1,29,9c0,.12.06.23,0,.35Z"/><path class="cls-1" d="M29,9.3A1,1,0,0,1,28.94,9c.14,0,.06.13.1.18v.18Z"/><path class="cls-1" d="M29,9.13C29,9.08,29,9,28.94,9V8.81A.33.33,0,0,1,29,9.13Z"/><path class="cls-1" d="M8.1,14.07c-.2.22-.44.41-.63.64a4,4,0,0,1-.53.55,0,0,0,0,1,0-.07c0-.13.12-.19.16-.21s.25-.26.38-.38l.46-.46,0-.07A.09.09,0,0,1,8.1,14.07Z"/><path class="cls-1" d="M8.1,14.07H8l.4-.41a3.4,3.4,0,0,1,.34-.32.29.29,0,0,0,.11-.14h.1a0,0,0,0,1,0,0c0,.15-.17.19-.26.27S8.31,13.87,8.1,14.07Z"/><path class="cls-1" d="M6.94,15.19v.07a.21.21,0,0,1-.1.11s0,0,0,0v-.07C6.81,15.21,6.89,15.22,6.94,15.19Z"/><path class="cls-1" d="M1.3,25.38c-.13.26-.09.56-.22.81a.56.56,0,0,0,0,.22c0,.27-.16.52-.17.8v-.29a1,1,0,0,1,.11-.5H1a3.33,3.33,0,0,1,.17-.82C1.2,25.52,1.16,25.4,1.3,25.38Z"/><path class="cls-1" d="M1.47,24.61a.48.48,0,0,1-.11.43c-.07.06,0,.17-.06.25a.11.11,0,0,1,0-.12V24.9C1.4,24.83,1.42,24.71,1.47,24.61Z"/><path class="cls-1" d="M1.3,25.17v.21a1,1,0,0,0-.14.21A.51.51,0,0,1,1.3,25.17Z"/><path class="cls-1" d="M8.83,52.11h0V50.79a.37.37,0,0,0,0-.18c0-.35,0-.71,0-1.06s0-.59,0-.88c0-.6-.06-1.21,0-1.81a.08.08,0,0,0,0-.07c0-.17,0-.35,0-.52A1.15,1.15,0,0,1,9,45.46v.17a1.69,1.69,0,0,0-.13,1c0,.34,0,.67,0,1a8.41,8.41,0,0,1,.07,1.33.11.11,0,0,0-.07.14v.16C8.89,50.19,8.82,51.15,8.83,52.11Z"/><path class="cls-1" d="M47.27,15.08l-.47-.44-.27-.29s0,0,0,0,.16.13.25.19a4.7,4.7,0,0,1,.44.45A.09.09,0,0,1,47.27,15.08Z"/><path class="cls-1" d="M46.36,14.1c-.18-.06-.26-.24-.41-.35s-.17-.16-.26-.24,0,0,0,0,.15,0,.18.11.06,0,.1,0,.14.19.21.27S46.31,14,46.36,14.1Z"/><path class="cls-1" d="M47.27,15.08V15a1.94,1.94,0,0,0,.26.23s0,.09.06.15h0c-.08,0-.11-.1-.16-.15h0l-.14-.14Z"/><path class="cls-1" d="M46.58,14.34h0c0-.08-.12-.1-.14-.18A.16.16,0,0,1,46.58,14.34Z"/><path class="cls-1" d="M47.72,15.4v.12h0a.32.32,0,0,1-.1-.1s0,0,0,0h0Z"/><path class="cls-1" d="M54.21,28.53v.29a2,2,0,0,1-.15-.74,3.3,3.3,0,0,0-.17-.74,4.58,4.58,0,0,0-.15-.64,4.45,4.45,0,0,0-.15-.58,1,1,0,0,1-.11-.49s0,0,0,0v0c0,.15.11.25.13.39v.14a3.62,3.62,0,0,0,.13.35.64.64,0,0,0,.12.42c.07.1,0,.28.06.41.13.32.07.68.22,1A.51.51,0,0,1,54.21,28.53Z"/><path class="cls-1" d="M53.78,26.54a.36.36,0,0,1-.13-.35l.13.14Z"/><path class="cls-1" d="M.31,39.09v-.26c0,.29.18.55.14.85a5.23,5.23,0,0,0,0,.56h0c0-.35-.14-.67-.12-1A.48.48,0,0,0,.31,39.09Z"/><path class="cls-1" d="M22.84,3.21h0l.11.1.42.49a.08.08,0,0,1-.11,0l0,0-.11-.11a.76.76,0,0,0-.25-.31C22.85,3.31,22.85,3.27,22.84,3.21Z"/><path class="cls-1" d="M23.44,3.91a1.17,1.17,0,0,1,.35.45s0,0-.07,0-.08-.13-.17-.14-.11-.14-.11-.24A0,0,0,0,1,23.44,3.91Z"/><path class="cls-1" d="M22.11,2.47h0c.05,0,.12.06.14.14h0a.93.93,0,0,1,.14.14h0s.12.06.1.15A1,1,0,0,1,22.11,2.47Z"/><path class="cls-1" d="M22.57,2.89c.07,0,.13,0,.14.1a.08.08,0,0,1,0,.07h0c-.05,0-.15,0-.14-.14S22.55,2.9,22.57,2.89Z"/><path class="cls-1" d="M23.44,3.91V4c0-.07-.16-.07-.14-.18h.11A.14.14,0,0,1,23.44,3.91Z"/><path class="cls-1" d="M22.57,2.89v0l0,0-.1-.15C22.5,2.76,22.57,2.79,22.57,2.89Z"/><path class="cls-1" d="M23.16,3.66c.08,0,.12,0,.11.11S23.16,3.73,23.16,3.66Z"/><path class="cls-1" d="M22.85,3.17v0c-.1,0-.15,0-.14-.14h0C22.78,3.06,22.8,3.14,22.85,3.17Z"/><path class="cls-1" d="M.46,29.8a7.5,7.5,0,0,1-.05.94c0,.06,0,.08-.09.11a1.64,1.64,0,0,1,.09-.76c0-.08,0-.19,0-.29Z"/><path class="cls-1" d="M53.18,24.76c-.14-.24-.18-.53-.3-.78s-.1-.43-.26-.59h0a.14.14,0,0,1,.12.08l0,.11.21.55c.06.18.13.35.19.52A.11.11,0,0,1,53.18,24.76Z"/><path class="cls-1" d="M53.18,24.76v-.12c0,.22.23.39.18.63,0,0,0,0,0,.05C53.36,25.11,53.13,25,53.18,24.76Z"/><path class="cls-1" d="M53.36,25.32v-.05a.41.41,0,0,1,.13.36h0C53.48,25.51,53.31,25.45,53.36,25.32Z"/><path class="cls-1" d="M53.64,26.05c-.06-.12-.18-.23-.13-.39l.13.22Z"/><path class="cls-1" d="M.6,41.18c.05,0,0,.11,0,.17s0,.16.08.22,0,.08,0,.13,0,.38,0,.57.09.12.11.21a1.9,1.9,0,0,1,0,.41c0,.09,0,.19.08.25s0,.07,0,.11a3.37,3.37,0,0,0,.14.77c-.16,0-.1-.11-.14-.17v-.07a.78.78,0,0,0-.09-.45.49.49,0,0,1-.05-.2,1.26,1.26,0,0,0-.1-.54A2.35,2.35,0,0,1,.7,42c-.06-.1,0-.22-.1-.32v-.41A.08.08,0,0,1,.6,41.18Z"/><path class="cls-1" d="M.6,41.67c.14.08.1.21.1.32h0A.51.51,0,0,1,.6,41.67Z"/><path class="cls-1" d="M37.63,9.3h0c-.34,0-.65-.17-1-.14H36a2.92,2.92,0,0,0-1,.12,2.26,2.26,0,0,1-.58,0,0,0,0,0,1,0,0,.75.75,0,0,0,.38-.08,1,1,0,0,1,.51-.06h1.87c.23,0,.43.16.67.14H38v0A.86.86,0,0,1,37.63,9.3Z"/><path class="cls-1" d="M28.34,5.39c0-.19-.12-.35-.13-.54.13,0,.1.14.13.21v.33Z"/><path class="cls-1" d="M28.34,5.06a.92.92,0,0,0-.13-.21V4.64C28.26,4.78,28.38,4.9,28.34,5.06Z"/><path class="cls-1" d="M28.2,4.4c-.07-.05-.15-.11-.13-.21S28.23,4.28,28.2,4.4Z"/><path class="cls-1" d="M26,.47a.23.23,0,0,1-.14,0,1.47,1.47,0,0,0-1-.26c-.06,0-.11,0-.13.08s0,0,0,0c-.19,0-.33.19-.52.16v0c.08,0,.11,0,.14-.1s.27-.09.38-.17a3.69,3.69,0,0,1,.47,0c.18,0,.38,0,.53.13a.22.22,0,0,0,.16,0C25.88.41,25.94.44,26,.47Z"/><path class="cls-1" d="M42.08,10.78a1.76,1.76,0,0,1-.62-.29c-.11-.05-.23-.09-.34-.15a1.53,1.53,0,0,0-.41-.19.06.06,0,0,1,.09,0,.3.3,0,0,1,.29.11c0,.06.16,0,.25,0,0,.18.17.15.28.17a.36.36,0,0,0,.14.11l0,0a.71.71,0,0,1,.14.1l.14,0Z"/><path class="cls-1" d="M40.8,10.14h-.09c-.22-.12-.48-.16-.7-.29h.18C40.39,10,40.64,10,40.8,10.14Z"/><path class="cls-1" d="M10.69,11.76a7.11,7.11,0,0,1-.85.71.75.75,0,0,1-.13.06.06.06,0,0,1,0-.07.29.29,0,0,0,.15-.14h0c.1,0,.13-.11.21-.13h0c.1-.11.24-.16.31-.29a1.46,1.46,0,0,1,.19-.16A.1.1,0,0,1,10.69,11.76Z"/><path class="cls-1" d="M9.71,12.46v.07c-.08.09-.14.21-.28.24s-.08.1-.14.12h0c0-.09.06-.11.12-.15a.8.8,0,0,0,.13-.13h0c.07,0,.08-.11.14-.14h0S9.7,12.44,9.71,12.46Z"/><path class="cls-1" d="M10.58,11.76a.24.24,0,0,1-.17.14s-.05.13-.15.1c.05-.17.19-.22.32-.28l0,0Z"/><path class="cls-1" d="M10.26,12l.15-.1c0,.17-.2.19-.32.28A.24.24,0,0,1,10.26,12Z"/><path class="cls-1" d="M10.69,11.58h.13l0,0h0c-.1,0-.12.17-.24.12h0A.3.3,0,0,0,10.69,11.58Z"/><path class="cls-1" d="M9.71,12.46h0l.18-.14A.12.12,0,0,1,9.71,12.46Z"/><path class="cls-1" d="M10.09,12.18c-.07.05-.09.17-.21.13C10,12.29,10,12.15,10.09,12.18Z"/><path class="cls-1" d="M9.67,12.46c0,.06,0,.14-.14.14S9.56,12.44,9.67,12.46Z"/><path class="cls-1" d="M33,9.63c0,.18-.19.06-.28.09v0h.14s.06-.11.14-.07Z"/><path class="cls-1" d="M33.77,9.4A.23.23,0,0,1,34,9.3.3.3,0,0,1,33.77,9.4Z"/><path class="cls-1" d="M33,9.62l-.14.07C32.85,9.6,32.88,9.55,33,9.62Z"/><path class="cls-1" d="M30.38,10.46s0,.11-.1.11c-.27,0-.49.22-.77.18,0,0,0,0-.05,0s.12,0,.18,0a.65.65,0,0,0,.15-.1s.1,0,.14,0S30.22,10.46,30.38,10.46Z"/><path class="cls-1" d="M29.08,10c.07.07,0,.18.11.25a3.88,3.88,0,0,1,0,.48s0,0,0,0A4.12,4.12,0,0,1,29.08,10Z"/><path class="cls-1" d="M29.46,10.74h.05c0,.08-.07.1-.15.09a0,0,0,0,1,0-.06.1.1,0,0,1,0,0Z"/><path class="cls-1" d="M29.79,10.6c0,.09-.07.11-.15.1v0S29.72,10.58,29.79,10.6Z"/><path class="cls-1" d="M29.4,10.74l0,0c0,.07-.09.07-.14,0h0v0Z"/><path class="cls-1" d="M24,4.54c.16.18.26.4.41.59a4.75,4.75,0,0,1,.36.67h0s0-.16-.14-.14c0-.17-.16-.28-.23-.43A1.65,1.65,0,0,0,24,4.75s0-.07,0-.1S24,4.57,24,4.54Z"/><path class="cls-1" d="M24,4.54v.11a.18.18,0,0,1-.14-.14.06.06,0,0,1,0-.08Z"/><path class="cls-1" d="M23.86,4.43v.08h0c-.06,0-.11-.07-.11-.14h.07A.06.06,0,0,1,23.86,4.43Z"/><path class="cls-1" d="M48.53,16.52c-.15,0-.15-.16-.22-.25A1.79,1.79,0,0,0,48,16a.16.16,0,0,1-.06-.18,4.86,4.86,0,0,1,.38.41c0,.05.06.11.1.16S48.55,16.45,48.53,16.52Z"/><path class="cls-1" d="M48,15.8c-.1,0-.12-.05-.15-.12s-.16-.06-.11-.17h0C47.9,15.52,47.87,15.72,48,15.8Z"/><path class="cls-1" d="M48.53,16.52s-.09-.08-.07-.14.1,0,.1.07v.08Z"/><path class="cls-1" d="M52.49,23c-.05,0,0-.1-.07-.14s0-.07-.08-.1a1.91,1.91,0,0,0-.29-.61A.2.2,0,0,1,52,22h0a.55.55,0,0,1,.14.21c.12.16.11.37.25.52S52.49,22.92,52.49,23Z"/><path class="cls-1" d="M52.62,23.39c0-.15-.2-.22-.13-.39.06,0,.09.05.13.07v.24a.06.06,0,0,1,0,.08Z"/><path class="cls-1" d="M52.2,22.23c0-.07-.15-.1-.14-.21S52.2,22.13,52.2,22.23Z"/><path class="cls-1" d="M1.9,46.86a2.34,2.34,0,0,1,.32.82c0,.12.14.23.13.37s.06.1.11.14c0,.19.18.28.17.46h0l0,0a.2.2,0,0,0-.08-.08l0,0h0a.35.35,0,0,0-.1-.29.1.1,0,0,1,0-.07c0-.15-.07-.24-.14-.35a.42.42,0,0,0-.1-.3l0,0c0-.18-.12-.31-.17-.47A.14.14,0,0,1,1.9,46.86Z"/><path class="cls-1" d="M1.9,46.86V47c0-.06,0-.14,0-.21s-.07-.12-.11-.17a1.56,1.56,0,0,0-.16-.57v-.17a.71.71,0,0,0-.1-.14V45.6a.09.09,0,0,1,0-.11c.1.13.09.32.15.44s.07.49.24.69S1.89,46.78,1.9,46.86Z"/><path class="cls-1" d="M1.75,46.62a.15.15,0,0,1,.11.17l-.1,0Z"/><path class="cls-1" d="M51.75,21.43a5.47,5.47,0,0,1-.54-.93,8.78,8.78,0,0,1-.44-.79c.07,0,.1,0,.11.1a.22.22,0,0,0,.17.21v.07c0,.07.11.1.14.18a3.78,3.78,0,0,0,.22.4.27.27,0,0,1,.06.16.59.59,0,0,0,.14.18l0,.13c0,.09.08.12.1.18Z"/><path class="cls-1" d="M51.61,21c-.13,0-.15-.08-.14-.18S51.64,20.89,51.61,21Z"/><path class="cls-1" d="M51.19,20.27c-.06-.05-.14-.09-.14-.18l.13.05Z"/><path class="cls-1" d="M37.63,9.3H38c.21-.05.38.14.59.11s.5.16.76.19.25.13.4.12.15,0,.14.14-.19-.12-.31-.12a2.81,2.81,0,0,1-.69-.18,3.15,3.15,0,0,1-.64-.13C38.06,9.3,37.83,9.39,37.63,9.3Z"/><path class="cls-1" d="M39.91,9.86c0-.07-.1-.09-.14-.14.12,0,.16.09.24.14Z"/><path class="cls-1" d="M26,9.16l0,0a7.57,7.57,0,0,1,.12,1.26c0,.1.07.21,0,.29a0,0,0,0,1,0,0c-.1-.22,0-.47-.1-.7V9.41C26,9.33,26,9.24,26,9.16Z"/><path class="cls-1" d="M26,9.16v.25L25.86,9V8.67s0,0,0,0a.28.28,0,0,1,0,.13,1.75,1.75,0,0,1,.12.32A0,0,0,0,1,26,9.16Z"/><path class="cls-1" d="M31.82,10c-.13,0-.2.17-.35.14a.13.13,0,0,1-.12,0,.48.48,0,0,1,.42-.14Z"/><path class="cls-1" d="M31.11,10.28h-.17v0c.11,0,.18-.15.31-.11s0,0,0,0h0C31.22,10.23,31.16,10.25,31.11,10.28Z"/><path class="cls-1" d="M31.25,10.18v0h.22C31.4,10.2,31.33,10.17,31.25,10.18Z"/><path class="cls-1" d="M21.79,1.49c.17,0,.26-.23.45-.18l0,0a.41.41,0,0,1-.42.18Z"/><path class="cls-1" d="M22.46,1.17h.11c0,.1-.13.09-.19.15a.3.3,0,0,1-.13,0h0A.24.24,0,0,1,22.46,1.17Z"/><path class="cls-1" d="M21.79,1.49h.05c0,.16-.1.12-.18.15s-.08,0-.11,0v0C21.67,1.64,21.69,1.47,21.79,1.49Z"/><path class="cls-1" d="M25.9,8.81V8.67c0-.13-.09-.25-.14-.38l0-.14a.19.19,0,0,1,0-.12.37.37,0,0,0-.07-.2c0-.19-.15-.34-.17-.52s0-.14-.08-.18S25.3,7.05,25.3,7a.24.24,0,0,0-.14-.23c0-.1,0-.2-.11-.26s0-.1,0-.15,0,0,0,0,.08,0,.08.06a1.65,1.65,0,0,0,.21.47,1.21,1.21,0,0,0,.24.53s0,.07,0,.11,0,.14,0,.19a.57.57,0,0,1,.12.43c0,.11.12.11.14.21a2.27,2.27,0,0,1,0,.45S25.91,8.83,25.9,8.81Z"/><path class="cls-1" d="M25.06,6.36h0c-.13-.12-.09-.35-.28-.42V5.8h0s.08,0,.08,0C24.88,6,25.07,6.15,25.06,6.36Z"/><path class="cls-1" d="M.6,41.18v.08a3.91,3.91,0,0,1-.13-1A2.16,2.16,0,0,1,.6,41.18Z"/><path class="cls-1" d="M21.79,7.73v0a.29.29,0,0,1,.25.06.42.42,0,0,0,.31.07l0,.1c-.09.06-.11,0-.15-.06l-.34,0C21.84,7.83,21.82,7.78,21.79,7.73Z"/><path class="cls-1" d="M4.07,51.24l.28.31,0,0a.09.09,0,0,1-.12,0c0-.07,0-.18-.14-.17a0,0,0,0,1,0,0Z"/><path class="cls-1" d="M1.16,44.23c0,.17.17.31.14.49a.16.16,0,0,1,0,.15.87.87,0,0,1-.15-.56A.08.08,0,0,1,1.16,44.23Z"/><path class="cls-1" d="M1.48,45.49v.11c-.06,0,0-.13-.07-.18s-.06-.14-.1-.21V45c.14,0,.15.17.17.28Z"/><path class="cls-1" d="M1.47,45.32A1,1,0,0,0,1.3,45v-.32C1.29,44.94,1.51,45.09,1.47,45.32Z"/><path class="cls-1" d="M1.16,44.23v.08c0-.16-.18-.28-.13-.46,0,.06,0,.16.14.17Z"/><path class="cls-1" d="M5.54,52.82a.85.85,0,0,1,.28.22.21.21,0,0,0,.1.06s0,0,0,0,0,0,0,0l-.14,0A.15.15,0,0,0,5.64,53a1.91,1.91,0,0,1-.38-.31s.07,0,.1,0h0S5.48,52.77,5.54,52.82Z"/><path class="cls-1" d="M5.36,52.68h-.1c-.07,0-.06-.09-.08-.14h.05C5.32,52.54,5.33,52.62,5.36,52.68Z"/><path class="cls-1" d="M28.45,5.66c-.08,0-.11-.06-.1-.14A.23.23,0,0,1,28.45,5.66Z"/><path class="cls-1" d="M11.5,11.16a1.18,1.18,0,0,1-.43.31c0-.06.06-.08.07-.13v0s.11,0,.13-.07.09-.06.14-.07A.06.06,0,0,1,11.5,11.16Z"/><path class="cls-1" d="M11.5,11.16h-.08s0-.1,0-.1.24-.18.39-.22h0a.09.09,0,0,1,0,.05c-.05,0-.11.07-.15.13h0c-.07,0-.14,0-.18.1Z"/><path class="cls-1" d="M3.51,20a2.08,2.08,0,0,1-.32.63.06.06,0,0,1,0-.08v-.1a.81.81,0,0,0,.15-.31h0L3.47,20Z"/><path class="cls-1" d="M3.47,20c0,.09,0,.14-.13.14s.05-.13.1-.18Z"/><path class="cls-1" d="M3.61,19.88c0,.08,0,.12-.1.11S3.54,19.89,3.61,19.88Z"/><path class="cls-1" d="M6.8,15.36h0c-.08.18-.26.28-.38.43s-.06.12-.12.16v0c0-.14.1-.2.16-.24S6.61,15.38,6.8,15.36Z"/><path class="cls-1" d="M24.6,10c-.19-.19-.38-.37-.55-.57A3.61,3.61,0,0,0,23.72,9a.08.08,0,0,1,.11,0c0,.06.05.16.16.15s.17.17.16.3.1.06.13.11a1.07,1.07,0,0,0,.32.35A.07.07,0,0,1,24.6,10Z"/><path class="cls-1" d="M24.88,10.18a.41.41,0,0,1-.25-.17.05.05,0,0,1,.08,0c.11,0,.14.12.24.14s.07.1.11.14a0,0,0,0,1,0,0h0Z"/><path class="cls-1" d="M24.28,9.55c-.08,0-.14,0-.13-.11s.1,0,.13,0Z"/><path class="cls-1" d="M24.71,10H24.6V9.9A.11.11,0,0,1,24.71,10Z"/><path class="cls-1" d="M3.19,49.77c.05.16.18.29.21.45s0,0-.06,0,0-.14-.11-.14c0-.16-.14-.27-.18-.42h0S3.17,49.72,3.19,49.77Z"/><path class="cls-1" d="M2.77,49.2c.11,0,.11.07.1.15A.17.17,0,0,1,2.77,49.2Z"/><path class="cls-1" d="M27.89,3.66c0-.11-.17-.18-.14-.31,0,0,.07.12.14.14Z"/><path class="cls-1" d="M6.66,53.52l.49.17c-.05,0-.09,0-.14,0H6.9a.35.35,0,0,1-.21-.1.22.22,0,0,0-.17-.05s-.17,0-.13-.15.09,0,.13,0h0A.26.26,0,0,0,6.66,53.52Z"/><path class="cls-1" d="M6.38,53.41c0,.05.11.08.14.14-.13,0-.18-.1-.28-.13h0A.11.11,0,0,1,6.38,53.41Z"/><path class="cls-1" d="M23.83,9h-.11c0-.14-.11-.16-.17-.21s-.23-.32-.42-.39a.07.07,0,0,1,0-.1,3.94,3.94,0,0,1,.56.45s0,.08.06.11S23.81,8.94,23.83,9Z"/><path class="cls-1" d="M23.13,8.29v.1a.32.32,0,0,0-.18-.1.12.12,0,0,1-.11-.11c.09,0,.11,0,.15.07S23.09,8.25,23.13,8.29Z"/><path class="cls-1" d="M23,8.25s-.08-.08-.15-.07l0,0s0,0,.05,0H23Z"/><path class="cls-1" d="M27.75,3.24a7.22,7.22,0,0,1-.36-.8.88.88,0,0,0-.2-.38c-.06-.05,0-.12,0-.18s0,0,0,0h0a1,1,0,0,0,.14.22s0,.08,0,.1a.24.24,0,0,0,.11.15v.13c0,.17.16.26.18.42s.11.09.1.17Z"/><path class="cls-1" d="M27.19,1.88h0c-.08-.15-.22-.26-.27-.43h0A.74.74,0,0,1,27.19,1.88Z"/><path class="cls-1" d="M27.33,2.09a.18.18,0,0,1-.14-.22A.23.23,0,0,1,27.33,2.09Z"/><path class="cls-1" d="M30.94,10.28a.68.68,0,0,1-.56.18C30.58,10.45,30.71,10.22,30.94,10.28Z"/><path class="cls-1" d="M26.14,10.7v0a1,1,0,0,1-.6-.14.17.17,0,0,1-.1-.1h0s0,0,0,0,.18.16.31.11S26,10.75,26.14,10.7Z"/><path class="cls-1" d="M25.44,10.46v0a.49.49,0,0,1-.42-.21h.14l.14.13Z"/><path class="cls-1" d="M25.3,10.42c-.1,0-.13-.05-.14-.13S25.3,10.32,25.3,10.42Z"/><path class="cls-1" d="M1.61,24.26c0,.15-.05.25-.14.35v-.14a.45.45,0,0,1,.1-.14v-.07Z"/><path class="cls-1" d="M1.58,24.33a.17.17,0,0,1-.1.14C1.47,24.4,1.47,24.33,1.58,24.33Z"/><path class="cls-1" d="M2.21,22.62a1.74,1.74,0,0,1-.31.8v-.24c.05,0,.11,0,.11-.06a1.24,1.24,0,0,1,.17-.5A0,0,0,0,1,2.21,22.62Z"/><path class="cls-1" d="M2.21,22.62h0v-.17c.07,0,.09-.08.13-.12a.16.16,0,0,1,0,.15C2.33,22.56,2.27,22.59,2.21,22.62Z"/><path class="cls-1" d="M49.12,17.23c-.08,0-.11,0-.1-.11S49.12,17.16,49.12,17.23Z"/><path class="cls-1" d="M44.74,12.6h.11l.1.14C44.84,12.76,44.82,12.64,44.74,12.6Z"/><path class="cls-1" d="M45.13,12.91c.08,0,.11,0,.1.11S45.12,13,45.13,12.91Z"/><path class="cls-1" d="M45,12.77a.1.1,0,0,1,.11.11C45,12.89,45,12.85,45,12.77Z"/><path class="cls-1" d="M2.77,49c.06,0,.12.06.11.14S2.78,49.1,2.77,49Z"/><path class="cls-1" d="M25.72,8v.14h0A.17.17,0,0,1,25.62,8C25.67,7.93,25.69,8,25.72,8Z"/><path class="cls-1" d="M25.72,8l-.1,0V7.83A.16.16,0,0,1,25.72,8Z"/><path class="cls-1" d="M9,13.2h0c0-.08,0-.19.17-.18v0a0,0,0,0,1,0,0A.2.2,0,0,1,9,13.2Z"/><path class="cls-1" d="M9.25,12.88h0s0,0,0,0h0l0,0c0,.06-.05.11-.13.07h0C9.1,12.91,9.19,12.91,9.25,12.88Z"/><path class="cls-1" d="M25.75,8.29a.46.46,0,0,1,.14.38h0C25.86,8.53,25.71,8.44,25.75,8.29Z"/><path class="cls-1" d="M3.19,20.54v.08c-.17.09-.09.34-.28.43a.06.06,0,0,1,0-.08h0s0-.11.1-.15v-.13A.24.24,0,0,1,3.19,20.54Z"/><path class="cls-1" d="M2.91,21v.08c0,.11,0,.25-.17.24l0-.07s.09-.06.1-.11S2.87,21,2.91,21Z"/><path class="cls-1" d="M3,20.82c0,.06,0,.12-.1.15A.12.12,0,0,1,3,20.82Z"/><path class="cls-1" d="M2.87,21.11c0,.07-.05.08-.1.11S2.84,21.14,2.87,21.11Z"/><path class="cls-1" d="M21.55,1.63h.11a0,0,0,0,1,0,0s0,0,0,0-.14.13,0,.23a2.17,2.17,0,0,0,.36.32.17.17,0,0,1,0,.08c-.09,0-.12-.07-.18-.11a.64.64,0,0,1-.29-.25C21.37,1.8,21.37,1.72,21.55,1.63Z"/><path class="cls-1" d="M43.94,12c-.09-.17-.29-.18-.42-.29a.06.06,0,0,1,0-.07c.06,0,.1,0,.15,0s.27.11.31.28S44,12.05,43.94,12Z"/><path class="cls-1" d="M43.94,12l0,0,.1,0a.15.15,0,0,0,.18.14.17.17,0,0,0,.14.14l.11.14c-.11,0-.18-.08-.23-.13S44,12.18,43.94,12Z"/><path class="cls-1" d="M43.66,11.72a.22.22,0,0,1-.14,0,.08.08,0,0,1,0,0,.05.05,0,0,1,0,0A.18.18,0,0,1,43.66,11.72Z"/><path class="cls-1" d="M43.52,11.61v0c-.07,0-.13,0-.15-.06h.14Z"/><path class="cls-1" d="M50.77,19.71c-.08-.09-.19-.17-.18-.32.07,0,.1.1.14.15Z"/><path class="cls-1" d="M4.35,51.55a1.94,1.94,0,0,0,.23.27.18.18,0,0,1,0,.12c-.17,0-.2-.18-.28-.28a.07.07,0,0,1,0-.1Z"/><path class="cls-1" d="M4.34,51.56v.1a.16.16,0,0,1-.14-.11Z"/><path class="cls-1" d="M5.78,16.63c0,.08-.11.08-.1.17s-.08.14-.18.15a0,0,0,0,1,0,0,0,0,0,0,0,0,0c0-.12.18-.1.15-.23Z"/><path class="cls-1" d="M5.5,16.9v0c0,.12,0,.17-.13.2h0s0,0,0-.05A.23.23,0,0,1,5.5,16.9Z"/><path class="cls-1" d="M5.33,17.08v0c0,.11,0,.14-.11.1s0-.1.07-.14Z"/><path class="cls-1" d="M43.37,11.59l.15.06v.1a.89.89,0,0,1-.39-.28C43.24,11.45,43.26,11.61,43.37,11.59Z"/><path class="cls-1" d="M42.92,11.3c-.13,0-.15-.11-.24-.14h.13C42.82,11.24,42.89,11.25,42.92,11.3Z"/><path class="cls-1" d="M15,9V9c-.08,0-.1.16-.21.11s.05-.1.08-.14Z"/><path class="cls-1" d="M23,1l-.24.15a.09.09,0,0,1-.11,0A.37.37,0,0,1,23,1Z"/><path class="cls-1" d="M22.63,1.17h.11c-.11,0-.17.13-.28.14s-.05,0-.07,0,.12-.1.18-.14Z"/><path class="cls-1" d="M23.16.93A.14.14,0,0,1,23,1a0,0,0,0,1,0,0C23,1,23.09.92,23.16.93Z"/><path class="cls-1" d="M2.32,22.48v-.15c0-.07,0-.14.09-.19s.05-.14.06-.22.07-.16.17-.18,0,.12,0,.16a.23.23,0,0,0-.09.19C2.48,22.24,2.35,22.34,2.32,22.48Z"/><path class="cls-1" d="M2.63,21.74a.49.49,0,0,1-.17.18v0c.1-.15.15-.33.26-.47s0-.06,0-.09a.16.16,0,0,1,0,.24A.21.21,0,0,0,2.63,21.74Z"/><path class="cls-1" d="M13.46,9.87a4.35,4.35,0,0,0-.57.38c-.09.07-.23.08-.31.17v-.13a.19.19,0,0,0,.14,0c0-.07.09-.08.14-.09a1.37,1.37,0,0,0,.42-.29h.18Z"/><path class="cls-1" d="M13.74,9.59c0,.08-.07.1-.14.1S13.65,9.57,13.74,9.59Z"/><path class="cls-1" d="M24.18.47A.31.31,0,0,1,24,.62a.4.4,0,0,0-.23.1V.62c.11,0,.22,0,.3-.12S24.13.48,24.18.47Z"/><path class="cls-1" d="M49.89,18.31c-.17-.08-.2-.28-.31-.41s-.19-.09-.14-.23a.41.41,0,0,1,.17.15c0,.14.16.19.18.31l.1.11Z"/><path class="cls-1" d="M49.44,17.67a.21.21,0,0,1-.14-.24C49.34,17.51,49.47,17.55,49.44,17.67Z"/><path class="cls-1" d="M49.3,17.4c-.11,0-.16,0-.15-.14Z"/><path class="cls-1" d="M50.45,19.12c-.14,0-.14-.19-.21-.29s0,0,.07,0,.08.13.15.18Z"/><path class="cls-1" d="M50.31,18.83h-.07c-.09,0-.06-.08-.07-.14A.14.14,0,0,1,50.31,18.83Z"/><path class="cls-1" d="M5.92,53.13v0c.13,0,.17,0,.21.14l0,0,0,0C6,53.27,5.94,53.26,5.92,53.13Z"/><path class="cls-1" d="M6.13,53.28v0l.39.17H6.24S6.2,53.29,6.13,53.28Z"/><path class="cls-1" d="M12.86,10.15l-.14.09v-.09Z"/><path class="cls-1" d="M45.69,13.46v0a.22.22,0,0,1-.18-.18h.05C45.64,13.33,45.7,13.37,45.69,13.46Z"/><path class="cls-1" d="M1.75,23.88c0,.13-.1.18-.13.28v-.11a0,0,0,0,1,0,0,.71.71,0,0,0,.1-.14h0Z"/><path class="cls-1" d="M23.45.76c0,.07,0,.15-.15.13S23.38.78,23.45.76Z"/><path class="cls-1" d="M41.76,10.57c-.07,0-.13,0-.14-.11s.08.08.14.07Z"/><path class="cls-1" d="M9,45.46a.18.18,0,0,1,.1-.21h0A.26.26,0,0,1,9,45.46Z"/><path class="cls-1" d="M5.22,17.22c.08,0,.11,0,.11-.1h0a.12.12,0,0,1,0,.14h0a.34.34,0,0,0-.14.15c-.1.09-.11.24-.24.31a0,0,0,0,1,0,0v0c0-.05.12-.09.11-.18S5.21,17.34,5.22,17.22Z"/><path class="cls-1" d="M1.48,45.74c.1,0,.1.07.1.14S1.47,45.81,1.48,45.74Z"/><path class="cls-1" d="M2.46,48.5h0l.11.1v0C2.49,48.65,2.44,48.61,2.46,48.5Z"/><path class="cls-1" d="M12.44,10.49s0,.08,0,.08-.24.15-.38.17c.07,0,.09-.14.18-.14S12.35,10.49,12.44,10.49Z"/><path class="cls-1" d="M11.88,10.88v0a.16.16,0,0,1,.17-.1l0,.07S12,10.92,11.88,10.88Z"/><path class="cls-1" d="M45.51,13.33c-.07,0-.11,0-.1-.1S45.51,13.26,45.51,13.33Z"/><path class="cls-1" d="M45.34,13.19c-.11,0-.11-.06-.11-.14Z"/><path class="cls-1" d="M26.21.62c-.08,0-.16,0-.18-.14S26.17.54,26.21.62Z"/><path class="cls-1" d="M41.94,10.7a.15.15,0,0,1-.14-.1h.14Z"/><path class="cls-1" d="M22.85,8.14h-.14A.67.67,0,0,1,22.56,8c-.11,0-.26,0-.31-.14.05,0,.08.08.15.06a.94.94,0,0,0,.3.05C22.69,8.09,22.79,8.11,22.85,8.14Z"/><path class="cls-1" d="M3.34,20.13a.31.31,0,0,1-.15.31v-.17c.11,0,.11-.06.11-.14Z"/><path class="cls-1" d="M3.34,50.22H3.4c.1,0,.07.09.07.15H3.4S3.33,50.28,3.34,50.22Z"/><path class="cls-1" d="M10.83,11.61v0a.21.21,0,0,1,.15-.15v0s0,0,0,0A.19.19,0,0,1,10.83,11.61Z"/><path class="cls-1" d="M7,53.7h.14c.11,0,.12.1.14.17h0A.62.62,0,0,1,7,53.7Z"/><path class="cls-1" d="M7.64,53.87c-.06,0-.12,0-.17,0a.14.14,0,0,1-.11,0c.09-.06.19,0,.28,0Z"/><path class="cls-1" d="M1.72,23.88c0,.07,0,.13-.1.14S1.66,23.9,1.72,23.88Z"/><path class="cls-1" d="M52.63,23.39v-.08c.09,0,.15.05.14.15Z"/><path class="cls-1" d="M4.94,17.71H5c0,.11,0,.24-.18.25s0-.11.11-.15Z"/><path class="cls-1" d="M4.91,17.81c0,.05-.13.06-.11.15h0v-.14Z"/><path class="cls-1" d="M11,11.48l0,0,.17-.11c0,.06,0,.1-.07.13Z"/><path class="cls-1" d="M39.87,53.69V46.48a4.4,4.4,0,0,1,.05-.51c0-.11.1-.22.12-.34s0,0,0,0v.59a.39.39,0,0,0-.06.28c0,2,0,4,0,6,0,.39-.06.79-.06,1.18C39.89,53.71,39.88,53.71,39.87,53.69Z"/><path class="cls-1" d="M39.87,53.69h0c0,.1,0,.21-.06.29s-.06,0-.08,0S39.92,53.82,39.87,53.69Z"/><path class="cls-1" d="M39.77,54h.08a.29.29,0,0,1-.08.13A.1.1,0,0,1,39.77,54Z"/><path class="cls-1" d="M44.5,45h-.25v0c-.35,0-.68-.13-1-.12q-.8,0-1.59,0c-.29,0-.55.13-.84.13h-.27s0,0,0,0a4.5,4.5,0,0,1,1.63-.14c.6,0,1.2,0,1.8,0a1.73,1.73,0,0,1,.55.15Z"/><path class="cls-1" d="M45.13,46.58c.12,0,.1.14.1.23q0,3.07,0,6.16c0,.29,0,.59.06.88,0,.08.08.08.11.12h-.07c-.11,0-.09-.15-.1-.24s0-.26,0-.4a.42.42,0,0,1-.09-.29c0-2.06,0-4.13,0-6.19a.5.5,0,0,0,0-.21Z"/><path class="cls-1" d="M45.13,46.65c.06.06,0,.14,0,.2v6.07a.75.75,0,0,0,.07.42.19.19,0,0,1-.1-.2Z"/><path class="cls-1" d="M40.05,45.67v0c0-.05,0-.09,0-.14a1.53,1.53,0,0,0,.14-.21h0s0-.13.1-.12a.05.05,0,0,1,0,0C40.2,45.32,40.24,45.56,40.05,45.67Z"/><path class="cls-1" d="M40.33,45.18h0a0,0,0,0,1,0,0v0c.05-.06.07-.16.18-.14a0,0,0,0,1,0,0v0C40.48,45.13,40.4,45.15,40.33,45.18Z"/><path class="cls-1" d="M53.78,40c0-.07,0-.15.08-.19s0-.07,0-.11A1.18,1.18,0,0,1,54,39c.06-.1,0-.25,0-.37a.86.86,0,0,1,0,.32,1.17,1.17,0,0,1-.09.45,1.23,1.23,0,0,0-.06.39S53.93,40,53.78,40Z"/><path class="cls-1" d="M53.78,40c.1,0,.09-.1.14-.14a.33.33,0,0,1-.14.35A.3.3,0,0,1,53.78,40Z"/><path class="cls-1" d="M54.21,38.38c0,.11,0,.22-.11.29l0,0c0-.1,0-.23.12-.27Z"/><path class="cls-1" d="M53.78,40v.31h0C53.76,40.17,53.71,40.06,53.78,40Z"/><path class="cls-1" d="M54.07,39v-.32h0A.82.82,0,0,1,54.07,39Z"/><path class="cls-1" d="M52.77,43.57c.1-.19.07-.44.22-.62s0-.14,0-.2a4.77,4.77,0,0,1,.26-.72.36.36,0,0,0,0-.21.39.39,0,0,1,.1-.32.15.15,0,0,0,0-.11.6.6,0,0,1,.15-.45v.17c-.17.11-.08.28-.11.42s-.17.21-.13.36a.68.68,0,0,1-.12.42c-.09.11-.09.29-.14.43a3.22,3.22,0,0,0-.2.69s0,.1-.09.14Z"/><path class="cls-1" d="M52.8,43.57c0-.08,0-.13.1-.14v.13S52.84,43.6,52.8,43.57Z"/><path class="cls-1" d="M52.8,43.57h.1a.14.14,0,0,1-.13.11v-.1Z"/><path class="cls-1" d="M54.35,37.06h0a2.73,2.73,0,0,1,0,.57v0C54.26,37.4,54.34,37.23,54.35,37.06Z"/><path class="cls-1" d="M51.89,45.74c0-.17.12-.3.18-.45s.16-.4.25-.59a2.4,2.4,0,0,0,.17-.4.17.17,0,0,1,0,.14.3.3,0,0,1-.07.23.24.24,0,0,0-.07.23c0,.14-.19.22-.15.38a.79.79,0,0,1-.14.18l0,.14c-.05,0-.06.1-.1.14h0S51.9,45.76,51.89,45.74Z"/><path class="cls-1" d="M51.61,46.43c0-.14.09-.22.14-.34s0,0,0,0v.07c0,.16-.19.28-.18.46h-.1C51.48,46.53,51.59,46.51,51.61,46.43Z"/><path class="cls-1" d="M51.78,46.09h0a.22.22,0,0,1,.1-.22s0-.08,0-.13h0A.42.42,0,0,1,51.78,46.09Z"/><path class="cls-1" d="M52.06,45.46c0-.12.07-.14.14-.18S52.2,45.47,52.06,45.46Z"/><path class="cls-1" d="M51.93,45.74c0-.08,0-.13.1-.14S52,45.75,51.93,45.74Z"/><path class="cls-1" d="M40.51,45h0a1.23,1.23,0,0,1,.79-.17h2.26a1.92,1.92,0,0,1,.76.05c.19.08.46,0,.57.27-.07,0-.14,0-.18-.08S44.56,45,44.5,45a2.73,2.73,0,0,0-.8-.13,1.34,1.34,0,0,1-.2,0H41.59a5.47,5.47,0,0,0-.7,0C40.76,44.92,40.65,45,40.51,45Z"/><path class="cls-1" d="M48.42,50.93c0-.13.1-.18.15-.23a2.5,2.5,0,0,1,.31-.34c0,.16-.13.21-.21.3l-.11.16a.52.52,0,0,1-.11.1Z"/><path class="cls-1" d="M48.88,50.36c0-.15.15-.17.19-.28s.06-.07.09-.1a.08.08,0,0,1,0,.1C49.06,50.17,49,50.33,48.88,50.36Z"/><path class="cls-1" d="M48.28,51.1a.19.19,0,0,1,.14-.17.16.16,0,0,1,0,.13S48.32,51.11,48.28,51.1Z"/><path class="cls-1" d="M49.16,50.08V50s.09,0,.13,0-.07.09-.1.14Z"/><path class="cls-1" d="M48.45,50.92a.11.11,0,0,1,.11-.1C48.56,50.89,48.52,50.92,48.45,50.92Z"/><path class="cls-1" d="M49.72,49.31c0-.18.16-.25.22-.38s.18-.19.23-.32a.08.08,0,0,1,0,.08c0,.16-.14.26-.23.37a.3.3,0,0,0-.06.11S49.8,49.3,49.72,49.31Z"/><path class="cls-1" d="M49.3,49.91a1,1,0,0,1,.41-.56s0,0,0,0a0,0,0,0,1,0,0h0a.23.23,0,0,0-.1.12v0Z"/><path class="cls-1" d="M50.18,48.69v-.08a.1.1,0,0,0,.11-.11.23.23,0,0,1,.17-.17v.1c-.09,0-.15.1-.14.21Z"/><path class="cls-1" d="M49.72,49.39v0a.08.08,0,0,0,0,0,.26.26,0,0,1,.17-.14C49.88,49.28,49.79,49.32,49.72,49.39Z"/><path class="cls-1" d="M49.62,49.5c0-.08,0-.11.1-.12S49.68,49.49,49.62,49.5Z"/><path class="cls-1" d="M47.58,52c.09-.11.11-.28.28-.33v.05c0,.12-.15.18-.21.27Z"/><path class="cls-1" d="M53.61,40.91c0-.12,0-.24,0-.35A.85.85,0,0,1,53.61,40.91Z"/><path class="cls-1" d="M53.64,40.56l.11-.18C53.75,40.46,53.76,40.54,53.64,40.56Z"/><path class="cls-1" d="M46.56,53.27c0-.12,0-.17.14-.21A.23.23,0,0,1,46.56,53.27Z"/><path class="cls-1" d="M52.49,44.44V44.3c.13,0,.07-.19.13-.28v.28A.29.29,0,0,0,52.49,44.44Z"/><path class="cls-1" d="M54.35,37.06v.51c-.15.08-.07.25-.14.36a3.83,3.83,0,0,1,.14-1Z"/><path class="cls-1" d="M54.1,38.66h0c0-.12,0-.24.09-.35s0-.22.05-.31v.38C54.09,38.45,54.1,38.56,54.1,38.66Z"/><path class="cls-1" d="M51,47.42a.18.18,0,0,1,0-.1c.05,0,.07-.1.13-.12h0l0,.14c-.11,0-.11.09-.13.16s0,.13-.14.12S51,47.49,51,47.42Z"/><path class="cls-1" d="M51,47.42c0,.09-.15.1-.1.21s0,0,0,.07-.12.06-.11.14h0A.62.62,0,0,1,51,47.42Z"/><path class="cls-1" d="M52.63,44c0-.12.11-.15.14-.25v.14a.27.27,0,0,1-.1.11Z"/><path class="cls-1" d="M52.66,44a.27.27,0,0,1,.1-.11C52.76,44,52.73,44,52.66,44Z"/><path class="cls-1" d="M46.25,53.62c0-.12.07-.18.17-.21C46.45,53.55,46.3,53.54,46.25,53.62Z"/><path class="cls-1" d="M46.42,53.41c0-.08,0-.15.11-.14s-.05.09-.07.14Z"/><path class="cls-1" d="M51.19,47.07a.24.24,0,0,0,.14-.18h0c0,.11,0,.26-.17.31h0A.14.14,0,0,1,51.19,47.07Z"/><path class="cls-1" d="M48,51.38c.08-.09.14-.23.27-.28v.13c-.1,0-.12.07-.14.15A.11.11,0,0,1,48,51.38Z"/><path class="cls-1" d="M48,51.38h.13l-.14.14h0a.14.14,0,0,1,0-.14Z"/><path class="cls-1" d="M51.36,46.89h0c.07-.16.09-.36.28-.46,0,.09-.06.13-.1.19l0,.14A.18.18,0,0,0,51.36,46.89Z"/><path class="cls-1" d="M50.59,48.05c0-.12.09-.14.14-.21C50.74,48,50.67,48,50.59,48.05Z"/><path class="cls-1" d="M48,51.38v.14a.23.23,0,0,1-.14,0C47.88,51.48,48,51.45,48,51.38Z"/><path class="cls-1" d="M18.61,35.9h0c0,.07,0,.15-.11.13A.14.14,0,0,0,18.61,35.9Z"/><path class="cls-1" d="M22.57,35.89a3.55,3.55,0,0,1,.43.23,1.1,1.1,0,0,1,.35.68,2.88,2.88,0,0,1,.09.71c0,.08,0,.15-.1.14a.2.2,0,0,1,0-.15.75.75,0,0,0,0-.49,2.71,2.71,0,0,1,0-.29.25.25,0,0,0-.13-.23c0-.14-.09-.19-.16-.25S22.79,36,22.6,36a.09.09,0,0,1-.06-.09A.13.13,0,0,1,22.57,35.89Z"/><path class="cls-1" d="M23.31,37a.41.41,0,0,1,.06.47.51.51,0,0,0,0,.17l0,0Z"/><path class="cls-1" d="M23.58,54.22v0s-.06-.11-.14-.11v-.07S23.58,54.12,23.58,54.22Z"/><path class="cls-1" d="M20.46,31c.08-.2,0-.43.08-.62a2.8,2.8,0,0,0,.13-.64v.21a.28.28,0,0,1,0,.18,1.07,1.07,0,0,1-.11.46,1.45,1.45,0,0,0,0,.51l-.13.25C20.38,31.22,20.33,31.09,20.46,31Z"/><path class="cls-1" d="M21,30.29c-.13-.07-.09-.21-.14-.32s0,0,0-.07C20.86,30,21,30.14,21,30.29Z"/><path class="cls-1" d="M20.81,29.9V30c-.11,0-.1.07-.1.14h0v-.18S20.72,29.72,20.81,29.9Z"/><path class="cls-1" d="M22.57,35.89v0a.17.17,0,0,1-.18,0,.69.69,0,0,1-.54-.33,1.25,1.25,0,0,1-.3-.83,3,3,0,0,0-.13-1.16c0-.2,0-.4,0-.59s0-.14,0-.2-.13-.23-.07-.36.1,0,.11.1a1.94,1.94,0,0,1,0,.48,1.12,1.12,0,0,0,.13.62.37.37,0,0,1,0,.15q0,.33,0,.66a1,1,0,0,0,.1.52c.08.14.05.32.15.47a1.15,1.15,0,0,0,.35.31A1.32,1.32,0,0,0,22.57,35.89Z"/><path class="cls-1" d="M22.39,35.9a.29.29,0,0,1,.18,0l0,.1h0A.14.14,0,0,1,22.39,35.9Z"/><path class="cls-1" d="M19.65,34.88a.39.39,0,0,1,.11-.28s0,0,0,0v.14c0,.07,0,.13-.1.14Z"/><path class="cls-1" d="M18.78,35.86a.18.18,0,0,1,.14-.11C18.92,35.85,18.86,35.86,18.78,35.86Z"/><path class="cls-1" d="M19.52,35.16s0-.11.1-.14S19.61,35.15,19.52,35.16Z"/><path class="cls-1" d="M19.79,34.6h0a1.25,1.25,0,0,1,0-.55c.1-.28,0-.58.15-.82s0-.48.13-.69,0-.54.17-.77a1.08,1.08,0,0,0,.1-.61c0-.08,0-.16.1-.17a.43.43,0,0,0-.06.35v.38a.87.87,0,0,0-.14.57c0,.24-.17.44-.15.68a1.51,1.51,0,0,1,0,.3c-.08.09,0,.22-.11.31h0c-.07.15,0,.3,0,.45A1,1,0,0,0,19.79,34.6Z"/><path class="cls-1" d="M20,33.58c0-.11,0-.24.11-.31C20.07,33.38,20.12,33.51,20,33.58Z"/><path class="cls-1" d="M21.3,32.43c0,.13.13.21.11.35s-.1-.07-.14-.11v-.28Z"/><path class="cls-1" d="M21.27,32.67l.14.11V33c-.06-.08,0-.2-.14-.25Z"/><path class="cls-1" d="M27.89,41.25c.05,0,.12,0,.18,0a14,14,0,0,1,1.45,0c.2,0,.4.11.6.13a.27.27,0,0,1,.2.17c.08.16.27.27.24.49a.41.41,0,0,0,.08.35.27.27,0,0,1,0,.13c0,.88,0,1.75,0,2.62,0,1.6,0,3.2,0,4.8l0,2.54c0,.46.05.91,0,1.37a.68.68,0,0,0,.11.29c-.09.06-.12,0-.14-.07V54a2.43,2.43,0,0,0-.09-.71.59.59,0,0,1,0-.13c0-.84,0-1.69,0-2.52.14-2.16,0-4.32.07-6.48-.13-.7,0-1.42-.11-2.12,0-.15-.13-.23-.2-.35a.91.91,0,0,0-.28-.27c-.08-.06-.17,0-.26,0h-.13c-.56,0-1.12-.11-1.68-.09A.14.14,0,0,1,27.89,41.25Z"/><path class="cls-1" d="M25.48,45.18h0a.5.5,0,0,1,0,.27v7.64c0,.07,0,.17-.09.18a.59.59,0,0,1,0-.19V45.36C25.46,45.3,25.44,45.24,25.48,45.18Z"/><path class="cls-1" d="M25.48,45.18v8.09a.17.17,0,0,1,0,.18v0h0V42.78a1.22,1.22,0,0,1,.14-.65v.39h0c-.1.15,0,.33-.07.49a.33.33,0,0,1,0,.17Z"/><path class="cls-1" d="M25.47,53.45v-.18c.1-.05.06-.15.06-.23V45.82a3.43,3.43,0,0,0,0-.64c.11,0,.07.12.07.19v7.7A.52.52,0,0,1,25.47,53.45Z"/><path class="cls-1" d="M25.48,43c0-.11,0-.21,0-.31a.18.18,0,0,1,.11-.18v.07a.88.88,0,0,0,0,.28C25.56,42.93,25.57,43,25.48,43Z"/><path class="cls-1" d="M25.48,43c.07,0,.06-.11.06-.18s0-.17,0-.24c0,.2,0,.41-.11.59Z"/><path class="cls-1" d="M27.89,41.25H28c0,.13-.11.12-.2.12h-1a.47.47,0,0,0-.17,0h0a1.24,1.24,0,0,0-.7.18.62.62,0,0,1-.14.14h0l-.17.28a.68.68,0,0,1,.62-.63c.16,0,.33,0,.47-.1s.09,0,.14,0Z"/><path class="cls-1" d="M26.63,41.39c.08-.06.18,0,.27,0h.84c.1,0,.18,0,.22-.1s.33,0,.49,0c.41,0,.79.13,1.2.13Z"/><path class="cls-1" d="M25.75,41.71a.2.2,0,0,1,.14-.14A.14.14,0,0,1,25.75,41.71Z"/><path class="cls-1" d="M30.66,54.08s.07.08.14.07v.14C30.7,54.25,30.64,54.19,30.66,54.08Z"/><path class="cls-1" d="M25.16,54.25a4,4,0,0,0,.28-.59V54h0c0,.07-.11.11-.14.18v.07a.09.09,0,0,1-.13,0Z"/><path class="cls-1" d="M25.3,54.15c0-.11.06-.14.14-.18C25.47,54.09,25.38,54.12,25.3,54.15Z"/><path class="cls-1" d="M25.16,54.26a.18.18,0,0,0,.13,0v.06l-.13,0Z"/><path class="cls-1" d="M32.83,53.83V49.42a1.35,1.35,0,0,0,.06-.34c0-.06,0-.14.08-.15v.45c-.06.06,0,.14,0,.2,0,1.24,0,2.48,0,3.72A2.27,2.27,0,0,1,32.83,53.83Z"/><path class="cls-1" d="M33.67,47.77c0-.05.12,0,.18,0h.79a1.3,1.3,0,0,0,.33-.07.88.88,0,0,1,.64,0,.75.75,0,0,0,.29.06c.32,0,.64,0,1,0,.06,0,.13,0,.18,0a.48.48,0,0,1-.29,0H34a1.22,1.22,0,0,1-.27,0Z"/><path class="cls-1" d="M33.07,48.33a.43.43,0,0,1,.34-.44c.1,0,.14-.16.26-.12h0c0,.1-.09.1-.14.14s-.16.11-.23.16a.4.4,0,0,0-.19.26S33.09,48.34,33.07,48.33Z"/><path class="cls-1" d="M33,48.93c-.07.1,0,.23-.06.34s0,.11-.08.15a4.36,4.36,0,0,1,.14-1,.19.19,0,0,1,0,.18Z"/><path class="cls-1" d="M37.6,48.26c.21.27.13.58.14.88-.07-.11,0-.24,0-.35s0-.15-.1-.18Z"/><path class="cls-1" d="M36.75,47.77H37a.19.19,0,0,1,.14,0c0,.07.09,0,.14.07s.16.08.21.17a.08.08,0,0,1-.08,0h0a.55.55,0,0,0-.17-.13C37.09,47.92,36.93,47.78,36.75,47.77Z"/><path class="cls-1" d="M33.53,47.91c0-.07.1-.09.14-.14H34C33.8,47.78,33.69,47.92,33.53,47.91Z"/><path class="cls-1" d="M37.45,48.06h.08c.11,0,0,.14.07.21S37.44,48.17,37.45,48.06Z"/><path class="cls-1" d="M33,48.65v-.21a.15.15,0,0,1,.11-.11h0C33.14,48.47,33,48.54,33,48.65Z"/><path class="cls-1" d="M37.28,47.92c.1,0,.16,0,.17.13S37.32,48,37.28,47.92Z"/><path class="cls-1" d="M8.8,46.79c.07.13,0,.26,0,.39a3.47,3.47,0,0,0,0,.56,2.39,2.39,0,0,1,.05.92,17.61,17.61,0,0,0-.06,2.05.41.41,0,0,1,0,.08Z"/><path class="cls-1" d="M22.39,1.32h.07c-.19,0-.32.23-.54.22s-.14.16-.27.13v0c.07,0,.17,0,.18-.13.18,0,.28-.1.41-.18Z"/><path class="cls-1" d="M36.61,9.16a3.64,3.64,0,0,1,1,.14h-.3c-.06,0-.13,0-.17-.07s-.1,0-.15,0S36.73,9.24,36.61,9.16Z"/><path class="cls-1" d="M47.72,15.51c0,.09.06.12.11.17-.14,0-.17-.1-.22-.16s-.22-.14-.2-.3c.09,0,.12.09.17.15v0a.21.21,0,0,0,.11.1Z"/><path class="cls-1" d="M5.36,17.26v-.14c.07,0,.14-.08.14-.18l.17-.14A1.32,1.32,0,0,1,5.36,17.26Z"/><path class="cls-1" d="M25.9,8.81h0a.32.32,0,0,1,.1.32C26,9,25.89,8.94,25.9,8.81Z"/><path class="cls-1" d="M40.19,45.28a.18.18,0,0,1-.14.21C40,45.39,40.06,45.3,40.19,45.28Z"/><path class="cls-1" d="M11.88,10.88c.06,0,.09-.05.14-.07s-.18.15-.28.21C11.72,10.91,11.82,10.91,11.88,10.88Z"/><path class="cls-1" d="M51.19,47.07v.14s0,.13-.14.11S51.17,47.17,51.19,47.07Z"/><path class="cls-1" d="M16.05,53.83c-.14,0-.1-.12-.1-.21C16,53.68,16.07,53.74,16.05,53.83Z"/><path class="cls-1" d="M9.29,12.91v0c0-.06.07-.11.14-.11S9.39,12.92,9.29,12.91Z"/><path class="cls-1" d="M47.27,15.08a.16.16,0,0,1,.14.14C47.3,15.23,47.26,15.18,47.27,15.08Z"/><path class="cls-1" d="M22.85,3.17c-.08,0-.1-.07-.14-.11V3C22.76,3.05,22.86,3.07,22.85,3.17Z"/><path class="cls-1" d="M10.59,11.73c.1,0,.12-.15.24-.11l-.14.14h-.11Z"/><path class="cls-1" d="M5.54,52.82c-.08,0-.16,0-.18-.14A.19.19,0,0,1,5.54,52.82Z"/><path class="cls-1" d="M2.46,48.19c-.1,0-.11-.06-.11-.14S2.46,48.12,2.46,48.19Z"/><path class="cls-1" d="M22.56,8a.21.21,0,0,1,.15.14C22.61,8.16,22.56,8.11,22.56,8Z"/><path class="cls-1" d="M5.22,17.4c0-.1,0-.15.14-.15A.21.21,0,0,1,5.22,17.4Z"/><path class="cls-1" d="M22.29,2.61s-.12-.07-.14-.14S22.29,2.51,22.29,2.61Z"/><path class="cls-1" d="M16.37,54.39l-.15-.14C16.32,54.25,16.37,54.3,16.37,54.39Z"/><path class="cls-1" d="M11.56,11.12c0-.11.1-.09.18-.1Z"/><path class="cls-1" d="M24.88,10.18a.09.09,0,0,1,.1.1C24.91,10.29,24.87,10.26,24.88,10.18Z"/><path class="cls-1" d="M31.11,10.28s.07-.1.14-.1l0,.1Z"/><path class="cls-1" d="M23,3.31a.1.1,0,0,1-.11-.1C23,3.2,23,3.23,23,3.31Z"/><path class="cls-1" d="M6.66,53.52c-.08,0-.14,0-.14-.11S6.61,53.48,6.66,53.52Z"/><path class="cls-1" d="M3.19,49.77s-.1,0-.1-.11S3.2,49.69,3.19,49.77Z"/><path class="cls-1" d="M22.43,2.75a.32.32,0,0,1-.14-.14A.15.15,0,0,1,22.43,2.75Z"/><path class="cls-1" d="M40.29,45.14v0c-.07,0-.06.08-.1.1S40.18,45.13,40.29,45.14Z"/><path class="cls-1" d="M9.12,13c.06,0,.09,0,.13-.07s-.06.1-.13.11S9.11,13,9.12,13Z"/><path class="cls-1" d="M52.34,22.76a.11.11,0,0,1,.08.1C52.35,22.86,52.35,22.81,52.34,22.76Z"/><path class="cls-1" d="M25.44,10.5l.1.1A.08.08,0,0,1,25.44,10.5Z"/><path class="cls-1" d="M37.32,47.88c-.06,0-.13,0-.14-.07Z"/><path class="cls-1" d="M33.08,48.33l-.11.11C33,48.36,33,48.33,33.08,48.33Z"/><path class="cls-1" d="M29.22,10.78a.11.11,0,0,0,.14,0v.07C29.31,10.84,29.23,10.87,29.22,10.78Z"/><path class="cls-1" d="M47.69,15.5c-.07,0-.11,0-.11-.1A.27.27,0,0,1,47.69,15.5Z"/><path class="cls-1" d="M2.6,48.61c-.07,0-.11,0-.11-.1A.1.1,0,0,1,2.6,48.61Z"/><text class="cls-2" transform="translate(65.13 54.57)">Feedin</text></g></g></svg>