<svg xmlns="http://www.w3.org/2000/svg" width="137.655" height="74.774" viewBox="0 0 137.655 74.774"><g transform="translate(0 2.167)"><path d="M90.179,70.858A42.383,42.383,0,0,1,50.424,43.216a4.552,4.552,0,0,1-.22-2.092,2.687,2.687,0,0,1,2.423-2.313,2.949,2.949,0,0,1,3.083,1.762c.33.771.551,1.542.881,2.313C62.1,54.779,71.348,62.158,84.232,64.36A36.51,36.51,0,0,0,124.538,40.9a2.814,2.814,0,0,1,2.643-2.2,2.664,2.664,0,0,1,2.753,1.542,3.172,3.172,0,0,1,.11,2.643,41.646,41.646,0,0,1-14.316,19.272,41.205,41.205,0,0,1-25.549,8.7" transform="translate(5.078 1.75)" fill="#ef4337"/><path d="M114.32,21.163a7.261,7.261,0,0,0-7.268-7.268,7.323,7.323,0,0,0,.11,14.647,7.264,7.264,0,0,0,7.158-7.378M99.783,39.113v9.911a5.762,5.762,0,0,1-5.947,5.837A5.875,5.875,0,0,1,88,49.024V21.163a19.164,19.164,0,1,1,22.465,19.051,18.93,18.93,0,0,1-9.911-.881c-.22-.11-.44-.11-.551-.22h-.22" transform="translate(8.909 -1.965)" fill="#158dcd"/><path d="M69.452,28.54a7.323,7.323,0,1,0-.11-14.647,7.429,7.429,0,0,0-7.268,7.378,7.5,7.5,0,0,0,7.378,7.268M69.562,2A19.162,19.162,0,1,1,50.4,21.051,19.175,19.175,0,0,1,69.562,2" transform="translate(5.103 -1.964)" fill="#158dcd"/><path d="M38.336,25.79H26.993v.881c0,2.863.11,5.726-.11,8.59a5.907,5.907,0,0,1-11.673.33c0-.33-.11-.661-.11-.991V7.95a5.94,5.94,0,0,1,3.854-5.506,6.014,6.014,0,0,1,6.5,1.542A5.992,5.992,0,0,1,26.993,8.17v7.488H38.446V7.95A5.965,5.965,0,0,1,43.622,2a5.866,5.866,0,0,1,6.5,4.735,5.362,5.362,0,0,1,.11,1.321V34.49a5.885,5.885,0,0,1-5.616,6.057A5.971,5.971,0,0,1,38.446,34.6V25.79Z" transform="translate(1.529 -1.967)" fill="#158dcd"/><path d="M0,21.265V8.16A6.077,6.077,0,0,1,5.176,2.1a5.879,5.879,0,0,1,6.5,4.956,3.4,3.4,0,0,1,.11,1.1V34.59a5.829,5.829,0,0,1-5.506,5.947A6.032,6.032,0,0,1,0,35.691c0-.551,0-.881,0-1.321v-13.1" transform="translate(0 -1.957)" fill="#158dcd"/></g><path d="M122.3,6.607A3.313,3.313,0,0,1,119,3.3h0a3.3,3.3,0,1,1,6.607,0h0A3.313,3.313,0,0,1,122.3,6.607Zm0-.33A2.961,2.961,0,0,0,125.277,3.3h0A2.894,2.894,0,0,0,122.3.33,2.961,2.961,0,0,0,119.33,3.3h0A2.961,2.961,0,0,0,122.3,6.277Zm-1.321-1.652V1.982a.474.474,0,0,1,.441-.44h1.211c.771,0,1.432.33,1.432,1.1a.885.885,0,0,1-.661.991l.551.661a.4.4,0,0,1,.11.33.474.474,0,0,1-.44.44c-.11,0-.22-.11-.33-.22l-.991-.991h-.551v.771a.474.474,0,0,1-.441.44C121.092,5.066,120.982,4.845,120.982,4.625Zm.771-1.432h.771a.5.5,0,0,0,.551-.44c0-.33-.22-.44-.551-.44h-.771Z" transform="translate(12.048)" fill="#168dcd"/></svg>