<svg xmlns="http://www.w3.org/2000/svg" width="633.001" height="470.589" viewBox="0 0 633.001 470.589"><g transform="translate(-57 -46)"><path d="M816.12,534.723c3.57,1.837,6.907,1.836,10.419,3.265,3.485,1.419,4.394,7.3,7.375,8.005-13.817,1.453-27.425,4.533-41.41,3,1.211-4.934-.964-9.984,1.949-14.615C802.241,527.013,807.3,530.187,816.12,534.723ZM757.775,195.584c.18,3.469.437,4.848,2.9,7.086,1.93,1.753,3.015-.861,3.2,2.564.106,1.976-1.947,2.967-2.742,4.564-3.961,7.955-1.227,18.23.719,26.155,3.947,16.069,13.588,33.54,6.794,49.873-.685,1.647-1.235,5.217-2.558,6.478q-2.617-1.383-3.822,1.208l-1.446,1.625c-3.053,2.823-6.3,3.872-10.354,2.372-8.17-3.024-9.521-12.513-9.563-19.983-.048-8.233,1.705-16.856,3.58-24.876.9-3.862,2.293-8.345-.295-11.989-2.444-3.441-5.464-1.5-7.87-3.038-2.562-1.635,1.128-13.652-1.4-16.839-4.407-5.564-5.943,8.047-6.013,10.827-.077,3.045.088,6.6,1.524,9.359,1.127,2.168,4.8,4.072,5.427,6.261.589,2.046-1.994,7.361-2.393,9.556a80.639,80.639,0,0,0-1,10.268c-.6,11.583,1.222,23.774,9.2,32.763,3.5,3.942,9.421,8.418,14.964,7.7,4.893-.634,9.81-3.276,14.373-5.071,3.069,11.79,7.679,23.207,12.59,34.341,4.269,9.678,8.282,19.59,12.767,29.15,9.451,20.149,24.792,37.314,36.779,55.945a127.6,127.6,0,0,1,19.618,59.861c.368,5.021-1.1,11.892.071,16.587,1.1,4.4,2.059,6.313,1.341,11.113-.8,5.334-2.344,10.253-1.68,15.681.589,4.815,2.884,11.99.376,16.451-3.013-3.21-6.019-4.721-7.847-9-1.856-4.345-1.125-7.916-5.331-9.826-3.593-1.632-6.171-1.276-9.341-3.947a29.659,29.659,0,0,1-8.374-11.854,35.063,35.063,0,0,1-.969-24.658c2.2-6.526,8.609-18.743,17.6-14.37-1.336-2.743-2.224-5.725-4.772-7.507-2.219-1.552-5.536-2.058-8.014-3.823a60.046,60.046,0,0,0-9-5.522,26.477,26.477,0,0,0-3.577-1.224,16.719,16.719,0,0,0-4.492-.157c-5.311-.8-11.232-3.359-14.475-7.212a56.888,56.888,0,0,1-6.462-8.925c-2.419-4.306-3.35-4.046-7.992-5.069-6.745-1.485-11.025-2.5-16.42-7.5-5.984-5.55-10.363-12.466-14.741-19.276-2.565-3.99-4.82-4.234-9-5.827-2.431-.925-5.8-5.072-8.01-5.379-.639-.089-3.7,1.3-4.733,1.47a19.12,19.12,0,0,1-5.308.052c-4.252-.446-8.01-1.572-10.869-4.9-8.8-10.246-11.489-34.4.565-43.114,2.3-1.66,5.5-2.425,6.851-5.183,1.554-3.165.847-9.127.722-12.464a106.82,106.82,0,0,0-.889-11.707,14.809,14.809,0,0,0-1.161-4.179c-1.4-3.426-1.806-2.928-4.683-3.751-4.1-1.174-5.96-.712-8.476-4.608a22.027,22.027,0,0,1-3.128-10.7c-.17-3.428,1.376-6.6.085-9.7-1.89-4.543-5.394-7.982-6.931-12.954-1.3-4.187-4.639-13.533-1.343-17.4,1.477-1.731,4.1-1.985,5.565-4.3,2.552-4.034,3.582-6.24,7.369-9.42,2.794-2.346,5.477-5.842,8.845-7.276,3.312-1.411,6.438.86,9.127.237,2.931-.68,2.16-7.477,2.974-10.538a30.021,30.021,0,0,1,6.3-11.651c.951-1.076,2.137-1.283,2.877-2.713,1-1.937.606-4.7,1.388-6.814.934-2.531,3.2-6.887,5.735-8.274C749.92,186.559,752.143,197,757.775,195.584Zm-17.324,299.7c1.045,2.814.467,7.337,1.669,9.76.958,1.93,4.8,3.154,6.687,5.455,4.036,4.928,5.574,12.844,4.109,18.929-4.939-1.219-8.242-2-13.264-1.357A268.039,268.039,0,0,1,740.451,495.283ZM679.4,503.595a16.752,16.752,0,0,1,4.542,13.174,34.926,34.926,0,0,1-1.244,6c-.577,1.88-3.446,5.4-2.333,6.408-3.135-.187-6.819.177-9.078-1.85-2.028-1.82-3.446-6.51-4.269-9q2.374-4.739,4.75-9.478c1.031,1.635,4.057,5.905,6.556,4.539C680.21,512.36,678.69,505.674,679.4,503.595Zm117.953-29.211c3.846,3.574,5.161,10.017,4.964,15.019.063,6.893-2.323,20.691-11.285,21.154-7.2.372-14.883-9.943-15.693-16.318-.888-6.989,1.424-23.7,10.586-25.14C789.3,468.569,794.924,472.123,797.355,474.383ZM732.981,483.3a116.486,116.486,0,0,1-.13,13.37c-.3,3.765.7,8.212-.145,11.817-5.328-5.961-12.347-12.452-12.134-21.214C720.774,478.986,727.636,479.691,732.981,483.3Zm-53.7-99.585,4.46,4.889c.127,6.868-.008,13.659,2.083,20.282,2.2,6.969,5.888,13.684,9.538,19.985,7.1,12.246,8.788,23.8,9.643,37.8-13.345-5.979-20.623-26.409-25.026-39.189-2.331-6.765-4.749-13.537-6.948-20.344-2.169-6.714-6-15.486-3.478-22.558C674.4,388.142,676.5,389.979,679.284,383.712Zm83.159,48.206c6.516,5.182,7.009,13.113,9.348,20.36a45.144,45.144,0,0,0-4.049,3.254c-.752.759-2.526,3.865-3.1,4.184-2.308,1.276-4.325-.362-6.581-2.421-4.44-4.055-7.212-12.661-7-18.612C751.3,431.732,756.212,426.962,762.443,431.918Zm91.174-30.453c8.47,4.852,6.26,18.277,5.2,25.849-.663,4.746.806,9.575.7,14.09-.114,5.1-2.758,4.04-4.45,7.2-1.469-3.836-4.162-8.454-4.775-12.476l-.974-2.545a1.889,1.889,0,0,0,1.313-1.726,49.128,49.128,0,0,0,.45-5.924A198.891,198.891,0,0,1,853.617,401.465ZM724.57,410.531c-.937,3.574-1.624,10.3-6.891,8.228-4.156-1.636-5.159-8.242-5.169-11.923-.007-3.022.49-8.575,4.718-8.756C722.418,397.856,724.271,407.04,724.57,410.531Zm-40.09-99.514c-3.5,5.611-5.935,13.9-4.28,20.544,1.737,6.977,7.142,8.666,11.949,3.532,3.967,6.246-4.166,17.369-11.437,11.43-1.572-1.283-2.627-3.739-4.57-4.539-1.593-.655-3,.235-4.632-.134-5-1.137-6.894-6.052-8.86-10.177.54-3.363,1.111-6.7,1.839-10.026.387-1.77.79-3.538,1.182-5.307.666-3.006.459-2.631,2.639-4.121C674.058,308.291,678.012,308.1,684.479,311.017Zm2.968,3.029,4.2,9.351c-2.291-.552-4.787,6.323-6.283,7.663C684.669,325.338,686.345,319.61,687.447,314.046Zm-2.33-31.938c3.8,1.6,4.558,8.543,4.693,11.9-1.045,3.535-2.022,8.057-6.44,5.568-2.948-1.662-4.212-7.135-4.313-10.125C678.93,285.7,680.338,280.094,685.117,282.107Z" transform="translate(-183.893 -43.623)" fill="#12c97a" fill-rule="evenodd"/><g transform="translate(57 46)"><path d="M415.743,111.283c-1.565.7,1.423,5.965,1.888,6.93,1.214,2.519,2.694,7.726,5.567,6.292l-7.455-13.223M48.036,416.533c-2.095-.929-4.9,7.062-5.269,8.685-1.041,4.523-.17,7.561,3.451,10.485-1.5-6.464.3-12.9,1.819-19.17M531.57,74.346c-2.605-3.382-6.368-9.66-11.631-6.336-2.079,1.313-3.678,5.523-4.96,7.579a78.069,78.069,0,0,0-5.494,9.812c2.6-1.07,4.136-3.4,6.463-4.667,1.59-.868,3.04-.952,4.571-1.585,3.386-1.4,8.024-2.769,11.051-4.8M106.842,407.524c1.409,5.517,2.713,11.017,3.8,16.6.737,3.781,3.216,9.123,1.923,12.823l10.051-1.351a62.644,62.644,0,0,1-4.531-17.8c-.452-3.74.127-4.806-2.69-6.886-2.182-1.611-6.023-2.386-8.556-3.389M88.311,196.37c6.441,6.448,12.075,13.8,18.92,19.8,3.557,3.122,7.2,6.156,10.854,9.167,3.1,2.553,8.018,8.181,12.047,8.962.5-2.056,1.675-5.426,1.36-7.535q1.763-1.824-1.095-2.665-1.749-1.344-3.46-2.735c-4.478-3.737-8.715-7.8-12.958-11.8a131.069,131.069,0,0,1-11.781-12.62c-1.929-2.364-3.057-4.735-6.221-5.43-3.758-.825-5.009,2.105-7.666,4.846m128.738,239.4c-.182,3.5,8.434,5.65,11.052,5.861,7.077.568,11.672-2.535,14.107-8.655,5.07-12.737,13.186-23.959,16.581-37.353,1.007-3.974,1.879-5.783-1.71-7.808-1.473-.83-5.308-2.682-6.909-1.625-1.524,1.006-2.773,5.534-3.753,7.18-1.556,2.614-3.326,5.1-5.015,7.629-7.9,11.832-15.868,23.354-24.354,34.772M114.794,260.358l33.08,18.915c1.38-4.762,2.014-9.728,3.307-14.528.921-3.412,3.289-8.23,3.139-11.225-.224-4.471-3.687-10.407-5.2-14.67l-5.645-15.936c-2.548,2.437-5.482,4.139-5.513,7.313-.017,1.815,1.192,2.947.491,5-.492,1.442-2.586,3.357-3.6,4.429-2.953,3.134-2.861,3.29-5.964.36l-14.1,20.338m36.394,88.688a109.952,109.952,0,0,1,2.107-13.4c.63-2.747,3.292-8.388,2.416-10.976-.643-1.9-4.468-3.556-5.957-4.59-4.309-2.994-8.517-6.143-12.783-9.2-3.741-2.679-7.538-5.294-11.208-8.069-3.4-2.57-5.966-5.766-10.08-6.868-3.6-.964-8.167-.335-11.9-.459-5-.166-10.084-.221-15.083.023-16.775.821-35.567-.352-51.705,4.327-7.627,2.211-12.544,3.513-16.808,10.737A187.054,187.054,0,0,0,7.459,336.639c-.524,1.318-1.707,3.219-1.663,4.659.088,2.75,1.072,2.116,3.709,3.685,2.85,1.694,5.643,3.705,8.365,5.613a150.855,150.855,0,0,0,15.306,9.239c5.827,3.07,11.7,5.822,17.623,8.914,3.756,1.959,7.643,3.561,11.326,5.713,4,2.338,8.477,3,12.788,4.829,13.349,5.652,26.269,10.876,39.369,17.324,12.787,6.294,25.72,11.613,38.8,17.165,16.909,7.175,33.65,13.811,51.284,18.773,1.291.363,4.006,1.645,5.281,1.586,2.726-.125,3.344-2.118,4.982-4.363,3.219-4.412,6.319-8.909,9.4-13.418,6.678-9.783,13.207-19.675,20.4-29.1-20.372-5.684-39.262-16.172-57.171-26.936-.763,2.143-1.37,6.89-3.814,7.606-3.022.887-5.218-3.3-6.572-5.226-1.282,3.192-3.476,13.959-7.579,13.724-5.669-.326-4.668-9.249-5.375-12.79-3.125,4.154-6.747,8.93-10.994,2.542-2.944-4.428-2.617-12.2-1.733-17.137m236.041-50.885c-2.627-.821-5.237-1.551-7.806-2.471a2.4,2.4,0,0,0-3.365-1.3,8.7,8.7,0,0,1-3.747-.478,141.857,141.857,0,0,1-16.44-3.655c-4.567-1.378-8.873-2.6-13.513-3.631-2.756-.614-15.028-4.087-16.842-2.043-.558.629.4,8.251.267,9.61-.24,2.416-.359,6.393-1.889,8.4-.587.772-2.822,1.627-3.63,2.228-2.625,1.952-5.05,4.377-7.661,6.4-5.7,4.418-11.253,9-17.069,13.277-4.111,3.02-8.816,4.515-13.382,6.71,3.249.581,9.606-2.545,12.885-3.515,4.247-1.256,8.415-2.652,12.759-3.8,8.907-2.359,18.032-5.021,27.084-7.532,5.559-1.542,11.432-3.148,16.821-5.19,2.391-.906,4.267-3.012,5.847-.868,1.26,1.711-.265,3.962-1.233,5.23-5.651,7.4-21,9.195-29.211,12.263-9.27,3.462-18.417,7.108-27.962,9.54-11.147,2.84-23.248,5.014-33.635,10-8.618,4.138-18.381,5.742-27.544,8.171-8.605,2.281-18.81,2.737-26.943,6.609,3.513,2.774,8.711,4.221,12.806,6.087,5.012,2.283,10.077,4.366,15.035,6.786,2.11,1.03,4.318,2.561,6.453,3.416,2.71,1.087,2.363.514,5.162.293,4.357-.343,10.236-1.126,13.776,2.047,4.269,3.827,1.564,8.019,2.191,12.7.43,3.21.649,2.695,4.213,3.185,3.281.451,6.558.976,9.794,1.678,4,.866,8.084,2.319,11.975,3.571,6.034,1.942,6.69,4.228,12.98,1.721,17.913-7.139,36.44-13.008,54.467-19.763,8.3-3.111,16.643-9.113,24.459-13.622,10.028-5.785,19.094-12.044,25.884-21.676,3.095-4.39,6.322-11.806,5.671-17.256-.581-4.874-4.187-10.292-6.512-14.483-2.969-5.351-5.582-7.427-10.124-10.982-3.157-2.471-8.035-7.689-12.017-7.657M187.737,339.58c.278,2.691-1.295,13.782.263,15.488,2.664,2.918,9.2-.487,11.725-1.357,8.212-2.823,17.756-2.205,26.118-4.441,8.112-2.169,16.046-4.978,24.2-7.187,4.376-1.186,8.529-3.044,12.833-4.455,4.792-1.572,10.141-2.433,14.584-4.8-.55-1.367-19.777,1.921-21.962,2.1-7.59.616-14.735-.554-22.216-1.93-16.5-3.035-32.046-10.231-48.333-14.9.763,7.511,21.9,9.007,19.383,17.723-.7,2.43-10.159,6.4-13.286,4.877-6.354-3.1,1.419-7.458,4.586-8.545a119.771,119.771,0,0,1-13.835-9.168c-4.711-3.646-6.738-8.762-9.263-14.04-5.278-11.036-17.768-17.456-27.47-24.326-10.491-7.429-21.661-13.744-32.146-21.156-1.871-1.323-2.745-.716-3.4-3.132-.7-2.587,1.881-5.875,3.135-7.847a84.061,84.061,0,0,1,11.491-14.441c-5.616-3.822-11.683-6.978-16.95-11.3-5.338-4.386-9.756-9.739-14.466-14.76-7.524,16.371-18.068,31.555-26.349,47.609-3.271,6.341-5,15.932-.026,22.077,5.235,6.467,15,3.95,22.385,4.292a94.851,94.851,0,0,1,22.6,3.457c3.48,1,6.648.705,9.992,2.313,3.923,1.884,7.781,4.3,11.512,6.539,7.339,4.393,14.2,9.892,21.126,14.9,2.843,2.056,18.257,14.243,6.065,12.361,0,11.4-2,23.084-3.047,34.433a42.216,42.216,0,0,0,6.7-11.11c1.04-2.468,1.054-8.766,4.521-7.273,5.216,2.245,1.153,18.744,1.153,23.207a60.633,60.633,0,0,0,3.128-7.833c.7-2,1.586-7.689,3.056-9.034,4.923-4.5,5.613,7.773,5.613,10.334,1.595-4.524,1.888-9.353,2.048-14.134.063-1.886-.4-4.82.073-6.645.792-3.041.7-2.843,3.883-4.128q.282,3.113.563,6.228m152.091,96.243c.391,3.859,1.884,6.652-.653,10.122,4.9-.351,9.732-.782,14.644-.657,3.944.1,9.842,1,13.521-.687,1.5-.688,2.009.5,2.78-.818.732-1.249-.987-5.4-1.194-6.424-.992-4.936-1.475-10-2.376-14.966-.618-3.414-2.436-10.127-.151-13.353,3.361-4.746,4.84,1.94,5.716,4.909,2.884,9.781,2.717,19.069,2.717,29.119,4.343,0,10.049-1.9,14.238-3.041,5.778-1.579,11.948-3.2,17.546-5.262,5.28-1.944,9.93-4.78,13.268-9.345,2.5-3.415,8.033-11.84,6.658-15.616-1.686-4.629-9.726-7.813-14.02-8.322-5.571-.661-11.28.458-16.981.928-6.1.5-12.023,1.862-18.06,2.516-5.863.634-13.733,2.59-19.429,1.125-.148,2.343,1.811,5.493,2.494,7.879.895,3.128,1.694,6.284,2.42,9.455.778,3.394,5.593,15.6,1.214,18.035-5.14,2.863-7.593-9.4-8.233-12.387-1.526-7.127-2.838-14.247-1.24-21.411-6.56-1.182-14.473.574-21.239,1.04,2.521,8.879,4.147,18.177,6.362,27.163m-282.57,3.86c2.281,1.015,5.416.47,7.9.665,3.875.3,7.79,1,11.691.88,5.953-.189,12.193-.942,18.15-1.623a42.861,42.861,0,0,1-5.884-18.956c-.153-2.523-1.492-18.172,3.164-17.5,2.246.323,1.769,13.685,2.205,16.147a109.312,109.312,0,0,0,2.446,10.723c.722,2.535,3.179,6.333,2.549,9.075l9.012-1.46a47.586,47.586,0,0,1-4.916-14.024c-.423-2.507-.153-5.627-.973-8.008-.517-1.5-1.695-2.912-1.852-4.171-.182-1.452,1.409-5.019.82-6.309-.578-1.268-4.6-2.441-6.012-3.14-3.886-1.925-6.164-2.413-10.52-1.306-8.4,2.135-21.639,3.65-27.9,9.409-6.207,5.705-8.466,24.95.128,29.6m366.93-278.124c2.326-.263,4.628-.425,6.966-.545a151.468,151.468,0,0,1-9.35-15c-1.388-2.533-2.7-5.107-3.953-7.709-1.441-2.985-1.4-4.934-4.531-5.528-4.334-.821-10.129.82-14.588.633-3.444-.145-11.178-3.386-13.952-2.211,2.53,5.185.5,13.253.6,18.834a84,84,0,0,1-1.568,16.39c5.91,0,13.308-2.04,19.273-2.952,6.946-1.061,14.028-1.116,21.1-1.911M330.368,446.5a51.966,51.966,0,0,1,6.739-.382c-5.178-8.393-9.087-17.78-9.131-27.781-.006-1.308,1.568-8.826,1.047-9.45-1.015-1.217-5.223-.256-6.377-.141-4.715.471-9.957.436-14.4,2.134-3.063,1.173-3.1.464-4.315,4.07a22.483,22.483,0,0,0-1.253,6.81,35.267,35.267,0,0,0,3.283,13.906c1.779,3.884,4.588,8.049,8.453,10.134,4.453,2.4,10.727.974,15.948.7m47.075-311.82c-.9-3.344-.508-2.589-3.485-3-.627-.087-7.446.054-7.838.454-.451.461-.279,7.269-.338,8.049-.2,2.671-.5,5.334-.792,8-1.18,10.808-3.421,21.27-5.1,31.988,4.15-2.575,10.148.936,13.693-1.852,2.8-2.2,2.382-9.251,2.591-12.361.7-10.409.938-20.844,1.269-31.271M527.3,122.063l-1.12,1.8c1.449.929,9.932-8.521,11.819-10.212,2.512-2.251,6.489-5.258,7.622-8.549,1.317-3.825.022-9.864-.3-13.819-.228-2.831.256-6.746-2.051-8.723-2.124-1.82-7.357-1.771-9.872-1.382-7.549,1.169-12.088,7.376-15.9,13.291,3.869-.476,17.509-6.7,19.093-3.335,2.3,4.893-12.023,9.267-13.44,13.56,2.932,1.036,9.4-2.981,7.581,3.7a4.869,4.869,0,0,1-1.624,2.323q-2.009.711-.951,2.681c-.6,2.618-.477,5.93-.86,8.665m86.883,236.923c.04,1.586.186,3.1,1.483,4.224,2.876-9.108,3.774-18.22,4.966-27.691s2.461-19.182,2.65-28.647a185.158,185.158,0,0,0-2.506-32.628c-1.342-8.193-2.381-18.276-7.266-25.249,2.774,18.072,1.912,35.205.041,53.34-.993,9.629-2.395,19.184-3.038,28.855-.17,2.554-.225,5.139-.446,7.689-.131,1.5-1.618,4.348-1.632,5.086-.073,4.094,4.31,11.262,5.749,15.021m-147.6-14.075c2.307,5.308,4.93,10.537,6.314,16.183,1.46,5.961.832,11.512,1.065,17.553.388,10.021-.416,19.984-.275,30.02.12,8.554-.208,16.893-.123,25.356.054,5.354-.239,10.687-.221,16.038,0-.016.213,4.8-.155,5.047-1.652,1.1-3.458-.461-3.964-1.962l-4.9,5.542c2.568-.645,5.725-1.992,8.364-2.111a4.341,4.341,0,0,1,3.019-.031,5.474,5.474,0,0,1,2.212,2.517c6.916,1.473,11.066-4.682,12.308-10.186,2.694-11.941,1.723-23.73,1.528-35.784-.423-26.189,3.737-52.221,3.344-78.413-.076-5.068-.27-10.077.492-15.136,1.414-9.4,3.5-.8,3.836,3.64,1.007,13.327,2.76,27.079,1.8,40.488-.868,12.083-.788,24.277-1.389,36.4-.64,12.881-1.671,25.489-1.077,38.38,3.459-.442,14.585-1.1,15.744,3.758,1.01,4.238-3.056,2.67-5.168,2.491-3.425-.29-6.77.513-10.514-.158.276,5.7,1.062,13.345-4.032,17.194-2.506,1.893-6.655,3.6-9.583,4.719-2.869,1.095-7.728,3.519-10.717,3.386-2.115-.094-2.93-1.233-5.25-1.051-3.443.271-6.423,2.574-10.073.671-6.922-3.608-3.519-14.1.851-18.307a11.5,11.5,0,0,1,3.905-2.8c.719-.251,3.726.052,4.073-.325,1.28-1.389-.318-9.516-.489-11.058-.9-8.09-1.875-16.353-2.244-24.479-.346-7.641-.731-15.3-.994-22.94-.057-1.664.681-5.086-.016-6.541-1.159-2.418-6.246-3.957-8.453-5.083,1.967,19.263,4.856,39.967-2.263,58.315-1.414,3.643-3,8.844-6.583,10.87-3.378,1.911-11.333,1.641-15.381,1.868-4.352.244-8.613-.772-11.011-4.859a5.637,5.637,0,0,1,3.118-8.476c2.32-.839,2.772-.3,4.8.7a7.347,7.347,0,0,1,.929,2.308h1.562c2.117.944,10.578,2,12.9.494,2.7-1.744,3.283-6.462,4.432-9.265,2.135-5.208,2.7-9.434,3.476-15,1.213-8.713-.015-18.816.008-27.894q.009-3.835.021-7.67c0-3.861.341-3.838-1.862-6.618-3.32-4.189-7.106-8.471-10.66-12.487,1.925,11.733,1.137,24.087.373,35.776-.429,6.568-1.318,13.255-1.725,19.736-.123,1.947,1.276,7.316-.985,8.177-2.295.873-5.15-3.2-6.077-4.671-5.058,10.094-11.1,19.83-21.532,25.052-5.366,2.685-10.954,3.9-16.81,4.949-5.425.976-10.439,2.756-15.788,3.6a166.113,166.113,0,0,1-32.408,1.6c-10.51-.358-20.574,1.583-31.051-.861-4.089-.953-8.221-2.7-11.016-5.835-1.525-1.708-2.2-4.4-3.738-5.971q-.52-3.056-3.6-1.886a24.6,24.6,0,0,1-3.85-.128c-10.508-.552-22.186.063-32.369-2.938-3.865-1.139-8.18-3.016-6.251-7.853,1.685-4.228,6.336-2.944,10.149-2.574,11.077,1.073,21.981,3.031,33.218,4.016-.361-5.871-.05-11.861,2.251-17.353a121.759,121.759,0,0,1-23.294-4.943q-3.436-1.153-6.843-2.389c-3.745-1.354-2.967-1.7-5.136.659-2.726,2.969-4.394,9.165-6.369,12.753-2.222,4.038-4.354,8.029-6.227,12.244-1.772,3.989-3.094,9.331-5.795,12.769-5.94,7.561-19.659,8.216-27.733,5.246-3.955-1.455-5.382-1.684-7.779-5.228-2.626-3.883-3.279-4.11-8.116-4.637a104.6,104.6,0,0,1-25.165-6.173c-8.646-3.2-17.524-5.692-26.145-9.145-8.07-3.233-15.87-6.485-24.22-9.009-.991,6.3,3.115,13.4,3.115,19.893,4.859-.486,9.389-.912,14.205-1.685,1.717-.276,12.537-2.7,13.592-1.271,4.4,5.972-15.622,8.781-18.751,9.57-10.028,2.531-20.255,4.882-30.346,6.838-10.3,2-20.342,3.985-30.8,4.343-17.694.607-42.1-.416-41.255-23.663.331-9.109,4.084-18.995,11.265-24.936,4.468-3.7,10.04-5.728,15.5-7.4,2.018-.618,12.65-2.063,12.973-2.858-3-2.147-8.116-2.707-11.67-4.361-3.389-1.578-6.964-2.166-10.433-3.756a191.438,191.438,0,0,1-20.034-10.991,153.535,153.535,0,0,1-14.942-10.291A77.937,77.937,0,0,1,7.4,355.46c-1.56-1.765-4.321-3.329-5.57-4.849-4.387-5.339.24-15.963,2.108-22.179,2.729-9.086,6.371-18.753,11.742-26.624,4.939-7.238,10.446-12.114,19.306-13.81a181.611,181.611,0,0,1,24.764-2.5c-1.405-5.346-3.384-9.119-2.882-14.982.474-5.531,3.266-11.026,5.457-16.062,4.074-9.363,7.918-18.527,13.491-27.147,3.063-4.737,6.5-9.235,9.846-13.774.539-.732,3.89-4.08,3.762-5.023s-3.492-3.791-4.008-4.445c-3.46-4.393-5.852-9.122-1.789-13.824,2.118-2.451,8.347-7.4,11.345-4.287,3.242-6.55,8.911-11.016,13.326-16.588,5.5-6.948,10.758-14,15.91-21.28,5.129-7.246,9.32-15.031,16.119-20.871,7.577-6.508,14.71-5.945,24.016-3.163.531-3.59,1.27-3.112,4.742-4.311,2.628-.907,5.182-1.984,7.767-3.008,2.746-1.09,5.526-1.708,8.334-2.565,3.74-1.141,4.3-.768,4.91-5.625.735-5.869-1.776-12.074-3.4-17.6-.8-2.728-1.355-6.123-3.154-7.958-1.627-1.659-4.512-2.415-6.292-4.25-15.335-15.808-15.577-49.561.758-64.253,3.175-2.856,5.793-6.7,9.745-8.626A67.832,67.832,0,0,1,202.6,1.025c9.851-2.056,20.9-1.4,28.686,5.522,3.84,3.415,6.182,8.843,7.492,13.692,1.251,4.632.983,12.46-3.758,5.3-2.99-4.515-5.587-9.119-10.647-11.352A31.884,31.884,0,0,0,209.4,11.54c-11.611,1-21.021,4.407-29.058,13-8.887,9.5-9.339,24.672-7.423,36.755,1.688-3.574,2.831-9.232,7.564-9.915,3.944-.569,10.162,4.467,8.045,8.8-9.605-2.448-12.414,12.076-4.109,12.951,2.515.265,5.7-4.212,8.015-3.169,4.33,1.948-1.473,8.663-2.617,10.874l-1.824,1.123q.9,2.087,1.814,4.167c.74,1.768,1.445,3.54,2.1,5.344a101.6,101.6,0,0,1,4.178,13.487c.969,4.649,1.473,10.078-.819,14.446-2.519,4.8-4.891,4.21-6.827-.357-5.065,3.193-10.159,6.6-16.113,7.857,6.244,10.476,14.328,19.482,26.482,22.778,10.3,2.793,23.269,2.691,33.1-1.93,10.2-4.795,15.812-16,14.6-27.149-.393-3.611-2.5-16.152,2.5-7.08,2.742,4.976,2.943,13.046,2.318,18.5-2.99,26.1-29.445,35.862-52.258,29.58-11.7-3.223-20.136-11.852-26.414-22.008-1.464-2.368-2.8-4.813-4.113-7.27a20.855,20.855,0,0,0-1.681-3.214c-2.735-3.375-.048-1.494-2.951-1.917-4.493-.653-11.563,2.788-14.9,5.514-9.052,7.4-14.066,19.227-21.014,28.549-7.4,9.923-16.791,18.755-26.214,26.673l31.977,32.753c2.2-2.437,6.388-8.008,6.973-11.267.343-1.91-1.2-8.2,3.542-5.4,3.2,1.89,4.414,9.977,5.411,13.285,1.542,5.11,4.138,9.922,5.816,14.979,3.113,9.383,6.948,18.683,10.136,28.133,1.3,3.843,4.994,8.611,1.441,11.865-5.4,4.943-7-4.789-8.434-8.507-1.991,2.768-1.733,7.256-2.759,10.485-.627,1.972-2.535,5.042-2.472,6.985.108,3.322,3.124,4.311,5.842,6.168a159.3,159.3,0,0,1,14.877,10.849,26.836,26.836,0,0,1,5.12,5.535c1.231,1.885,1.6,6.134,2.962,7.446,1.78,1.714,8.359.519,11.833.893,5.8.624,11.681,2.687,17.313,4.17,9.966,2.623,20.217,6.4,30.655,7.8,10.251,1.376,19.87.693,30.086-1.14,5.581-1,11.574-2.2,16.667-4.882,5.866-3.09,11.067-8.035,16.546-11.769,2.452-1.671,4.96-3.251,7.468-4.836,3.351-2.117,2.475-1.659,2.693-5.022.253-3.893,1.878-11.328-.722-14.793-1.086-1.446-4.418-2.5-5.987-3.556a65.251,65.251,0,0,0-6.77-4.542c-2.668-1.345-2.747-.28-3.985-3.579-1.125-3-1.868-6.134-2.9-9.161-4.726-13.846-5.946-27.908-7.9-42.365-.91-6.715-3.142-15.853-.614-22.395,3.515-9.1,6.457,3.626,7.2,6.887,3.356-5.748,5.284-12.141,8.775-17.815a32.817,32.817,0,0,0,4.178-8.625,10.531,10.531,0,0,1,1.632-3.907c2.077-2.579,2.384-1.109,4.544-1.173,6.794-.2,13.473-.024,20.273.29,3.758.174,7.517.266,11.3.252,1.844-.007,3.71-.1,5.553.009a17.414,17.414,0,0,1,2.964.222q3.044,1.421,2.324-2.449c1.767-3.7,1.649-9.592,2.274-13.624q.944-6.088,1.74-12.2c.281-2.178,2.641-10.394,1.389-12.183-1.242-1.774-7.712-1.376-9.626-1.694-12.727-2.116-24.565-7.36-36.469-11.657-5.861-2.115-11.423-4.971-17.044-7.565-2.926-1.351-5.691-4.133-8.776-5-3.892-1.093-9.059.655-12.939,1.313a192.635,192.635,0,0,1-22.021,2.76c-2.65.144-7.69.887-10.081-.934-4.8-3.657.666-5.8,3.8-6.258,13.884-2.042,27.725-3.215,41.714-4.068.656-.04,3.058-.528,3.858-.276,1.822.575,1.087,1.242,2.179,1.836a31.162,31.162,0,0,0,6.9,2.59c7.327,1.946,14.7,5.21,22.055,7.776,13.227,4.616,29.03,11.975,42.258,10.681a44.776,44.776,0,0,1,9.362-.4c4,.388,6.33,2.438,9.4,3.034,4.114.8,10,.2,14.33.352,4.13.146,8.262.338,12.393.338a108.607,108.607,0,0,1-7.877-21.98c-1.112-4.273-2.785-8.154-2.061-12.654a22.2,22.2,0,0,1,2.117-6.038c1.4-2.9,1.794-2.29,2.29-5.5.682-4.414-.3-9.069.24-13.5.55-4.544,3.984-8.594,4.366-12.938.2-2.311-1.089-4.2-.7-6.691a18.354,18.354,0,0,1,2.852-6.445,20.414,20.414,0,0,1,10.792-8.637c3.751-1.432,8.54-2.746,12.331-.427,3.868,2.366,3.588,7.129,5.441,10.6,3.985,7.472,13.178,14.15,20.507,17.966,6.733,3.506,13.985,5.72,21.2,8.006,4.393,1.391,8.911,2.384,13.228,3.973,3.108,1.145,8.176,3.921,11.341,2.235,2.758-1.47,5.976-5.956,8.705-8.039,3.194-2.437,7.454-4.815,11.476-2.692s3.691,9.943,6.82,11.414c1.09.513,4.327-.989,5.813-.752a8.733,8.733,0,0,1,5.491,3.7c5.373,6.833,7.037,17.672,7.272,26.1.118,4.207.015,9.441-2.554,13.013-3,4.167-8.67,4.27-12.517,7.2-3.077,2.345-5.258,6.18-8.381,8.679-1.924,1.54-2.666.357-3.463,2.758-.519,1.561.529,4.607.838,6.118,1.913,9.319,5.5,17.914,8.9,26.791a65.487,65.487,0,0,1,3.692,12.8c.479,2.909-.074,5.452.158,8.251.164,1.992,1.012,3.713.825,5.756-.395,4.327-2.744,8.148-4.239,11.954-1.7,4.338.636,11.852,2.352,16.338,4.111,10.749,9.893,21.609,15.03,31.937,5.046,10.145,8.8,20.95,14.678,30.7,5.71,9.465,12.427,18.733,18.924,27.685,3.613,4.98,7.448,9.716,10.723,14.939.716,1.142,5.6,10.613,6.87,10.285-1.554-16.528.017-33.718.712-50.235a176.765,176.765,0,0,0-7.581-59.141c-1.36-4.614-2.572-9.336-3.529-14.051-.67-3.3-2.561-6.015,2.081-4.571,7.687,2.389,14.453,16.9,18.362,23.218,8.753,14.148,16.064,33.016,17.045,49.61a255.63,255.63,0,0,1-1.9,47.921,136.087,136.087,0,0,1-5.108,24.314,114.913,114.913,0,0,1-4.507,11.661c-.717,1.575-2.292,3.355-2.564,5.086-.43,2.746,1.581,6.45,2.085,9.162a111.31,111.31,0,0,1,1.462,27.071,49.7,49.7,0,0,1-2.543,13.69c-2.008,5.786-1.075,10.206-.239,16.17.894,6.383,1.751,20.892-4.886,24.518l-1.408-.145q-1.779-2.05-3.158.244c-1.717.56-3.393,2-5.2,2.623-4.2,1.441-8.723,1.529-13.1,2.162-8.565,1.24-17.1,3.428-25.516,3.692a146.855,146.855,0,0,1-30.1-1.824c-2.014-.361-4.368-1.316-6.382-1.5-2.733-.249-4.652,1.569-7.473,1.141-4.373-.662-7.136-5.29-7.423-9.083-.911-12.085,5.794-17.627,16.751-19.773-7.08-10.136-15.231-18.451-17.115-31.468-1.854-12.808,2.167-27.631,9.471-37.892,7.011-9.85,18.975-16.436,31.312-13.936,5.726,1.16,32.741,9.136,27.518,18.183-1.158-4.139-8.28-3.338-11.721-3.935-5.709-.992-11.416-2.487-17.208-2.179a34.322,34.322,0,0,0-27.917,17.544c-6.359,11.76-3.457,23.495,4.2,33.535,7,9.18,14.216,18.825,23.63,25.454-1.82,2.893-1.161,3.8-4.776,3.283-2.482-.356-4.8-2.291-7.312-2.773-5.2-1-13.388,3.263-16.6,7.525-1.9,2.518-1.829,3.763,1.673,5.313,2.584,1.144,6.652.553,9.427.8,6.9.616,13.939.822,20.865.8,11.988-.044,23.137-1.967,35-3.212,5.258-.552,10.758.084,15.9-1.851,6.969-2.62,5.261-10.317,4.358-16.553-.895-6.176.016-10.966.987-17.083.421-2.657,1.206-5.723.65-8.4-.66-3.177-1.845-4.583-1.694-8.126a126.034,126.034,0,0,0-4.386-38.058c-7.258-26.432-24.982-47.293-39.764-69.759-4.175-6.345-8.564-12.358-11.888-19.23-3.148-6.51-5.317-13.4-8.443-19.925-6.891-14.389-13.428-29.211-17.455-44.689-4.564,1.8-9.481,4.438-14.374,5.072-5.543.718-11.469-3.758-14.964-7.7-7.973-8.989-9.791-21.179-9.195-32.763a80.647,80.647,0,0,1,1-10.268c.4-2.2,2.982-7.51,2.393-9.556-.63-2.189-4.3-4.093-5.427-6.261-1.436-2.76-1.6-6.313-1.524-9.359.071-2.78,1.606-16.391,6.013-10.828,2.524,3.187-1.166,15.2,1.4,16.84,2.306,1.471,5.481-.327,7.871,3.038,2.582,3.636,1.2,8.117.294,11.989-1.871,8.007-3.628,16.653-3.58,24.876.042,7.488,1.381,16.955,9.563,19.983,4.134,1.53,7.271.478,10.354-2.372q1.06-1.22,2.162-2.4,1.012-1.739,3.105-.432c1.033-.82,2.563-6.489,3.08-7.755,6.337-15.529-3.654-33.359-7.317-48.6-2.24-9.32-4.194-18.668.341-27.662.734-1.456,2.756-2.721,1.543-4.811-.32-.549-3.373-.807-4.1-1.446-2.355-2.079-1.864-5.954-1.864-8.729-5.446,1.68-7.016-2.558-6.308-7.751-4.063.644-6.884,1.886-8.388-2.814-1.334-4.168.68-8.419,2.017-12.3-18.8-2.015-39.1-4.6-54.079-17.567A48.683,48.683,0,0,1,440.8,51.853c-.462-.754-2.641-6.063-3.363-6.34-2.146-.824-3.946,3.374-5.852,4.414a33.128,33.128,0,0,1-5.987,2c-1.772.53-8.019.636-9.127,1.556-2.77,2.3-2.552,15.6-2.573,18.689a73.879,73.879,0,0,0,6.687,30.908c4.134,9.117,10.459,21.654,18.727,27.621a9.688,9.688,0,0,0,6.618,2.166c1.891-.088,3.767-1.413,5.736-.724,4.984,1.744,3.2,5.208-.63,6.846-10.951,4.684-20.181-5.613-26.514-12.806-1.854,8.535,6.744,18.634,11.294,25.6,2.9,4.438,5.765,8.88,8.524,13.409,2,3.289,5.939,9.363-1.053,6.822-3.373,17.7-12.631,33.186-17.358,50.389-4.854,17.66-9.084,37.825-9.084,56.216,3.7-2.572,5.559-14.3,10.53-5.323.538.971.369,2.577,1.078,3.425.98,1.173,2.16.848,3.662,1.684,2.382,1.325,3.918,3.967,1.789,6.258,2.742-.638,5.614-.313,6.205,2.93.331,1.82-2.334,10.253-4.323,10.941-6.063,2.1-12.786-10.005-14.428-13.856-3.788,3.8-8.152,6.726-11.643.577-2.6-4.582-1.092-11.514-.725-16.5.74-10.049,1.7-19.85,3.155-29.8,2.719-18.661,9.619-35.258,18.094-52.055,2.334-4.623,4.919-9.356,7-14.086,3.143-7.137-1.775-5.453-6.583-4.417a215.723,215.723,0,0,1-28.8,4.327c-4.968.375-11.33.6-16.1,2.035-3.357,1.01-2.781.313-4.129,3.907a17.938,17.938,0,0,1-2.347,4.7c-5.423,7.028-19.47,5.852-27.228,5.328.47-2.964.935-5.929,1.422-8.89a84.319,84.319,0,0,1-19.216,2.308c-3.311-.038-6.833-.542-10.136-.818-2.435-.2-7.052-1.929-9.344-1.258-2.657.779-6.676,10.387-8.2,13.485-2.853,5.818-7.951,12.282-9.751,18.408-1.6,5.431,1.661,14.8,2.684,20.207,1.478,7.815,2.826,15.644,5.3,23.221,1.8,5.494,3.867,13.067,9.383,15.807,5.5,2.731,9.446,4.267,15.394,3.712,10.475-.979,21.619.629,31.96,2.665,10.649,2.1,20.4,3.041,30.512,6.778,22.935,8.477,37.54,34.589,28.892,58.511-4.973,13.759-13.167,23.984-25.186,32.5-6.125,4.338-13.361,7.856-20.075,11.2-3.083,1.535-6.113,3.4-9.255,4.76-2.3,1-6.242,3.29-8.737,3.542,2.769,1.317,5.219.084,8.1-.325,4.076-.58,8.238-.7,12.329-1.21,6.368-.788,12.641-1.383,19.01-2.173a66.436,66.436,0,0,1,16.974-.137c2.61.375,6.538,1.116,8.863,2.374,1.828.989,3.5,3.267,5.47,4.4,2.162-8.879,1.151-19.825,1.252-28.949.083-7.448.415-14.732,1.116-22.146.785-8.292-4.288-17.721-6.161-25.842-1.753-7.6-6.423-17.234-4.7-25.168,2.168-10,7.841,7.965,8.621,10.534,2.442,8.037,5.277,15.882,7.983,23.824,3.219,9.448,6.463,18.6,11.152,27.455,3.9,7.367,8.386,16.009,16.4,19.6-.662-10.834-1.4-20.865-5.9-30.854-4.271-9.472-10.784-17.9-13.631-28.045-1.414-5.044-1.622-10.2-1.692-15.411-.047-3.5.114-8.216,3.872-4.437,2.981,3,3.56,12.555,4.865,16.59.629,1.941,1.5,3.724,2.194,5.613.313.85,2.418,4.994,2.418,5.55,2.171,6.549,6.969,12.831,10.342,18.858" transform="translate(0 0)" fill-rule="evenodd"/><path d="M336.43,121.418c.207,2.537,1.678,9.112-.206,11.12-2.5,2.664-3.682-.763-4.762-3.464-2.258-5.645-3.379-16.576,1.081-21.28,4.657-4.912,13.859-5.045,18.829-9.937,2-1.965,1.8-1.555,1.629-4.627-.1-1.735-1.22-4.04-1.763-5.6-1.41-4.051-2.957-8.054-4.432-12.082-2.577,1.175-6.286,4.8-8.825,1.761-2.347-2.808,1.558-7.41,4.277-8.231-1.42-3.1-8.109-2.53-9.383-7.089-1.107-3.962,2.074-2.388,2.769-3.948.819-1.836-.858-4.319,0-6.011,3-5.875,6.312,4.928,7.8,6.856,2.775,3.586,7.609,4.37,8.035,9.794.263,3.34.011,4.893,1.387,8.173,1.267,3.019,2.772,5.915,3.835,9.022,1.6,4.682,4.066,13.2.94,17.735-2.636,3.824-9.038,6.739-13.2,8.374-2.085.818-4.976,1.317-6.662,2.911-2.2,2.079-1.516,3.357-1.359,6.522" transform="translate(-100.041 -15.272)" fill-rule="evenodd"/><path d="M644,344.318l-1.425-2.244c-3.294,3.519-6.943,4.965-10.272.5-3.429-4.6-2.141-11.5-.808-16.528.686-2.586,4.156-12.783,6.379-5.015.49,1.714-1.15,5.532-1.446,7.21a32.474,32.474,0,0,0-.632,9.8c3.862-3.457,5.753-12.221,9.673-3.12,1.421,3.3,1.577,8.735,5.361,3.722,2.02-2.677,2.15-7.618,3.1-10.772,6.45,1.542,5.275,11.081,3.122,15.729-3.429,7.4-8.094,5.017-13.047.72" transform="translate(-191.32 -96.602)" fill-rule="evenodd"/><path d="M678.917,117.295c2.295,3.827-2.046,10.824-2.832,14.753,3.843-.445,13.355-9.716,16.032-8.187,5.573,3.181-6.2,14.276-8.461,15.9-18.077,12.993-14.818-24.591-4.739-22.468" transform="translate(-203.651 -35.588)" fill-rule="evenodd"/><path d="M649.938,178.44c6.753-1.88,15.861,10.241,11.48,16.244-3.143,4.306-7.026,1.843-8.01-1.947-.5-1.933-.056-4.262-.713-6.418-.808-2.655-1.891-5.24-2.756-7.878" transform="translate(-197.341 -54.12)" fill-rule="evenodd"/><path d="M346.523,103.5c5.136,4.317-5.359,14.841-10.62,6.6-1.447-2.267-1.71-4.336.435-5.173,1.084-.422,3.639.96,5.168.716,1.676-.268,3.5-1.447,5.017-2.143" transform="translate(-101.647 -31.425)" fill-rule="evenodd"/><path d="M324.548,72.229c-1.993-2.486-7.594-17.778-.653-14.372,3.485,1.71,6.366,14.783.653,14.372" transform="translate(-97.32 -17.418)" fill-rule="evenodd"/><path d="M655.126,548.5l-.591-5.79c2.563,1.307,7.7,2.6,8.6,5.523,1.676,5.5-6.106,1.1-8.005.267" transform="translate(-198.736 -164.782)" fill-rule="evenodd"/><path d="M760.556,208.528c-1.526-2.062-6.274-19.262-2.155-18.868.721,6.239.87,12.719,2.155,18.868" transform="translate(-229.775 -57.585)" fill-rule="evenodd"/><path d="M665.51,487.075c-3.373-6.026-8.171-12.308-10.342-18.858,5.088,4.12,9.063,12.536,10.342,18.858" transform="translate(-198.929 -142.165)" fill-rule="evenodd"/><path d="M868.214,475.235l.616,6.552c-3.056.789-.8-5.831-.616-6.552" transform="translate(-263.32 -144.296)" fill-rule="evenodd"/><path d="M654.12,465.807a10.554,10.554,0,0,1-2.424-5.56l2.424,5.56" transform="translate(-197.875 -139.745)" fill-rule="evenodd"/><path d="M680.3,607.692q.08-2.915.161-5.826l-.161,5.826" transform="translate(-206.558 -182.744)" fill-rule="evenodd"/><path d="M352.177,157.375l3.883.483c-1.022.478-3.428,1.114-3.883-.483" transform="translate(-106.931 -47.784)" fill-rule="evenodd"/><path d="M722.783,639.381c1.347-.2,2.7-.666,4.021.079l-4.021-.079" transform="translate(-219.459 -194.035)" fill-rule="evenodd"/><path d="M667.531,576.473q.027,2.159.052,4.313-.028-2.161-.052-4.313" transform="translate(-202.682 -175.034)" fill-rule="evenodd"/><path d="M707.375,544.308q-.127,2.3-.254,4.6.127-2.3.254-4.6" transform="translate(-214.703 -165.268)" fill-rule="evenodd"/><path d="M681.084,551.19q-.11-2-.219-4,.11,2,.219,4" transform="translate(-206.731 -166.142)" fill-rule="evenodd"/><path d="M738.544,569.857q-.109,1.784-.217,3.566.109-1.786.217-3.566" transform="translate(-224.178 -173.026)" fill-rule="evenodd"/><path d="M389.748,613.01a3.944,3.944,0,0,1-3.925-.008l3.925.008" transform="translate(-117.147 -186.126)" fill-rule="evenodd"/><path d="M583.987,96.807q.027,1.764.055,3.524-.029-1.766-.055-3.524" transform="translate(-177.316 -29.394)" fill-rule="evenodd"/><path d="M395.439,142.89l-4.024.3,4.024-.3" transform="translate(-118.845 -43.386)" fill-rule="evenodd"/><path d="M795.1,147.872q-.01-1.741-.02-3.48a3.53,3.53,0,0,1,.02,3.48" transform="translate(-241.41 -43.842)" fill-rule="evenodd"/><path d="M339.379,150.815q-.092-1.85-.183-3.7.093,1.851.183,3.7" transform="translate(-102.99 -44.669)" fill-rule="evenodd"/><g transform="translate(566.016 470.491)"><path d="M.81.859,3.52.878.81.859" transform="translate(-0.81 -0.859)" fill-rule="evenodd"/></g><path d="M299.172.3,295.6.6l3.574-.3" transform="translate(-89.752 -0.091)" fill-rule="evenodd"/><path d="M469.488,653.6h0" transform="translate(-142.551 -198.452)" fill-rule="evenodd"/><path d="M638.835,190.638l-3.494-.35,3.494.35" transform="translate(-192.908 -57.777)" fill-rule="evenodd"/><path d="M716.4,649.426q.108-1.44.214-2.877-.108,1.443-.214,2.877" transform="translate(-217.522 -196.312)" fill-rule="evenodd"/><path d="M533.808,172.934l-3.44-.03a3.582,3.582,0,0,1,3.44.03" transform="translate(-161.036 -52.369)" fill-rule="evenodd"/><path d="M314.043.606c-1.156-.037-2.378.565-3.444-.351l3.444.351" transform="translate(-94.307 -0.077)" fill-rule="evenodd"/><path d="M269.258,163.511l-3.324.3,3.324-.3" transform="translate(-80.746 -49.647)" fill-rule="evenodd"/><path d="M369.423,611.585l-3.5.366,3.5-.366" transform="translate(-111.105 -185.695)" fill-rule="evenodd"/><path d="M411.182,141.683l-3.414.073c1.129-.452,2.258-.878,3.414-.073" transform="translate(-123.811 -42.882)" fill-rule="evenodd"/><path d="M680.227,587.687q-.009-1.48-.019-2.958.009,1.481.019,2.958" transform="translate(-206.531 -177.541)" fill-rule="evenodd"/><path d="M869.079,468.817q-.184,1.789-.368,3.578.183-1.788.368-3.578" transform="translate(-263.767 -142.347)" fill-rule="evenodd"/><path d="M657.045,577.891q-.127-1.523-.253-3.043.126,1.524.253,3.043" transform="translate(-199.422 -174.541)" fill-rule="evenodd"/><path d="M106.4,565.823q-.312,1.519-2.214.6Z" transform="translate(-31.633 -171.801)" fill-rule="evenodd"/><path d="M718.084,565.316q-.1-1.323-.2-2.645.1,1.324.2,2.645" transform="translate(-217.97 -170.844)" fill-rule="evenodd"/><path d="M374.456,144.933l-2.873.39,2.873-.39" transform="translate(-112.824 -44.006)" fill-rule="evenodd"/><path d="M666.7,555.671q0,1.3,0,2.6,0-1.3,0-2.6" transform="translate(-202.429 -168.718)" fill-rule="evenodd"/><path d="M583.74,109.083q0,1.229,0,2.454,0-1.23,0-2.454" transform="translate(-177.241 -33.121)" fill-rule="evenodd"/><path d="M81.952,384.75c-.095.864-.189,1.728-.283,2.588q.142-1.3.283-2.588" transform="translate(-24.797 -116.822)" fill-rule="evenodd"/><path d="M905.943,468.94q-.076-1.22-.153-2.436.076,1.222.153,2.436" transform="translate(-275.025 -141.644)" fill-rule="evenodd"/><path d="M194.347,623.934l-2.969-.047a2.548,2.548,0,0,1,2.969.047" transform="translate(-58.108 -189.292)" fill-rule="evenodd"/><path d="M361.1,77.384l-.048-2.444a1.972,1.972,0,0,1,.048,2.444" transform="translate(-109.626 -22.754)" fill-rule="evenodd"/><path d="M247.66,62.548c.069-.8.138-1.609.206-2.408-.069.806-.137,1.607-.206,2.408" transform="translate(-75.197 -18.26)" fill-rule="evenodd"/><path d="M717.291,466.755q-.051-1.33-.1-2.658.051,1.331.1,2.658" transform="translate(-217.76 -140.914)" fill-rule="evenodd"/><path d="M708.155,533.679q-.037,1.255-.075,2.5c.024-.838.049-1.671.075-2.5" transform="translate(-214.994 -162.041)" fill-rule="evenodd"/><path d="M544.629,649.462c.62,0,1.24,0,1.853,0-.622,0-1.237,0-1.853,0" transform="translate(-165.366 -197.195)" fill-rule="evenodd"/><path d="M111.335,650.072l1.849.051-1.849-.051" transform="translate(-33.805 -197.381)" fill-rule="evenodd"/><path d="M643.354,536.372c-6.035-4.664-11.3-11.638-12.522-19.1,2.6,2.932,4.777,6.2,7.373,9.135,1.032,1.164,2.3,2.166,3.288,3.352,2.259,2.7,1.861,2.824,1.861,6.618" transform="translate(-191.539 -157.058)" fill-rule="evenodd"/><path d="M616.2,489.785c-2.9-6.673-5.411-14.767-4.907-22.129,2,6.684,6.635,15.08,4.907,22.129" transform="translate(-185.587 -141.994)" fill-rule="evenodd"/><path d="M632.259,555.779q-.073,2.906-.145,5.807.075-2.909.145-5.807" transform="translate(-191.929 -168.751)" fill-rule="evenodd"/><path d="M82.224,631.393l5.94.353c-1.989.026-4,.508-5.94-.353" transform="translate(-24.966 -191.71)" fill-rule="evenodd"/><path d="M632.308,546.589q.01,2.478.021,4.952-.01-2.48-.021-4.952" transform="translate(-191.988 -165.961)" fill-rule="evenodd"/><path d="M514.038,271.467l-3.336-.174,3.336.174" transform="translate(-155.065 -82.373)" fill-rule="evenodd"/><path d="M541.524,210.788q-.006-2.011-.013-4.019.005,2.012.013,4.019" transform="translate(-164.419 -62.781)" fill-rule="evenodd"/><path d="M506.5,259.977a1.345,1.345,0,0,0-1.507-1.424q2.873-1.552,1.507,1.424" transform="translate(-153.331 -78.343)" fill-rule="evenodd"/><path d="M588.707,366.364q.112-1.789.224-3.576-.113,1.79-.224,3.576" transform="translate(-178.749 -110.153)" fill-rule="evenodd"/><path d="M122.59,632.482l4.007-.279-4.007.279" transform="translate(-37.222 -191.956)" fill-rule="evenodd"/><path d="M525.426,400.027,529.4,400l-3.974.028" transform="translate(-159.535 -121.452)" fill-rule="evenodd"/><path d="M578.7,191.295l-2.764.022,2.764-.022" transform="translate(-174.87 -58.083)" fill-rule="evenodd"/><path d="M856.569,654.808l3.476-.015a3.1,3.1,0,0,1-3.476.015" transform="translate(-260.08 -198.815)" fill-rule="evenodd"/><path d="M157.024,424.514l-2.349.067,2.349-.067" transform="translate(-46.964 -128.895)" fill-rule="evenodd"/><path d="M756.722,175.285c.744.717-.234,2.366-1.12,1.8l1.12-1.8" transform="translate(-229.423 -53.222)" fill-rule="evenodd"/><path d="M235.687,527.455q.049-1.522.1-3.042-.05,1.523-.1,3.042" transform="translate(-71.562 -159.227)" fill-rule="evenodd"/><path d="M617.061,528.2q.08-1.588.159-3.174-.08,1.589-.159,3.174" transform="translate(-187.358 -159.414)" fill-rule="evenodd"/><path d="M883.21,371.167q.066,1.59.132,3.176-.066-1.591-.132-3.176" transform="translate(-268.169 -112.698)" fill-rule="evenodd"/><path d="M369.275,543.535l3.559.3-3.559-.3" transform="translate(-112.123 -165.033)" fill-rule="evenodd"/><path d="M602.938,425.422q.087-1.579.174-3.157-.088,1.58-.174,3.157" transform="translate(-183.07 -128.212)" fill-rule="evenodd"/><path d="M306.9,455.559l3.547.327-3.547-.327" transform="translate(-93.183 -138.321)" fill-rule="evenodd"/><path d="M456.159,587.766h0" transform="translate(-137.812 -178.463)" fill-rule="evenodd"/><path d="M553.547,218.226q-.068,1.476-.134,2.946.069-1.477.134-2.946" transform="translate(-168.033 -66.26)" fill-rule="evenodd"/><path d="M577.832,560.76c1.171-.831,2.309-.283,3.452.078l-3.452-.078" transform="translate(-175.447 -170.131)" fill-rule="evenodd"/><path d="M380.318,156.622c-.77-.031-1.54-.063-2.3-.1.773.031,1.537.065,2.3.1" transform="translate(-114.777 -47.525)" fill-rule="evenodd"/><path d="M649.192,585.654q-.1-1.47-.208-2.935.1,1.472.208,2.935" transform="translate(-197.051 -176.931)" fill-rule="evenodd"/><path d="M557.951,428.141l-1.9.014c.637,0,1.267-.009,1.9-.014" transform="translate(-168.835 -129.997)" fill-rule="evenodd"/><path d="M597.208,478.17c0-.817,0-1.634,0-2.447q0,1.227,0,2.447" transform="translate(-181.33 -144.444)" fill-rule="evenodd"/><path d="M538.917,565.124l2.85-.37-2.85.37" transform="translate(-163.631 -171.476)" fill-rule="evenodd"/><path d="M479.925,394.575l3.088-.02a3.156,3.156,0,0,1-3.088.02" transform="translate(-145.72 -119.799)" fill-rule="evenodd"/><path d="M555.715,250.955l-1.776-.016,1.776.016" transform="translate(-168.192 -76.193)" fill-rule="evenodd"/><path d="M303.289,468.6l-1.832-.026,1.832.026" transform="translate(-91.531 -142.273)" fill-rule="evenodd"/><path d="M133.928,410.851l3.081.032a2.848,2.848,0,0,1-3.081-.032" transform="translate(-40.665 -124.747)" fill-rule="evenodd"/><path d="M883.269,413.291c-.065.783-.13,1.568-.192,2.347.065-.785.128-1.566.192-2.347" transform="translate(-268.128 -125.487)" fill-rule="evenodd"/><path d="M507.842,593.04q.131-1.284.262-2.565-.132,1.286-.262,2.565" transform="translate(-154.196 -179.286)" fill-rule="evenodd"/><path d="M269.341,447.739l3.114.045c-1.049.722-2.081.267-3.114-.045" transform="translate(-81.78 -135.947)" fill-rule="evenodd"/><path d="M609.142,231.853l3.029-.343-3.029.343" transform="translate(-184.954 -70.293)" fill-rule="evenodd"/><path d="M488,625.85q.137,1.348.273,2.694-.137-1.35-.273-2.694" transform="translate(-148.171 -190.027)" fill-rule="evenodd"/><path d="M617.083,539.848q0-1.259,0-2.513c0,.841,0,1.676,0,2.513" transform="translate(-187.364 -163.151)" fill-rule="evenodd"/><path d="M91.46,632.071l2.93.386-2.93-.386" transform="translate(-27.77 -191.916)" fill-rule="evenodd"/><path d="M117.78,632.417a2.45,2.45,0,0,1,2.926-.042l-2.926.042" transform="translate(-35.762 -191.866)" fill-rule="evenodd"/><path d="M370.868,466.568l2.865-.351-2.865.351" transform="translate(-112.607 -141.557)" fill-rule="evenodd"/><path d="M523.313,638.845l2.921-.391-2.921.391" transform="translate(-158.894 -193.854)" fill-rule="evenodd"/><path d="M474.415,641.021l2.978-.382-2.978.382" transform="translate(-144.047 -194.517)" fill-rule="evenodd"/><path d="M552.854,226.767c-.044.8-.088,1.6-.13,2.4q.066-1.205.13-2.4" transform="translate(-167.824 -68.853)" fill-rule="evenodd"/><path d="M217.108,500.124q.133-1.276.265-2.551-.134,1.279-.265,2.551" transform="translate(-65.92 -151.078)" fill-rule="evenodd"/><path d="M541.9,195.9q.039-1.252.078-2.5-.038,1.255-.078,2.5" transform="translate(-164.538 -58.723)" fill-rule="evenodd"/><path d="M269.594,487.643q.132,1.279.263,2.554c-.088-.854-.176-1.7-.263-2.554" transform="translate(-81.857 -148.063)" fill-rule="evenodd"/><path d="M274.319,447.751l3.02.334-3.02-.334" transform="translate(-83.291 -135.951)" fill-rule="evenodd"/><path d="M499.543,614.946c.574,1.683.363,5.6-1.265,6.785-3.378,2.462-3.726-2.034-4.4-4.463-1.86-6.737-4.855-14.261-5.618-21.188-.234-2.125-.361-6.1,2.45-6.821,2.713-.691,4.087,3.607,5.023,5.815a47.051,47.051,0,0,1,3.807,19.872" transform="translate(-148.218 -178.894)" fill-rule="evenodd"/><path d="M504.51,625.042q.057-1.306.116-2.607-.059,1.307-.116,2.607" transform="translate(-153.184 -188.99)" fill-rule="evenodd"/></g></g></svg>