<svg xmlns="http://www.w3.org/2000/svg" width="595.639" height="677.368" viewBox="0 0 595.639 677.368"><g transform="translate(-260.44 -3.719)"><path d="M498.651,248.284c2.408.357,9.275,3.211,10.435,5.351a17.406,17.406,0,0,0-4.1,2.5,32.08,32.08,0,0,1-4.816,1.962c-4.1,1.784-8.027,4.816-11.772,7.135a252.8,252.8,0,0,0-23.634,16.321c-6.51,4.905-12.307,10.791-18.461,15.875-4.192,3.478-15.34,13.556-10.524,19.264,3.389-2.854,6.778-5.619,10.167-8.473,1.962-1.605,4.994-5.619,7.491-5.708-2.943,3.746-6.154,7.313-9.364,10.88,4.459.535,8.918-5.619,12.04-8.383,1.962-1.784,4.281-2.408,6.421-3.924,1.962-1.427,3.121-3.211,5.262-4.281,4.459-2.23,8.294-5.619,12.218-8.472,1.695-1.249,3.211-2.854,4.727-4.013.892-.8,4.548-4.013,5.44-4.192.178.446.446.892.624,1.427.981-2.14,1.605-.981,3.211-2.14.892-.624.446-1.605.892-2.051a43.429,43.429,0,0,1,4.013-2.408c1.873-1.159,1.159-1.962,3.478-.892-.535-1.427,0-1.784,1.338-1.159l-.178-3.032c6.421,0,11.326-2.586,16.677-6.243,2.051-1.338,1.962-2.319,4.192-1.159,1.249.624,2.23,2.5,3.032,3.567a16.371,16.371,0,0,1,3.3,7.135c-.8-.8-1.338-.8-1.784-.178.624.892,1.784,1.962,1.694,3.032-.089,1.338-.713-.178-.981.714-.357.892-1.427,1.784-1.605,2.765-.268,1.873,1.249,1.873,0,4.013-1.07-.981-1.338-1.07-2.586-.268.357.713.8,1.338,1.159,2.051-2.5,0,.268,2.854-.446,4.727-1.159,2.943-5.173,3.3-4.905,7.135l1.873-2.854c-.089,1.962-.8,2.586-1.516,4.192-.357.892-.624,2.676-1.338,3.478-.624-.981-1.249-1.962-1.784-2.854a13.516,13.516,0,0,1-2.5,10.167c-.714,1.07-2.14,1.784-2.676,2.765-.624,1.159.268,2.765-.446,3.746-.535.8-1.516.892-2.23,1.249-.713-.446-1.249-.357-1.605.357a3.128,3.128,0,0,0-.535,1.249c.178.178.357.446.535.624-.624,1.427-1.249,1.605-1.962.446-1.249.624-1.516.981-2.23,2.5-3.211.535-6.778,3.478-9.81,5.083a69.717,69.717,0,0,1-11.148,4.548c-1.516.535-2.5,1.695-3.835,2.23-1.427.624-3.121.268-4.281.8-1.427.624-1.962,2.051-3.835,2.319a9.213,9.213,0,0,1-5.708-1.338c1.516,2.765,1.784,2.676-1.07,4.192,0,0-.892-3.746-1.694-2.765-.624.8.713,2.5,0,3.478-.446.624-2.23.981-2.854,1.249-.446-.089-.8-.089-1.159-.178l-1.784,2.676c-1.605.178-3.211.357-4.905.535.713-2.23.8-2.14-1.249-3.121.357,1.07.624,2.14.981,3.3a44.6,44.6,0,0,1-8.2.624c-.446,0-.624-.624-1.338-.624-.624.089-2.051.624-1.07,1.07-4.816.446-9.364,0-14.18.089-2.14,0-4.281.535-6.421.357-2.23-.178-4.37-.981-6.689-1.159-4.727-.357-10.078-.357-14.715-1.338-2.765-.535-2.943-.535-.892-2.586,1.07-1.07,2.23-2.051,3.389-3.032,6.6-5.529,13.2-11.5,18.372-18.461,5.351-7.046,7.848-15.7,11.683-23.545,7.135-14.715,11.5-34.693,28.45-40.757,3.567-1.249,7.4-1.516,11.059-2.765a93.449,93.449,0,0,1,13.11-3.121C489.108,249,494.816,247.66,498.651,248.284Zm-43.433,89.273c-.446,1.07-1.338,2.14.8,2.23C455.753,339.073,455.486,338.449,455.218,337.557ZM652.4,236.779h.178c3.567.268,7.046.892,10.88,1.338.892.089,2.765-.357,3.567-.178,1.605.357,2.943,1.516,4.638,1.873a92.206,92.206,0,0,1,9.543,2.23,156.571,156.571,0,0,1,22.564,9.453c15.429,7.759,29.431,17.837,43.968,27.112,7.848,4.994,14.626,9.721,20.78,16.767,2.319,2.676,4.638,4.459,5.886,7.491,1.694,3.924,3.567,7.759,5.529,11.5-3.567.8-5.8-.981-9.186-1.694-3.211-.713-6.689-.981-9.989-1.516-6.956-1.249-14-2.319-20.958-3.211-7.224-.892-14.359-2.854-21.583-3.835a101.19,101.19,0,0,1-17.48-3.567c-2.676-.892-5.619-1.159-8.383-1.784-3.567-.713-7.046-2.319-10.613-3.211-5.8-1.338-11.415-2.676-17.3-4.1-2.586-.624-6.243-1.249-8.651-2.408-1.784-.8-3.389-3.032-5.083-4.727a98.664,98.664,0,0,1-6.867-8.027c-1.962-2.319-5.886-5.529-3.657-8.918-2.586.268-1.605.713-2.676-1.516-.713-1.516-.8-3.746-1.159-5.351,1.516-.089.892-.8.8-2.14-.624-.178-.981.178-.892,1.159-2.586-8.116,2.23-14.537,8.294-19.442,1.427-1.159,3.389-2.943,5.083-3.478C651.78,236.066,650.531,236.6,652.4,236.779Zm-222.6,75.45c.535-.268.981-.446,1.516-.713C430.068,310.891,430.068,310.891,429.8,312.229ZM729.727,221.35c6.867-.089,13.734,1.873,20.512,3.3,4.013.8,7.135,2.765,10.97,4.013,1.249.446,2.5.357,3.835.714a16.966,16.966,0,0,1,5.351,2.765c-3.835,2.319,14.894,15.429,16.41,17.034a38.316,38.316,0,0,1,6.956,11.237c1.427,3.3,4.905,9.186,1.873,12.4.535-.268,1.159-.446,1.695-.713.357.357-.268,4.281-.357,4.905l1.338.178c-1.962,3.121-1.784,3.657-5.44,2.854,0,2.14.624,4.37.089,6.51-.178.8-.8,1.427-.892,2.23-.089.624.624,1.159.535,1.962-.446,4.727-3.121,9.81-4.727,14.269-5.173-11.326-9.008-23.723-16.588-33.712-3.656-4.816-7.937-8.829-12.218-13.11-4.192-4.281-7.848-8.294-12.932-11.5A63.549,63.549,0,0,0,732.67,239.9c-2.5-.8-4.994-.8-7.581-1.873a51.21,51.21,0,0,0-7.135-2.319c-6.421-1.605-12.664-3.657-19-5.262-1.873-.535-3.657-1.516-5.708-2.051-3.032-.8-6.51-.624-9.275-2.23,3.567-1.873,7.224-1.516,11.059-2.051,4.013-.535,7.937-1.159,11.951-1.695A216.767,216.767,0,0,1,729.727,221.35Zm-3.032,65.729c.8.713.446.713,1.516-.446C727.765,285.92,727.23,286.1,726.695,287.079Zm2.051-.357.8.089C729.905,284.493,729.281,284.493,728.746,286.722ZM513.9,278.428c-1.605.8-2.14,1.427-.8,2.676A19.028,19.028,0,0,0,513.9,278.428Zm280.038-2.14c.178.535.357,1.07.624,1.962C795.366,276.377,795.366,276.377,793.939,276.288ZM676.395,265.853c-.446.8,0,1.427.357,2.23C677.733,267.815,676.752,266.656,676.395,265.853Zm62.34-6.867c3.389,1.249,9.989,5.173,11.148,8.74-2.586-.892-4.192-2.854-6.51-4.281C741.767,262.553,738.11,261.483,738.734,258.986Zm-62.34,2.586c3.032.624,5.44,2.586,8.74,1.694a3.454,3.454,0,0,0-2.765-2.14c-.892-.089-1.695.892-2.675.446-.892-.357-.357-1.962-1.605-2.051A1.7,1.7,0,0,0,676.395,261.572ZM466.01,259.967l1.962-.981C466.366,258.183,466.277,259.254,466.01,259.967Zm272.547-1.159a4.662,4.662,0,0,1-4.013-1.694A4.661,4.661,0,0,1,738.556,258.808Zm-89.273-13.556c1.07-.535,2.051-1.07,3.121-1.605C650.086,242.755,649.907,242.844,649.283,245.252Zm1.694-6.421c.268.713.446,1.159.624,1.695C652.583,239.455,652.4,238.92,650.977,238.831ZM680.051,18.1a152.487,152.487,0,0,1,6.154,16.5h0l.535.981c4.994,9.632,8.383,19.175,11.683,29.52,1.427,4.37,2.319,8.918,3.657,13.467.8,2.586,1.694,5.083,2.319,7.759.535,2.319.178,4.281.268,6.689.089,2.23.981,3.567,1.427,5.529.624,2.586.357,5.886.357,8.651,0,5.886-.892,11.683-.892,17.569,0,5.262-.178,10.435-.446,15.7-.268,4.192-.714,11.594-4.281,14.269.892.713,2.14,1.159,1.784,2.5-.713,2.586-2.5-.089-2.765.178-1.249,1.516,1.159,1.159,1.159,2.319-.089,1.159-1.07,2.23-1.695,3.3-4.1,6.51-9.543,11.326-15.072,16.5a20.976,20.976,0,0,1-3.657,3.211c-.713.357-2.408.8-2.676.981-1.338,1.159-.8,2.5-2.586,3.3-1.427.624-4.281-.446-5.262.089-.357.535-.8,1.159-1.159,1.694-.268,1.159-.624,1.427-1.249.8-.624.446-2.943,1.605-4.013,2.5.713.089,1.338.178,2.051.268l-2.319.357c-.714.357-1.159.089-1.427-.8-1.249.089-1.07.357-1.07,1.516-2.319,0-2.23-.713-4.1-1.07a24.25,24.25,0,0,1-2.676-.357c.268-.535.446-1.07.714-1.605a7.77,7.77,0,0,0-3.478,4.727c-2.23.178-.446-3.567-2.765-1.249-.624.624-.267,1.695-.624,2.23q.8,1.605-.8,1.605c-.981.268-1.873.624-2.854.892.535-.713,1.159-1.427,1.695-2.051-1.605-.535-3.656.535-2.676,2.676a27.871,27.871,0,0,1-3.835.357c-1.338-.089-2.854,1.159-1.695-.892l-2.051.268-2.051.268h0c-.446.535-.713.981.268,1.249a16.042,16.042,0,0,1-4.638,0c-.624-.178-.713-2.23-1.873-.8.624.446,1.249.892,1.784,1.338-10.791,4.459-22.474,5.708-33.622,8.472,0-3.567,1.873-6.51,3.389-9.632,1.784-3.657,3.032-7.491,4.459-11.326,2.676-7.4,5.262-14.8,8.562-21.939a116.577,116.577,0,0,1,5.975-10.167,78.606,78.606,0,0,0,4.638-10.524c2.943-7.135,7.135-13.556,10.345-20.512s7.848-13.021,11.861-19.531c4.1-6.689,7.492-13.734,11.5-20.512,4.37-7.4,8.918-14.715,13.2-22.118a47.633,47.633,0,0,0,4.459-10.256c.357-1.159.981-2.5.624-3.746-.8-3.211-2.14-1.338-3.835.089-.624-1.516-1.784-13.288-5.084-9.364-.624.8-.178,2.051-.624,2.765-.446.8-1.338.981-1.962,1.784-1.07,1.427-1.605,3.211-2.854,4.548-2.943,3.389-6.332,6.51-9.008,9.9-.892,1.159-2.141,2.14-3.121,3.389-1.427,1.873-2.408,4.192-4.459,5.351,0-1.338.357-2.14-1.516-2.14,2.14,2.765,1.07,2.676-.8,4.727-1.516,1.694-3.121,4.548-4.727,6.689-3.478,4.727-6.6,9.186-9.721,14.091-7.224,11.326-14,22.742-20.245,34.6-6.065,11.5-12.04,23.188-16.856,35.317-4.905,12.4-8.027,25.417-12.753,37.814,2.854-.713,2.408-3.389,3.389-5.619.624-1.338,1.784-2.408,2.319-3.835.446-1.249,0-2.943.446-4.192,0,0,1.338-2.23,1.516-2.586.535-1.07.713-2.408,1.159-3.567a44.085,44.085,0,0,1,4.459-8.651l.713.8.714.8c-.446-3.657-2.5-4.281.892-7.4l-.8,4.816c1.873-.713,1.159-2.14,1.516-3.567,2.676.446-1.07,2.676,2.408,2.676-.268,1.784-.089,2.765-1.427,3.389-.446.178-2.141,0-2.586.178a2.61,2.61,0,0,0,2.319,3.657c-.8,2.586-.535,3.389-3.211,3.657-.357.892.178,1.338,1.516,1.338l-.624,1.249-.535,1.249h0v.446c-.446,3.478-2.586,7.135-3.924,10.435-1.516,3.657-2.408,7.491-3.657,11.237-.981,2.854-1.159,7.224-2.586,9.81-2.319,4.013-4.37-1.605-5.44-3.835-3.3-7.224-6.421-14.448-9.543-21.672-1.784-4.1-3.835-8.2-5.619-12.307a21.3,21.3,0,0,1-1.695-4.727l-.089-.446c.089.268.892-4.816-.446-1.873-.178-.713-.357-1.516-.535-2.23.535,0,1.07.089,1.516.089-1.338-2.765-.981-5.708-1.248-8.651-.089-1.07-1.605-5.708.713-4.638,0-4.1-.535-8.383.8-12.307,1.695-4.727,5.084-8.918,7.937-13.021,1.516,3.3,2.943-2.23,4.013-3.3-.178-.713,0-1.07.624-.981.446,0,.981-.089,1.427-.089.624-.981.8-4.727.8-5.708,3.835,1.784,8.2-6.51,10.167-8.74,2.586-3.032,12.218-6.065,11.237-10.88,1.784,1.605,1.249,0,1.962-1.338s2.051-2.14,3.3-3.211a9.053,9.053,0,0,1,1.605-1.159c.535-.357,1.07.089,1.694-.535,1.605-1.516,2.5-4.192,3.567-6.065,1.873,1.249,7.491-3.746,9.1-5.44.892-1.07,1.159-2.5,2.051-3.478,1.338-1.427,2.586-1.159,2.854-3.3,2.408,1.962,1.962-2.586,3.478-3.924a13.845,13.845,0,0,1,1.873.357c.535-.8,1.159-1.694,1.695-2.5,2.319-3.478,4.905-5.708,7.937-8.472,1.249-1.159,2.051-2.676,3.211-3.746,1.249-1.249,2.854-1.694,4.192-2.854a19.723,19.723,0,0,0,3.478-3.746c.624-.981.714-2.586,1.338-3.3.268.624.535,1.338.8,1.962,3.567-3.924,5.8-7.67,9.454-11.416.713,1.962.357,3.121,2.319,2.943,1.07-.089,1.962-1.427,2.854-1.962a21.8,21.8,0,0,0,2.765-1.962c.357-1.516-2.23-3.3-1.695-5.083.624-2.14,4.192-4.192,5.8-5.529C674.076,23.362,677.019,20.686,680.051,18.1ZM451.919,39.5c.357-.089,3.3,9.008,3.657,9.9,2.23,6.065,3.478,12.4,5.8,18.55A274.971,274.971,0,0,0,478.228,103.9c5.8,10.435,8.74,22.028,15.518,32.106,4.548,6.778,9.632,13.2,14.359,19.8,3.746,5.262,6.956,10.524,12.04,14.537a60.476,60.476,0,0,1,13.2,14.18,34.328,34.328,0,0,0,5.886,7.046c2.5,2.23,5.44,3.3,6.154,6.867-.624,0-1.249-.089-1.784-.089.357,1.427.8,2.943,1.159,4.37-5.084-1.962-9.721-2.586-15.072-3.389,1.159-.089,2.408-.178,3.568-.357-2.141-1.427-4.994-1.694-7.4-2.586-2.5-.892-4.638-2.23-7.046-3.211-5.8-2.319-11.594-4.548-17.3-6.956-1.784-.713-3.924-1.159-5.262-2.675a6.8,6.8,0,0,1-.713-.981q-.134-2.007-1.605-.8l-.8.357a12.789,12.789,0,0,1-2.051-1.784c-3.657-4.1-5.8-9.9-8.205-14.715-6.332-12.753-12.842-26.131-16.945-39.776-3.657-12.218-4.905-24.882-7.046-37.368-2.319-14-3.835-28.361-6.6-42.184C452.008,45.034,450.224,39.772,451.919,39.5Zm406.59,58.951a69.428,69.428,0,0,1,1.784,17.123c0,2.5.535,5.262.535,7.4,0,2.765-.8,6.065-.892,9.008-.267,5.619-.981,11.059-1.516,16.677a25.67,25.67,0,0,0-.089,4.548c.089,1.873-.089,4.281-1.516,5.619v-3.746c-1.338,2.586-2.943,4.816-5.975,5.44,2.051,1.873.8,3.121-.8,4.638l2.141.535-4.548,4.013A5.093,5.093,0,0,0,847,169c-.8.446-.892.892-.089,1.427-1.516,1.249-3.121,3.032-4.994,3.746-.089.089-4.727,0-1.427.981-1.516,1.159-2.943,2.23-4.459,3.389,0-.981.981-1.605-.535-2.23-1.516,2.943-1.873,3.478-4.816,4.994-2.586,1.249-5.173,2.586-7.759,3.835a5.764,5.764,0,0,0-2.676-4.013c.535,1.07,1.338,2.408,1.249,3.657-.089,2.23-.8,1.962-2.854,2.943a79.011,79.011,0,0,1-9.721,4.37c-6.421,1.962-12.932,2.943-19.442,4.281-6.243,1.338-12.486,3.121-18.818,4.192-6.243,1.07-13.556.892-19.888.535-6.867-.357-13.823-.446-20.691-.268a82.2,82.2,0,0,0-11.5.8c-3.478.535-6.867-.178-10.435-.089-3.3.089-4.192-.8-6.956-2.14-2.854-1.338-7.046-1.784-10.256-2.051-1.07-.089-2.23.8-3.121-.178-1.427-1.605.8-2.408,1.962-3.478,3.389-3.211,5.351-5.173,9.81-6.6-.8-.178-1.516-.357-2.319-.535,16.321-4.37,31.214-11.772,46.822-18.1,6.243-2.5,12.218-4.905,18.372-7.491,7.135-3.032,14.359-6.064,21.226-9.81a435.93,435.93,0,0,0,38.527-23.545C834.875,118.967,845.4,107.106,858.509,98.455Zm-154.467,100.6c-.8.446-.624.981.624,1.605C705.38,200.214,705.2,199.679,704.042,199.054Zm-70.366.178Zm-2.5-4.192-.446,4.192h2.854v-.178C633.5,197.36,632.249,196.29,631.179,195.041ZM514.347,147.417c6.867,4.905,11.594,13.11,16.588,19.8,5.173,6.956,10.791,13.467,14.18,21.493-1.695-.535-2.408-2.854-3.656-4.1a12.058,12.058,0,0,1-2.943-3.389,86.681,86.681,0,0,0-7.848-11.148C524.425,162.846,518.45,156.246,514.347,147.417Zm238.746,36.565c-2.051,0-1.427,1.338-1.605,3.211Zm-4.905.178C747.3,186.658,749.793,186.747,748.188,184.161Zm-158.123-3.121c-1.516,1.07-.446,3.835.981,2.319l.089-.089Zm2.14-4.548-.892.981c.446.713.892.535,1.249-.624C592.473,176.758,592.383,176.58,592.205,176.491ZM468.418,54.13c6.064,3.924,11.861,8.294,17.658,12.664,1.516,1.159,3.121,2.408,4.638,3.567.535.357,1.07.8,1.516,1.159a2.882,2.882,0,0,1,1.962,2.408c2.051,1.338,4.281,2.408,6.6,4.1-.713.535-1.516,1.07-2.23,1.694,2.051,1.338,4.994,1.427,5.44,4.37.535-.8,1.159-1.605,1.694-2.319,7.313,5.083,15.518,8.2,22.92,12.932a127.013,127.013,0,0,1,18.64,15.161c2.676,2.586,5.886,4.548,8.829,6.867,1.516,1.159,2.319,1.249,2.14,2.854-.178,1.516-2.408,3.835-3.211,5.083-3.924,5.975-8.918,12.842-10.613,19.888-1.784,7.491,2.765,16.856,4.727,23.99.624,2.319,1.873,4.905,2.051,7.313.178,2.051,1.07,2.676-1.249.8-3.121-2.5-5.529-6.956-7.937-10.078-4.994-6.689-9.721-13.378-15.251-19.8-1.338-1.605-3.924-3.657-4.816-5.619-.357-.8-.089-2.14-.446-2.765-.713-1.159-1.516-.892-2.14-1.784a15.745,15.745,0,0,1-1.605-4.013c-.357.981-.624,1.962-.981,2.943-10.7-11.772-18.461-25.774-25.863-39.687-3.657-6.956-7.4-13.913-10.97-20.958-1.873-3.746-3.746-7.581-5.886-11.237C472.52,61,468.507,57.341,468.418,54.13ZM643.575,173.191l.713-.178C643.664,170.694,643.04,170.872,643.575,173.191Zm188.8-68.672a20.012,20.012,0,0,1-4.548,4.548,13.628,13.628,0,0,0-4.013,3.478c-1.605,3.389-6.956,5.708-9.989,7.67-4.281,2.586-8.74,5.173-12.932,7.937-9.186,6.064-18.907,10.7-28.985,15.34-8.829,4.192-17.658,8.651-26.488,12.129-4.638,1.873-9.186,4.013-13.734,6.065-2.675,1.249-5.44,2.408-8.116,3.657-2.141.981-5.886,3.835-6.689,1.07-.624.624-1.07,1.338.178,1.605-1.962.892-3.924,1.784-5.886,2.765-1.873.892-2.408,1.873-2.586,0-.089-.981,2.408-3.657,2.854-4.638.713-1.427,1.249-2.854,1.873-4.281,2.586-6.689,4.1-13.556,6.51-20.245.624.357,1.249.624,1.873.981.981-2.5,1.249-.268,3.032-.981.624-.268.713-1.784,1.338-2.051.178-.089,1.07.713,1.516.624a18.024,18.024,0,0,0,4.905-1.249c.535-.268,1.516-1.605,1.962-1.694.624-.178,1.605.8,2.408.624,1.338-.268,1.784-1.873,3.032-2.408a21.858,21.858,0,0,1,3.389-.357c2.319-.357,5.529,0,6.51-2.765,3.478,1.695,6.956-.624,10.078-2.14,1.605-.8,3.032-.8,4.727-1.427,1.784-.713,3.121-1.784,4.994-2.319a47.579,47.579,0,0,0,8.116-3.567c1.962-.981,6.867-5.262,8.2-3.121,1.516-2.765,7.313-3.835,10.345-4.727,4.37-1.338,8.74-2.586,13.2-3.835,3.924-1.07,7.581-2.586,11.416-3.746C823.905,106.3,829.345,103.717,832.378,104.519Zm-185.949,62.34c-.981,1.07-1.695,1.873-2.5,2.765C645.626,170.07,645.626,170.07,646.429,166.859Zm-48.159-10.88c.178.714-1.07,1.427-1.07,2.051.892.178,1.249.713.892,1.427-.089.446-.089.892-.178,1.338,0,2.14-.892,4.459-1.427,6.51-1.516-1.159-.357-2.586-.713-4.1-.446-2.14-.8-.8-1.695-2.051-1.249-1.962-.268-1.516.713-3.389a25.167,25.167,0,0,0,.8-3.567C596.575,153.035,597.913,154.462,598.27,155.979Zm100.51-2.586v2.051C699.85,154.284,699.85,154.284,698.78,153.392Zm-97.3-7.135c.981.535.8.178.8,1.873A1.621,1.621,0,0,1,601.48,146.258Zm252.569-2.408a14.135,14.135,0,0,1-.713,1.605C854.139,145.276,855.12,145.009,854.049,143.85Zm-251.588-2.319c1.427.357,2.676-.089,2.051,1.873.178-.624-2.14,1.249-2.408,1.427h0l.178-1.605A9.879,9.879,0,0,1,602.461,141.531Zm-119.507.892c-.8.268-2.14,0-2.051,1.962C481.884,143.493,482.419,142.958,482.955,142.423Zm186.127-2.854v1.605l1.962-.624Zm-62.429-1.784c-.357,1.159-.624,1.873-.981,2.854C604.334,139.212,604.869,138.5,606.653,137.785Zm220.909-9.275c-.981.178-1.07,1.962-1.249,2.854l2.141-.357C828.1,130.115,827.829,129.313,827.562,128.51Zm-312.769.8c.624.446,1.159.892,1.784,1.427C516.577,128.777,516.577,128.777,514.793,129.313Zm168.736-18.55c0,.8,1.605,2.676,1.784,3.924.268,2.854-1.605,5.262.178,7.937.357-1.605.8-3.211,1.07-4.816.178-1.605-.357-2.408-.268-3.746.089-1.516,1.605-4.013.089-5.083C685.224,108.176,683.619,109.246,683.53,110.762Zm-10.345,7.313c-.892,1.694-.892,1.694-.446,2.854A22.769,22.769,0,0,1,673.184,118.075Zm2.675-3.478c-1.427,1.159-1.159.8-.535,2.765,1.249-1.07,2.586-2.14,3.924-3.211A2.838,2.838,0,0,0,675.86,114.6Zm5.529-4.905a.7.7,0,0,0-.357.357c.268.446.535.8.8,1.249C682.727,110.762,682.549,110.316,681.389,109.692Zm3.211-6.243c-1.695.981-1.159,2.319-.713,3.567C684.6,105.857,685.492,104.787,684.6,103.449Zm20.245-.624c-1.427,1.159-.714,1.873,0,3.121.268-.089.446-.089.713-.178C705.29,104.787,705.023,103.806,704.845,102.825Zm-180.6,2.23c1.07-.268.8,0,.446-1.605C523.622,103.36,523.533,103.9,524.247,105.054Zm158.3-9.9c-.892.178-.892.8.089,1.873C683.708,96.76,683.708,96.136,682.549,95.155Zm-3.121-8.562c-.268.981-.535,1.962-.714,2.943C680.586,89.982,679.784,87.574,679.427,86.593Zm5.262-1.962c-.178,1.07-.446,2.051-.713,3.121.178.089.357.268.535.357l2.051-2.854Zm-4.816-3.121c-.892.089-.8,1.516.446,1.338C680.141,82.4,680.051,81.956,679.873,81.51ZM497.224,77.586h-1.873C495.44,78.656,497.313,78.388,497.224,77.586ZM688.7,46.371c-.178.892-.357,1.516-.446,2.14C688.881,47.977,689.862,47.531,688.7,46.371Zm-2.5-11.772h0c-2.23.089-1.427,1.873-1.873,3.3,1.873-.357,1.605-1.784,1.873-3.211Zm0,0Zm-14.537-3.3c-.535,1.516-.089,1.695-1.962.981.981,1.873,3.211,0,4.548,1.159A19.366,19.366,0,0,0,671.668,31.3Zm0-3.835c.446,1.694.892,2.676,2.765,2.23C673.541,28.98,672.828,28.356,671.668,27.464Z" transform="translate(-14.841 -1.555)" fill="#12c97a"/><path d="M564.968,270.719c.624.089,2.14-4.994,2.408-5.8.178-.535,1.338-2.676,1.07-3.121-.178-.357-3.211-1.427-3.478-1.605Zm-248.11-128.6c.357-5.44-.089-10.97.8-16.321.268-1.962,3.924-14.18-.535-10.078-3.478,3.211-4.013,9.275-3.835,13.645.089,3.121-1.338,13.288,3.567,12.753ZM598.5,283.2c-4.638-4.548-9.989-8.918-15.964-11.416-3.478-1.516-3.567-.981-5.084,2.319-1.338,3.032-2.675,5.975-3.746,9.1H598.5Zm-63.231-.713c-5.351-8.472-14.448-16.053-23.01-21.226.8,2.051.8,4.1,1.159,6.154.357,2.14,1.338,3.746,1.873,5.708,1.07,3.567.267,7.848.267,11.594,6.6-.714,13.11-1.427,19.71-2.23ZM553.2,239.683c-.178-7.046,2.675-13.467,4.37-20.156-9.275,1.516-10.435-14.983-16.053-18.729,1.07,7.491,1.605,14.894,2.408,22.474.357,3.3.446,7.848,1.605,10.88,1.249,3.121,4.816,4.013,7.67,5.529ZM572.727,252.7c1.873-1.694,3.3-5.529,4.727-7.848a68.4,68.4,0,0,1,6.867-9.186c4.638-5.619,10.078-10.613,14.626-16.321a117.469,117.469,0,0,0-15.429,2.943,43.262,43.262,0,0,0-8.116,2.676c-2.14.892-4.638.981-6.6,1.873-4.013,1.694-3.121,12.218-3.656,15.964-.268,1.962-1.249,3.924,0,5.619,1.605,1.873,5.619,3.211,7.581,4.281ZM392.308,285.256c-7.759-1.338-14.894-3.3-21.137-8.294a117.8,117.8,0,0,1-14.537-14.537c-1.07-1.159-1.962-2.408-3.567-2.854-1.159-.268-2.319.357-3.478-.357-.981-.624-.892-1.962-1.695-2.675-1.249-1.159.535-.535-1.338-.892-1.249-.268-3.3.8-4.638,1.159-3.121.713-6.332,1.249-9.454,1.962-3.032.714-4.727,3.032-7.491,4.638-2.765,1.516-5.44,2.14-7.848,4.192-2.5,2.14-5.529,3.3-8.027,5.262-2.051,1.605-1.962,4.459-4.281,6.064-.981.714-2.319.714-3.121,1.605-.981.981-1.427,2.675-2.319,3.746-2.23,2.943-3.835,4.37-5.083,8.027s.268,6.689-.357,10.345c-.535,3.3-2.408,6.332-1.784,9.632.624,3.121,2.319,5.886,1.694,9.275-.357,1.873-1.516,3.3-1.159,5.173.178,1.427,1.338,2.765,1.873,4.1,1.159,2.765,2.14,6.332,1.605,9.364-.268,1.427-1.516,2.319-1.873,3.478-.535,1.694.713,3.746,1.249,5.8.981,3.746,1.338,7.67,2.23,11.416.535,2.23.714,6.154,3.121,7.224,2.854,1.159,5.173-1.249,7.67,1.873,4.1,4.994,4.1,12.486,8.2,17.748,1.784,2.23,4.192,4.459,7.135,4.727,1.784.178,2.943-.624,4.638,0a6.324,6.324,0,0,1,2.943,2.765c1.338,2.319.892,5.351,2.23,7.759a22.183,22.183,0,0,0,5.351,5.8c2.319,1.249,3.478.714,5.351,3.121,2.14,2.765,3.746,6.332,6.421,8.651,2.586,2.23,4.37,1.07,7.313,1.249,2.943.267,3.924,2.943,5.619,5.173.624.8,2.051,3.211,3.032,3.567,1.427.446.981-.268,2.23-.8,2.586-1.159,4.281-1.873,6.243.713,2.051,2.676,2.5,6.332,4.548,9.186,2.23,3.032,3.835,2.586,7.135,3.032,2.943.357,5.173,2.675,7.313,4.548,3.567,3.032,4.638,3.122,9.008,1.962,2.586-.714,4.013-.446,5.619,1.694,1.784,2.319,3.478,7.135,6.065,8.473,2.051.981,4.192-3.389,7.046-2.586,2.5.714,5.529,4.548,7.848,5.975,2.23,1.338,5.44,3.746,8.2,3.835,1.249.089,2.23-.8,3.389-.8a14.512,14.512,0,0,1,4.638,1.338c2.676,1.159,4.192,3.746,6.867,5.262,4.1,2.23,5.708.178,9.543-1.249,4.013-1.516,5.8.535,9.275,1.962a46.214,46.214,0,0,0,9.275,2.676c3.478.535,6.6-2.14,10.167-2.14a6.228,6.228,0,0,1,4.281,1.427c.624.446,1.159,1.159,1.784,1.695,1.784,1.695.892,1.427,2.943.713,2.408-.892,4.994-2.5,7.759-1.873,2.051.446,4.192,4.638,5.886,4.548.8,0,2.943-2.676,3.656-3.3,1.516-1.427,2.5-2.586,4.727-2.051,1.695.357,2.586,1.784,3.924,1.338,1.159-.357,2.854-2.765,3.211-3.746,1.07-2.854.357-6.689.713-9.632.446-4.1,1.516-8.2,2.14-12.307.624-3.924.713-7.848,1.249-11.683.446-2.943,2.23-6.689-1.516-8.027-2.943-1.07-4.727-.446-7.4-2.586-3.032-2.408-5.083-2.23-8.918-2.14-8.116.178-13.734-5.173-21.047-7.759-6.6-2.408-12.932-5.44-19.621-7.937-3.567-1.338-6.243-3.211-9.454-4.994-2.943-1.605-6.867-1.249-10.167-2.23-6.51-2.14-12.753-4.905-19.264-6.778-3.567-1.07-7.313-1.516-10.97-2.586-4.1-1.338-6.867-3.746-9.9-6.689-3.478-3.389-13.2-11.148-11.059-16.767,2.23-5.975,13.11,6.154,15.786,7.759,2.319,1.427,4.905,3.121,7.4,3.835,3.389.981,6.065-.357,9.364,1.07,6.867,2.854,13.467,7.224,20.6,9.364,3.211.981,6.956.8,9.81,2.408,2.943,1.694,5.619,3.746,8.74,5.351a156.76,156.76,0,0,0,19.71,8.918c-2.23-11.951-4.548-24.169-7.491-36.03-3.032-12.486-1.962-25.417-3.478-38.082-5.44,3.478-11.059,6.332-16.588,9.364-5.351,2.943-10.97,4.37-16.767,6.243-6.332,2.051-12.932,4.994-19.442,5.8-6.6.8-14,1.605-20.691,1.159a253.74,253.74,0,0,1-38.438-5.262c-1.962-.446-3.746-1.159-5.8-1.07-1.249.089-3.121.981-4.281.268-2.5-1.516-.446-5.44.981-6.956,1.962-1.962,4.013-2.676,5.886-4.994,2.676-3.389,5.351-6.689,8.2-9.81,5.351-5.975,11.594-11.951,15.34-19.175,4.1-7.759,7.135-15.964,10.435-24.08-3.567-.446-7.4-.892-11.148-1.07Zm180.6,8.829c-3.835.357-7.135.089-10.7.357a75.131,75.131,0,0,1-16.142-.8c-4.816-.624-9.454.535-14.18.089-4.905-.446-9.989-.446-15.072-.981-3.121-.268-2.943.446-3.835,3.389a37.913,37.913,0,0,1-3.478,8.294,86.438,86.438,0,0,1-9.721,14.359c-1.695,2.051-3.478,4.1-5.262,6.154-2.051,2.408-3.656,3.389-2.943,6.689,1.159,5.619,2.943,11.148,3.746,16.767.714,5.44.714,10.88,1.695,16.321,1.07,5.8,2.408,11.5,3.389,17.3.892,5.529,1.605,11.059,2.319,16.588.535,4.548.178,13.021,4.548,15.964,2.051,1.427,5.708,1.605,8.027,1.338,2.408-.268,4.727-1.962,7.045-1.873,2.14.089,3.032,1.516,4.37,2.943,2.23,2.408,2.23,3.032,5.262,3.032,1.873,0,2.14-.624,4.013.713s3.121,3.924,5.708,4.548c4.1.981,10.791-4.37,14.359-6.154,10.7-5.351,22.831-6.689,33.712-11.148a119.128,119.128,0,0,0,14.983-7.759,41.011,41.011,0,0,0,6.778-4.905c1.962-1.784,5.886-4.638,6.778-6.956-5.975,0-11.772,2.5-17.837.981-5.886-1.516-4.37-9.275-3.746-13.645-8.383,1.249-24.169,5.8-22.207-8.294.714-5.083,4.459-8.918,8.294-11.862,3.032-2.23,8.2-4.1,9.9-7.759-6.51-.892-22.474,1.695-23.455-7.848-1.07-10.078,9.008-15.429,16.856-18.818,9.543-4.1,19.71-7.937,30.055-9.632,4.548-.714,9.186-1.695,13.734-1.962,4.281-.178,10.256.535,13.11-3.389a66.159,66.159,0,0,1-16.5-4.816,72.68,72.68,0,0,1-6.689-3.924c-2.319-1.427-3.389-4.638-5.708-5.8-2.051-1.07-4.994.357-7.313.535-3.657.357-7.224.713-10.881.981a179.856,179.856,0,0,1-23.009.981ZM376.254,207.042c3.3,1.159,6.689,2.408,10.078,3.567,2.854.981,6.956,1.784,9.275,3.835,6.867,5.886-4.281,5.886-7.759,6.065,1.516,5.173,3.478,10.345,4.638,15.607.357,1.694,1.338,5.708-.178,7.135-1.873,1.605-3.478-.624-4.816-2.14-7.224,7.848-17.212,11.861-26.488,16.588,6.956,6.332,13.645,13.378,23.1,15.518,4.548.981,8.829,2.14,13.378,2.854,1.784.268,3.478,1.07,5.262,1.516.8.178,2.319.981,3.032.892,1.427-.178,1.427-1.159,2.14-2.854,3.835-8.383,7.491-16.945,13.824-23.812a36.475,36.475,0,0,1,10.97-8.2c4.37-2.14,9.454-1.962,14-3.924-5.351-7.67-10.97-15.429-14-24.347-.892-2.676-.446-3.657-2.765-4.013-1.694-.268-2.5.714-3.924-.624-3.567-3.211.713-6.956,2.854-9.186,5.173-5.351,10.88-11.148,14.537-17.748,1.516-2.765,2.854-6.064,1.784-9.1a114.783,114.783,0,0,0-6.51-13.824c-4.281-8.2-8.2-17.213-13.645-24.7-2.765-3.835-5.886-7.491-8.294-11.594-1.962-3.3-2.051-6.51-6.51-4.905a8.408,8.408,0,0,0-3.478,1.962c-1.427,1.159-1.338,2.051-3.478,2.676-1.784.535-3.924.178-5.708.535-2.586.535-3.746,1.873-5.8,3.567-3.746,2.943-7.4,1.962-11.683,3.032-1.605.446-1.784,1.07-3.032,2.051-2.051,1.427-4.638,1.694-6.956,2.319-2.319.535-4.994.981-7.135,2.14-1.962,1.07-3.389,2.765-5.529,3.657-1.873.8-4.994.8-5.708,2.23-.981,1.962.357,5.975.8,7.848.981,4.37,9.721,28,.892,27.825.624,3.211.8,5.886-3.211,4.548-3.389-1.159-8.027-3.567-11.683-2.23-2.943,1.07-6.51,5.529-7.313,8.562-1.249,4.638.713,6.065,4.548,7.848,4.459,2.14,7.581,2.5,12.307.892a19.546,19.546,0,0,0,5.351-2.5c1.784-1.249,2.5-2.854,4.816-2.943a4.749,4.749,0,0,1,4.281,2.23c.446.892.089,1.784.357,2.676a3.869,3.869,0,0,0,1.338,2.408c3.3,4.192,7.135,5.44,12.04,6.064ZM410.5,496.8c3.746.714,7.4-.446,11.148.357,3.3.624,6.956,2.854,9.989,4.37,6.243,3.211,13.913,2.586,20.958,3.478,3.657.446,7.759-.178,11.148,1.159,3.3,1.249,6.154,2.943,9.632,3.478,6.867.981,14.091.089,20.869,0,6.956-.089,13.467,1.516,20.78.178,1.427-.268,3.032.268,4.281.089.892-.178,1.873-1.249,2.765-1.605,3.032-1.249,6.956-1.159,10.078-1.338,7.4-.535,14.359-.268,21.493-2.141,2.676-.713,22.742-3.3,22.564-4.281-9.81.535-19.977.089-29.52-2.586-7.135-1.962-12.753-5.529-19.174-8.918a13.23,13.23,0,0,0-5.529-1.605c-2.765-.089-2.5.268-4.548,2.14-3.924,3.657-6.778,3.3-10.7-.178s-4.281.624-8.562.892c-4.459.357-4.994-5.083-9.543-4.37-2.051.357-3.746,1.873-5.886,1.695-1.962-.178-3.211-1.516-4.994-2.14-2.051-.714-4.548-.535-6.689-1.07-2.408-.624-4.37-2.23-6.956-1.962-4.013.446-6.6,3.567-11.059,2.676-4.638-.981-7.224-5.708-12.218-5.619-5.44.178-9.543.535-14.626-1.962-1.694-.8-2.854-2.14-4.459-3.032-2.051-1.07-4.192-.089-6.332-.714-4.1-1.07-6.6-6.332-8.918-9.543-1.873-2.586-2.14-2.586-5.351-3.032a29.368,29.368,0,0,1-6.778-1.873c-2.408-.981-4.638-2.854-7.135-3.657-2.23-.713-4.459-.178-6.6-1.338-2.051-1.159-3.567-3.746-4.994-5.44l-2.14-2.676c-1.605-1.962-1.427-2.14-3.567-2.5s-3.746-.089-5.708-1.249c-2.14-1.338-3.478-3.567-5.529-5.083-1.694-1.249-3.567-1.427-5.619-2.14a31.751,31.751,0,0,1-6.956-4.1c-.268,4.548.713,11.148-2.5,14.715-.892.892-1.962,1.427-2.676,2.586-1.249,1.962-.981.8-.535,3.478.535,3.032.446,4.37-.624,6.956-.178.535-1.427.624-1.605,1.159-.268.713.624,2.854.8,3.746.357,1.605.624,3.657,1.516,4.994,1.249,1.784,4.013,3.657,5.619,5.351a41.867,41.867,0,0,0,5.8,5.44c3.567,2.676,8.473,6.6,12.842,7.759,2.5.624,5.083.357,7.581,1.159s4.459,2.5,6.778,3.478c9.81,3.746,20.78,4.013,31.393,4.816Zm133.865-23.455c1.605.892,2.14.178,3.657.268,1.338.089,2.854.268,4.281.268a40.626,40.626,0,0,0,8.651-1.338c4.994-1.338,9.989-2.14,14.894-3.121,4.192-.8,8.294-2.676,12.575-4.192,5.529-2.051,11.416-2.5,17.3-2.854,5.351-.268,10.613-.892,15.964-1.338s10.613.268,15.875-.981a35.817,35.817,0,0,0,7.491-2.051c2.586-1.338,4.994-3.389,7.581-4.816,3.032-1.694,10.88-4.1,12.129-7.848-2.408.624-7.848,2.676-9.989.981-2.23-1.694-1.427-6.154-.535-8.294,1.338-3.211,4.1-4.1,6.6-6.243a67.154,67.154,0,0,0,4.994-5.083l2.408-2.676c-.357-.892-.981-.981-1.962-.089-4.638.178-17.48,10.256-17.926,1.249-.268-4.816,2.676-7.135,5.529-10.435a99.915,99.915,0,0,0,7.491-10.7c-4.727.8-8.829,3.211-13.378,4.548-4.905,1.338-10.167,2.943-15.072,3.478-1.873.178-6.867,2.051-8.472,1.07-1.249-.8-1.516-4.281-1.605-5.619-.178-4.905,3.746-8.918,6.064-13.021-5.44,3.3-9.186,8.027-14.18,11.861-4.905,3.746-9.186,7.224-14.8,10.078-5.083,2.586-10.88,3.924-16.321,5.529-5.619,1.695-10.97,3.389-16.678,4.548-6.243,1.338-12.486,3.567-18.818,4.638-1.516.268-4.994-.624-5.886.446-.714.892-.178,6.867-.268,8.294-.535,6.778-1.873,13.467-3.032,20.156-.535,3.389-2.051,7.759-1.784,11.148.178,2.319.178,2.319,3.121,2.5,1.338,0,2.675-.446,4.1-.357Zm65.194-97.121c-.8.178-.981.535-.624,1.07,10.791-2.319,21.226-6.778,32.374-7.937,2.943-.268,5.44-1.427,8.383-1.695,1.338-.089,2.675.089,4.013.089.892,0,3.121.624,3.746.535,2.5-.357,5.083-3.121,7.045-4.548,2.319-1.694,5.173-3.478,7.046-5.708,7.224-8.74,9.007-19.888,4.37-30.144-1.159-2.5-2.14-5.351-3.746-7.491-1.338-1.962-4.816-3.211-5.44-5.083-.268-.8.446-2.586,0-3.3-.446-.624-3.657-.8-4.37-.981A34.862,34.862,0,0,1,652.993,308c-.8,2.319-.535,3.746-2.854,5.173-2.586,1.605-6.6,1.249-9.453,2.051-6.243,1.784-12.932,2.319-19.353,4.013-14.448,4.013-29.609,8.829-42.541,16.588,5.886,2.319,13.2,1.07,19.353,1.159,4.37,0,15.875-2.676,18.194,2.14,2.943,6.154-4.994,10.167-9.008,12.753-6.243,3.924-12.753,7.581-18.461,12.307a34.832,34.832,0,0,0,9.543-1.427c3.478-.8,6.956-.892,10.345-1.695,5.262-1.249,12.129-6.778,17.837-4.548,4.994,1.962,3.3,9.543-.089,12.04-2.23,1.695-5.084,1.605-7.67,2.408-3.568,1.07-6.243,3.3-9.275,5.262ZM478.816,76.476c-10.791-8.027-21.137-16.588-32.374-23.9.089,3.478,4.905,8.027,6.6,11.148,2.5,4.548,4.816,9.1,7.046,13.734,4.1,8.2,8.562,16.232,12.753,24.436,8.562,16.856,21.047,30.5,33.176,44.681,6.421,7.581,11.861,15.7,18.015,23.545a36.439,36.439,0,0,0,4.013,4.994c3.032,2.5,1.338-.535.713-2.676-1.427-4.994-2.854-10.078-4.192-15.072-1.249-4.37-3.121-9.008-2.23-13.645.892-4.37,3.478-8.2,5.619-12.04,2.051-3.657,4.281-7.224,6.6-10.791,1.07-1.605,2.319-2.854,1.516-4.281-.892-1.605-4.281-3.3-5.708-4.37-7.937-5.8-14.715-13.11-22.92-18.729-4.994-3.389-10.7-5.8-16.053-8.562a83.944,83.944,0,0,1-12.575-8.472Zm269.6,154.11a19.114,19.114,0,0,0-5.351-2.765c-1.249-.357-2.586-.268-3.835-.714-3.746-1.249-6.956-3.211-10.97-4.013-6.778-1.427-13.645-3.3-20.512-3.3a214.1,214.1,0,0,0-22.653,1.159c-4.013.446-7.937,1.07-11.951,1.694-3.835.535-7.492.178-11.059,2.051,2.586,1.427,5.618,1.427,8.472,2.051,2.23.535,4.281,1.605,6.421,2.23,5.975,1.695,12.129,3.567,18.194,5.084,5.084,1.249,10.078,2.943,15.072,4.281,4.638,1.249,9.9,4.281,14,6.867,4.816,3.032,8.294,6.778,12.307,10.88,4.192,4.37,8.562,8.294,12.307,13.11,7.848,10.167,11.772,22.742,17.034,34.336,2.675-7.581,4.727-14.983,7.581-22.385,1.605-4.192,3.835-8.027,5.44-12.307.624-1.784,1.338-3.478,1.962-5.262,1.07-2.943,1.427-3.478-.178-6.243a25.511,25.511,0,0,0-7.313-8.116c-2.854-1.962-4.548-4.548-7.491-6.332-6.064-3.657-11.326-8.74-17.48-12.307Zm-53.064-64.3c11.059-4.1,21.493-10.078,32.285-14.537.981-.357,1.873-.089,2.854-.535,1.338-.624,2.5-1.784,3.835-2.408,2.676-1.249,5.529-2.14,8.116-3.389,6.51-3.121,13.11-6.154,19.62-9.275,10.435-4.905,19.8-11.594,29.7-17.569,4.192-2.586,8.294-5.619,11.951-8.383,4.192-3.121,7.4-8.116,12.04-10.7-1.605-.8-6.332,1.249-8.027,1.694-2.5.713-5.173,1.694-7.759,2.586-6.689,2.14-13.824,3.478-20.334,5.886-7.135,2.676-14.8,4.281-22.118,6.6-8.026,2.5-16.232,4.459-24.258,6.867-6.956,2.14-13.645,4.816-20.6,6.956-3.746,1.159-7.759,2.14-11.237,4.013-3.032,1.605-3.121,3.478-4.013,6.6-2.051,6.778-3.835,13.556-6.51,20.156-.268.624-4.816,8.74-4.727,8.918.624.981,8.2-2.854,9.186-3.478ZM474.268,215.871c3.3.089,6.154.981,9.364,1.516,3.478.535,7.046-.089,10.435.713,2.675.713,5.262,1.873,7.937,2.676,3.3.892,6.867.268,10.078,1.427s6.332,4.013,9.275,5.708c2.051,1.249,4.548,5.083,7.135,2.676,1.427-1.427-.178-6.867-.624-9.364-.446-2.676.089-7.135-1.784-9.275C523.587,209,518.949,209,515.56,209a44.544,44.544,0,0,1-10.256-1.516c-7.937-1.962-15.964-4.37-23.277-8.116a92.547,92.547,0,0,1-17.837-12.129c-5.708-4.905-9.275-10.791-12.842-17.391-.892,3.211,1.159,7.491,1.159,10.791a28.257,28.257,0,0,1-3.032,12.4,51.481,51.481,0,0,1-6.064,9.632c-1.338,1.605-2.854,2.943-4.281,4.459-2.051,2.14-2.23,2.408-.981,5.173,1.695,3.657,4.37,6.689,6.421,10.167.268.446,1.695,3.746,2.14,3.924,1.695.981,3.389-.892,4.816-1.427,4.548-1.605,8.562.268,12.575-3.211,2.854-2.586,5.8-5.975,10.167-5.886Zm48.784-28.717c-5.083-12.04-14.894-22.831-22.831-33.176-3.567-4.727-8.2-8.116-11.951-12.486-4.013-4.816-8.027-9.454-11.951-14.359a93.041,93.041,0,0,1-10.435-15.786c-2.765-5.619-6.154-10.791-9.008-16.321-5.8-11.326-10.97-22.831-17.034-33.979a126.682,126.682,0,0,1-7.313-15.786c-.624-1.694-2.854-10.435-3.3-5.262-.268,3.121,1.338,7.135,1.784,10.256.892,6.421,1.784,12.753,2.676,19.175.892,7.046,2.854,13.824,3.567,20.869,1.338,12.4,3.478,25.685,7.759,37.457a403.57,403.57,0,0,0,16.142,37.19c2.676,5.529,5.262,11.683,9.9,15.786a64.918,64.918,0,0,0,16.588,11.059c5.708,2.5,12.307,5.351,18.461,6.065,7.67.892,13.645,1.516,20.512,5.708-.8-2.854-.268-4.459-.535-7.313-.357-3.032-2.051-6.243-3.032-9.1Zm8.74,66.71a65.2,65.2,0,0,0-.981-8.383,9.115,9.115,0,0,0-2.319-5.262,9.465,9.465,0,0,0-.8-.981c-.446-1.249-1.07-1.338-1.962-.178-.713-.089-1.249.268-2.051,0-.892-.178-2.586-1.516-3.656-1.873-2.854-.892-4.638-3.121-7.491-4.1-.446-.178-1.516.446-2.14.268a2.678,2.678,0,0,0-2.5-.981,18.642,18.642,0,0,1-2.23.089c-4.013-.268-6.689-2.319-10.345-3.389-4.013-1.159-7.937.089-11.951-.178-3.121-.178-5.44-1.873-8.74-1.694-4.281.178-3.121,1.962-2.586,5.8.446,3.3.089,5.262,3.746,5.8,3.389.535,6.332-1.07,9.81,0,3.567,1.159,6.6,3.657,9.186,6.332,1.427,1.427,2.23,2.854,4.192,3.211,1.427.268,3.389-.446,4.816-.535a17.111,17.111,0,0,1,10.524,2.854c6.778,4.1,12.664,9.543,18.372,14.983.089-3.924.446-8.027-.892-11.772Zm103.721-32.552c6.064-6.51,16.945-8.918,25.061-11.416-2.319-2.676-6.867-5.351-10.435-5.351-3.656,0-8.473,2.14-11.951,3.3-7.135,2.586-12.664,8.2-18.194,13.11-13.288,11.951-24.258,25.417-35.584,39.152a86.325,86.325,0,0,1,14.8,11.237,50.269,50.269,0,0,1,5.886,6.421,28.9,28.9,0,0,1,1.516,2.854c1.07,1.784,0,2.051,2.408,1.873-4.905-11.148-7.135-26.042-4.548-37.992,1.516-6.867,6.332-12.575,12.129-16.321a36.69,36.69,0,0,1,9.364-4.638c2.141-.624,8.562-.357,9.543-2.23Zm209.4-109.429c.535-3.924.535-7.937.892-11.951.357-3.835,1.159-7.313.357-11.148a12.492,12.492,0,0,0-5.529,3.746,51.586,51.586,0,0,1-7.491,6.51c-6.243,4.1-12.04,9.186-17.748,14.091-11.594,9.989-23.545,20.958-37.457,27.825-13.021,6.421-25.6,13.556-39.062,19.175-6.332,2.676-12.308,4.994-18.729,7.67-7.4,3.121-14.626,6.867-22.117,9.632-3.657,1.338-7.313,2.765-10.97,4.1-3.835,1.427-9.1,1.962-12.486,4.1-2.854,1.784-5.262,4.994-7.67,7.313-4.281,4.013,1.249,2.943,4.192,3.389a31.124,31.124,0,0,1,9.989,3.121c2.854,1.427,6.154.535,9.275.8,3.567.357,6.51-.357,9.989-.446,4.281-.089,8.562-.357,12.932-.357,7.4.089,14.894.446,22.3.089,3.211-.178,6.421,0,9.632-.089,3.746-.178,7.046-1.516,10.613-2.14,14.091-2.5,28.361-4.994,41.292-11.326a127.855,127.855,0,0,0,36.3-25.685c6.243-6.332,7.759-12.307,8.473-21.137.713-9.186,2.14-18.194,3.032-27.29ZM589.939,486.277a164.955,164.955,0,0,0,26.22-5.44c4.192-1.338,8.294-2.586,12.575-3.746,4.727-1.338,5.618-2.23,7.135-6.867-5.886,1.427-11.5,3.032-17.569,3.924-3.032.446-5.8,1.605-8.829,2.051-3.478.535-7.046-.535-10.435-.178-3.211.357-6.421,2.5-9.543,3.389-2.765.8-5.44.981-8.2,1.873a79.041,79.041,0,0,1-8.205,2.23c-2.586.535-4.994-.268-7.313,1.427a27.528,27.528,0,0,0,12.218,1.516,27.24,27.24,0,0,1,6.6-.089c1.784.178,3.656.981,5.351-.089Zm56.989-93.554a96.594,96.594,0,0,1,1.338-14.359c-5.262-.892-9.454,2.765-14.18,4.281,3.835,6.867,4.281,11.326,2.051,19.085,2.408-1.07,4.905-1.962,7.313-2.943a8.9,8.9,0,0,0,2.586-1.338c1.695-1.605,1.07-2.319.892-4.727ZM553.374,279.994c-.089-5.886-.089-11.683-.446-17.569a59.212,59.212,0,0,0-.446-7.937c-.535-3.032-2.676-4.192-4.994-6.243-.8,5.708.357,12.664.892,18.55.268,3.478.268,6.154,1.249,9.364,1.159,3.835,0,5.529,4.192,6.689-.089-.892-.268-1.873-.446-2.854ZM483.1,320.484c5.708-3.3,9.275-8.116,13.378-13.11,5.44-6.51,9.1-11.5,11.237-19.8,1.516-5.886,3.122-15.25-.178-20.78-1.516-2.5-4.281-6.778-6.956-7.937-2.854-1.159-6.867.892-9.453,1.962-6.867,2.943-12.843,7.313-19.442,10.88-7.224,3.835-14.18,8.918-20.78,13.824-13.021,9.632-24.793,19.175-37.1,29.609-4.816-5.619,6.332-15.786,10.524-19.264,6.154-5.083,11.951-10.88,18.461-15.875a285.264,285.264,0,0,1,23.634-16.321c3.835-2.319,7.67-5.351,11.772-7.135a32.079,32.079,0,0,0,4.816-1.962,17.406,17.406,0,0,1,4.1-2.5c-1.159-2.051-8.027-5.083-10.435-5.351-4.638-.535-10.613.981-15.072,1.962-8.383,1.873-17.213,3.3-24.972,6.778a31.559,31.559,0,0,0-8.918,6.421c-3.657,3.389-5.173,7.4-7.224,11.951-4.281,9.453-8.918,18.818-13.021,28.271-3.746,8.74-7.491,16.142-14.18,23.1-2.854,2.943-5.708,5.886-8.74,8.562-1.694,1.427-9.632,6.689-8.294,8.651.535.8,6.6.446,7.759.535,2.408.268,4.816.624,7.224.8,4.816.357,9.1,1.07,13.913.981,4.727-.089,9.364.446,14.091,0,4.459-.357,8.918-.981,13.378-1.516,9.989-1.338,19.442-5.975,28.717-9.543,4.192-1.605,7.759-3.657,11.683-5.529,3.3-1.516,8.2-4.816,10.078-7.67Zm-27.915-88.917c-1.427,0-4.013-.713-4.638.535-.357.713.892,3.032,1.159,3.924.535,1.605.624,2.854,1.962,3.389,1.338.446,5.083-.713,6.6-.8,1.962-.178,3.657-.535,5.619-.892-.624-1.605-.981-4.281-2.5-5.262-1.694-1.249-6.332-.8-8.2-.892Zm261.4,25.685c-1.427-1.605-2.943-1.338-4.727-1.962-2.319-.713-4.459-2.14-6.6-3.121-4.548-2.14-9.453-2.854-14.091-4.638-8.918-3.567-17.48-6.867-26.488-9.81a113.211,113.211,0,0,0-14.359-3.746c-4.548-.8-10.97-2.854-15.429-2.14-7.581,1.338-18.015,9.721-20.691,16.856-1.516,4.192-.357,8.116.446,12.218,1.07,5.084,1.962,10.345,4.013,15.25,3.478,8.383,13.021,10.7,20.78,13.11,8.562,2.675,17.123,3.835,25.685,6.51,4.281,1.338,8.74,1.962,13.021,3.211,4.1,1.249,8.026,1.784,12.4,2.676,11.415,2.319,22.92,4.013,34.425,5.886,5.975.981,11.951,2.051,17.926,3.032,2.5.446,5.084.357,7.581,1.07,2.854.892,4.638,1.962,7.759,1.249-5.351-10.524-8.829-21.761-16.231-31.125-7.67-9.543-15.429-18.283-25.417-24.526Zm-86.6-63.677c4.548-.892,9.186-1.694,13.645-2.854a31.314,31.314,0,0,0,5.44-2.14c1.873-.892,2.319-2.051,3.746-3.211a1.481,1.481,0,0,0,1.695-.178,3.343,3.343,0,0,1,1.427-1.873,48.644,48.644,0,0,1,4.1-3.389c3.389-2.854,6.51-6.154,9.721-9.186a41.617,41.617,0,0,0,8.294-10.613c.535-.981,1.784-2.765,2.14-3.657.357-1.159.268-2.5.8-3.567.446-.892,1.695-1.516,2.23-2.5.8-1.516.624-3.657,1.159-5.262,1.249-3.746,2.854-7.4,3.924-11.148,2.5-8.651,2.14-18.907,1.784-27.915-.178-4.727-1.694-9.364-2.943-13.824-1.159-4.37-2.051-9.008-3.746-13.11-1.249-2.943-3.121-5.44-4.281-8.383a122.189,122.189,0,0,1-4.459-12.486A128.571,128.571,0,0,0,664.14,33.222a135.776,135.776,0,0,0-6.154-16.5c-4.816,4.192-10.078,8.2-14.448,12.843-3.567,3.746-7.759,8.027-11.683,11.416-4.459,3.924-8.651,7.581-13.467,11.148-2.586,1.873-4.638,4.37-7.046,6.51-2.5,2.23-5.262,3.567-7.492,6.065a40.451,40.451,0,0,1-6.154,5.083c-1.695,1.249-3.032,3.389-4.727,4.816-4.727,4.013-8.74,8.829-13.11,13.2a322.47,322.47,0,0,0-27.825,30.5c-1.159.713-2.586,3.211-3.567,4.548-1.695,2.319-2.943,4.994-4.548,7.4-1.784,2.676-3.746,5.262-5.262,8.027-.8,1.427-1.07,3.389-1.962,4.638-.535.713-1.516,1.159-2.14,1.962-3.924,5.529-2.676,10.435-.714,16.5,1.962,6.154,3.3,12.218,6.065,18.1,2.943,6.332,5.619,12.753,8.383,19.175,1.338,3.032,2.676,5.975,4.013,8.918.8,1.784,1.962,6.243,3.835,7.313,3.478,1.873,3.121-3.746,3.746-5.975.714-2.765,1.873-5.44,2.676-8.2,1.784-5.975,6.065-12.753,6.6-18.818,4.37-9.275,5.529-19.8,10.435-28.985,2.14-3.924,3.746-7.759,6.243-11.5a54.58,54.58,0,0,0,6.6-12.307,67.673,67.673,0,0,1,7.759-14.359c1.338-1.962,2.765-3.478,4.013-5.44,1.605-2.586,3.121-5.262,4.727-7.848,6.243-10.256,13.288-20.6,20.423-30.233,3.121-4.192,6.154-8.472,9.632-11.951,1.694-1.694,10.078-14.091,12.218-13.467,6.421,1.784-10.524,27.023-12.129,29.787-5.886,9.989-11.148,20.6-17.3,30.412-6.421,10.256-12.664,20.512-18.1,31.393-2.854,5.8-4.637,12.129-7.937,17.658a163.18,163.18,0,0,0-8.562,16.053c-2.765,6.332-4.816,13.11-7.135,19.531-1.962,5.44-6.51,11.594-6.6,17.48,4.548-1.159,9.275-1.873,13.913-2.765,4.816-.892,9.543-2.676,14.359-4.013,9.632-2.676,19.62-2.765,28.271-7.759Zm-194.867-56.81c.357,1.338.624,2.765,2.051,3.389q-1.07-3.344-2.408-6.689c.089,1.07.178,2.14.357,3.3ZM305,586.252c-1.427-14.894-1.784-30.234.624-45.038.535-3.389.535-7.224,1.784-10.435,1.338-3.478.981-6.51,1.873-10.167,1.695-7.046,3.924-14.091,5.619-21.226,1.784-7.224,4.548-12.4,8.383-18.639a89.716,89.716,0,0,1,5.886-8.116c1.07-1.427,1.427-1.338,1.694-3.211.357-2.5-.713-4.727-.981-7.135a22.267,22.267,0,0,1,1.873-9.9c1.427-3.389,1.962-6.956,3.389-10.256,1.338-2.943,3.657-4.37,4.1-7.67.446-2.854.892-6.243,1.07-9.1s-1.605-5.083-3.835-6.51c-.981-.714-1.962-.8-2.943-1.695-1.07-.981-2.14-2.586-3.121-3.657-2.051-2.23-3.032-6.956-5.173-8.2-1.427-.8-3.657-.535-5.262-1.07a12.238,12.238,0,0,1-4.727-2.854,29.6,29.6,0,0,1-5.975-7.67,36.115,36.115,0,0,1-2.319-4.994c-.446-.981-1.159-4.816-1.962-5.351-1.873-1.159-5.351,1.338-7.848-.268-3.121-1.962-4.727-6.867-5.619-10.256-.981-3.746-.981-7.759-1.873-11.5-.981-4.37-1.962-8.651-2.765-13.021-1.427-7.759-2.943-16.232-2.23-24.169a27.451,27.451,0,0,0,.535-5.44c-.089-1.605-.981-3.121-1.159-4.816-.357-3.3,1.427-7.135.535-9.989-1.249-4.192-2.854-6.243-1.159-10.88,1.159-3.121,4.1-5.351,5.083-8.2.446-1.427.089-3.032.446-4.548.535-1.784,1.694-2.5,2.586-4.013,1.694-2.943,1.694-5.083,4.727-7.045,3.924-2.408,4.638-3.835,7.046-7.581,1.605-2.586,5.083-4.638,7.848-6.064,3.211-1.605,6.243-3.657,9.543-5.173,1.695-.8,3.567-1.338,5.173-2.23.8-.446,1.338-1.249,2.23-1.694,2.676-1.249,8.026-.981,10.791-.713,3.746.446,7.581,1.605,8.74,5.619,2.051-1.962,5.351-2.586,7.759-3.746,2.854-1.427,6.154-1.873,9.1-3.389,6.867-3.389,13.2-6.867,20.691-8.74-1.427-4.816-1.784-10.078-5.975-13.11-3.924-2.854-8.027-5.262-11.594-8.562-1.784-1.605-3.657-3.211-5.351-4.905-1.249-1.249-2.5-4.1-4.192-4.37-1.159-.178-3.924,1.962-4.994,2.408a27.069,27.069,0,0,1-7.4,2.14c-9.008,1.07-18.372-5.529-20.245-14.359-2.5-11.5,1.159-18.194,9.632-25.507-1.338-.8-2.676-1.605-4.1-2.408l-1.338-.8c-1.07-1.249-1.784-1.07-2.23.446-2.319,1.605-3.657,4.281-6.332,5.8a12.481,12.481,0,0,1-7.4,1.694,13.861,13.861,0,0,1-4.638-.624,8.457,8.457,0,0,1-2.408-1.516c-.624-1.249-1.516-1.338-2.5-.268-2.23.446-3.924,1.873-6.243,2.14a18.431,18.431,0,0,1-3.835.178c-1.427-.268-1.605-1.694-2.765-2.051-2.765-.981-5.975,1.784-8.473.892-1.962-.713-4.638-3.835-5.529-5.619-1.249-2.408-.8-5.44-2.586-7.581-1.516-1.784-3.746-2.586-5.262-4.548-1.873-2.408-2.319-4.994-3.032-7.937-.892-3.567-2.943-6.689-4.1-10.167-2.051-5.886-2.676-12.4-.357-18.283,1.07-2.765,2.586-3.746,4.1-6.065,1.694-2.676,1.962-6.243,3.478-9.1,1.159-2.051,2.14-3.924,4.013-5.173,2.408-1.605,4.548-1.605,6.51-4.013,1.694-2.14,2.854-4.281,5.351-5.8,2.14-1.338,5.262-.8,7.224-2.051,2.051-1.338,2.586-3.746,5.173-4.816A15.282,15.282,0,0,1,305,80.668c2.943.268,6.065,1.427,9.1,1.159,2.943-.357,4.994-2.408,8.116-2.854,3.211-.446,6.332-.446,9.275,1.159,2.5,1.338,4.281,4.727,7.046,5.262,2.408.535,3.835-.624,6.421.268,2.14.8,4.013,1.427,5.173,3.657.357.624.446,2.765.981,3.121,1.159.981.446.357,2.051.089,3.121-.446,6.6-2.586,9.632-3.657a58.485,58.485,0,0,1,9.543-2.765c1.07-.178,2.676,0,3.657-.268,1.159-.357,1.873-1.159,3.032-1.695,5.886-2.408,12.129,1.07,18.015,1.605,4.013.357,5.083.981,7.491,4.281,2.051,2.765,3.567,2.5,6.243,3.924,2.408,1.249,4.816,5.173,6.154,7.491,1.873,3.032.8,5.351,1.427,8.383.535,2.676,3.3,3.478,5.173,5.351,2.676,2.676,4.994,5.8,7.491,8.651.535-3.924-1.784-8.116-2.765-11.772C427,107.691,427,103.5,426.287,99.04c-1.338-8.2-2.854-16.41-3.478-24.793-.624-8.918-1.159-17.837-2.14-26.666-.446-3.835,0-7.581-.268-11.416-.089-1.784-.268-3.478-.268-5.173,0-1.873-.713-6.154,0-7.759,1.338-2.765,4.638,1.07,6.689,2.051,1.427.624,3.032.713,4.37,1.516,2.14,1.159,2.943,3.121,4.37,4.905,4.548,5.886,12.129,9.989,18.283,14.091,14.715,9.9,28.539,21.583,43.611,30.858,8.116,4.994,16.41,9.364,23.99,15.25,6.421,4.905,15.518,11.416,18.1,19.531,3.924-2.5,5.619-7.224,8.562-10.613,3.389-3.835,6.6-7.848,9.9-11.772,2.14-2.5,4.638-4.013,6.778-6.421,3.211-3.567,6.6-7.313,10.167-10.7,13.021-12.218,26.577-23.634,40.668-34.782,4.1-3.211,8.2-6.332,12.218-9.632,4.1-3.389,7.67-7.491,11.951-10.435,3.746-2.586,6.867-5.886,10.7-8.383C652.9,7.18,658.7,2.1,661.911,4.237c1.07.713,1.07,2.051,1.427,3.121a44.236,44.236,0,0,0,3.835,6.956c2.676,4.281,4.727,8.918,7.135,13.378,2.319,4.548,4.994,8.829,6.689,13.645,1.873,5.262,3.478,10.7,5.619,15.875,4.459,10.524,8.919,20.6,11.237,31.928,1.249,6.154,1.962,12.307,2.675,18.461a52.772,52.772,0,0,1,.178,10.613c-.178,1.784-1.695,6.332-.446,7.759,9.632-5.262,18.818-10.167,29.252-12.932,4.816-1.249,9.543-3.746,14.358-5.084a179.777,179.777,0,0,0,17.748-5.886c5.262-2.14,10.88-3.478,16.232-5.44A178.645,178.645,0,0,1,796.044,91.1c12.307-3.121,25.6-5.975,37.368-10.613,3.3-1.338,6.51-2.943,9.81-4.1,2.14-.8,5.619-2.765,7.848-2.586,4.905.535,5.083,10.167,4.994,13.913-.089,11.772-.267,23.545-1.695,35.406-1.516,12.753-1.338,26.577-6.332,38.617-4.281,10.435-14.537,19.175-24.08,24.793-6.154,3.657-12.575,8.116-19.175,10.97-5.708,2.408-11.415,4.37-17.212,6.51a157.755,157.755,0,0,1-38.438,9.632,79.544,79.544,0,0,0,8.473,4.816,64.789,64.789,0,0,1,8.651,5.975c4.994,3.657,9.989,7.491,14.091,12.218,5.44,6.332,9.275,11.861,10.434,20.423,1.07,8.383-3.567,16.41-6.332,23.99-3.3,9.008-6.6,17.926-9.364,27.112-.892,2.943-3.211,7.67-2.765,10.88.267,1.516,1.427,2.5,1.427,4.192-.089,3.746-1.873,3.478-4.727,3.121-3.835-.535-7.759-.624-11.594-1.338-3.657-.624-7.135-.446-10.7-.981-3.657-.535-7.135-.981-10.791-1.249-1.873-.089-3.835-.178-5.708-.178s-2.676-.624-4.37-.892-3.478.446-5.262.178c-1.873-.268-3.924-1.338-5.8-1.338-2.408,0-2.408.268-4.727-.446-1.784-.535-3.478-.178-5.262-.357a87.623,87.623,0,0,1-11.772-1.962,71.786,71.786,0,0,0-7.492-.981c-1.784-.268-3.657-1.516-5.53-1.427,4.994,7.937,6.778,14.269,6.689,23.634-.089,8.74-3.478,16.5-8.383,23.634a30.884,30.884,0,0,1-16.677,12.575c-4.281,1.516-5.975.981-6.421,5.8-.357,4.459-.713,8.74-1.427,13.2,4.727-2.23,18.283-11.862,21.047-4.192,3.121,8.651-4.192,16.321-8.294,23.1,4.905-.624,10.078-2.854,11.148,3.567.535,2.943-.714,5.975-1.784,8.651-.8,1.873-4.637,6.778-4.37,8.383.178.8,2.408,1.962,2.943,2.765a10.013,10.013,0,0,1,1.249,3.567,12.786,12.786,0,0,1-1.516,8.294c-2.408,4.192-8.829,7.759-12.932,10.167-5.083,2.943-9.275,5.975-15.161,6.778a16.6,16.6,0,0,0-2.676.446c-.446.357-.446,4.37-.624,5.083a54.6,54.6,0,0,1-2.765,9.721c-2.051,4.727-8.919,5.886-13.378,7.848a187.237,187.237,0,0,1-19.442,7.046c-3.3,1.07-6.6,2.141-9.989,2.943-2.23.535-8.294.624-9.9,2.051-.981.892-1.249,3.121-2.23,4.281-.535.624-1.605.178-2.051.535-1.159,1.07-1.695,4.281-2.765,5.708-.178.268-2.14,2.051-2.23,2.586-.089.981,1.695,3.746,2.141,4.548a77.589,77.589,0,0,1,3.924,9.81c1.873,5.886,1.784,12.129,3.567,17.926,3.746,12.307,5.529,25.061,7.581,37.814,1.07,6.778,2.408,13.467,3.567,20.245,1.159,6.6,3.924,12.842,6.064,19.175,3.924,11.772,4.013,24.793,2.854,37.011-.357,3.389,1.338,12.664-4.727,9.721-5.262-2.586-4.816-12.932-6.243-17.837-3.746-12.932-5.262-26.488-9.275-39.419-4.013-13.288-6.332-26.4-8.472-40.044-2.23-14.091-5.262-28.093-7.67-42.095-.535-2.943-.713-15.25-4.281-16.321-1.516-.446-5.262.892-7.046.981a62.717,62.717,0,0,0-12.129,2.051c-5.619,1.338-11.148.357-16.677,1.516-3.211.624-6.51.892-9.721,1.516-3.478.714-6.689,2.14-10.256,2.765-6.064,1.07-12.218,0-18.372.357-6.332.357-12.932,1.07-19.264.624-6.51-.446-10.88-4.281-17.3-4.37-6.064-.089-12.486.8-18.55-.268A80.318,80.318,0,0,1,429.5,517.4c-2.676-.8-4.905-2.676-7.581-3.657-6.867-2.319-14-.535-21.226-1.873-2.943-.535-7.313-1.07-9.989-2.319a10.81,10.81,0,0,0-3.3-1.249,24.2,24.2,0,0,1-3.657-.8,66.83,66.83,0,0,1-9.008-3.032c-2.586-1.249-4.459-3.3-7.491-3.924-1.427-.268-2.943,0-4.37-.357-1.694-.446-3.478-1.695-5.173-2.408a33.552,33.552,0,0,1-8.74-5.262c-5.351-4.459-8.562-9.454-11.5-15.7-4.013,9.81-6.51,20.245-9.9,30.323-1.605,4.816-1.873,9.543-2.675,14.537-.981,5.529-1.962,10.97-3.121,16.41-.446,1.873.178,3.924.089,5.886-.268,2.765-1.07,5.44-1.338,8.294-.446,5.529-.624,11.237-.8,16.767-.268,10.7,2.14,21.315,1.962,31.928,0,2.23-.981,4.459-.535,6.689.535,2.943,1.694,4.994,1.784,8.116.178,5.44.714,10.88.357,16.41a85.018,85.018,0,0,1-6.154,26.309c-1.784,4.459-3.3,9.364-5.708,13.556-1.784,3.032-4.192,8.116-8.383,7.224-3.746-.8-4.281-3.567-3.478-6.778,1.249-4.994,2.051-9.989,3.032-15.072.981-5.529.713-11.148,1.516-16.677.8-5.708,2.5-11.594,2.676-17.391.178-6.6-2.408-13.2-1.784-19.8.268-2.943.981-4.816.535-7.848L305,591.693c.089-1.784.892-4.013,0-5.44Z" transform="translate(0 0)"/><path d="M527.464,635.5c10.345,7.937-8.829,25.6-14.269,31.036-2.319,2.319-4.37,4.638-6.956,6.778-1.427,1.07-7.848,4.638-8.116,6.332-.268,1.784,4.905,7.224,5.886,8.74,2.319,3.3,4.638,6.51,6.956,9.81,8.562,11.861,18.1,23.991,22.207,38.26.892,3.032,2.319,7.759,1.338,10.88-1.159,4.013-3.835,1.427-5.351-1.07-3.567-5.886-5.262-12.04-9.721-17.569-5.44-6.778-11.326-13.11-16.41-20.156-4.994-7.046-8.2-14.8-12.753-22.028-2.408,1.962-5.262,3.389-7.491,5.351-.981.892-1.516,2.23-2.319,3.211a30.259,30.259,0,0,1-3.746,2.943c-2.23,1.694-6.064,4.192-7.581,6.51-2.051,3.121-2.23,7.848-3.746,11.326-3.746,8.294-9.81,15.786-14.626,23.456-1.962,3.032-4.548,6.421-7.581,8.472-3.924,2.586-6.6-2.23-7.313-5.8-1.516-7.135,4.816-15.7,7.848-21.85,3.746-7.759,9.186-14.448,13.021-22.207,2.051-4.1,3.032-7.224,6.421-10.524,2.765-2.676,5.886-4.548,8.562-7.313,1.249-1.249,2.765-1.605,4.1-2.586,1.249-.892,1.695-1.873,2.765-3.121a23.647,23.647,0,0,1,7.848-5.8c3.211-1.516,6.332-5.262,9.275-7.492,4.013-3.032,8.116-5.8,11.862-9.1,6.689-5.886,13.021-11.059,19.888-16.5" transform="translate(-18.95 -68.333)"/><path d="M650.6,724.756c.089-2.319.178-4.638.178-6.956,0,2.319-.089,4.638-.178,6.956" transform="translate(-42.2 -77.235)"/><path d="M318.3,195.1h0" transform="translate(-6.258 -20.7)"/><path d="M327.3,640.427v0" transform="translate(-7.232 -68.355)"/><path d="M327.7,631.2c.089-1.338.178-2.676.268-4.1-.089,1.427-.178,2.765-.268,4.1" transform="translate(-7.275 -67.425)"/><path d="M309.334,628.4c0,1.159-.089,2.319-.089,3.478a3.268,3.268,0,0,1,.089-3.478" transform="translate(-5.229 -67.565)"/><path d="M753.338,140.711c-.892-1.07-.446-2.14,0-3.211v3.211" transform="translate(-53.256 -14.47)"/><path d="M523.5,586.2h0" transform="translate(-28.452 -63.001)"/><path d="M329.7,609.967V606.4a3.421,3.421,0,0,1,0,3.567" transform="translate(-7.491 -65.186)"/><path d="M751.1,357.2h0" transform="translate(-53.07 -38.232)"/><path d="M310.4,656.9a2.409,2.409,0,0,1,0,2.943V656.9" transform="translate(-5.404 -70.648)"/><path d="M309.1,643.7c.089.981.178,1.962.268,2.854-.089-.981-.178-1.962-.268-2.854" transform="translate(-5.263 -69.22)"/><path d="M309.368,636.9c-.089.981-.178,2.051-.268,3.032.089-.981.178-1.962.268-3.032" transform="translate(-5.263 -68.485)"/><path d="M806.6,363.189c.714,0,1.427-.089,2.141-.089a17.188,17.188,0,0,1-2.141.089" transform="translate(-59.072 -38.871)"/><path d="M338.478,514.5c-.089.981-.089,2.051-.178,3.032.089-.981.089-1.962.178-3.032" transform="translate(-8.421 -55.246)"/><path d="M683.1,65.626c2.675-3.924,5.886-9.186,10.256-11.326-1.516,2.14-7.581,11.594-10.256,11.326" transform="translate(-45.715 -5.471)"/><path d="M916.669,108.364c-.981-1.07-.892-3.746-1.249-5.262-.8-3.032-1.427-2.943,1.605-4.1a22.093,22.093,0,0,1-.357,9.364" transform="translate(-70.771 -10.306)"/><path d="M478.238,259.172a38.7,38.7,0,0,0-4.638.8c.357-1.605,3.211-.892,4.638-.8" transform="translate(-23.055 -27.604)"/><path d="M422,556.1c1.962.178,3.924.268,5.886.446-1.873-.178-3.924-.357-5.886-.446" transform="translate(-17.474 -59.745)"/><path d="M732.9,169.692c.624-1.427,1.249-2.765,1.873-4.192a5.037,5.037,0,0,1-1.873,4.192" transform="translate(-51.101 -17.498)"/><path d="M693.8,439.316v0" transform="translate(-46.872 -46.593)"/><path d="M412.324,319.589c-1.338,0-2.676-.089-3.924-.089,1.249,0,2.586,0,3.924.089" transform="translate(-16.003 -34.155)"/><path d="M586.3,315.64c2.141,0,1.962-.089,2.408-2.14l.535,2.943c-1.07-.268-1.962-.535-2.943-.8" transform="translate(-35.245 -33.506)"/><path d="M329.4,439h5.44a6.446,6.446,0,0,1-5.44,0" transform="translate(-7.459 -47.08)"/><path d="M614.011,329.489c-1.07,0-2.14-.089-3.211-.089,1.07,0,2.14,0,3.211.089" transform="translate(-37.895 -35.225)"/><path d="M436,399.6h0" transform="translate(-18.632 -42.818)"/><path d="M594.865,329.5H592.1c.981-.089,1.873,0,2.765,0" transform="translate(-35.872 -35.232)"/><path d="M651.8,421.4l2.765.357c-1.159.268-2.23.535-3.389.713-.357-.535-.178-.892.624-1.07" transform="translate(-42.243 -45.176)"/><path d="M496.7,570.7c1.427.089,2.854.268,4.281.357-1.427-.178-2.854-.268-4.281-.357" transform="translate(-25.554 -61.324)"/><path d="M456.792,151.251c-.178.446-.357.8-.535,1.249l-.357-3.3c.268.624.535,1.338.892,2.051" transform="translate(-21.141 -15.735)"/><path d="M578.8,530.3h4.37a4.266,4.266,0,0,1-4.37,0" transform="translate(-34.434 -56.955)"/><path d="M915.742,124.7c.089-.8-1.338-1.873.357-2.5a21.045,21.045,0,0,0-.357,2.5" transform="translate(-70.826 -12.815)"/><path d="M386.3,231.2c1.159.178,2.319.357,3.567.446-1.249-.089-2.408-.268-3.567-.446" transform="translate(-13.613 -24.604)"/><path d="M500.2,241.536a2.677,2.677,0,0,1,3.3.089c-1.159,0-2.23,0-3.3-.089" transform="translate(-25.932 -25.666)"/><path d="M677.5,248.77c1.07-.357,2.051-.714,3.121-1.07-.713,1.338-1.962,1.07-3.121,1.07" transform="translate(-45.109 -26.389)"/><path d="M687.4,413.557c1.249-.089,2.408-.268,3.657-.357Z" transform="translate(-46.18 -44.289)"/><path d="M577.364,482.9c-.357.535-.624,1.159-.981,1.695-.268-1.695-.268-1.695.981-1.695" transform="translate(-34.157 -51.828)"/><path d="M533.3,277.32c1.159-1.159,2.319-.535,3.478-.089-1.159.089-2.319.089-3.478.089" transform="translate(-29.512 -29.521)"/><path d="M564.7,283.876v0" transform="translate(-32.909 -30.012)"/><path d="M410.1,554.8c1.159.089,2.408.268,3.567.357-1.159-.089-2.408-.178-3.567-.357" transform="translate(-16.187 -59.605)"/><path d="M645.468,289.943,645.2,287l.268,2.943" transform="translate(-41.616 -30.64)"/><path d="M625.8,544.8h3.656a2.948,2.948,0,0,1-3.656,0" transform="translate(-39.517 -58.523)"/><path d="M551.2,531.336a2.553,2.553,0,0,1,3.211.089c-1.07,0-2.14,0-3.211-.089" transform="translate(-31.449 -57.01)"/><path d="M383.635,182.308c3.478,3.835,7.046,9.632,13.021,7.581-.981-2.319-2.765-5.262-2.319-7.848.535-2.943,2.5-2.586,4.281-.535,2.943,3.478,4.816,11.5,1.873,15.518-2.765,3.746-9.721,1.249-12.4-1.338-2.586-2.5-8.473-10.256-4.459-13.378" transform="translate(-13.178 -19.056)"/><path d="M418.81,187.532c1.249-1.249,4.1,0,4.727-2.14.624-2.5-5.708-1.249-6.154-4.281-.357-2.408,3.121-4.548,5.083-4.816,3.478-.446,5.619,2.586,6.778,5.44,2.5,6.243-.892,11.951-7.67,12.664-6.243.713-7.581-6.332-4.1-10.435.446,1.249.892,2.408,1.338,3.567" transform="translate(-16.781 -18.661)"/><path d="M386.719,158.4c2.854,0,4.994-.624,5.351,3.032.178,2.5-1.249,3.567-3.032,5.173a76.5,76.5,0,0,1-6.421,4.548c-1.249.892-3.032,3.746-4.727,3.746-4.1.089-3.657-7.4-2.854-9.721,1.695-4.727,7.224-6.154,11.683-6.778" transform="translate(-12.337 -16.725)"/><path d="M428.915,166.43c3.567,1.249,4.816,5.975,8.74,6.421-.446-2.14-3.567-12.664,1.605-9.81,3.924,2.14,4.816,10.791,3.567,14.359-4.192,11.683-17.837-3.3-13.913-10.97" transform="translate(-18.146 -17.18)"/><path d="M410.376,208.287c5.529.8,9.9,2.676,15.161.178,2.408-1.159,4.905-3.567,6.332-.268,1.07,2.408.178,4.905-1.427,6.778-4.905,5.8-22.3,2.408-20.066-6.689" transform="translate(-16.196 -21.936)"/><path d="M421.88,145.748c8.918,0,2.319,8.027-3.3,6.956a3.565,3.565,0,0,1-2.319-4.994c.446-1.159,5.619-3.3,5.619-1.962" transform="translate(-16.82 -15.316)"/><path d="M387.789,158.4c-1.159.178-2.319.357-3.389.446,1.159-.089,2.319-.268,3.389-.446" transform="translate(-13.408 -16.73)"/></g></svg>